<svg width="198" height="48" viewBox="0 0 198 48" fill="none" xmlns="http://www.w3.org/2000/svg">
<path d="M76.4932 31.1585C76.391 30.9543 76.3042 30.7194 76.2328 30.4539C76.1612 30.1884 76.1 29.9076 76.049 29.6115C75.8141 29.8668 75.5435 30.1068 75.2372 30.3314C74.9309 30.5561 74.5888 30.7551 74.2111 30.9287C73.8434 31.0922 73.435 31.2197 72.9857 31.3116C72.5365 31.4138 72.0514 31.4648 71.5307 31.4648C70.6832 31.4648 69.902 31.3422 69.1873 31.0973C68.4827 30.8522 67.8752 30.51 67.3646 30.071C66.8542 29.6319 66.4559 29.1113 66.17 28.5087C65.8841 27.8961 65.7412 27.2324 65.7412 26.5176C65.7412 24.7716 66.3896 23.4239 67.6864 22.4742C68.9933 21.5144 70.9385 21.0345 73.5218 21.0345H75.8957V20.0543C75.8957 19.2578 75.6355 18.6299 75.1147 18.1704C74.5939 17.7006 73.8434 17.4659 72.8632 17.4659C71.9953 17.4659 71.3623 17.6547 70.964 18.0326C70.5658 18.4001 70.3667 18.8954 70.3667 19.5182H66.1088C66.1088 18.8136 66.262 18.1448 66.5683 17.5118C66.8848 16.8786 67.3391 16.3222 67.9313 15.8422C68.5339 15.3624 69.2639 14.9846 70.1216 14.7089C70.9895 14.423 71.98 14.28 73.093 14.28C74.0936 14.28 75.0227 14.4026 75.8804 14.6476C76.7483 14.8927 77.4989 15.2551 78.1319 15.735C78.7651 16.215 79.2602 16.8225 79.6177 17.5577C79.975 18.2826 80.1536 19.125 80.1536 20.0849V27.1916C80.1536 28.0799 80.2099 28.8152 80.3222 29.3972C80.4344 29.9792 80.5979 30.4794 80.8123 30.8981V31.1585H76.4932ZM72.4343 28.1718C72.8632 28.1718 73.2614 28.1208 73.6289 28.0187C73.9966 27.9165 74.3284 27.7838 74.6246 27.6204C74.9207 27.4571 75.1759 27.2733 75.3904 27.069C75.6047 26.8547 75.7733 26.6402 75.8957 26.4258V23.577H73.7209C73.0571 23.577 72.4904 23.6433 72.0208 23.7761C71.5511 23.8986 71.1682 24.0773 70.8721 24.3122C70.576 24.5367 70.3564 24.8124 70.2134 25.1393C70.0705 25.4558 69.9991 25.8029 69.9991 26.1807C69.9991 26.7525 70.1981 27.2273 70.5964 27.6051C71.0048 27.983 71.6174 28.1718 72.4343 28.1718Z" fill="#342BDB"/>
<path d="M96.8788 14.28C97.5221 14.28 98.1144 14.326 98.6556 14.4179C99.207 14.4996 99.6511 14.5915 99.988 14.6936L99.3601 18.9362C98.7985 18.8034 98.2216 18.7064 97.6294 18.6452C97.0472 18.5736 96.4909 18.5379 95.9599 18.5379C94.7651 18.5379 93.8054 18.7677 93.0803 19.2272C92.3656 19.6866 91.8296 20.3453 91.4722 21.203V31.1585H87.2143V14.5864H91.1812L91.3804 17.2973C92.0542 16.3579 92.8609 15.6228 93.8003 15.0918C94.7396 14.5506 95.7658 14.28 96.8788 14.28Z" fill="#342BDB"/>
<path d="M114.416 25.9663L115.856 14.5865H119.761L116.79 31.1586H113.053L110.878 20.621L108.779 31.1586H105.042L102.071 14.5865H105.961L107.401 26.0123L109.484 14.5865H112.333L114.416 25.9663Z" fill="#342BDB"/>
<path d="M130.697 31.4648C129.421 31.4648 128.262 31.2555 127.22 30.8369C126.179 30.4182 125.285 29.8515 124.54 29.1368C123.795 28.4118 123.218 27.5643 122.809 26.5943C122.411 25.614 122.212 24.5675 122.212 23.4545V22.8417C122.212 21.5757 122.411 20.4218 122.809 19.3803C123.207 18.3287 123.764 17.4249 124.479 16.6694C125.193 15.9138 126.041 15.3267 127.021 14.908C128.001 14.4894 129.068 14.28 130.222 14.28C131.417 14.28 132.479 14.4791 133.408 14.8774C134.347 15.2653 135.139 15.8168 135.782 16.5315C136.436 17.2463 136.931 18.1091 137.268 19.1199C137.605 20.1206 137.773 21.2285 137.773 22.4436V24.2508H126.531C126.613 24.8124 126.776 25.3281 127.021 25.7978C127.276 26.2574 127.598 26.6555 127.986 26.9925C128.374 27.3294 128.818 27.5898 129.319 27.7736C129.819 27.9575 130.365 28.0493 130.957 28.0493C131.376 28.0493 131.79 28.0085 132.198 27.9267C132.617 27.8451 133.015 27.7277 133.393 27.5745C133.77 27.4112 134.123 27.212 134.45 26.9772C134.776 26.7423 135.062 26.4666 135.307 26.1501L137.436 28.4475C137.171 28.8254 136.824 29.198 136.395 29.5656C135.976 29.9229 135.476 30.2447 134.894 30.5306C134.322 30.8063 133.684 31.0308 132.979 31.2044C132.275 31.3781 131.514 31.4648 130.697 31.4648ZM130.192 17.7261C129.712 17.7261 129.273 17.813 128.874 17.9865C128.476 18.1499 128.124 18.3899 127.818 18.7063C127.521 19.023 127.271 19.4007 127.067 19.8398C126.863 20.2788 126.71 20.769 126.608 21.3102H133.592V20.9732C133.571 20.5239 133.485 20.1002 133.331 19.7019C133.178 19.3038 132.959 18.9616 132.673 18.6757C132.387 18.3797 132.035 18.1499 131.616 17.9865C131.208 17.813 130.733 17.7261 130.192 17.7261Z" fill="#342BDB"/>
<path d="M151.849 31.1585C151.747 30.9543 151.66 30.7194 151.588 30.4539C151.517 30.1884 151.456 29.9076 151.405 29.6115C151.169 29.8668 150.899 30.1068 150.593 30.3314C150.286 30.5561 149.944 30.7551 149.567 30.9287C149.198 31.0922 148.79 31.2197 148.342 31.3116C147.892 31.4138 147.407 31.4648 146.887 31.4648C146.039 31.4648 145.258 31.3422 144.542 31.0973C143.839 30.8522 143.231 30.51 142.72 30.071C142.21 29.6319 141.811 29.1113 141.526 28.5087C141.24 27.8961 141.097 27.2324 141.097 26.5176C141.097 24.7716 141.745 23.4239 143.042 22.4742C144.349 21.5144 146.294 21.0345 148.877 21.0345H151.252V20.0543C151.252 19.2578 150.991 18.6299 150.47 18.1704C149.95 17.7006 149.198 17.4659 148.219 17.4659C147.35 17.4659 146.717 17.6547 146.32 18.0326C145.921 18.4001 145.723 18.8954 145.723 19.5182H141.464C141.464 18.8136 141.617 18.1448 141.924 17.5118C142.24 16.8786 142.695 16.3222 143.287 15.8422C143.89 15.3624 144.619 14.9846 145.477 14.7089C146.345 14.423 147.335 14.28 148.448 14.28C149.449 14.28 150.379 14.4026 151.237 14.6476C152.104 14.8927 152.854 15.2551 153.487 15.735C154.121 16.215 154.616 16.8225 154.973 17.5577C155.33 18.2826 155.509 19.125 155.509 20.0849V27.1916C155.509 28.0799 155.566 28.8152 155.678 29.3972C155.791 29.9792 155.953 30.4794 156.167 30.8981V31.1585H151.849ZM147.79 28.1718C148.219 28.1718 148.616 28.1208 148.985 28.0187C149.353 27.9165 149.684 27.7838 149.98 27.6204C150.277 27.4571 150.532 27.2733 150.746 27.069C150.961 26.8547 151.129 26.6402 151.252 26.4258V23.577H149.077C148.412 23.577 147.847 23.6433 147.376 23.7761C146.906 23.8986 146.524 24.0773 146.228 24.3122C145.931 24.5367 145.712 24.8124 145.57 25.1393C145.426 25.4558 145.355 25.8029 145.355 26.1807C145.355 26.7525 145.553 27.2273 145.952 27.6051C146.36 27.983 146.974 28.1718 147.79 28.1718Z" fill="#342BDB"/>
<path d="M167.38 26.242L167.594 27.4367L167.809 26.288L171.454 14.5865H175.895L169.6 31.1586H165.602L159.277 14.5865H163.718L167.38 26.242Z" fill="#342BDB"/>
<path d="M187.214 31.4648C185.938 31.4648 184.778 31.2555 183.737 30.8369C182.695 30.4182 181.802 29.8515 181.057 29.1368C180.311 28.4118 179.734 27.5643 179.326 26.5943C178.928 25.614 178.729 24.5675 178.729 23.4545V22.8417C178.729 21.5757 178.928 20.4218 179.326 19.3803C179.725 18.3287 180.281 17.4249 180.995 16.6694C181.711 15.9138 182.558 15.3267 183.538 14.908C184.519 14.4894 185.585 14.28 186.739 14.28C187.934 14.28 188.995 14.4791 189.925 14.8774C190.864 15.2653 191.656 15.8168 192.299 16.5315C192.952 17.2463 193.447 18.1091 193.784 19.1199C194.122 20.1206 194.29 21.2285 194.29 22.4436V24.2508H183.047C183.13 24.8124 183.293 25.3281 183.538 25.7978C183.793 26.2574 184.115 26.6555 184.502 26.9925C184.891 27.3294 185.335 27.5898 185.836 27.7736C186.335 27.9575 186.881 28.0493 187.474 28.0493C187.892 28.0493 188.306 28.0085 188.714 27.9267C189.133 27.8451 189.532 27.7277 189.91 27.5745C190.288 27.4112 190.639 27.212 190.966 26.9772C191.293 26.7423 191.579 26.4666 191.824 26.1501L193.952 28.4475C193.687 28.8254 193.34 29.198 192.911 29.5656C192.493 29.9229 191.992 30.2447 191.41 30.5306C190.838 30.8063 190.201 31.0308 189.496 31.2044C188.791 31.3781 188.03 31.4648 187.214 31.4648ZM186.709 17.7261C186.229 17.7261 185.789 17.813 185.392 17.9865C184.993 18.1499 184.64 18.3899 184.334 18.7063C184.039 19.023 183.788 19.4007 183.584 19.8398C183.38 20.2788 183.226 20.769 183.124 21.3102H190.108V20.9732C190.088 20.5239 190.001 20.1002 189.848 19.7019C189.695 19.3038 189.475 18.9616 189.19 18.6757C188.903 18.3797 188.551 18.1499 188.132 17.9865C187.724 17.813 187.249 17.7261 186.709 17.7261Z" fill="#342BDB"/>
<path fill-rule="evenodd" clip-rule="evenodd" d="M4.27182 23.9877C4.27182 12.5303 13.5599 3.24219 25.0174 3.24219C36.4748 3.24219 45.7629 12.5303 45.7629 23.9877C45.7629 35.4452 36.4748 44.7333 25.0174 44.7333C13.5599 44.7333 4.27182 35.4452 4.27182 23.9877ZM25.0174 0.742188C12.1792 0.742188 1.77182 11.1496 1.77182 23.9877C1.77182 36.8259 12.1792 47.2333 25.0174 47.2333C37.8555 47.2333 48.2629 36.8259 48.2629 23.9877C48.2629 11.1496 37.8555 0.742188 25.0174 0.742188ZM28.8514 31.1992C28.9261 31.4769 29.0168 31.7226 29.1236 31.9362H33.6419V31.6638C33.4175 31.2259 33.2467 30.7026 33.1292 30.0937C33.0116 29.4849 32.953 28.7158 32.953 27.7866V20.3523C32.953 19.3483 32.7661 18.4671 32.3921 17.7087C32.0183 16.9396 31.5002 16.3041 30.838 15.802C30.1757 15.3001 29.3908 14.9209 28.4828 14.6645C27.5855 14.4082 26.6135 14.28 25.5668 14.28C24.4025 14.28 23.3665 14.4296 22.4585 14.7286C21.5614 15.0171 20.7976 15.4122 20.1674 15.9142C19.5479 16.4163 19.0726 16.9984 18.7414 17.6607C18.421 18.3229 18.2608 19.0225 18.2608 19.7595H22.7149C22.7149 19.108 22.9232 18.5899 23.3398 18.2053C23.7563 17.8102 24.4186 17.6125 25.3265 17.6125C26.3519 17.6125 27.137 17.8582 27.6817 18.3496C28.2265 18.8302 28.4989 19.4871 28.4989 20.3203V21.3457H26.0155C23.3131 21.3457 21.2783 21.8478 19.9111 22.8517C18.5545 23.8452 17.8763 25.255 17.8763 27.0816C17.8763 27.8293 18.0257 28.5235 18.3248 29.1645C18.6239 29.7946 19.0405 30.3394 19.5746 30.7987C20.1086 31.258 20.7442 31.6158 21.4813 31.8721C22.2289 32.1285 23.0461 32.2567 23.9326 32.2567C24.4774 32.2567 24.9847 32.2032 25.4546 32.0964C25.9246 32.0004 26.3519 31.8667 26.7364 31.6959C27.1316 31.5144 27.4894 31.306 27.8099 31.071C28.1303 30.8361 28.4134 30.585 28.6591 30.318C28.7125 30.6277 28.7765 30.9214 28.8514 31.1992ZM26.1275 28.6518C25.7431 28.7586 25.3265 28.812 24.8779 28.812C24.0233 28.812 23.3825 28.6143 22.9552 28.2192C22.5386 27.8239 22.3304 27.3273 22.3304 26.7291C22.3304 26.3338 22.4051 25.9707 22.5547 25.6396C22.7042 25.2978 22.9339 25.0093 23.2436 24.7744C23.5534 24.5287 23.9539 24.3418 24.4453 24.2136C24.9367 24.0748 25.5295 24.0054 26.2237 24.0054H28.4989V26.9854C28.3706 27.2097 28.1944 27.4341 27.9701 27.6583C27.7457 27.8719 27.4787 28.0642 27.169 28.2351C26.8592 28.4061 26.5121 28.5448 26.1275 28.6518Z" fill="#342BDB"/>
</svg>
