<svg width="181" height="44" viewBox="0 0 181 44" fill="none" xmlns="http://www.w3.org/2000/svg">
<mask id="mask0" mask-type="alpha" maskUnits="userSpaceOnUse" x="0" y="0" width="44" height="44">
<path fill-rule="evenodd" clip-rule="evenodd" d="M0 0H44V44H0V0Z" fill="#FB923C"/>
</mask>
<g mask="url(#mask0)">
<path fill-rule="evenodd" clip-rule="evenodd" d="M22 44.0001C9.9 44.0001 0 34.1001 0 21.8901C0.11 9.79006 9.9 -0.109947 22.11 5.34013e-05C34.21 0.110053 44 9.90006 44 22.2201C43.89 34.2101 34.1 44.0001 22 44.0001Z" fill="#342BDB"/>
<path fill-rule="evenodd" clip-rule="evenodd" d="M24.09 19.3599L23.43 22.8799L29.7 23.76L29.26 25.41L23.1 24.5299C22.66 25.9599 22.44 27.5 21.89 28.82C21.34 30.36 20.79 31.9 20.13 33.33C19.25 35.2 17.71 36.52 15.62 36.85C14.41 37.07 13.09 36.96 12.1 36.19C11.77 35.97 11.44 35.53 11.44 35.2C11.44 34.76 11.66 34.21 11.99 33.99C12.21 33.88 12.76 33.99 13.09 34.1C13.42 34.43 13.75 34.87 13.97 35.3099C14.63 36.19 15.51 36.3 16.39 35.64C17.38 34.76 17.93 33.55 18.26 32.34C18.92 29.7 19.58 27.17 20.13 24.5299V24.0899L14.3 23.2099L14.52 21.5599L20.57 22.4399L21.34 19.0299L15.07 18.0399L15.29 16.2799L21.78 17.1599C22 16.4999 22.11 15.9499 22.33 15.3999C22.88 13.4199 23.43 11.4399 24.75 9.67995C26.07 7.91995 27.61 6.81995 29.92 6.92995C30.91 6.92995 31.9 7.25995 32.56 8.02995C32.67 8.13995 32.89 8.35995 32.89 8.57995C32.89 9.01995 32.89 9.56995 32.56 9.89995C32.12 10.2299 31.57 10.1199 31.13 9.67995C30.8 9.34995 30.58 9.01995 30.25 8.68995C29.59 7.80995 28.6 7.69995 27.83 8.46995C27.28 9.01995 26.73 9.78995 26.4 10.5599C25.63 12.8699 25.08 15.2899 24.31 17.7099L30.36 18.5899L29.92 20.2399L24.09 19.3599Z" fill="white"/>
</g>
<path d="M62.8751 14.4091V20.6978H72.4234V23.7598H62.8751V33.1106H59.3521V11.38H75.0574V14.4091H62.8751Z" fill="#342BDB"/>
<path d="M80.7643 13.8823C80.0179 13.8823 79.4363 13.6957 79.0192 13.3226C78.6022 12.9275 78.3936 12.3787 78.3936 11.6763C78.3936 10.9739 78.6022 10.4361 79.0192 10.063C79.4363 9.68982 80.0179 9.50324 80.7643 9.50324C81.5106 9.50324 82.0813 9.68982 82.4764 10.063C82.8934 10.4361 83.1019 10.9739 83.1019 11.6763C83.1019 12.3787 82.8934 12.9275 82.4764 13.3226C82.0813 13.6957 81.5106 13.8823 80.7643 13.8823ZM82.5093 33.1106H78.9863V16.648H82.5093V33.1106Z" fill="#342BDB"/>
<path d="M91.4456 28.3035C91.4456 29.1157 91.5664 29.6864 91.8078 30.0156C92.0493 30.3229 92.4992 30.4766 93.1577 30.4766C93.5748 30.4766 93.926 30.4546 94.2114 30.4107C94.5187 30.3449 94.8918 30.2241 95.3308 30.0485L94.9357 32.8801C94.1894 33.2533 93.2785 33.4398 92.2029 33.4398C90.7323 33.4398 89.6457 33.0667 88.9433 32.3204C88.2629 31.5741 87.9226 30.3997 87.9226 28.7974V9.23984H91.4456V28.3035Z" fill="#342BDB"/>
<path d="M112.996 24.3854C112.996 25.022 112.952 25.6256 112.864 26.1963H100.814C101.011 27.645 101.527 28.7535 102.361 29.5217C103.195 30.268 104.271 30.6412 105.588 30.6412C106.663 30.6412 107.552 30.4546 108.255 30.0815C108.979 29.6864 109.473 29.1266 109.736 28.4023L112.667 29.6205C111.437 32.1667 109.078 33.4398 105.588 33.4398C102.998 33.4398 100.967 32.6826 99.4966 31.168C98.0479 29.6534 97.3236 27.5572 97.3236 24.8793C97.3236 22.1794 98.026 20.0832 99.4308 18.5906C100.836 17.076 102.811 16.3187 105.357 16.3187C107.772 16.3187 109.649 17.0541 110.988 18.5247C112.326 19.9954 112.996 21.949 112.996 24.3854ZM105.357 19.1174C104.084 19.1174 103.053 19.4905 102.262 20.2368C101.494 20.9831 101.011 22.0697 100.814 23.4964H109.703C109.528 22.1136 109.056 21.038 108.288 20.2698C107.541 19.5015 106.565 19.1174 105.357 19.1174Z" fill="#342BDB"/>
<path d="M124.653 16.3187C128.253 16.3187 130.635 17.8553 131.798 20.9283L128.506 22.2453C127.935 20.16 126.651 19.1174 124.653 19.1174C123.183 19.1174 122.041 19.6222 121.229 20.6319C120.417 21.6417 120.011 23.0684 120.011 24.9122C120.011 26.756 120.417 28.1718 121.229 29.1596C122.041 30.1473 123.183 30.6412 124.653 30.6412C125.773 30.6412 126.673 30.3668 127.353 29.8181C128.034 29.2693 128.484 28.4791 128.703 27.4475L131.93 28.534C131.447 30.0705 130.591 31.2778 129.362 32.1558C128.132 33.0118 126.585 33.4398 124.719 33.4398C122.129 33.4398 120.099 32.6826 118.628 31.168C117.179 29.6534 116.455 27.5572 116.455 24.8793C116.455 22.2014 117.179 20.1051 118.628 18.5906C120.077 17.076 122.085 16.3187 124.653 16.3187Z" fill="#342BDB"/>
<path d="M143.302 16.3187C145.87 16.3187 147.879 17.076 149.328 18.5906C150.776 20.1051 151.501 22.2014 151.501 24.8793C151.501 27.5572 150.776 29.6534 149.328 31.168C147.879 32.6826 145.87 33.4398 143.302 33.4398C140.734 33.4398 138.726 32.6826 137.277 31.168C135.828 29.6534 135.104 27.5572 135.104 24.8793C135.104 22.2014 135.828 20.1051 137.277 18.5906C138.726 17.076 140.734 16.3187 143.302 16.3187ZM143.302 19.0845C141.81 19.0845 140.657 19.5893 139.845 20.599C139.055 21.5868 138.66 23.0135 138.66 24.8793C138.66 26.7451 139.055 28.1828 139.845 29.1925C140.657 30.1802 141.81 30.6741 143.302 30.6741C144.795 30.6741 145.947 30.1693 146.759 29.1596C147.572 28.1499 147.978 26.7231 147.978 24.8793C147.978 23.0355 147.572 21.6087 146.759 20.599C145.947 19.5893 144.795 19.0845 143.302 19.0845Z" fill="#342BDB"/>
<path d="M157.804 13.8823C157.058 13.8823 156.476 13.6957 156.059 13.3226C155.642 12.9275 155.433 12.3787 155.433 11.6763C155.433 10.9739 155.642 10.4361 156.059 10.063C156.476 9.68982 157.058 9.50324 157.804 9.50324C158.55 9.50324 159.121 9.68982 159.516 10.063C159.933 10.4361 160.142 10.9739 160.142 11.6763C160.142 12.3787 159.933 12.9275 159.516 13.3226C159.121 13.6957 158.55 13.8823 157.804 13.8823ZM159.549 33.1106H156.026V16.648H159.549V33.1106Z" fill="#342BDB"/>
<path d="M173.918 16.3187C175.74 16.3187 177.222 16.8456 178.363 17.8992C179.526 18.9528 180.108 20.4673 180.108 22.4428V33.1106H176.585V23.5623C176.585 20.6649 175.411 19.2162 173.062 19.2162C171.833 19.2162 170.779 19.6442 169.901 20.5002C169.023 21.3344 168.584 22.6294 168.584 24.3854V33.1106H165.061V16.648H168.189L168.354 19.3808C168.902 18.3491 169.66 17.5809 170.626 17.076C171.591 16.5712 172.689 16.3187 173.918 16.3187Z" fill="#342BDB"/>
</svg>
