<svg width="169" height="46" viewBox="0 0 169 46" fill="none" xmlns="http://www.w3.org/2000/svg">
<path fill-rule="evenodd" clip-rule="evenodd" d="M17.9639 14.9915L18.0056 15.1075C18.1873 15.6362 18.5242 16.0979 18.9724 16.4321C19.4205 16.7664 19.959 16.9577 20.5176 16.9812C21.0762 17.0047 21.6288 16.8591 22.1034 16.5636C22.578 16.2681 22.9525 15.8364 23.1779 15.3248L28.2371 3.90586C28.4636 3.39209 28.5294 2.8218 28.4259 2.26994C28.3223 1.71807 28.0542 1.21046 27.6568 0.81379C27.3383 0.495704 26.9474 0.259626 26.5176 0.12581C26.0879 -0.00800665 25.6321 -0.035567 25.1893 0.0454931C24.7465 0.126553 24.3301 0.313814 23.9756 0.59121C23.6211 0.868606 23.3392 1.22786 23.1541 1.63814L18.0592 12.9469C17.7682 13.5915 17.7342 14.3227 17.9639 14.9915ZM26.4603 12.5157C26.604 12.1909 26.8132 11.8992 27.0749 11.659C27.3366 11.4188 27.6451 11.2353 27.9811 11.12L34.2932 8.95644C34.7498 8.79959 35.2414 8.77417 35.7118 8.88309C36.1822 8.99201 36.6125 9.23088 36.9537 9.57247L37.0371 9.6558C37.3496 9.96761 37.5768 10.3545 37.6969 10.7793C37.817 11.2041 37.8259 11.6527 37.7228 12.082C37.6198 12.5112 37.4082 12.9068 37.1083 13.2308C36.8084 13.5548 36.4304 13.7964 36.0103 13.9323L29.6179 16.0155C29.1437 16.17 28.6349 16.1837 28.1531 16.055C27.6713 15.9264 27.2371 15.6608 26.9031 15.2906C26.569 14.9203 26.3494 14.4612 26.2708 13.9687C26.1923 13.4763 26.2581 12.9716 26.4603 12.5157ZM31.8498 16.9674L31.9659 16.9287C32.6355 16.6982 33.368 16.7323 34.0134 17.024L45.3222 22.1219C45.7327 22.3068 46.0923 22.5886 46.3698 22.9432C46.6473 23.2978 46.8345 23.7145 46.9153 24.1575C46.9961 24.6005 46.9681 25.0565 46.8337 25.4862C46.6992 25.916 46.4624 26.3066 46.1436 26.6246C45.7467 27.0217 45.2387 27.2892 44.6867 27.3917C44.1347 27.4943 43.5645 27.427 43.0515 27.1989L31.6326 22.1397C31.1222 21.9132 30.6918 21.5384 30.3973 21.064C30.1028 20.5896 29.9579 20.0375 29.9813 19.4797C30.0047 18.9218 30.1955 18.3839 30.5287 17.9358C30.8619 17.4878 31.3223 17.1504 31.8498 16.9674ZM34.5105 25.5057C34.8354 25.6498 35.1273 25.8591 35.3679 26.1207C35.6085 26.3823 35.7928 26.6906 35.9092 27.0265L38.0727 33.3296C38.2289 33.7864 38.2539 34.2777 38.1451 34.748C38.0362 35.2182 37.7977 35.6486 37.4567 35.9902L37.3734 36.0735C37.0617 36.384 36.6759 36.6096 36.2525 36.7289C35.8291 36.8482 35.3822 36.8573 34.9543 36.7554C34.5264 36.6534 34.1317 36.4437 33.8076 36.1462C33.4836 35.8487 33.241 35.4734 33.1028 35.0557L31.0196 28.6633C30.8665 28.1901 30.8534 27.6828 30.9818 27.2024C31.1103 26.7219 31.3748 26.2889 31.7436 25.9553C32.1124 25.6217 32.5698 25.4017 33.0607 25.322C33.5515 25.2422 34.055 25.306 34.5105 25.5057ZM29.9363 30.8925L29.975 31.0056C30.2074 31.6745 30.1755 32.4069 29.8857 33.0531L24.7878 44.3619C24.6027 44.7722 24.3208 45.1314 23.9663 45.4088C23.6119 45.6862 23.1954 45.8735 22.7526 45.9545C22.3099 46.0356 21.8541 46.008 21.4243 45.8742C20.9945 45.7404 20.6036 45.5043 20.2852 45.1862C19.8881 44.7887 19.6208 44.2802 19.5182 43.7277C19.4157 43.1753 19.4828 42.6048 19.7108 42.0912L24.77 30.6723C24.9977 30.1639 25.3728 29.7356 25.8467 29.4428C26.3205 29.15 26.8713 29.0062 27.4279 29.0299C27.9844 29.0536 28.521 29.2438 28.9682 29.5759C29.4154 29.908 29.7527 30.3666 29.9363 30.8925ZM21.3982 33.5438C21.2545 33.869 21.0448 34.161 20.7826 34.4012C20.5203 34.6414 20.2111 34.8247 19.8745 34.9395L13.5654 37.1031C13.1062 37.2628 12.6113 37.2898 12.1375 37.1808C11.6637 37.0718 11.2302 36.8313 10.887 36.487L10.8067 36.4037C10.4972 36.0909 10.2729 35.704 10.1553 35.28C10.0377 34.8559 10.0306 34.4088 10.1347 33.9813C10.2389 33.5537 10.4507 33.1599 10.7502 32.8375C11.0496 32.515 11.4266 32.2746 11.8453 32.1391L18.2377 30.0559C18.7106 29.9038 19.2173 29.8912 19.6971 30.0197C20.1769 30.1482 20.6095 30.4123 20.943 30.7804C21.2765 31.1485 21.4969 31.6049 21.5776 32.095C21.6583 32.5851 21.5961 33.0881 21.3982 33.5438ZM16.0711 29.05L15.9551 29.0887C15.2867 29.3194 14.5555 29.2864 13.9106 28.9964L2.60177 23.9015C2.19148 23.7164 1.83223 23.4345 1.55483 23.08C1.27744 22.7255 1.09018 22.3091 1.00912 21.8663C0.928056 21.4235 0.955616 20.9677 1.08943 20.538C1.22325 20.1082 1.45933 19.7173 1.77741 19.3988C2.1734 19.0003 2.68106 18.7315 3.23321 18.6279C3.78535 18.5242 4.35595 18.5907 4.86948 18.8185L16.2884 23.8777C16.8 24.1031 17.2318 24.4776 17.5273 24.9522C17.8228 25.4268 17.9683 25.9794 17.9448 26.538C17.9214 27.0966 17.73 27.6351 17.3957 28.0832C17.0615 28.5314 16.5999 28.8683 16.0711 29.05ZM13.3599 20.6009C13.037 20.4559 12.7473 20.2461 12.5087 19.9845C12.2702 19.7229 12.0879 19.4151 11.9731 19.0802L9.80064 12.7711C9.64122 12.3119 9.61446 11.817 9.72342 11.3433C9.83237 10.8695 10.0726 10.4361 10.4167 10.0927L10.5 10.0094C10.8125 9.69772 11.1996 9.47134 11.6244 9.35181C12.0492 9.23228 12.4976 9.22357 12.9267 9.32653C13.3559 9.42949 13.7515 9.64067 14.0758 9.93994C14.4002 10.2392 14.6424 10.6166 14.7795 11.0361L16.8627 17.4285C17.0216 17.9039 17.0386 18.4153 16.9117 18.9002C16.7847 19.3851 16.5192 19.8225 16.1477 20.159C15.7762 20.4955 15.3147 20.7165 14.8196 20.795C14.3245 20.8735 13.8173 20.806 13.3599 20.6009ZM103.461 21.5981C103.652 21.3616 103.856 21.136 104.072 20.9225C104.807 20.1708 105.687 19.5768 106.659 19.1767C107.631 18.7766 108.675 18.5787 109.726 18.5953C110.025 18.5986 110.323 18.6205 110.619 18.6608V22.1665C110.325 22.1083 110.026 22.0785 109.726 22.0772C109.131 22.0675 108.539 22.1794 107.989 22.4061C107.438 22.6328 106.94 22.9695 106.524 23.3956C106.099 23.8036 105.763 24.2943 105.536 24.8374C105.309 25.3805 105.195 25.9644 105.202 26.5531V34.5377H101.72V26.5531C101.715 25.778 101.51 25.0173 101.125 24.3444C100.74 23.6714 100.189 23.1088 99.5235 22.7106C98.8584 22.3124 98.102 22.0921 97.3271 22.0708C96.5522 22.0496 95.7849 22.228 95.0989 22.5891V34.5377H91.617V18.5268H95.0989V18.8929C96.4547 18.5098 97.8883 18.496 99.2513 18.8529C100.614 19.2097 101.857 19.9242 102.851 20.9225C103.066 21.1368 103.27 21.3623 103.461 21.5981ZM58.0566 11.4261H61.5385L61.5296 31.0558H71.9456V34.5377H59.7976C59.3394 34.5264 58.9031 34.3394 58.579 34.0153C58.255 33.6912 58.0679 33.2549 58.0566 32.7968V11.4261ZM84.9983 18.4733H88.4743L88.4713 26.4043V26.5501V34.5348H84.9894V26.5501C84.9967 25.9615 84.8832 25.3775 84.6559 24.8345C84.4287 24.2914 84.0925 23.8006 83.6681 23.3926C82.8232 22.5487 81.6779 22.0746 80.4837 22.0746C79.2896 22.0746 78.1443 22.5487 77.2994 23.3926C76.8739 23.7993 76.5367 24.2893 76.3088 24.832C76.081 25.3747 75.9674 25.9586 75.9751 26.5472C75.9749 27.4438 76.2411 28.3203 76.74 29.0653C77.2389 29.8104 77.9479 30.3903 78.7771 30.7316C79.6063 31.0728 80.5182 31.1599 81.3969 30.9819C82.2757 30.8038 83.0818 30.3686 83.7127 29.7315L83.7454 33.8443C82.7268 34.2998 81.6234 34.535 80.5076 34.5348C79.4564 34.5513 78.4129 34.3535 77.4407 33.9534C76.4685 33.5533 75.5881 32.9592 74.8531 32.2075C74.108 31.4686 73.5166 30.5894 73.113 29.6207C72.7094 28.652 72.5016 27.613 72.5016 26.5635C72.5016 25.5141 72.7094 24.4751 73.113 23.5064C73.5166 22.5377 74.108 21.6585 74.8531 20.9196C75.5881 20.1679 76.4685 19.5738 77.4407 19.1737C78.4129 18.7736 79.4564 18.5758 80.5076 18.5923C82.1109 18.5672 83.6817 19.046 84.9983 19.9613V18.4733ZM122.419 19.2917C123.435 18.8286 124.54 18.591 125.656 18.5953C126.708 18.5787 127.751 18.7766 128.723 19.1767C129.695 19.5768 130.576 20.1708 131.311 20.9225C132.069 21.6483 132.669 22.5227 133.074 23.491C133.478 24.4594 133.678 25.5008 133.662 26.5501C133.664 28.0023 133.27 29.4275 132.524 30.6732C131.778 31.919 130.707 32.9382 129.426 33.6219C128.144 34.3056 126.701 34.6279 125.251 34.5544C123.801 34.4809 122.398 34.0142 121.192 33.2045V34.5824H117.717V27.4251C117.69 27.1275 117.672 26.8299 117.672 26.5323V11.4261H121.154V18.1816H121.192V27.1275C121.307 28.2901 121.869 29.3627 122.76 30.119C123.65 30.8753 124.799 31.2562 125.965 31.1813C127.131 31.1064 128.222 30.5816 129.009 29.7176C129.795 28.8536 130.215 27.7179 130.18 26.5501C130.188 25.9619 130.074 25.3783 129.847 24.8356C129.62 24.293 129.283 23.8028 128.859 23.3956C128.443 22.969 127.945 22.6321 127.394 22.4053C126.843 22.1786 126.252 22.0669 125.656 22.0772C125.053 22.07 124.454 22.1868 123.897 22.4202C123.34 22.6536 122.837 22.9987 122.419 23.4343V19.2917ZM168.6 18.1816V26.3984C168.603 26.449 168.609 26.4996 168.6 26.5501V34.5526V34.5883H165.115V26.5531C165.123 25.9648 165.01 25.3813 164.782 24.8386C164.555 24.296 164.219 23.8058 163.794 23.3986C162.949 22.5544 161.803 22.0803 160.608 22.0803C159.413 22.0803 158.268 22.5544 157.422 23.3986C156.998 23.8058 156.661 24.296 156.434 24.8386C156.207 25.3813 156.093 25.9648 156.101 26.5531C156.099 27.4504 156.365 28.3279 156.863 29.0739C157.362 29.8198 158.071 30.4005 158.901 30.742C159.731 31.0835 160.644 31.1703 161.523 30.9914C162.402 30.8125 163.208 30.376 163.839 29.7374L163.874 33.8503C162.856 34.3055 161.752 34.5407 160.636 34.5407C159.585 34.5573 158.542 34.3595 157.57 33.9593C156.597 33.5592 155.717 32.9652 154.982 32.2135C154.238 31.4739 153.647 30.5945 153.245 29.6259C152.842 28.6573 152.634 27.6186 152.634 26.5695C152.634 25.5204 152.842 24.4817 153.245 23.5131C153.647 22.5445 154.238 21.6651 154.982 20.9255C155.718 20.1747 156.598 19.5812 157.57 19.1811C158.542 18.781 159.585 18.5828 160.636 18.5983C162.24 18.5735 163.81 19.0523 165.127 19.9672V18.1816H168.6ZM147.063 26.7823V18.1816V11.4588H150.536V26.568C150.536 26.629 150.532 26.6893 150.528 26.7495C150.525 26.8098 150.521 26.8701 150.521 26.9311V34.5734H147.045V33.1896C145.843 34.0072 144.441 34.4813 142.989 34.561C141.537 34.6406 140.091 34.3227 138.807 33.6415C137.523 32.9603 136.449 31.9416 135.7 30.6952C134.952 29.4488 134.558 28.0218 134.561 26.568C134.559 25.2395 134.889 23.9315 135.522 22.7635C136.155 21.5955 137.071 20.6046 138.185 19.8811C139.299 19.1577 140.577 18.7248 141.902 18.6218C143.226 18.5188 144.556 18.7491 145.768 19.2917V23.4224C145.35 22.9959 144.852 22.6564 144.302 22.4235C143.752 22.1907 143.162 22.0691 142.565 22.0658C141.967 22.0625 141.376 22.1775 140.823 22.4042C140.271 22.6309 139.769 22.9648 139.346 23.3867C138.509 24.2358 138.04 25.3802 138.04 26.5725C138.04 27.7647 138.509 28.9091 139.346 29.7583C139.963 30.3829 140.749 30.8138 141.608 30.9983C142.466 31.1828 143.36 31.1127 144.179 30.7968C144.998 30.4809 145.707 29.9328 146.22 29.2197C146.732 28.5066 147.025 27.6595 147.063 26.7823ZM111.824 22.5891V18.8929V18.5268H115.306V34.5377H111.824V22.5891Z" fill="#342BDB"/>
</svg>
