<svg width="110" height="48" viewBox="0 0 110 48" fill="none" xmlns="http://www.w3.org/2000/svg">
<path fill-rule="evenodd" clip-rule="evenodd" d="M105.094 31.7311V24.5371C105.094 20.4992 101.864 17.1424 97.8265 17.1225C93.77 17.1025 90.4655 20.4068 90.4855 24.4635C90.5055 28.5013 93.8622 31.7311 97.9002 31.7311H105.094ZM97.7897 12.2529C104.513 12.2529 109.964 17.7031 109.964 24.4267V36.6005H97.7897C91.0661 36.6005 85.6159 31.1501 85.6159 24.4267C85.6159 17.7031 91.0661 12.2529 97.7897 12.2529Z" fill="#342BDB"/>
<path fill-rule="evenodd" clip-rule="evenodd" d="M78.3118 36.6002H83.1812V12.2524H78.3118V36.6002Z" fill="#342BDB"/>
<path fill-rule="evenodd" clip-rule="evenodd" d="M83.1812 7.38347C83.1812 8.72818 82.0911 9.81826 80.7464 9.81826C79.4018 9.81826 78.3118 8.72818 78.3118 7.38347C78.3118 6.03875 79.4018 4.94867 80.7464 4.94867C82.0911 4.94867 83.1812 6.03875 83.1812 7.38347Z" fill="#342BDB"/>
<path fill-rule="evenodd" clip-rule="evenodd" d="M59.8089 29.055C60.6908 30.0484 61.7738 30.8679 63.0569 31.514C64.3404 32.1603 65.5796 32.4873 66.7755 32.4961C68.0631 32.5059 69.123 32.2036 69.9548 31.589C70.787 30.9746 71.2055 30.3176 71.2102 29.6171C71.2155 28.8855 70.9664 28.2949 70.4638 27.8451C69.961 27.3962 69.2499 27.0888 68.3315 26.9224L65.6217 26.3772C62.6208 25.782 60.542 24.9634 59.3842 23.92C58.2257 22.8776 57.6534 21.4808 57.6656 19.7302C57.6799 17.662 58.4809 15.8933 60.0705 14.4254C61.6592 12.9573 63.7876 12.233 66.455 12.2528C68.0184 12.2644 69.5033 12.5307 70.9103 13.0499C72.3166 13.5696 73.7675 14.3919 75.2624 15.5166L73.8618 17.2893L72.5251 18.9812C71.4582 18.0185 70.4211 17.3425 69.4118 16.9532C68.4027 16.5638 67.4537 16.3656 66.5647 16.359C65.4609 16.3509 64.5005 16.6065 63.6849 17.1256C62.8687 17.6446 62.4579 18.3501 62.4518 19.2407C62.443 20.5139 63.4031 21.3326 65.3319 21.6967L70.1542 22.6872C74.0728 23.4803 76.0211 25.5472 75.9981 28.889C75.992 29.7802 75.8019 30.6775 75.4276 31.5817C75.0534 32.486 74.4802 33.3253 73.7089 34.0991C72.9367 34.8738 71.9438 35.487 70.7297 35.9387C69.5153 36.3909 68.1113 36.6117 66.5174 36.5996C62.8995 36.5728 59.5666 35.196 56.5201 32.4678L59.8089 29.055Z" fill="#342BDB"/>
<path fill-rule="evenodd" clip-rule="evenodd" d="M47.7675 23.9999C47.7675 37.0669 37.1749 47.6595 24.1079 47.6595C11.0408 47.6595 0.448212 37.0669 0.448212 23.9999C0.448212 10.9328 11.0408 0.34021 24.1079 0.34021C37.1749 0.34021 47.7675 10.9328 47.7675 23.9999Z" fill="white"/>
<path fill-rule="evenodd" clip-rule="evenodd" d="M23.8328 0.00158616C19.0386 0.0556662 14.578 1.52367 10.8477 4.00575L11.7258 5.11775C15.3506 2.73263 19.6988 1.36111 24.3645 1.41327C36.4082 1.54783 46.2957 11.2186 46.6842 23.2566C47.105 36.2983 36.4058 46.9975 23.3642 46.5763C11.3263 46.1877 1.6557 36.3 1.52114 24.2565C1.46914 19.5907 2.84066 15.2427 5.22547 11.6179L4.11363 10.7398C1.63138 14.4701 0.163543 18.9307 0.109462 23.725C-0.0385377 36.8418 10.4149 47.6975 23.5549 47.9938C37.2378 48.3024 48.4105 37.1298 48.1018 23.4469C47.8052 10.3069 36.9495 -0.146574 23.8328 0.00158616Z" fill="#342BDB"/>
<path fill-rule="evenodd" clip-rule="evenodd" d="M9.99033 7.52941C9.99033 8.82894 8.93689 9.88238 7.63737 9.88238C6.33785 9.88238 5.28441 8.82894 5.28441 7.52941C5.28441 6.22989 6.33785 5.17645 7.63737 5.17645C8.93689 5.17645 9.99033 6.22989 9.99033 7.52941Z" fill="#342BDB"/>
<path fill-rule="evenodd" clip-rule="evenodd" d="M31.1667 24.0003V31.0592H24.1079C20.2094 31.0592 17.049 27.8988 17.049 24.0003C17.049 20.1018 20.2094 16.9415 24.1079 16.9415C28.0063 16.9415 31.1667 20.1018 31.1667 24.0003ZM24.1969 12.236C17.6586 12.1875 12.3431 17.4731 12.3431 24.0003C12.3431 30.4978 17.6103 35.765 24.1079 35.765H35.8726V24.148C35.8726 17.661 30.6838 12.284 24.1969 12.236Z" fill="#342BDB"/>
</svg>
