<svg width="121" height="48" viewBox="0 0 121 48" fill="none" xmlns="http://www.w3.org/2000/svg">
<g clip-path="url(#clip0)">
<path fill-rule="evenodd" clip-rule="evenodd" d="M17.3149 30.7367L17.2776 30.7369C16.0519 30.7369 14.9039 30.3949 13.9323 29.8019C11.2045 31.3837 9.15367 32.5659 7.77981 33.3485C7.50015 33.5075 7.40643 33.6879 7.40922 34.0069C7.42685 35.7922 6.06959 37.2232 4.28606 37.2365C2.25232 37.2517 0.994796 35.5483 1.0739 33.8854C1.14226 32.4657 2.3583 30.8315 4.35786 30.8827C4.95889 30.8988 5.50812 31.1058 6.0238 31.4172C6.13343 31.4834 6.34302 31.4961 6.45093 31.4349C6.69246 31.2973 6.93387 31.1596 7.17517 31.0216L7.17828 31.043L12.1506 28.1721C11.4121 27.1694 10.976 25.9391 10.976 24.6039C10.976 22.8763 11.7062 21.3238 12.8776 20.2129L8.60931 17.7442L8.58345 17.7892C7.89921 17.3933 7.21551 16.9966 6.53283 16.5982C6.3112 16.4689 6.16159 16.4797 5.94533 16.6171C4.02875 17.8355 1.48835 16.7081 1.10958 14.4808C0.812511 12.7366 1.95524 11.1072 3.75489 10.8109C5.58936 10.5093 7.10914 11.8099 7.35569 13.3647C7.36213 13.4053 7.36992 13.4462 7.37774 13.4873C7.40284 13.6192 7.42823 13.7525 7.40986 13.8789C7.34968 14.2949 7.5238 14.5145 7.88471 14.7193C9.27049 15.5064 10.6514 16.3021 12.0322 17.0978C13.0493 17.6839 14.0665 18.27 15.0856 18.8526C15.3441 18.7592 15.6104 18.6818 15.8834 18.6218C16.9495 17.066 18.6312 15.9925 20.5391 15.676V9.56387H20.4927C20.494 8.758 20.4959 7.9521 20.4984 7.14617C20.4993 6.8812 20.3647 6.7885 20.1717 6.68311C18.915 5.99594 18.3942 4.77215 18.4988 3.67053C18.6349 2.24285 19.4086 1.26189 20.7965 0.838828C22.3215 0.374048 23.9474 1.15843 24.5839 2.62676C25.2151 4.0824 24.6908 5.78947 23.3113 6.58245C22.9266 6.80356 22.8308 7.04165 22.8329 7.45245C22.8448 9.67128 22.8436 11.8903 22.8424 14.1092C22.8422 14.6283 22.8419 15.1473 22.8418 15.6664C24.9939 16.0051 26.8278 17.301 27.8554 19.1021L33.6872 15.7226L33.6867 15.7218C34.3238 15.3553 34.9613 14.9896 35.5991 14.6244C35.8464 14.4829 35.9233 14.3248 35.9207 14.0476C35.9025 12.4201 36.8971 11.1821 38.4803 10.8313C40.2845 10.4317 42.0908 11.8091 42.2449 13.6516C42.3865 15.35 41.2348 16.7889 39.6456 17.0676C38.8292 17.2107 38.051 17.0632 37.3568 16.5971C37.1622 16.4663 37.0275 16.4682 36.8292 16.5828C36.5763 16.7296 36.3234 16.8763 36.0706 17.0229L31.4953 19.6645C30.8068 20.0605 30.1181 20.4558 29.4291 20.8506C29.3938 20.871 29.3625 20.8912 29.3352 20.9117L29.3151 20.9234C30.8859 21.8419 31.9444 23.5222 31.9444 25.4583C31.9444 26.4337 31.6747 27.347 31.2044 28.1306L31.7706 28.458C31.8079 28.51 31.8669 28.5572 31.9519 28.6054C33.5814 29.5335 35.2041 30.4734 36.823 31.4197C37.0381 31.5458 37.1838 31.5118 37.3855 31.3874C39.2986 30.205 41.6671 31.1922 42.1883 33.3799C42.6233 35.2055 41.295 37.0109 39.4203 37.2103C37.5108 37.4139 35.8731 35.8787 35.9225 33.9993C35.9307 33.675 35.8238 33.5017 35.5469 33.3449C35.3983 33.2605 35.2498 33.176 35.1012 33.0913L35.1231 33.0743L29.553 29.8459C28.8435 30.3117 28.0148 30.6167 27.1208 30.7081C27.0022 30.7271 26.8816 30.7369 26.7603 30.7369H22.8866V31.229C22.8537 31.2818 22.837 31.3537 22.837 31.4546C22.8442 34.5947 22.8436 37.7355 22.837 40.8762C22.8363 41.1008 22.9371 41.203 23.1198 41.2963C24.4664 41.9889 24.97 43.3717 24.83 44.4194C24.6233 45.9641 23.6577 46.9682 22.1878 47.2554C20.5193 47.5819 18.7903 46.3104 18.5302 44.6265C18.306 43.1772 19.1279 41.8219 20.2168 41.2967C20.4247 41.1971 20.4964 41.0673 20.4962 40.839C20.4905 37.6055 20.4898 34.3728 20.4969 31.1391C20.4969 31.0977 20.4967 30.9636 20.496 30.7369H17.3243L17.3149 30.7367ZM40.7026 17.8527C40.7019 17.5877 40.7825 17.4462 41.0149 17.3073C42.2739 16.5519 42.9264 15.4312 42.9648 13.9274C42.9591 13.8597 42.9557 13.7889 42.9521 13.7164C42.9439 13.5474 42.9351 13.3687 42.8975 13.1963C42.3264 10.547 39.4817 9.26382 37.1357 10.6027C36.8886 10.7429 36.7161 10.7373 36.4788 10.5992C33.0248 8.596 29.5684 6.59622 26.1024 4.61192C25.7272 4.39728 25.5496 4.19274 25.5496 3.71032C25.5496 3.55538 25.5318 3.46069 25.5133 3.36245C25.5055 3.32104 25.4976 3.279 25.4909 3.23156C25.2408 1.49158 23.5919 0.0361618 21.8297 0.000889203C19.5686 -0.0449215 17.7843 1.68473 17.7785 3.94411C17.7779 4.19876 17.6936 4.34135 17.4776 4.46567C13.9056 6.52009 10.3363 8.57923 6.76993 10.6442C6.58464 10.7511 6.44942 10.7547 6.26735 10.6382C5.4836 10.1375 4.61 9.97228 3.70416 10.1011C2.01414 10.342 0.715564 11.5746 0.430953 13.2548C0.144412 14.9461 0.846259 16.4525 2.33809 17.3196C2.56359 17.4505 2.62764 17.5963 2.62743 17.8428C2.62097 21.945 2.61925 26.0469 2.63 30.1497C2.63044 30.4368 2.52424 30.5765 2.2895 30.7152C0.803481 31.5901 0.127647 33.1434 0.440414 34.8046C0.936111 37.4344 3.91504 38.7838 6.2523 37.3761C6.44771 37.2578 6.59989 37.2587 6.79358 37.3715C10.3705 39.4408 13.949 41.507 17.5304 43.5683C17.7168 43.6764 17.7748 43.8047 17.78 44.0145C17.7869 44.3239 17.8095 44.6401 17.8765 44.9425C18.3142 46.9094 20.1052 48.183 22.131 47.9785C24.033 47.787 25.5555 46.0695 25.5519 44.0957C25.5513 43.8136 25.6418 43.6608 25.8833 43.5217C29.416 41.492 32.9446 39.4546 36.4693 37.4118C36.7045 37.2763 36.8812 37.2492 37.1321 37.4028C37.955 37.9079 38.8644 38.0505 39.8033 37.8714C41.4229 37.5636 42.6731 36.2782 42.9239 34.7132C43.1856 33.0802 42.4485 31.5266 40.9919 30.6844C40.7659 30.5542 40.7032 30.4057 40.7036 30.1592C40.7098 26.0577 40.7105 21.9551 40.7026 17.8527ZM39.0888 33.1658C38.5751 33.1646 38.2 33.544 38.2 34.0665C38.2002 34.5769 38.5942 34.9767 39.0962 34.9767C39.565 34.9758 40.0153 34.5257 40.01 34.0602C40.005 33.5767 39.5835 33.1684 39.0888 33.1658ZM21.6674 2.99046C21.1579 2.99089 20.7636 3.38125 20.7617 3.88711C20.7602 4.36867 21.1831 4.79409 21.669 4.79882C22.1472 4.80485 22.5721 4.37426 22.5709 3.88733C22.5689 3.37953 22.1776 2.99003 21.6674 2.99046ZM4.23318 34.9767C4.73253 34.9808 5.12999 34.5801 5.13192 34.0702C5.13387 33.5476 4.7607 33.1661 4.24758 33.1658C3.75231 33.1658 3.32067 33.5817 3.32304 34.0566C3.32518 34.5319 3.76134 34.9722 4.23318 34.9767ZM22.5706 44.1268C22.573 43.6225 22.1863 43.2352 21.6772 43.2317C21.1662 43.2279 20.7676 43.6088 20.7617 44.1086C20.7561 44.6113 21.1474 45.0014 21.659 45.004C22.1749 45.0073 22.5673 44.6289 22.5706 44.1268ZM3.32325 13.9603C3.33852 14.459 3.74177 14.8352 4.25768 14.8306C4.77983 14.8259 5.13988 14.4549 5.13192 13.9287C5.12441 13.4049 4.75553 13.0508 4.22459 13.0588C3.71598 13.0662 3.30798 13.4742 3.32325 13.9603ZM38.2 13.9303C38.1949 14.4567 38.5561 14.8283 39.0777 14.832C39.5901 14.8356 39.9961 14.4547 40.0082 13.9596C40.0203 13.4709 39.6151 13.0665 39.106 13.0595C38.5751 13.0526 38.2052 13.4079 38.2 13.9303ZM13.1654 24.6039C13.1654 26.7818 15.0065 28.5474 17.2776 28.5474C17.2912 28.5474 17.3049 28.5474 17.3186 28.5471C17.3205 28.5474 17.3223 28.5474 17.3243 28.5474H17.3243H26.7603C26.7737 28.5474 26.7863 28.5443 26.7974 28.5387C28.4513 28.4199 29.7549 27.0861 29.7549 25.4583C29.7549 23.7523 28.323 22.3692 26.5566 22.3692H26.5483C26.5119 19.8222 24.3636 17.7684 21.7187 17.7684C19.7014 17.7684 17.9728 18.9633 17.25 20.6604C14.9917 20.6747 13.1654 22.4347 13.1654 24.6039ZM111.947 19.8105H116.743V25.9556C116.743 27.6457 115.993 28.376 114.784 28.376C113.763 28.376 112.95 27.8334 112.117 26.9153L110.095 29.1688C111.095 30.3581 112.596 31.3596 114.867 31.3596C117.951 31.3596 120.037 29.6487 120.037 26.1017V16.5456H116.743H111.947V19.8105ZM57.274 31.3596C60.4218 31.3596 62.6315 29.7337 62.6315 26.8361V26.7944C62.6315 24.2512 60.9638 23.1881 58.0036 22.4168C55.4812 21.7706 54.8558 21.4579 54.8558 20.4989V20.4572C54.8558 19.7485 55.502 19.1857 56.732 19.1857C57.962 19.1857 59.2336 19.7276 60.5261 20.6241L62.1938 18.2059C60.7136 17.0177 58.9001 16.3507 56.7737 16.3507C53.7926 16.3507 51.6662 18.1017 51.6662 20.7491V20.7908C51.6662 23.6883 53.5633 24.5013 56.5026 25.2517C58.9417 25.8771 59.442 26.294 59.442 27.1071V27.1488C59.442 28.0034 58.6499 28.5246 57.3365 28.5246C55.6687 28.5246 54.2929 27.8367 52.9795 26.7527L51.0825 29.0249C52.8337 30.5883 55.0643 31.3596 57.274 31.3596ZM71.8379 19.5112H76.2761V16.5456H64.1909V19.5112H68.6291V31.1646H71.8379V19.5112ZM85.3434 31.4084C89.8564 31.4084 93.1368 28.0073 93.1368 23.8552V23.8134C93.1368 19.6613 89.8982 16.302 85.3852 16.302C80.8721 16.302 77.5919 19.7029 77.5919 23.8552V23.8968C77.5919 28.0491 80.8303 31.4084 85.3434 31.4084ZM89.7744 23.8552V23.8967C89.7744 26.3953 87.9769 28.4358 85.3852 28.4358C82.7935 28.4358 80.9542 26.3536 80.9542 23.8552V23.8135C80.9542 21.3149 82.7517 19.2744 85.3434 19.2744C87.9351 19.2744 89.7744 21.3566 89.7744 23.8552ZM104.732 31.1646H108.487L104.92 25.9435C106.776 25.2544 108.049 23.7716 108.049 21.4116V21.3698C108.049 18.3626 105.984 16.5456 102.541 16.5456H95.8657V31.1646H99.0783V26.4866H101.603L104.732 31.1646ZM104.783 21.5543V21.5961C104.783 22.8262 103.889 23.6602 102.328 23.6602H99.0819V19.4694H102.265C103.826 19.4694 104.783 20.1782 104.783 21.5543Z" fill="#342BDB"/>
</g>
<defs>
<clipPath id="clip0">
<rect width="120" height="48" fill="white" transform="translate(0.60498)"/>
</clipPath>
</defs>
</svg>
