<svg width="410" height="447" viewBox="0 0 410 447" fill="none" xmlns="http://www.w3.org/2000/svg">
<path d="M279.5 223.5C279.5 275.233 271.671 322.046 259.029 355.908C252.707 372.84 245.192 386.509 236.872 395.934C228.552 405.361 219.47 410.5 210 410.5C200.53 410.5 191.448 405.361 183.128 395.934C174.808 386.509 167.293 372.84 160.971 355.908C148.329 322.046 140.5 275.233 140.5 223.5C140.5 171.767 148.329 124.954 160.971 91.0924C167.293 74.1596 174.808 60.4915 183.128 51.0656C191.448 41.6389 200.53 36.5 210 36.5C219.47 36.5 228.552 41.6389 236.872 51.0656C245.192 60.4915 252.707 74.1596 259.029 91.0924C271.671 124.954 279.5 171.767 279.5 223.5Z" stroke="#2B21ED"/>
<path d="M279.5 223.5C279.5 275.233 271.671 322.046 259.029 355.908C252.707 372.84 245.192 386.509 236.872 395.934C228.552 405.361 219.47 410.5 210 410.5C200.53 410.5 191.448 405.361 183.128 395.934C174.808 386.509 167.293 372.84 160.971 355.908C148.329 322.046 140.5 275.233 140.5 223.5C140.5 171.767 148.329 124.954 160.971 91.0924C167.293 74.1596 174.808 60.4915 183.128 51.0656C191.448 41.6389 200.53 36.5 210 36.5C219.47 36.5 228.552 41.6389 236.872 51.0656C245.192 60.4915 252.707 74.1596 259.029 91.0924C271.671 124.954 279.5 171.767 279.5 223.5Z" stroke="url(#paint0_linear)"/>
<path d="M244.75 283.689C199.948 309.555 155.492 326.181 119.846 332.164C102.021 335.156 86.4265 335.482 74.1035 332.989C61.7796 330.497 52.7881 325.201 48.0532 317C43.3184 308.799 43.2278 298.364 47.2312 286.445C51.2344 274.527 59.3137 261.184 70.8171 247.243C93.8213 219.364 130.448 189.178 175.25 163.311C220.052 137.445 264.508 120.819 300.154 114.836C317.979 111.844 333.573 111.518 345.896 114.011C358.22 116.503 367.212 121.799 371.947 130C376.682 138.201 376.772 148.636 372.769 160.555C368.766 172.473 360.686 185.816 349.183 199.757C326.179 227.636 289.552 257.822 244.75 283.689Z" stroke="#2B21ED"/>
<path d="M244.75 283.689C199.948 309.555 155.492 326.181 119.846 332.164C102.021 335.156 86.4265 335.482 74.1035 332.989C61.7796 330.497 52.7881 325.201 48.0532 317C43.3184 308.799 43.2278 298.364 47.2312 286.445C51.2344 274.527 59.3137 261.184 70.8171 247.243C93.8213 219.364 130.448 189.178 175.25 163.311C220.052 137.445 264.508 120.819 300.154 114.836C317.979 111.844 333.573 111.518 345.896 114.011C358.22 116.503 367.212 121.799 371.947 130C376.682 138.201 376.772 148.636 372.769 160.555C368.766 172.473 360.686 185.816 349.183 199.757C326.179 227.636 289.552 257.822 244.75 283.689Z" stroke="url(#paint1_linear)"/>
<path d="M175.25 283.689C130.448 257.822 93.8214 227.636 70.8171 199.757C59.3137 185.816 51.2344 172.473 47.2312 160.555C43.2278 148.636 43.3184 138.201 48.0532 130C52.7881 121.799 61.7796 116.503 74.1035 114.011C86.4265 111.518 102.021 111.844 119.846 114.836C155.492 120.819 199.948 137.445 244.75 163.311C289.552 189.178 326.179 219.365 349.183 247.243C360.686 261.184 368.766 274.527 372.769 286.445C376.772 298.364 376.682 308.799 371.947 317C367.212 325.201 358.22 330.497 345.896 332.989C333.573 335.482 317.979 335.156 300.154 332.164C264.508 326.181 220.052 309.555 175.25 283.689Z" stroke="#2B21ED"/>
<path d="M175.25 283.689C130.448 257.822 93.8214 227.636 70.8171 199.757C59.3137 185.816 51.2344 172.473 47.2312 160.555C43.2278 148.636 43.3184 138.201 48.0532 130C52.7881 121.799 61.7796 116.503 74.1035 114.011C86.4265 111.518 102.021 111.844 119.846 114.836C155.492 120.819 199.948 137.445 244.75 163.311C289.552 189.178 326.179 219.365 349.183 247.243C360.686 261.184 368.766 274.527 372.769 286.445C376.772 298.364 376.682 308.799 371.947 317C367.212 325.201 358.22 330.497 345.896 332.989C333.573 335.482 317.979 335.156 300.154 332.164C264.508 326.181 220.052 309.555 175.25 283.689Z" stroke="url(#paint2_linear)"/>
<circle cx="210" cy="411" r="36" fill="url(#paint3_linear)"/>
<path fill-rule="evenodd" clip-rule="evenodd" d="M210 435C196.8 435 186 424.2 186 410.88C186.12 397.681 196.8 386.881 210.12 387.001C223.319 387.121 233.999 397.801 233.999 411.24C233.879 424.32 223.199 435 210 435Z" fill="#342BDB"/>
<path fill-rule="evenodd" clip-rule="evenodd" d="M216.671 399L219.479 400.576V403.727L216.671 405.302L216.663 405.298V402.151L213.863 400.58V400.576L216.671 399ZM209.944 399.586L215.625 402.774V409.15L209.944 412.337L204.263 409.15V402.774L209.944 399.586ZM209.362 413.437L203.681 410.249L198 413.437V419.812L203.681 423L209.362 419.812V413.437ZM222 413.437L216.319 410.249L210.638 413.437V419.812L216.319 423L222 419.812V413.437Z" fill="white"/>
<circle cx="210" cy="36" r="36" fill="url(#paint4_linear)"/>
<path fill-rule="evenodd" clip-rule="evenodd" d="M210 60C196.8 60 186 49.2002 186 35.8805C186.12 22.6808 196.8 11.881 210.12 12.001C223.319 12.121 233.999 22.8008 233.999 36.2405C233.879 49.3202 223.199 60 210 60Z" fill="#2B21ED"/>
<path fill-rule="evenodd" clip-rule="evenodd" d="M211.667 34.4557L211.267 36.5657L215.067 37.0932L214.8 38.0823L211.067 37.5548C210.8 38.412 210.667 39.3352 210.333 40.1264C210 41.0496 209.667 41.9727 209.267 42.8299C208.733 43.9509 207.8 44.7422 206.533 44.94C205.8 45.0719 205 45.0059 204.4 44.5444C204.2 44.4125 204 44.1487 204 43.9509C204 43.6872 204.133 43.3575 204.333 43.2256C204.467 43.1596 204.8 43.2256 205 43.2915C205.2 43.4893 205.4 43.7531 205.533 44.0168C205.933 44.5444 206.467 44.6103 207 44.2147C207.6 43.6872 207.933 42.9618 208.133 42.2365C208.533 40.6539 208.933 39.1373 209.267 37.5548V37.291L205.733 36.7635L205.867 35.7744L209.533 36.302L210 34.2578L206.2 33.6644L206.333 32.6094L210.267 33.1369C210.4 32.7412 210.467 32.4115 210.6 32.0818C210.933 30.8949 211.267 29.708 212.067 28.653C212.867 27.598 213.8 26.9386 215.2 27.0045C215.8 27.0045 216.4 27.2023 216.8 27.6639C216.867 27.7299 217 27.8617 217 27.9936C217 28.2574 217 28.5871 216.8 28.7849C216.533 28.9827 216.2 28.9168 215.933 28.653C215.733 28.4552 215.6 28.2574 215.4 28.0596C215 27.532 214.4 27.4661 213.933 27.9277C213.6 28.2574 213.267 28.7189 213.067 29.1805C212.6 30.5652 212.267 32.0159 211.8 33.4666L215.467 33.9941L215.2 34.9832L211.667 34.4557Z" fill="white"/>
<circle cx="367" cy="129" r="36" fill="url(#paint5_linear)"/>
<circle cx="53" cy="129" r="36" fill="url(#paint6_linear)"/>
<path fill-rule="evenodd" clip-rule="evenodd" d="M367 153C353.8 153 343 142.2 343 128.88C343.12 115.681 353.8 104.881 367.12 105.001C380.319 105.121 390.999 115.801 390.999 129.24C390.879 142.32 380.199 153 367 153Z" fill="#342BDB"/>
<path fill-rule="evenodd" clip-rule="evenodd" d="M363.891 124.882L363.87 124.822C363.75 124.473 363.768 124.091 363.919 123.755L366.578 117.855C366.674 117.641 366.821 117.453 367.006 117.308C367.191 117.164 367.408 117.066 367.639 117.024C367.87 116.981 368.108 116.996 368.333 117.066C368.557 117.135 368.761 117.259 368.927 117.425C369.134 117.632 369.274 117.896 369.328 118.184C369.382 118.472 369.348 118.77 369.23 119.038L366.59 124.996C366.472 125.262 366.277 125.488 366.029 125.642C365.782 125.796 365.494 125.872 365.202 125.86C364.911 125.848 364.63 125.748 364.396 125.573C364.162 125.399 363.986 125.158 363.891 124.882ZM368.623 123.083C368.487 123.208 368.378 123.36 368.303 123.53C368.197 123.768 368.163 124.031 368.204 124.288C368.245 124.545 368.359 124.785 368.534 124.978C368.708 125.171 368.934 125.309 369.186 125.377C369.437 125.444 369.703 125.437 369.95 125.356L373.285 124.269C373.504 124.198 373.702 124.072 373.858 123.903C374.015 123.734 374.125 123.528 374.179 123.304C374.232 123.08 374.228 122.846 374.165 122.624C374.103 122.402 373.984 122.2 373.821 122.038L373.777 121.994C373.599 121.816 373.375 121.691 373.129 121.635C372.884 121.578 372.628 121.591 372.389 121.673L369.096 122.802C368.921 122.862 368.76 122.958 368.623 123.083ZM371.175 125.832L371.115 125.853C370.839 125.948 370.599 126.124 370.425 126.358C370.251 126.592 370.152 126.872 370.14 127.163C370.127 127.454 370.203 127.742 370.357 127.99C370.51 128.237 370.735 128.433 371.001 128.551L376.959 131.191C377.227 131.31 377.524 131.345 377.812 131.291C378.1 131.238 378.365 131.098 378.572 130.891C378.738 130.725 378.862 130.521 378.932 130.297C379.002 130.073 379.017 129.835 378.975 129.604C378.933 129.373 378.835 129.155 378.69 128.97C378.545 128.785 378.358 128.638 378.144 128.542L372.243 125.882C371.907 125.73 371.524 125.712 371.175 125.832ZM372.95 130.628C372.824 130.492 372.672 130.382 372.503 130.307C372.265 130.203 372.002 130.17 371.746 130.211C371.49 130.253 371.252 130.368 371.059 130.542C370.867 130.716 370.729 130.942 370.662 131.193C370.595 131.443 370.601 131.708 370.681 131.955L371.768 135.29C371.84 135.508 371.967 135.704 372.136 135.859C372.305 136.014 372.511 136.123 372.734 136.177C372.958 136.23 373.191 136.225 373.412 136.163C373.632 136.101 373.834 135.983 373.996 135.821L374.04 135.777C374.218 135.599 374.342 135.375 374.399 135.129C374.456 134.884 374.443 134.628 374.361 134.389L373.232 131.101C373.172 130.926 373.076 130.765 372.95 130.628ZM370.136 133.177L370.116 133.118C370.02 132.843 369.844 132.604 369.611 132.431C369.378 132.258 369.098 132.158 368.807 132.146C368.517 132.134 368.23 132.209 367.982 132.361C367.735 132.514 367.54 132.738 367.421 133.003L364.781 138.961C364.662 139.229 364.627 139.526 364.681 139.814C364.734 140.103 364.874 140.368 365.081 140.575C365.247 140.741 365.451 140.865 365.675 140.934C365.899 141.004 366.137 141.019 366.368 140.976C366.599 140.934 366.816 140.836 367.001 140.692C367.186 140.547 367.333 140.359 367.43 140.145L370.09 134.245C370.241 133.908 370.258 133.526 370.136 133.177ZM365.34 134.948C365.477 134.823 365.587 134.671 365.662 134.501C365.765 134.263 365.797 134.001 365.755 133.745C365.713 133.49 365.598 133.251 365.424 133.059C365.25 132.867 365.024 132.729 364.774 132.662C364.524 132.595 364.259 132.602 364.013 132.681L360.677 133.768C360.459 133.839 360.262 133.964 360.106 134.133C359.95 134.301 359.839 134.506 359.785 134.729C359.731 134.952 359.734 135.186 359.796 135.407C359.857 135.628 359.974 135.83 360.135 135.993L360.177 136.037C360.356 136.216 360.583 136.342 360.83 136.399C361.077 136.456 361.335 136.441 361.575 136.358L364.867 135.229C365.042 135.169 365.203 135.074 365.34 134.948ZM362.822 132.177L362.882 132.157C363.158 132.062 363.399 131.886 363.573 131.652C363.748 131.418 363.848 131.137 363.86 130.846C363.872 130.554 363.796 130.266 363.642 130.019C363.488 129.771 363.262 129.576 362.996 129.458L357.038 126.818C356.77 126.7 356.472 126.665 356.184 126.719C355.896 126.773 355.631 126.913 355.425 127.121C355.259 127.287 355.135 127.491 355.066 127.715C354.996 127.94 354.981 128.178 355.024 128.409C355.066 128.64 355.164 128.857 355.308 129.042C355.453 129.227 355.641 129.374 355.855 129.47L361.755 132.129C362.091 132.28 362.473 132.297 362.822 132.177ZM361.024 127.427C361.148 127.563 361.299 127.673 361.468 127.748C361.706 127.855 361.971 127.89 362.229 127.85C362.487 127.809 362.728 127.693 362.922 127.518C363.116 127.342 363.254 127.114 363.321 126.861C363.387 126.608 363.378 126.341 363.295 126.093L362.208 122.758C362.137 122.539 362.01 122.342 361.841 122.186C361.672 122.03 361.466 121.92 361.242 121.866C361.018 121.812 360.784 121.817 360.562 121.879C360.34 121.942 360.139 122.06 359.975 122.222L359.932 122.266C359.753 122.445 359.627 122.671 359.57 122.918C359.513 123.165 359.527 123.424 359.611 123.663L360.744 126.955C360.804 127.13 360.899 127.29 361.024 127.427Z" fill="white"/>
<path fill-rule="evenodd" clip-rule="evenodd" d="M52.9995 153C39.7998 153 29 142.2 29 128.88C29.12 115.681 39.7998 104.881 53.1195 105.001C66.3192 105.121 76.999 115.801 76.999 129.24C76.879 142.32 66.1992 153 52.9995 153Z" fill="#342BDB"/>
<path fill-rule="evenodd" clip-rule="evenodd" d="M52.9995 153C39.7998 153 29 142.2 29 128.88C29.12 115.681 39.7998 104.881 53.1195 105.001C66.3192 105.121 76.999 115.801 76.999 129.24C76.879 142.32 66.1992 153 52.9995 153Z" fill="url(#paint7_linear)"/>
<path fill-rule="evenodd" clip-rule="evenodd" d="M52.8624 117.001C50.4653 117.028 48.235 117.762 46.3699 119.003L46.8089 119.559C48.6213 118.366 50.7954 117.681 53.1283 117.707C59.1501 117.774 64.0938 122.609 64.2881 128.628C64.4985 135.149 59.1489 140.499 52.6281 140.288C46.6092 140.094 41.7739 135.15 41.7066 129.128C41.6806 126.795 42.3664 124.621 43.5588 122.809L43.0029 122.37C41.7617 124.235 41.0278 126.465 41.0008 128.862C40.9268 135.421 46.1535 140.849 52.7235 140.997C59.5649 141.151 65.1512 135.565 64.9969 128.723C64.8486 122.153 59.4207 116.927 52.8624 117.001Z" fill="white"/>
<path fill-rule="evenodd" clip-rule="evenodd" d="M45.9412 120.765C45.9412 121.414 45.4145 121.941 44.7647 121.941C44.115 121.941 43.5882 121.414 43.5882 120.765C43.5882 120.115 44.115 119.588 44.7647 119.588C45.4145 119.588 45.9412 120.115 45.9412 120.765Z" fill="white"/>
<path fill-rule="evenodd" clip-rule="evenodd" d="M56.5293 129V132.53H53C51.0507 132.53 49.4705 130.949 49.4705 129C49.4705 127.051 51.0507 125.471 53 125.471C54.9492 125.471 56.5293 127.051 56.5293 129ZM53.0444 123.118C49.7753 123.094 47.1176 125.737 47.1176 129C47.1176 132.249 49.7512 134.882 53 134.882H58.8823V129.074C58.8823 125.83 56.2879 123.142 53.0444 123.118Z" fill="white"/>
<circle cx="367" cy="311" r="36" fill="url(#paint8_linear)"/>
<circle cx="53" cy="311" r="36" fill="url(#paint9_linear)"/>
<path fill-rule="evenodd" clip-rule="evenodd" d="M367 335C353.8 335 343 324.2 343 310.88C343.12 297.681 353.8 286.881 367.12 287.001C380.319 287.121 390.999 297.801 390.999 311.24C390.879 324.32 380.199 335 367 335Z" fill="#342BDB"/>
<path fill-rule="evenodd" clip-rule="evenodd" d="M356.5 310.605C356.5 305.024 361.024 300.5 366.605 300.5C372.185 300.5 376.709 305.024 376.709 310.605C376.709 316.185 372.185 320.709 366.605 320.709C361.024 320.709 356.5 316.185 356.5 310.605ZM366.605 298C359.643 298 354 303.643 354 310.605C354 317.566 359.643 323.209 366.605 323.209C373.566 323.209 379.209 317.566 379.209 310.605C379.209 303.643 373.566 298 366.605 298ZM368.584 314.327C368.622 314.471 368.669 314.598 368.724 314.708H371.057V314.567C370.941 314.341 370.853 314.071 370.792 313.757C370.732 313.443 370.701 313.045 370.701 312.566V308.728C370.701 308.21 370.605 307.755 370.412 307.363C370.219 306.966 369.951 306.638 369.609 306.379C369.268 306.12 368.862 305.924 368.394 305.792C367.93 305.659 367.429 305.593 366.888 305.593C366.287 305.593 365.752 305.671 365.284 305.825C364.821 305.974 364.426 306.178 364.101 306.437C363.781 306.696 363.536 306.997 363.365 307.339C363.199 307.68 363.117 308.042 363.117 308.422H365.416C365.416 308.086 365.524 307.818 365.739 307.62C365.954 307.416 366.296 307.314 366.764 307.314C367.294 307.314 367.699 307.44 367.98 307.694C368.261 307.942 368.402 308.281 368.402 308.712V309.241H367.12C365.725 309.241 364.675 309.5 363.969 310.018C363.268 310.531 362.918 311.259 362.918 312.202C362.918 312.588 362.995 312.946 363.15 313.277C363.304 313.602 363.519 313.884 363.795 314.121C364.071 314.358 364.399 314.543 364.779 314.675C365.165 314.807 365.587 314.873 366.045 314.873C366.326 314.873 366.588 314.846 366.83 314.791C367.073 314.741 367.294 314.672 367.492 314.584C367.696 314.49 367.881 314.383 368.046 314.261C368.212 314.14 368.358 314.01 368.485 313.873C368.512 314.032 368.545 314.184 368.584 314.327ZM367.178 313.012C366.979 313.068 366.764 313.095 366.533 313.095C366.092 313.095 365.761 312.993 365.54 312.789C365.325 312.585 365.218 312.329 365.218 312.02C365.218 311.816 365.256 311.628 365.333 311.457C365.411 311.281 365.529 311.132 365.689 311.011C365.849 310.884 366.056 310.788 366.309 310.721C366.563 310.65 366.869 310.614 367.227 310.614H368.402V312.152C368.336 312.268 368.245 312.384 368.129 312.5C368.013 312.61 367.875 312.709 367.715 312.797C367.556 312.886 367.376 312.957 367.178 313.012Z" fill="white"/>
<path fill-rule="evenodd" clip-rule="evenodd" d="M52.9995 335C39.7998 335 29 324.2 29 310.88C29.12 297.681 39.7998 286.881 53.1195 287.001C66.3192 287.121 76.999 297.801 76.999 311.24C76.879 324.32 66.1992 335 52.9995 335Z" fill="#342BDB"/>
<path d="M50.4561 314.368C50.4623 314.368 50.4685 314.368 50.4747 314.368C50.4762 314.368 50.4778 314.368 50.4794 314.368H52.0653C52.0656 314.482 52.0657 314.549 52.0657 314.57C52.0622 316.186 52.0625 317.803 52.0654 319.42C52.0655 319.534 52.0296 319.599 51.9256 319.648C51.3812 319.911 50.9703 320.589 51.0824 321.313C51.2124 322.155 52.0769 322.791 52.9112 322.628C53.6461 322.484 54.1289 321.982 54.2323 321.21C54.3023 320.686 54.0505 319.994 53.3772 319.648C53.2858 319.602 53.2354 319.55 53.2358 319.438C53.2391 317.868 53.2394 316.297 53.2358 314.727C53.2358 314.677 53.2441 314.641 53.2606 314.615V314.368H55.1974C55.2581 314.368 55.3184 314.364 55.3777 314.354C55.8247 314.308 56.239 314.156 56.5938 313.923L59.3788 315.537L59.3679 315.546C59.4422 315.588 59.5164 315.63 59.5907 315.672C59.7292 315.751 59.7826 315.838 59.7785 316C59.7538 316.939 60.5727 317.707 61.5274 317.605C62.4648 317.505 63.1289 316.603 62.9115 315.69C62.6508 314.596 61.4666 314.103 60.51 314.694C60.4092 314.756 60.3363 314.773 60.2288 314.71C59.4193 314.237 58.608 313.767 57.7932 313.303C57.7507 313.279 57.7212 313.255 57.7026 313.229L57.4195 313.065C57.6546 312.674 57.7895 312.217 57.7895 311.729C57.7895 310.761 57.2602 309.921 56.4748 309.462L56.4849 309.456C56.4985 309.446 56.5142 309.436 56.5318 309.425C56.8763 309.228 57.2207 309.03 57.5649 308.832L59.8526 307.511C59.979 307.438 60.1054 307.365 60.2319 307.291C60.331 307.234 60.3984 307.233 60.4957 307.299C60.8428 307.532 61.2319 307.605 61.6401 307.534C62.4347 307.394 63.0106 306.675 62.9397 305.826C62.8627 304.905 61.9595 304.216 61.0574 304.416C60.2658 304.591 59.7685 305.21 59.7776 306.024C59.7789 306.162 59.7405 306.241 59.6168 306.312C59.2979 306.495 58.9792 306.678 58.6606 306.861L58.6609 306.861L55.745 308.551C55.2312 307.65 54.3142 307.003 53.2382 306.833C53.2384 305.464 53.2411 304.095 53.2337 302.726C53.2327 302.521 53.2806 302.402 53.4729 302.291C54.1627 301.895 54.4248 301.041 54.1092 300.313C53.791 299.579 52.978 299.187 52.2155 299.419C51.5216 299.631 51.1347 300.121 51.0667 300.835C51.0143 301.386 51.2748 301.998 51.9031 302.342C51.9996 302.394 52.0669 302.441 52.0665 302.573C52.0652 302.976 52.0643 303.379 52.0636 303.782H52.0868V306.838C51.1329 306.996 50.292 307.533 49.759 308.311C49.6225 308.341 49.4893 308.38 49.36 308.426C48.1588 307.74 46.9629 307.043 45.7596 306.36C45.5792 306.257 45.4921 306.147 45.5222 305.939C45.5342 305.857 45.5087 305.768 45.4951 305.682C45.3718 304.905 44.6119 304.255 43.6947 304.405C42.7949 304.554 42.2235 305.368 42.3721 306.24C42.5614 307.354 43.8316 307.918 44.7899 307.309C44.8981 307.24 44.9729 307.234 45.0837 307.299C45.425 307.498 45.7669 307.697 46.109 307.895L46.1219 307.872L48.256 309.106C47.6704 309.662 47.3053 310.438 47.3053 311.302C47.3053 311.97 47.5233 312.585 47.8926 313.086L45.4064 314.522L45.4048 314.511C45.2842 314.58 45.1635 314.649 45.0427 314.717C44.9888 314.748 44.884 314.742 44.8292 314.709C44.5713 314.553 44.2967 314.449 43.9962 314.441C42.9964 314.416 42.3884 315.233 42.3542 315.943C42.3147 316.774 42.9434 317.626 43.9603 317.618C44.8521 317.612 45.5307 316.896 45.5219 316.003C45.5205 315.844 45.5673 315.754 45.7072 315.674C46.3941 315.283 47.4195 314.692 48.7834 313.901C49.2692 314.197 49.8432 314.368 50.4561 314.368ZM62.3247 307.654C62.2085 307.723 62.1682 307.794 62.1686 307.926C62.1725 309.978 62.1722 312.029 62.1691 314.08C62.1689 314.203 62.2002 314.277 62.3132 314.342C63.0415 314.763 63.4101 315.54 63.2792 316.357C63.1539 317.139 62.5287 317.782 61.7189 317.936C61.2495 318.025 60.7948 317.954 60.3833 317.701C60.2579 317.625 60.1695 317.638 60.0519 317.706C58.2896 318.727 56.5253 319.746 54.7589 320.761C54.6382 320.83 54.5929 320.907 54.5932 321.048C54.595 322.035 53.8338 322.894 52.8828 322.989C51.8699 323.092 50.9744 322.455 50.7555 321.471C50.722 321.32 50.7107 321.162 50.7073 321.007C50.7047 320.902 50.6757 320.838 50.5825 320.784C48.7918 319.754 47.0025 318.72 45.2141 317.686C45.1172 317.629 45.0411 317.629 44.9434 317.688C43.7748 318.392 42.2853 317.717 42.0375 316.402C41.8811 315.572 42.219 314.795 42.962 314.358C43.0794 314.288 43.1325 314.218 43.1323 314.075C43.1269 312.023 43.1277 309.973 43.131 307.921C43.1311 307.798 43.0991 307.725 42.9863 307.66C42.2404 307.226 41.8895 306.473 42.0327 305.627C42.175 304.787 42.8243 304.171 43.6693 304.051C44.1223 303.986 44.5591 304.069 44.9509 304.319C45.042 304.377 45.1096 304.376 45.2022 304.322C46.9854 303.29 48.7701 302.26 50.5561 301.233C50.6641 301.171 50.7062 301.099 50.7065 300.972C50.7094 299.842 51.6016 298.978 52.7321 299C53.6132 299.018 54.4377 299.746 54.5627 300.616C54.5741 300.696 54.5921 300.745 54.5921 300.855C54.5921 301.096 54.6809 301.199 54.8685 301.306C56.6015 302.298 58.3297 303.298 60.0567 304.3C60.1753 304.369 60.2616 304.371 60.3851 304.301C61.5581 303.632 62.9805 304.273 63.266 305.598C63.2929 305.721 63.2903 305.851 63.2997 305.964C63.2805 306.716 62.9542 307.276 62.3247 307.654ZM60.9173 316.033C60.9173 315.772 61.1048 315.582 61.3617 315.583C61.609 315.584 61.8198 315.788 61.8223 316.03C61.825 316.263 61.5998 316.488 61.3654 316.488C61.1144 316.488 60.9174 316.288 60.9173 316.033ZM52.1981 300.944C52.1991 300.691 52.3962 300.495 52.651 300.495C52.9061 300.495 53.1017 300.69 53.1027 300.944C53.1033 301.187 52.8909 301.402 52.6518 301.399C52.4088 301.397 52.1974 301.184 52.1981 300.944ZM44.3832 316.035C44.3823 316.29 44.1835 316.49 43.9339 316.488C43.6979 316.486 43.4799 316.266 43.4788 316.028C43.4776 315.791 43.6934 315.583 43.9411 315.583C44.1976 315.583 44.3842 315.774 44.3832 316.035ZM52.6559 320.616C52.9104 320.618 53.1038 320.811 53.1026 321.063C53.1009 321.314 52.9047 321.504 52.6468 321.502C52.391 321.501 52.1953 321.306 52.1981 321.054C52.2011 320.804 52.4004 320.614 52.6559 320.616ZM43.9461 306.415C43.6881 306.418 43.4865 306.23 43.4789 305.98C43.4713 305.737 43.6753 305.533 43.9296 305.529C44.195 305.525 44.3795 305.702 44.3832 305.964C44.3872 306.227 44.2072 306.413 43.9461 306.415ZM61.3561 306.416C61.0954 306.414 60.9147 306.228 60.9173 305.965C60.9199 305.704 61.1048 305.526 61.3703 305.53C61.6248 305.533 61.8274 305.735 61.8214 305.98C61.8154 306.227 61.6123 306.418 61.3561 306.416ZM50.4561 313.274C49.3205 313.274 48.4 312.391 48.4 311.302C48.4 310.217 49.3131 309.337 50.4423 309.33C50.8037 308.482 51.668 307.884 52.6766 307.884C53.9991 307.884 55.0732 308.911 55.0914 310.185C55.0928 310.185 55.0942 310.185 55.0956 310.185C55.9788 310.185 56.6947 310.876 56.6947 311.729C56.6947 312.543 56.0429 313.21 55.216 313.269C55.2104 313.272 55.2041 313.274 55.1974 313.274H50.4794C50.4784 313.274 50.4775 313.274 50.4766 313.274C50.4697 313.274 50.4629 313.274 50.4561 313.274Z" fill="white"/>
<circle cx="283" cy="71" r="6" fill="#04B94A"/>
<circle cx="401" cy="217" r="6" fill="#0FAF4D"/>
<circle opacity="0.3" cx="289" cy="358" r="6" fill="#C4C1FA"/>
<circle cx="124" cy="42" r="6" fill="#04B94A"/>
<circle opacity="0.3" cx="9" cy="233" r="9" fill="#C4C1FA"/>
<circle opacity="0.3" cx="152" cy="390" r="9" fill="#C4C1FA"/>
<circle cx="305" cy="384" r="9" fill="#04B94A"/>
<circle opacity="0.3" cx="401" cy="249" r="9" fill="#C4C1FA"/>
<circle opacity="0.3" cx="306" cy="88" r="9" fill="#C4C1FA"/>
<circle opacity="0.3" cx="122" cy="78" r="9" fill="#C4C1FA"/>
<circle cx="43" cy="225" r="6" fill="#04B94A"/>
<circle cx="121" cy="375" r="6" fill="#2B21ED"/>
<circle cx="140" cy="358" r="3" fill="#0FAF4D"/>
<circle cx="274" cy="372" r="3" fill="#2B21ED"/>
<circle cx="378" cy="228" r="3" fill="#2B21ED"/>
<circle cx="306" cy="62" r="3" fill="#2B21ED"/>
<circle cx="96" cy="62" r="3" fill="#2B21ED"/>
<circle cx="28" cy="204" r="3" fill="#2B21ED"/>
<circle opacity="0.5" cx="210.5" cy="223.5" r="50.5" fill="#EDECFE"/>
<path d="M211.023 205.437L218.838 209.465V209.465L226.653 213.492L233.997 209.707V204.497C233.997 204.033 234.419 203.656 234.939 203.656C235.459 203.656 235.88 204.033 235.88 204.497V208.737L242.754 205.195C243.203 204.962 243.778 205.099 244.037 205.5C244.297 205.901 244.144 206.414 243.695 206.646L236.818 210.19L240.934 212.311C241.382 212.543 241.536 213.056 241.276 213.457C241.016 213.858 240.441 213.994 239.992 213.762L234.939 211.158L227.595 214.943V231.059L234.937 234.842L239.992 232.238C240.441 232.005 241.016 232.142 241.276 232.543C241.536 232.944 241.382 233.457 240.934 233.689L236.816 235.811L243.692 239.354C244.141 239.584 244.296 240.096 244.038 240.497C243.78 240.897 243.206 241.036 242.757 240.805L235.88 237.261V241.503C235.88 241.967 235.459 242.344 234.939 242.344C234.419 242.344 233.997 241.967 233.997 241.503V236.291L226.655 232.507L211.023 240.563V248.138L216.072 250.741C216.521 250.971 216.676 251.482 216.418 251.883C216.16 252.284 215.587 252.422 215.138 252.192L211.023 250.071V257.159C211.023 257.624 210.601 258 210.081 258C209.561 258 209.14 257.624 209.14 257.159V250.071L205.024 252.192C204.576 252.422 204.002 252.284 203.744 251.883C203.486 251.482 203.641 250.971 204.09 250.741L209.14 248.138V240.563L193.508 232.507L186.162 236.293L186.162 241.503C186.162 241.965 185.742 242.34 185.224 242.34C184.706 242.34 184.286 241.965 184.286 241.503L184.286 237.26L177.405 240.805C176.956 241.036 176.383 240.897 176.125 240.497C175.867 240.096 176.022 239.584 176.471 239.354L183.347 235.811L179.229 233.689C178.78 233.457 178.627 232.944 178.887 232.543C179.147 232.142 179.722 232.005 180.171 232.238L185.225 234.842L192.568 231.059V214.941L185.225 211.157L180.171 213.762C179.722 213.994 179.147 213.858 178.887 213.457C178.627 213.056 178.78 212.543 179.229 212.311L183.347 210.189L176.471 206.646C176.022 206.416 175.867 205.904 176.125 205.503C176.383 205.103 176.956 204.964 177.405 205.195L184.282 208.738V204.497C184.282 204.033 184.704 203.656 185.224 203.656C185.744 203.656 186.165 204.033 186.165 204.497V209.709L193.508 213.493L202.848 208.679L209.139 205.437V197.861L204.09 195.259C203.641 195.029 203.486 194.517 203.744 194.117C204.002 193.716 204.575 193.578 205.024 193.808L209.139 195.929V188.841C209.139 188.376 209.561 188 210.081 188C210.601 188 211.023 188.376 211.023 188.841V195.929L215.138 193.808C215.587 193.578 216.16 193.716 216.418 194.117C216.676 194.517 216.521 195.029 216.072 195.259L211.023 197.861V205.437ZM225.711 221.607L210.561 229.414C210.278 229.564 209.915 229.576 209.61 229.419L194.451 221.607V225.364L210.081 233.418L225.711 225.364V221.607ZM194.451 219.67L210.081 227.725L225.711 219.67V215.914L218.838 219.456L218.786 219.481L210.548 223.726C210.248 223.88 209.891 223.869 209.611 223.724L209.61 223.726L194.451 215.914V219.67ZM225.711 227.3L210.561 235.107C210.278 235.257 209.915 235.27 209.61 235.112L194.451 227.3V231.057L210.081 239.111L225.711 231.057V227.3ZM195.389 214.46L210.083 222.033L217.848 218.031L217.896 218.004L224.774 214.46L217.896 210.916L210.081 206.888L195.389 214.46Z" fill="#342BDB"/>
<defs>
<linearGradient id="paint0_linear" x1="220" y1="447.5" x2="210" y2="156" gradientUnits="userSpaceOnUse">
<stop stop-color="white"/>
<stop offset="1" stop-color="white" stop-opacity="0"/>
</linearGradient>
<linearGradient id="paint1_linear" x1="39.5" y1="344" x2="270.5" y2="145" gradientUnits="userSpaceOnUse">
<stop stop-color="white"/>
<stop offset="1" stop-color="white" stop-opacity="0"/>
</linearGradient>
<linearGradient id="paint2_linear" x1="95.5" y1="368.5" x2="221.5" y2="159" gradientUnits="userSpaceOnUse">
<stop stop-color="white"/>
<stop offset="1" stop-color="white" stop-opacity="0"/>
</linearGradient>
<linearGradient id="paint3_linear" x1="210" y1="375" x2="210" y2="447" gradientUnits="userSpaceOnUse">
<stop stop-color="#04B94A"/>
<stop offset="1" stop-color="white" stop-opacity="0"/>
</linearGradient>
<linearGradient id="paint4_linear" x1="210" y1="0" x2="210" y2="72" gradientUnits="userSpaceOnUse">
<stop stop-color="#04B94A"/>
<stop offset="1" stop-color="white" stop-opacity="0"/>
</linearGradient>
<linearGradient id="paint5_linear" x1="367" y1="93" x2="367" y2="165" gradientUnits="userSpaceOnUse">
<stop stop-color="#04B94A"/>
<stop offset="1" stop-color="white" stop-opacity="0"/>
</linearGradient>
<linearGradient id="paint6_linear" x1="53" y1="93" x2="53" y2="165" gradientUnits="userSpaceOnUse">
<stop stop-color="#04B94A"/>
<stop offset="1" stop-color="white" stop-opacity="0"/>
</linearGradient>
<linearGradient id="paint7_linear" x1="52.9995" y1="105" x2="52.9995" y2="153" gradientUnits="userSpaceOnUse">
<stop stop-color="#2B21ED" stop-opacity="0"/>
<stop offset="1" stop-color="#342BDB"/>
</linearGradient>
<linearGradient id="paint8_linear" x1="367" y1="275" x2="367" y2="347" gradientUnits="userSpaceOnUse">
<stop stop-color="#04B94A"/>
<stop offset="1" stop-color="white" stop-opacity="0"/>
</linearGradient>
<linearGradient id="paint9_linear" x1="53" y1="275" x2="53" y2="347" gradientUnits="userSpaceOnUse">
<stop stop-color="#04B94A"/>
<stop offset="1" stop-color="white" stop-opacity="0"/>
</linearGradient>
</defs>
</svg>
