<svg width="492" height="382" viewBox="0 0 492 382" fill="none" xmlns="http://www.w3.org/2000/svg">
<mask id="mask0" mask-type="alpha" maskUnits="userSpaceOnUse" x="0" y="0" width="492" height="382">
<rect width="492" height="382" fill="#C4C4C4"/>
</mask>
<g mask="url(#mask0)">
<path d="M137.011 521.206C5.73626 468.486 40.4392 394.545 16.302 296.759C-7.83532 198.974 -5.16847 161.551 53.5927 93.241C112.354 24.9312 213.83 -0.405727 286.219 80.3903C358.608 161.186 425.63 153.497 467.023 213.518C508.415 273.539 500.765 344.647 425.935 394.803C351.105 444.96 298.887 586.224 137.011 521.206Z" fill="#F2F2FB"/>
<path opacity="0.1" d="M401.363 115.013C401.363 115.013 414.002 72.8155 412.462 56.9313C412.462 56.9313 468.333 67.9832 488.45 82.2685C488.45 82.2685 468.674 129.98 468.78 147.228C468.78 147.228 410.557 126.7 401.363 115.013Z" fill="#342BDB"/>
<path opacity="0.1" d="M383.221 213.564C383.221 213.564 412.274 236.585 421.186 252.904L430.145 269.211C430.145 269.211 476.152 236.878 488.662 211.682C488.662 211.682 426.935 186.815 420.022 176.869C413.109 166.922 383.221 213.564 383.221 213.564Z" fill="#342BDB"/>
<path opacity="0.1" d="M49.3353 295.871C49.3353 295.871 78.3879 318.892 87.3 335.211L96.2591 351.518C96.2591 351.518 142.266 319.186 154.776 293.989C154.776 293.989 93.0494 269.123 86.136 259.176C79.2227 249.229 49.3353 295.871 49.3353 295.871Z" fill="#342BDB"/>
<path opacity="0.1" d="M15.9433 180.49C15.9433 180.49 63.9371 162.125 99.903 162.983C99.903 162.983 100.362 202.559 94.2359 225.38C94.2359 225.38 49.9928 244.897 22.8449 243.757C22.8449 243.757 30.6048 210.177 15.9433 180.49Z" fill="#342BDB"/>
<path d="M488.415 64.5502C480.18 85.3918 476.249 107.685 476.857 130.086C476.856 130.164 476.839 130.241 476.807 130.313C476.775 130.384 476.73 130.449 476.673 130.503C476.616 130.556 476.549 130.598 476.475 130.625C476.402 130.653 476.324 130.665 476.246 130.662C457.91 130.289 439.687 127.699 421.974 122.949C414.637 120.974 407.391 118.622 400.234 115.895C400.161 115.867 400.094 115.824 400.038 115.769C399.983 115.713 399.94 115.647 399.912 115.573C399.884 115.5 399.872 115.421 399.877 115.343C399.882 115.265 399.904 115.188 399.94 115.119C403.806 107.31 407.11 99.2358 409.828 90.9573C414.492 76.6747 417.305 61.8532 418.2 46.8553C418.2 46.7781 418.215 46.7017 418.246 46.6308C418.276 46.5599 418.321 46.4961 418.377 46.4432C418.433 46.3903 418.5 46.3495 418.572 46.3233C418.645 46.2971 418.722 46.2861 418.799 46.2909C442.731 48.0845 466.173 53.9909 488.097 63.7507C488.245 63.8152 488.361 63.9354 488.421 64.0851C488.48 64.2348 488.478 64.4019 488.415 64.5502Z" fill="white"/>
<path opacity="0.1" d="M476.246 130.662C450.25 130.145 424.538 125.158 400.234 115.918C400.161 115.891 400.094 115.848 400.038 115.792C399.983 115.737 399.94 115.67 399.912 115.597C399.884 115.523 399.872 115.445 399.877 115.366C399.882 115.288 399.904 115.212 399.94 115.142C410.561 93.8492 416.772 70.6305 418.2 46.8787C418.2 46.8015 418.215 46.7251 418.246 46.6543C418.276 46.5834 418.321 46.5195 418.377 46.4666C418.433 46.4137 418.5 46.3729 418.572 46.3467C418.645 46.3205 418.722 46.3095 418.799 46.3143C442.731 48.1079 466.173 54.0144 488.097 63.7741C488.239 63.8386 488.351 63.9549 488.41 64.0991C488.469 64.2433 488.471 64.4046 488.415 64.5501C480.18 85.3917 476.249 107.685 476.857 130.086C476.856 130.164 476.839 130.241 476.807 130.313C476.775 130.384 476.73 130.449 476.673 130.502C476.616 130.556 476.549 130.598 476.475 130.625C476.402 130.653 476.324 130.665 476.246 130.662ZM401.363 115.013C425.149 123.883 450.235 128.765 475.611 129.463C475.287 107.314 479.206 85.3077 487.157 64.6324C465.626 55.2603 442.697 49.5003 419.293 47.5841C417.672 70.9983 411.586 93.8859 401.363 115.013Z" fill="#2B21ED"/>
<path d="M482.231 190.413C459.52 182.658 437.474 173.08 416.307 161.772C416.173 161.7 416.018 161.676 415.868 161.704C415.719 161.732 415.583 161.81 415.484 161.925C403.035 177.803 392.134 194.834 382.927 212.787C382.873 212.93 382.872 213.088 382.926 213.231C382.981 213.375 383.086 213.493 383.221 213.563C405.388 227.131 426.424 242.466 446.124 259.417C446.185 259.47 446.257 259.508 446.335 259.529C446.413 259.551 446.494 259.555 446.574 259.541C446.653 259.528 446.729 259.497 446.795 259.451C446.862 259.406 446.917 259.346 446.958 259.276C460.963 237.766 472.873 214.962 482.524 191.177C482.584 191.037 482.587 190.878 482.532 190.736C482.478 190.593 482.369 190.477 482.231 190.413Z" fill="white"/>
<path d="M148.344 272.72C125.634 264.965 103.588 255.387 82.4207 244.079C82.2865 244.007 82.1319 243.983 81.9824 244.011C81.8328 244.039 81.6971 244.117 81.5977 244.232C69.1493 260.11 58.2475 277.141 49.0414 295.095C48.9865 295.237 48.9862 295.395 49.0404 295.539C49.0946 295.682 49.1996 295.8 49.3353 295.871C71.502 309.438 92.5377 324.773 112.237 341.724C112.299 341.777 112.371 341.815 112.449 341.836C112.527 341.858 112.608 341.862 112.688 341.849C112.767 341.835 112.843 341.804 112.909 341.759C112.976 341.713 113.031 341.653 113.072 341.583C127.077 320.073 138.987 297.269 148.638 273.484C148.698 273.344 148.701 273.185 148.646 273.043C148.591 272.9 148.483 272.784 148.344 272.72Z" fill="white"/>
<path opacity="0.1" d="M112.124 341.453C92.4237 324.501 71.3881 309.166 49.2214 295.599C49.0856 295.528 48.9807 295.41 48.9265 295.267C48.8722 295.124 48.8726 294.966 48.9274 294.823C58.1342 276.874 69.0359 259.846 81.4837 243.972C81.5832 243.857 81.7188 243.779 81.8684 243.751C82.018 243.723 82.1726 243.747 82.3067 243.819C103.474 255.127 125.52 264.705 148.231 272.46C148.304 272.492 148.37 272.538 148.424 272.596C148.479 272.654 148.521 272.722 148.549 272.797C148.576 272.872 148.588 272.951 148.584 273.031C148.58 273.11 148.56 273.188 148.524 273.26C138.873 297.044 126.963 319.848 112.958 341.359C112.914 341.425 112.855 341.48 112.787 341.522C112.718 341.563 112.642 341.589 112.563 341.598C112.483 341.607 112.403 341.599 112.327 341.573C112.251 341.548 112.182 341.507 112.124 341.453ZM50.209 294.964C72.0459 308.346 92.8235 323.385 112.359 339.948C125.98 318.895 137.638 296.635 147.184 273.448C124.811 265.594 103.071 256.043 82.1539 244.877C70.0105 260.571 59.3183 277.335 50.209 294.964Z" fill="#2B21ED"/>
<path opacity="0.1" d="M446.124 259.453C426.424 242.501 405.388 227.166 383.221 213.599C383.086 213.528 382.981 213.41 382.926 213.267C382.872 213.124 382.873 212.966 382.927 212.823C392.134 194.874 403.036 177.846 415.484 161.972C415.583 161.857 415.719 161.779 415.868 161.751C416.018 161.723 416.173 161.747 416.307 161.819C437.474 173.127 459.52 182.705 482.231 190.46C482.304 190.492 482.37 190.538 482.424 190.596C482.479 190.654 482.521 190.722 482.549 190.797C482.576 190.872 482.588 190.951 482.584 191.031C482.58 191.11 482.56 191.188 482.524 191.26C472.873 215.044 460.963 237.848 446.958 259.359C446.914 259.425 446.855 259.48 446.787 259.522C446.718 259.563 446.642 259.589 446.563 259.598C446.483 259.607 446.403 259.599 446.327 259.573C446.251 259.548 446.182 259.507 446.124 259.453ZM384.209 212.964C406.046 226.346 426.823 241.385 446.359 257.948C459.98 236.895 471.638 214.635 481.184 191.448C458.811 183.594 437.071 174.043 416.154 162.877C404.011 178.571 393.318 195.335 384.209 212.964Z" fill="#2B21ED"/>
<path d="M101.279 162.678C101.288 162.6 101.283 162.522 101.262 162.447C101.241 162.372 101.206 162.301 101.158 162.24C101.11 162.179 101.05 162.128 100.982 162.09C100.914 162.052 100.839 162.028 100.761 162.019C74.2646 157.165 47.3203 155.194 20.3994 156.14C20.3195 156.142 20.241 156.161 20.1696 156.197C20.0982 156.232 20.0358 156.284 19.9872 156.347C19.9385 156.411 19.9049 156.484 19.8887 156.562C19.8725 156.641 19.8743 156.721 19.8938 156.799C24.9985 181.139 26.9975 206.028 25.8431 230.871C25.8332 230.946 25.8385 231.023 25.8587 231.097C25.8788 231.171 25.9134 231.24 25.9605 231.3C26.0075 231.36 26.0661 231.41 26.1327 231.447C26.1994 231.485 26.2727 231.508 26.3486 231.517C49.2854 232.31 72.2406 230.615 94.812 226.462C94.9593 226.434 95.0921 226.355 95.1868 226.239C95.2814 226.122 95.332 225.977 95.3294 225.827C94.6198 204.61 96.619 183.389 101.279 162.678Z" fill="white"/>
<path opacity="0.1" d="M94.812 226.367C72.2406 230.521 49.2854 232.216 26.3486 231.423C26.2727 231.414 26.1994 231.391 26.1327 231.353C26.0661 231.316 26.0075 231.266 25.9605 231.205C25.9134 231.145 25.8788 231.076 25.8587 231.003C25.8385 230.929 25.8332 230.852 25.8431 230.776C26.9975 205.934 24.9985 181.045 19.8938 156.705C19.8743 156.627 19.8725 156.546 19.8887 156.468C19.9049 156.39 19.9385 156.316 19.9872 156.253C20.0358 156.19 20.0982 156.138 20.1696 156.102C20.241 156.067 20.3195 156.047 20.3994 156.046C47.3203 155.1 74.2646 157.071 100.761 161.925C100.839 161.934 100.914 161.958 100.982 161.996C101.05 162.034 101.11 162.085 101.158 162.146C101.206 162.207 101.241 162.277 101.262 162.352C101.283 162.428 101.288 162.506 101.279 162.583C96.627 183.264 94.6278 204.453 95.3294 225.638C95.3567 225.803 95.3176 225.973 95.2207 226.109C95.1238 226.246 94.977 226.339 94.812 226.367ZM26.9483 230.165C49.4828 230.886 72.0316 229.278 94.2359 225.368C93.611 204.417 95.5137 183.467 99.903 162.971C73.9611 158.38 47.6127 156.492 21.2812 157.34C26.0917 181.298 27.9945 205.75 26.9483 230.165Z" fill="#2B21ED"/>
<path d="M206.319 283.649C209.423 292.479 248.646 280.91 265.706 283.649C282.766 286.389 300.673 272.644 295.664 259.747C290.655 246.849 244.625 232.422 244.625 232.422L213.926 242.193L206.319 283.649Z" fill="#131313" stroke="#131313" stroke-linecap="round" stroke-linejoin="round"/>
<path d="M285.247 272.891C285.247 272.891 282.601 256.149 285.247 246.378C287.892 236.608 231.163 227.414 231.163 227.414L213.926 251.493C213.926 251.493 216.278 261.792 213.926 282.685L285.247 272.891Z" fill="white"/>
<path opacity="0.3" d="M285.247 246.378C283.754 251.893 283.942 259.617 284.389 265.308C260.218 261.556 235.491 266.221 214.35 278.523C215.937 260.429 213.926 251.481 213.926 251.481L231.127 227.402C231.127 227.402 287.881 236.608 285.247 246.378Z" fill="black" fill-opacity="0.7"/>
<path d="M285.247 272.891C285.247 272.891 282.601 256.149 285.247 246.378C287.892 236.608 231.163 227.414 231.163 227.414L213.926 251.493C213.926 251.493 216.278 261.792 213.926 282.685L285.247 272.891Z" stroke="#131313" stroke-linecap="round" stroke-linejoin="round"/>
<path d="M213.15 273.373C213.15 273.373 255.324 267.683 286.952 270.904L290.667 292.479C290.667 292.479 329.114 374.781 335.945 389.901C342.776 405.021 371.805 453.321 371.805 453.321C371.805 453.321 356.72 450.887 351.441 476.53C351.441 476.53 292.525 398.931 287.563 389.901C282.601 380.871 252.608 335.982 252.608 335.982H244.155C244.155 335.982 213.209 391.018 210.728 395.545C208.248 400.071 180.888 459.434 171.6 476.53C171.6 476.53 160.066 442.927 144.487 457.718C144.487 457.718 157.326 423.868 158.596 423.386C159.866 422.904 165.298 396.873 168.766 392.523C172.235 388.173 209.423 292.479 209.423 292.479L213.15 273.373Z" fill="#342BDB"/>
<path opacity="0.3" d="M352.194 473.32C351.923 474.331 351.676 475.401 351.441 476.53C351.441 476.53 292.525 398.931 287.563 389.901C282.601 380.871 252.608 335.982 252.608 335.982H244.155C244.155 335.982 213.209 391.018 210.728 395.545C208.248 400.071 180.888 459.434 171.6 476.53C170.834 474.396 169.955 472.304 168.966 470.263C168.966 470.263 182.369 446.936 183.381 438.577C184.392 430.217 171.623 437.86 169.624 432.639C167.626 427.419 196.749 416.661 204.062 398.084C204.062 398.084 196.631 398.766 195.162 386.586C193.692 374.405 238.523 328.563 249.598 322.625C248.975 322.813 235.278 327.081 237.018 323.801C238.758 320.521 248.987 312.831 248.987 312.831C248.987 312.831 257.876 321.932 269.504 321.885C281.132 321.837 259.251 328.351 259.251 328.351C259.251 328.351 287.187 360.896 300.214 363.694C313.241 366.492 282.578 365.164 282.578 365.164C282.578 365.164 318.685 424.221 338.543 435.826C358.401 447.43 349.207 453.744 348.455 459.658C348.043 462.48 350.03 468.158 352.194 473.32Z" fill="black" fill-opacity="0.7"/>
<path d="M213.15 273.373C213.15 273.373 255.324 267.683 286.952 270.904L290.667 292.479C290.667 292.479 329.114 374.781 335.945 389.901C342.776 405.021 371.805 453.321 371.805 453.321C371.805 453.321 356.72 450.887 351.441 476.53C351.441 476.53 292.525 398.931 287.563 389.901C282.601 380.871 252.608 335.982 252.608 335.982H244.155C244.155 335.982 213.209 391.018 210.728 395.545C208.248 400.071 180.888 459.434 171.6 476.53C171.6 476.53 160.066 442.927 144.487 457.718C144.487 457.718 157.326 423.868 158.596 423.386C159.866 422.904 165.298 396.873 168.766 392.523C172.235 388.173 209.423 292.479 209.423 292.479L213.15 273.373Z" stroke="#131313" stroke-linecap="round" stroke-linejoin="round"/>
<path d="M108.498 113.767C108.498 113.767 131.095 127.734 144.487 133.002L133.6 148.086C133.6 148.086 106.91 127.593 98.8214 123.396" fill="white"/>
<path d="M108.498 113.767C108.498 113.767 131.095 127.734 144.487 133.002L133.6 148.086C133.6 148.086 106.91 127.593 98.8214 123.396" stroke="#263238" stroke-linecap="round" stroke-linejoin="round"/>
<path d="M107.757 116.118C109.133 114.108 108.509 111.156 108.157 109.746C107.819 108.417 107.297 107.143 106.605 105.96C105.983 104.901 105.459 103.787 105.041 102.632C104.747 101.856 104.5 101.069 104.265 100.281C103.813 98.7339 103.444 97.1641 103.16 95.5779C103.16 95.5779 100.714 94.7196 100.373 97.1534C100.298 97.8234 100.322 98.5008 100.444 99.1639C100.632 100.34 100.985 101.515 101.208 102.409C101.395 102.946 101.423 103.526 101.29 104.078C101.201 104.286 101.082 104.481 100.938 104.655C100.935 104.678 100.935 104.702 100.938 104.725L100.785 104.925C100.468 105.299 100.064 105.59 99.6091 105.772C99.4147 105.853 99.208 105.901 98.9977 105.913C98.9435 105.925 98.8872 105.925 98.8331 105.913C98.6751 105.904 98.518 105.884 98.3628 105.854C97.5389 105.674 96.7464 105.373 96.0113 104.96C94.9265 104.356 93.8853 103.676 92.8956 102.926C92.5311 102.644 92.1666 102.362 91.8256 102.068C90.9405 101.356 90.0929 100.598 89.286 99.7988C88.7217 99.2227 88.1103 98.623 87.4637 98.0352C86.817 97.4473 86.2174 96.93 85.606 96.4597C83.8189 95.0958 82.2081 94.4021 81.632 95.7777C81.0559 97.1534 81.726 97.5766 83.1604 98.917C83.6542 99.3873 84.2539 99.9516 84.9358 100.669C86.1262 101.928 87.2189 103.276 88.2044 104.702L88.5924 105.254L88.0633 105.983C88.1573 106.124 87.8399 105.983 87.2403 105.736C85.6794 104.982 84.1675 104.129 82.7137 103.185C82.0435 102.738 81.3615 102.256 80.6796 101.751C79.9977 101.245 79.5039 100.833 78.8925 100.351C75.9884 97.9999 75.2947 100.692 75.7768 101.892C76.5354 102.972 77.5078 103.884 78.6338 104.572C79.304 105.066 79.9977 105.583 80.6561 106.089C80.9853 106.336 81.291 106.583 81.5849 106.83C82.7607 107.841 84.054 108.864 84.9358 109.581L85.2768 109.851L84.9711 111.027L84.4302 110.898C82.87 110.493 81.3477 109.954 79.8801 109.287C78.8807 108.817 78.1283 108.393 77.5286 108.111C76.3529 107.512 75.7768 107.312 75.0478 107.982C74.3189 108.652 75.0478 109.934 76.2236 111.015C77.2153 111.863 78.3341 112.549 79.5392 113.049C79.7531 113.136 79.9732 113.207 80.1976 113.261C81.3311 113.635 82.4103 114.157 83.4073 114.813L84.0187 115.189L84.2304 116.118L83.231 116C82.1739 115.867 81.1257 115.67 80.0917 115.413C79.2595 115.178 78.4158 114.985 77.5639 114.837C77.3045 114.77 77.0312 114.781 76.7782 114.869C76.5253 114.957 76.3037 115.117 76.1413 115.33C75.6475 116.059 76.4117 116.882 77.5757 117.541C78.2802 117.937 79.0252 118.256 79.7978 118.493C80.3691 118.68 80.9616 118.795 81.5614 118.834C82.6791 118.987 83.7757 119.267 84.83 119.669L86.1351 120.139C87.687 120.715 89.1214 121.315 89.6623 121.526L89.8504 121.609C90.8851 122.279 91.7786 122.785 92.5781 123.278C94.4577 124.421 96.5726 125.12 98.7625 125.324C99.9383 125.453 101.314 124.56 102.713 123.267" fill="white"/>
<path d="M107.757 116.118C109.133 114.108 108.509 111.156 108.157 109.746C107.819 108.417 107.297 107.143 106.605 105.96C105.983 104.901 105.459 103.787 105.041 102.632C104.747 101.856 104.5 101.069 104.265 100.281C103.813 98.7339 103.444 97.1641 103.16 95.5779C103.16 95.5779 100.714 94.7196 100.373 97.1534C100.298 97.8234 100.322 98.5008 100.444 99.1639C100.632 100.34 100.985 101.515 101.208 102.409C101.395 102.946 101.423 103.526 101.29 104.078C101.201 104.286 101.082 104.481 100.938 104.655C100.935 104.678 100.935 104.702 100.938 104.725L100.785 104.925C100.468 105.299 100.064 105.59 99.6091 105.772C99.4147 105.853 99.208 105.901 98.9977 105.913C98.9435 105.925 98.8872 105.925 98.8331 105.913C98.6751 105.904 98.518 105.884 98.3628 105.854C97.5389 105.674 96.7464 105.373 96.0113 104.96V104.96C94.9265 104.356 93.8853 103.676 92.8956 102.926V102.926C92.5311 102.644 92.1666 102.362 91.8256 102.068C90.9405 101.356 90.0929 100.598 89.286 99.7988C88.7217 99.2227 88.1103 98.623 87.4637 98.0352C86.817 97.4473 86.2174 96.93 85.606 96.4597C83.8189 95.0958 82.2081 94.4021 81.632 95.7777C81.0559 97.1534 81.726 97.5766 83.1604 98.917C83.6542 99.3873 84.2539 99.9516 84.9358 100.669C86.1262 101.928 87.2189 103.276 88.2044 104.702L88.5924 105.254L88.0633 105.983C88.1573 106.124 87.8399 105.983 87.2403 105.736C85.6794 104.982 84.1675 104.129 82.7137 103.185C82.0435 102.738 81.3615 102.256 80.6796 101.751C79.9977 101.245 79.5039 100.833 78.8925 100.351C75.9884 97.9999 75.2947 100.692 75.7768 101.892C76.5354 102.972 77.5078 103.884 78.6338 104.572C79.304 105.066 79.9977 105.583 80.6561 106.089C80.9853 106.336 81.291 106.583 81.5849 106.83C82.7607 107.841 84.054 108.864 84.9358 109.581L85.2768 109.851L84.9711 111.027L84.4302 110.898C82.87 110.493 81.3477 109.954 79.8801 109.287C78.8807 108.817 78.1283 108.393 77.5286 108.111C76.3529 107.512 75.7768 107.312 75.0478 107.982C74.3189 108.652 75.0478 109.934 76.2236 111.015C77.2153 111.863 78.3341 112.549 79.5392 113.049V113.049C79.7531 113.136 79.9732 113.207 80.1976 113.261C81.3311 113.635 82.4103 114.157 83.4073 114.813L84.0187 115.189L84.2304 116.118L83.231 116C82.1739 115.867 81.1257 115.67 80.0917 115.413V115.413C79.2595 115.178 78.4158 114.985 77.5639 114.837C77.3045 114.77 77.0312 114.781 76.7782 114.869C76.5253 114.957 76.3037 115.117 76.1413 115.33C75.6475 116.059 76.4117 116.882 77.5757 117.541C78.2802 117.937 79.0252 118.256 79.7978 118.493C80.3691 118.68 80.9616 118.795 81.5614 118.834C82.6791 118.987 83.7757 119.267 84.83 119.669L86.1351 120.139C87.687 120.715 89.1214 121.315 89.6623 121.526L89.8504 121.609C90.8851 122.279 91.7786 122.785 92.5781 123.278C94.4577 124.421 96.5726 125.12 98.7625 125.324C99.9383 125.453 101.314 124.56 102.713 123.267" stroke="#263238" stroke-linecap="round" stroke-linejoin="round"/>
<path d="M98.8213 106.042C98.8213 106.042 95.4116 110.157 98.1864 114.154" stroke="#263238" stroke-linecap="round" stroke-linejoin="round"/>
<path d="M384.961 112.896C384.961 112.896 362.364 126.864 349.019 132.132L359.906 147.228C359.906 147.228 386.596 126.723 394.685 122.538" fill="white"/>
<path d="M384.961 112.896C384.961 112.896 362.364 126.864 349.019 132.132L359.906 147.228C359.906 147.228 386.596 126.723 394.685 122.538" stroke="#263238" stroke-linecap="round" stroke-linejoin="round"/>
<path d="M385.702 115.295C384.327 113.285 384.95 110.333 385.302 108.923C385.64 107.598 386.163 106.327 386.854 105.148C387.474 104.084 387.997 102.967 388.418 101.809C388.712 101.033 388.959 100.246 389.194 99.4579C389.647 97.9114 390.016 96.3414 390.299 94.7549C390.299 94.7549 392.745 93.9084 393.086 96.3422C393.161 97.0082 393.137 97.6818 393.015 98.3409C392.827 99.5167 392.474 100.692 392.251 101.586C392.064 102.127 392.036 102.71 392.169 103.267C392.261 103.474 392.379 103.667 392.521 103.843L392.674 104.043C392.991 104.417 393.395 104.708 393.85 104.89C394.044 104.971 394.251 105.019 394.461 105.031C394.516 105.043 394.572 105.043 394.626 105.031C394.783 105.042 394.94 105.042 395.096 105.031C395.92 104.851 396.713 104.55 397.448 104.137C398.538 103.541 399.579 102.861 400.564 102.103L401.633 101.245C402.519 100.529 403.367 99.768 404.173 98.9641C404.737 98.388 405.349 97.7883 405.995 97.2005C406.642 96.6126 407.242 96.0953 407.853 95.625C409.64 94.2729 411.251 93.5792 411.827 94.9548C412.403 96.3304 411.733 96.7537 410.299 98.094C409.805 98.5643 409.205 99.1169 408.523 99.8341C407.336 101.096 406.243 102.444 405.255 103.867L404.867 104.431L405.396 105.148C405.302 105.29 405.619 105.148 406.219 104.902C407.775 104.099 409.279 103.2 410.722 102.209C411.392 101.774 412.074 101.292 412.756 100.786C413.438 100.281 413.932 99.8576 414.543 99.3756C417.447 97.0241 418.141 99.7165 417.659 100.916C416.901 102 415.929 102.916 414.802 103.608C414.132 104.102 413.438 104.608 412.78 105.113L411.851 105.854C410.675 106.865 409.382 107.9 408.5 108.605L408.159 108.887L408.465 110.063L409.005 109.922C410.567 109.522 412.09 108.983 413.555 108.311C414.555 107.853 415.307 107.418 415.907 107.135C417.083 106.536 417.659 106.324 418.388 107.006C419.117 107.688 418.388 108.958 417.212 110.028C416.221 110.879 415.102 111.569 413.896 112.074C413.661 112.168 413.438 112.238 413.238 112.297C412.103 112.661 411.023 113.179 410.028 113.837L409.417 114.213L409.205 115.142C409.558 115.142 409.887 115.072 410.205 115.036C411.261 114.893 412.309 114.693 413.344 114.437C414.173 114.191 415.018 113.998 415.872 113.861C416.131 113.791 416.405 113.801 416.659 113.889C416.913 113.977 417.134 114.139 417.294 114.355C417.788 115.072 417.024 115.895 415.86 116.565C415.158 116.962 414.412 117.278 413.638 117.506C413.065 117.69 412.474 117.808 411.874 117.858C410.755 118.006 409.658 118.286 408.606 118.693L407.301 119.163C405.749 119.728 404.314 120.339 403.832 120.539L403.644 120.621C402.609 121.303 401.716 121.797 400.916 122.291C399.037 123.436 396.923 124.14 394.732 124.348C393.556 124.478 392.18 123.584 390.781 122.279" fill="white"/>
<path d="M385.702 115.295C384.327 113.285 384.95 110.333 385.302 108.923C385.64 107.598 386.163 106.327 386.854 105.148C387.474 104.084 387.997 102.967 388.418 101.809C388.712 101.033 388.959 100.246 389.194 99.4579C389.647 97.9114 390.016 96.3414 390.299 94.7549C390.299 94.7549 392.745 93.9084 393.086 96.3422C393.161 97.0082 393.137 97.6818 393.015 98.3409C392.827 99.5167 392.474 100.692 392.251 101.586C392.064 102.127 392.036 102.71 392.169 103.267C392.261 103.474 392.379 103.667 392.521 103.843L392.674 104.043C392.991 104.417 393.395 104.708 393.85 104.89C394.044 104.971 394.251 105.019 394.461 105.031C394.516 105.043 394.572 105.043 394.626 105.031C394.783 105.042 394.94 105.042 395.096 105.031C395.92 104.851 396.713 104.55 397.448 104.137C398.538 103.541 399.579 102.861 400.564 102.103V102.103L401.633 101.245C402.519 100.529 403.367 99.768 404.173 98.9641C404.737 98.388 405.349 97.7883 405.995 97.2005C406.642 96.6126 407.242 96.0953 407.853 95.625C409.64 94.2729 411.251 93.5792 411.827 94.9548C412.403 96.3304 411.733 96.7537 410.299 98.094C409.805 98.5643 409.205 99.1169 408.523 99.8341C407.336 101.096 406.243 102.444 405.255 103.867V103.867L404.867 104.431L405.396 105.148C405.302 105.29 405.619 105.148 406.219 104.902C407.775 104.099 409.279 103.2 410.722 102.209C411.392 101.774 412.074 101.292 412.756 100.786C413.438 100.281 413.932 99.8576 414.543 99.3756C417.447 97.0241 418.141 99.7165 417.659 100.916C416.901 102 415.929 102.916 414.802 103.608C414.132 104.102 413.438 104.608 412.78 105.113L411.851 105.854C410.675 106.865 409.382 107.9 408.5 108.605L408.159 108.887L408.465 110.063L409.005 109.922C410.567 109.522 412.09 108.983 413.555 108.311C414.555 107.853 415.307 107.418 415.907 107.135C417.083 106.536 417.659 106.324 418.388 107.006C419.117 107.688 418.388 108.958 417.212 110.028C416.221 110.879 415.102 111.569 413.896 112.074V112.074C413.661 112.168 413.438 112.238 413.238 112.297C412.103 112.661 411.023 113.179 410.028 113.837L409.417 114.213L409.205 115.142C409.558 115.142 409.887 115.072 410.205 115.036C411.261 114.893 412.309 114.693 413.344 114.437V114.437C414.173 114.191 415.018 113.998 415.872 113.861C416.131 113.791 416.405 113.801 416.659 113.889C416.913 113.977 417.134 114.139 417.294 114.355C417.788 115.072 417.024 115.895 415.86 116.565C415.158 116.962 414.412 117.278 413.638 117.506C413.065 117.69 412.474 117.808 411.874 117.858C410.755 118.006 409.658 118.286 408.606 118.693L407.301 119.163C405.749 119.728 404.314 120.339 403.832 120.539L403.644 120.621C402.609 121.303 401.716 121.797 400.916 122.291C399.037 123.436 396.923 124.14 394.732 124.348C393.556 124.478 392.18 123.584 390.781 122.279" stroke="#263238" stroke-linecap="round" stroke-linejoin="round"/>
<path d="M394.638 105.172C394.638 105.172 398.047 109.299 395.273 113.284" stroke="#263238" stroke-linecap="round" stroke-linejoin="round"/>
<path d="M254.137 104.925C254.137 104.925 252.549 98.0705 247.647 95.3898C240.663 91.5804 230.011 92.956 230.011 92.956C230.011 92.956 234.09 95.0488 235.254 97.4826C235.254 97.4826 232.809 96.0953 228.506 97.4826C227.31 97.9071 226.028 98.0337 224.772 97.8513C223.517 97.669 222.324 97.1833 221.298 96.4362C221.298 96.4362 220.475 101.927 223.038 103.373C225.601 104.819 222.921 103.879 222.921 103.879C222.921 103.879 220.71 106.794 218.735 106.324C218.735 106.324 218.853 112.368 220.593 114.554C220.593 114.554 218.618 117.4 218.735 119.41C218.752 119.992 218.58 120.564 218.245 121.041C217.91 121.518 217.431 121.874 216.877 122.056C216.877 122.056 217.454 125.983 218.97 127.017C218.97 127.017 217.795 134.33 220.146 138.163C221.961 141.052 223.923 143.847 226.025 146.535C226.025 146.535 225.449 149.168 224.05 149.368C224.05 149.368 226.025 153.624 235.219 150.955C235.219 150.955 247.67 154.483 251.679 152.307C254.222 153.319 256.954 153.768 259.686 153.624C259.686 153.624 259.004 148.921 260.521 147.005C263.246 144.242 265.768 141.287 268.069 138.163C270.162 134.906 269.116 125.947 269.116 125.947C269.116 125.947 271.103 123.596 270.75 122.056C270.75 122.056 269.01 122.585 268.187 121.421C268.187 121.421 269.821 117.893 271.326 117.235C271.326 117.235 270.985 113.508 268.304 112.532C268.304 112.532 270.162 109.275 271.914 108.817C271.914 108.817 265.588 106.136 262.179 108.817C262.371 107.37 262.886 105.984 263.686 104.763C264.485 103.542 265.55 102.517 266.799 101.762C266.799 101.762 261.426 101.997 259.686 106.465C259.686 106.465 256.218 96.6949 256.911 92.9795C254.838 96.6044 253.874 100.758 254.137 104.925Z" fill="#131313"/>
<path d="M232.679 155.082C232.679 155.082 237.382 169.967 231.127 179.267C231.127 179.267 245.707 184.546 258.17 179.267C253.858 171.989 252.44 163.357 254.196 155.082C254.196 155.082 245.084 148.886 232.679 155.082Z" fill="white" stroke="#131313" stroke-linecap="round" stroke-linejoin="round"/>
<path d="M233.54 273.415C233.582 273.413 233.623 273.412 233.661 273.41V277.758C227.222 277.987 220.8 278.575 214.426 279.518V275.607C217.207 274.752 221.978 274.199 226.174 273.86C228.348 273.684 230.35 273.567 231.808 273.494C232.537 273.457 233.13 273.431 233.54 273.415Z" fill="#131313" stroke="#131313"/>
<path d="M235.207 155.576C237.466 158.255 240.628 160.012 244.096 160.514C249.739 161.208 252.549 155.576 252.549 155.576H235.207Z" fill="#131313"/>
<path d="M261.144 131.802C261.144 131.802 263.225 129.604 264.389 131.802C265.553 134.001 263.319 144.936 259.686 143.772" fill="white"/>
<path d="M261.144 131.802C261.144 131.802 263.225 129.604 264.389 131.802C265.553 134.001 263.319 144.936 259.686 143.772" stroke="#131313" stroke-linecap="round" stroke-linejoin="round"/>
<path d="M225.649 131.802C225.649 131.802 223.579 129.604 222.415 131.802C221.251 134.001 223.485 144.936 227.118 143.772" fill="white"/>
<path d="M225.649 131.802C225.649 131.802 223.579 129.604 222.415 131.802C221.251 134.001 223.485 144.936 227.118 143.772" stroke="#131313" stroke-linecap="round" stroke-linejoin="round"/>
<path d="M243.202 111.203C253.431 111.203 259.016 117.952 259.486 119.81C260.516 125.099 261.059 130.471 261.109 135.859C260.625 142.241 258.635 148.418 255.301 153.883C252.867 157.892 235.948 157.68 232.268 154C228.894 150.626 225.061 138.939 225.296 136.012C225.531 133.084 226.377 121.903 226.918 119.892C228.035 115.859 233.691 111.203 243.202 111.203Z" fill="white" stroke="#131313" stroke-linecap="round" stroke-linejoin="round"/>
<path d="M239.275 120.28C237.701 120.009 236.082 120.218 234.628 120.881C233.175 121.544 231.955 122.629 231.127 123.996" stroke="#131313" stroke-linecap="round" stroke-linejoin="round"/>
<path d="M247.647 120.163C247.647 120.163 252.549 117.599 255.795 122.079" stroke="#131313" stroke-linecap="round" stroke-linejoin="round"/>
<path d="M237.183 127.488C237.183 127.488 234.161 129.11 232.291 128.663" stroke="#131313" stroke-linecap="round" stroke-linejoin="round"/>
<path d="M249.081 126.559C250.721 127.139 252.444 127.453 254.184 127.487" stroke="#131313" stroke-linecap="round" stroke-linejoin="round"/>
<path d="M240.204 132.367C240.204 132.367 241.827 128.581 243.226 128.734C244.625 128.887 246.471 132.367 246.471 132.367" stroke="#131313" stroke-linecap="round" stroke-linejoin="round"/>
<path d="M234.737 139.033C234.737 139.033 247.529 141.208 253.455 138.187" stroke="#131313" stroke-linecap="round" stroke-linejoin="round"/>
<path d="M236.218 139.28C236.935 140.689 238.042 141.862 239.408 142.659C240.774 143.455 242.34 143.842 243.92 143.771C249.739 143.771 252.549 138.586 252.549 138.586" stroke="#131313" stroke-linecap="round" stroke-linejoin="round"/>
<path d="M202.604 164.053C202.604 164.053 210.011 162.101 227.071 168.321C227.071 168.321 251.491 164.112 261.168 168.321C268.058 164.908 275.561 162.91 283.236 162.442C283.236 162.442 315.487 145.641 324.787 142.349C334.087 139.057 348.361 130.415 352.699 127.288C357.038 124.16 369.442 120.445 369.442 120.445C371.17 118.586 373.285 117.13 375.638 116.177C375.638 116.177 389.911 129.804 388.665 137.846L383.703 139.362C383.703 139.362 293.759 200.771 290.667 202.758C289.115 203.77 292.489 209.731 291.596 225.45C290.62 242.734 299.273 256.807 296.522 266.049C296.522 266.049 288.022 252.387 262.214 253.668C241.051 254.714 206.319 283.649 206.319 283.649C205.226 274.927 205.297 266.099 206.531 257.395C209.118 239.089 206.942 212.317 206.942 208.496C206.942 202.3 123.841 151.014 123.841 151.014L119.503 149.932L108.333 140.985C108.333 140.985 115.775 116.941 128.18 119.504L138.761 126.958L152.094 134.119C152.094 134.119 188.342 158.057 202.604 164.053Z" fill="#04B94A"/>
<path opacity="0.3" d="M388.724 137.058C388.724 137.328 388.724 137.575 388.653 137.834L383.692 139.351C383.692 139.351 294.335 200.372 290.702 202.735V197.597C290.702 197.597 332.3 170.472 340.225 160.573C348.149 150.673 348.713 158.068 348.713 158.068C348.713 158.068 376.473 142.69 377.954 129.463C380.192 129.875 382.313 130.767 384.173 132.078C386.032 133.389 387.585 135.088 388.724 137.058Z" fill="black" fill-opacity="0.7"/>
<path opacity="0.3" d="M206.837 208.061C203.568 200.219 123.841 151.014 123.841 151.014L119.503 149.932L112.566 144.383C114.47 132.543 123.594 130.062 123.594 130.062C123.594 130.062 123.688 142.995 126.945 148.086C130.202 153.177 183.228 184.534 183.228 184.534C183.228 184.534 179.971 169.943 188.107 181.595C196.243 193.247 204.238 194.728 204.238 194.728C205.455 199.097 206.324 203.555 206.837 208.061Z" fill="black" fill-opacity="0.7"/>
<path opacity="0.3" d="M219.97 250.047C220.002 251.806 220.634 253.501 221.76 254.852C222.887 256.203 224.441 257.13 226.166 257.477C230.869 258.453 234.161 263.227 205.814 278.711C205.318 271.6 205.558 264.457 206.531 257.395C208.212 245.508 207.883 230.047 207.448 219.619C215.549 227.096 228.694 235.879 243.379 232.422C267.646 226.72 249.739 251.046 219.97 250.047Z" fill="black" fill-opacity="0.7"/>
<path d="M202.604 164.053C202.604 164.053 210.011 162.101 227.071 168.321C227.071 168.321 251.491 164.112 261.168 168.321C268.058 164.908 275.561 162.91 283.236 162.442C283.236 162.442 315.487 145.641 324.787 142.349C334.087 139.057 348.361 130.415 352.699 127.288C357.038 124.16 369.442 120.445 369.442 120.445C371.17 118.586 373.285 117.13 375.638 116.177C375.638 116.177 389.911 129.804 388.665 137.846L383.703 139.362C383.703 139.362 293.759 200.771 290.667 202.758C289.115 203.77 292.489 209.731 291.596 225.45C290.62 242.734 299.273 256.807 296.522 266.049C296.522 266.049 288.022 252.387 262.214 253.668C241.051 254.714 206.319 283.649 206.319 283.649C205.226 274.927 205.297 266.099 206.531 257.395C209.118 239.089 206.942 212.317 206.942 208.496C206.942 202.3 123.841 151.014 123.841 151.014L119.503 149.932L108.333 140.985C108.333 140.985 115.775 116.941 128.18 119.504L138.761 126.958L152.094 134.119C152.094 134.119 188.342 158.057 202.604 164.053Z" stroke="#131313" stroke-linecap="round" stroke-linejoin="round"/>
<path d="M261.298 272.331C261.428 272.335 261.543 272.338 261.644 272.341V277.033C257.225 276.547 251.216 276.553 246.252 276.684C243.659 276.753 241.343 276.856 239.675 276.941C238.841 276.984 238.169 277.022 237.705 277.05C237.638 277.054 237.576 277.058 237.518 277.062V273.277C238.979 272.918 241.105 272.672 243.532 272.509C246.158 272.333 249.098 272.257 251.856 272.235C254.612 272.212 257.18 272.242 259.06 272.278C259.999 272.297 260.766 272.316 261.298 272.331Z" fill="#131313" stroke="#131313"/>
<path d="M266.778 277.058L266.256 272.141C272.464 271.569 278.722 271.97 284.806 273.33L285.678 277.83C284.45 277.57 282.862 277.39 281.142 277.266C279.022 277.112 276.668 277.039 274.473 277.011C272.278 276.982 270.239 276.997 268.749 277.019C268.003 277.03 267.395 277.043 266.973 277.053C266.903 277.055 266.837 277.057 266.778 277.058Z" fill="#131313" stroke="#131313"/>
<path d="M243.379 273.35V276.771C243.379 277.223 243.558 277.657 243.878 277.977C244.198 278.296 244.631 278.476 245.084 278.476H253.149C253.373 278.476 253.595 278.432 253.802 278.346C254.008 278.261 254.196 278.135 254.355 277.977C254.513 277.818 254.638 277.631 254.724 277.424C254.81 277.217 254.854 276.995 254.854 276.771V273.115C254.852 272.887 254.806 272.662 254.717 272.453C254.627 272.244 254.498 272.055 254.335 271.896C254.172 271.737 253.979 271.613 253.767 271.529C253.556 271.446 253.329 271.405 253.102 271.41L245.037 271.645C244.594 271.66 244.174 271.846 243.865 272.164C243.556 272.482 243.381 272.907 243.379 273.35Z" fill="white" stroke="#131313" stroke-linecap="round" stroke-linejoin="round"/>
<path d="M249.081 278.723C249.081 278.723 250.092 310.809 248.505 331.279" stroke="#131313" stroke-linecap="round" stroke-linejoin="round"/>
<path d="M252.996 278.253C252.996 278.253 254.078 287.247 252.996 292.209C252.996 292.209 256.335 305.542 249.622 306.941" stroke="#131313" stroke-linecap="round" stroke-linejoin="round"/>
<path d="M235.16 332.113C241.917 330.521 248.857 329.845 255.795 330.103" stroke="#131313" stroke-linecap="round" stroke-linejoin="round"/>
<path d="M280.591 280.804C280.591 280.804 284.624 291.609 290.667 292.479" stroke="#131313" stroke-linecap="round" stroke-linejoin="round"/>
<path d="M217.336 281.58C217.336 281.58 214.985 289.904 209.423 292.479" stroke="#131313" stroke-linecap="round" stroke-linejoin="round"/>
<path d="M236.407 318.169C236.407 318.169 204.662 344.212 195.632 344.835" stroke="#131313" stroke-linecap="round" stroke-linejoin="round"/>
<path d="M245.483 332.113C245.483 332.113 255.795 332.113 268.998 347.316C278.181 357.897 307.915 366.069 307.915 366.069" stroke="#131313" stroke-linecap="round" stroke-linejoin="round"/>
<path d="M244.096 335.982C244.096 335.982 231.903 339.438 226.166 344.87" stroke="#131313" stroke-linecap="round" stroke-linejoin="round"/>
<path d="M290.667 202.758C290.667 202.758 291.619 175.375 285.329 166.969" stroke="#131313" stroke-linecap="round" stroke-linejoin="round"/>
<path d="M296.522 170.637C296.522 170.637 296.71 187.203 290.644 194.752" stroke="#131313" stroke-linecap="round" stroke-linejoin="round"/>
<path d="M206.942 208.496C206.942 208.496 201.428 185.922 203.227 174.905" stroke="#263238" stroke-linecap="round" stroke-linejoin="round"/>
<path d="M202.604 164.053C202.604 164.053 194.08 171.637 195.632 181.619" stroke="#263238" stroke-linecap="round" stroke-linejoin="round"/>
<path d="M369.43 120.433C373.554 123.788 377.06 127.839 379.788 132.402" stroke="#263238" stroke-linecap="round" stroke-linejoin="round"/>
<path d="M116.128 147.228C116.128 147.228 118.103 133.119 126.945 127.041" stroke="#263238" stroke-linecap="round" stroke-linejoin="round"/>
<path d="M285.329 221.723C285.329 221.723 245.025 251.528 224.59 250.352" stroke="#131313" stroke-linecap="round" stroke-linejoin="round"/>
<path d="M219.97 194.752C219.97 194.752 237.018 213.928 262.214 217.185" stroke="#131313" stroke-linecap="round" stroke-linejoin="round"/>
<path opacity="0.3" d="M333.229 354.888L326.986 430.911C326.986 430.911 336.309 419.354 353.604 421.764L356.391 427.196C356.391 427.196 389.312 438.095 400.587 438.577C400.587 438.577 394.708 388.596 385.82 376.38C376.931 364.164 333.229 354.888 333.229 354.888Z" fill="black" fill-opacity="0.7"/>
<path opacity="0.1" d="M376.484 271.692L438.952 223.31C438.952 223.31 474.718 275.349 488.627 279.052C488.627 279.052 473.683 314.924 418.411 331.067C418.388 331.067 389.512 281.098 376.484 271.692Z" fill="#342BDB"/>
<path opacity="0.1" d="M275.465 77.7182C275.465 77.7182 300.002 87.6533 318.238 104.278C318.238 104.278 355.791 78.7176 367.996 77.7182C367.996 77.7182 346.832 38.9188 329.796 24.1162C329.796 24.1162 286.528 59.1768 275.465 77.7182Z" fill="#342BDB"/>
<path opacity="0.1" d="M132.765 54.0976C132.765 54.0976 146.874 92.0152 145.886 107.382C157.614 107.749 169.161 104.426 178.901 97.8822C183.484 94.6892 188.725 92.5666 194.238 91.6712C199.751 90.7758 205.394 91.1304 210.752 92.7089C210.752 92.7089 204.873 54.9441 210.752 43.9862C210.752 43.9862 206.942 39.0716 186.061 39.4361C165.18 39.8005 140.207 53.8036 132.765 54.0976Z" fill="#342BDB"/>
<path opacity="0.1" d="M52.6264 87.1008C53.6728 86.7951 93.3423 117.176 108.603 120.386C108.603 120.386 72.8256 169.25 44.7254 188.426C44.7254 188.426 22.5274 146.958 0.305878 138.986C0.305878 138.986 19.3059 96.5067 52.6264 87.1008Z" fill="#342BDB"/>
<path d="M211.986 75.9784C206.473 57.2648 202.811 38.0551 201.052 18.6257C201.009 18.4564 200.928 18.2989 200.816 18.1647C200.704 18.0305 200.564 17.9229 200.405 17.8497C171.941 5.35157 156.527 40.0477 129.226 32.6405C128.838 32.5465 128.626 32.6405 128.767 32.9932C138.492 53.7037 146.171 75.3145 151.694 97.5179C151.749 97.6964 151.84 97.8616 151.961 98.0032C152.082 98.1449 152.232 98.2598 152.4 98.3409C176.702 108.111 188.448 71.1343 211.587 76.3311C211.881 76.4251 212.069 76.2488 211.986 75.9784Z" fill="white"/>
<path d="M191.115 52.3356C191.056 51.7688 190.931 51.2108 190.743 50.6728C190.083 48.7885 188.702 47.2435 186.902 46.3777C185.103 45.5119 183.034 45.3963 181.15 46.0563C180.525 46.2762 179.932 46.5755 179.384 46.9469C178.213 45.9189 176.742 45.2969 175.189 45.1736C173.636 45.0502 172.085 45.4321 170.767 46.2623C169.448 47.0925 168.434 48.3266 167.874 49.7804C167.315 51.2343 167.24 52.8301 167.661 54.3298C167.302 54.387 166.948 54.4738 166.602 54.5895C165.231 55.0617 164.085 56.0273 163.387 57.2982C162.689 58.5691 162.49 60.0543 162.827 61.4645C162.056 61.7962 161.44 62.4101 161.107 63.1806C160.773 63.951 160.747 64.8198 161.033 65.6092C161.319 66.3986 161.895 67.0488 162.645 67.4269C163.395 67.805 164.26 67.8823 165.065 67.6431L191.106 58.5224C191.744 58.2964 192.298 57.8787 192.691 57.3264C193.083 56.774 193.296 56.1139 193.299 55.4363C193.303 54.7586 193.097 54.0964 192.71 53.5401C192.323 52.9838 191.774 52.5605 191.137 52.3279L191.115 52.3356Z" fill="#F2F2FB"/>
<path d="M187.115 50.3356C187.056 49.7688 186.931 49.2108 186.743 48.6728C186.083 46.7885 184.702 45.2435 182.902 44.3777C181.103 43.5119 179.034 43.3963 177.15 44.0563C176.525 44.2762 175.932 44.5755 175.384 44.9469C174.213 43.9189 172.742 43.2969 171.189 43.1736C169.636 43.0502 168.085 43.4321 166.767 44.2623C165.448 45.0925 164.434 46.3266 163.874 47.7804C163.315 49.2343 163.24 50.8301 163.661 52.3298C163.302 52.387 162.948 52.4738 162.602 52.5895C161.231 53.0617 160.085 54.0273 159.387 55.2982C158.689 56.5691 158.49 58.0543 158.827 59.4645C158.056 59.7962 157.44 60.4101 157.107 61.1806C156.773 61.951 156.747 62.8198 157.033 63.6092C157.319 64.3986 157.895 65.0488 158.645 65.4269C159.395 65.805 160.26 65.8823 161.065 65.6431L187.106 56.5224C187.744 56.2964 188.298 55.8787 188.691 55.3264C189.083 54.774 189.296 54.1139 189.299 53.4363C189.303 52.7586 189.097 52.0964 188.71 51.5401C188.323 50.9838 187.774 50.5605 187.137 50.3279L187.115 50.3356Z" stroke="#131313" stroke-linecap="round" stroke-linejoin="round"/>
<path opacity="0.1" d="M211.587 76.3662C188.448 71.1694 176.702 108.111 152.4 98.3761C152.232 98.295 152.082 98.18 151.961 98.0384C151.84 97.8967 151.749 97.7315 151.694 97.5531C146.171 75.3496 138.492 53.7388 128.767 33.0284C128.626 32.7345 128.838 32.5816 129.226 32.6757C156.527 40.0476 171.941 5.35143 200.405 17.8496C200.564 17.9227 200.704 18.0303 200.816 18.1646C200.928 18.2988 201.009 18.4563 201.052 18.6256C202.811 38.0549 206.473 57.2647 211.986 75.9782C212.069 76.2486 211.881 76.425 211.587 76.3662ZM152.67 97.4708C176.385 106.359 188.107 70.6521 210.728 75.3198C205.356 56.7918 201.719 37.804 199.865 18.602C172.105 7.07977 156.891 40.6119 130.402 33.8867C139.779 54.3454 147.234 75.6317 152.67 97.4708Z" fill="#2B21ED"/>
<path d="M369.077 70.5111V70.4405C368.983 70.076 368.877 69.7351 368.783 69.3706C368.689 69.0061 368.583 68.5946 368.478 68.1949C368.372 67.7951 368.207 67.2778 368.066 66.8192C367.925 66.3607 367.843 66.0668 367.725 65.6435L367.267 64.3855L366.879 63.2803C366.726 62.8452 366.549 62.4102 366.385 61.9869L365.961 60.8935C365.797 60.4702 365.609 60.0587 365.432 59.6472L364.974 58.5773L364.41 57.331C364.245 56.99 364.092 56.6373 363.916 56.2964C363.739 55.9554 363.516 55.4851 363.316 55.1206C363.116 54.7561 362.975 54.4387 362.799 54.1095C362.622 53.7803 362.387 53.3217 362.176 52.9337C361.964 52.5457 361.811 52.2636 361.635 51.9344L360.976 50.7586L360.412 49.771L359.73 48.5952L359.13 47.6194C358.907 47.2549 358.672 46.8904 358.437 46.5259C358.202 46.1615 358.025 45.8793 357.825 45.5618C357.625 45.2444 357.332 44.8329 357.096 44.4684C356.861 44.1039 356.685 43.8335 356.473 43.5278L355.721 42.4461L355.086 41.5173L354.333 40.4591L353.722 39.5773L352.934 38.4956L352.288 37.6138L351.371 36.3558L349.948 34.4511L349.395 33.7339L348.22 32.2289L347.89 31.7939L346.409 29.8539L346.138 29.4895C345.739 28.9721 345.339 28.4548 344.963 27.9257C344.763 27.6671 344.563 27.4201 344.375 27.1615L343.493 25.9857L342.835 25.0922L342.035 24.034C341.812 23.7401 341.588 23.4344 341.377 23.1287C341.165 22.823 340.848 22.4232 340.601 22.0705L339.931 21.1534L339.178 20.107L338.52 19.1547C338.273 18.802 338.026 18.461 337.791 18.1083L337.132 17.1324L336.439 16.0978C336.215 15.7685 335.992 15.4276 335.78 15.0866L335.11 14.052C334.898 13.711 334.687 13.3818 334.487 13.0408C334.287 12.6999 334.04 12.3354 333.828 11.9709C333.617 11.6064 333.417 11.289 333.217 10.948L332.582 9.86633L331.994 8.80816C331.798 8.45544 331.599 8.09096 331.395 7.71472L330.842 6.6448C330.642 6.28032 330.454 5.90408 330.266 5.52784L329.737 4.4344C329.514 3.95235 329.278 3.48205 329.055 3C327.628 4.41089 326.202 5.8061 324.775 7.18564L324.481 7.46782C323.235 8.66707 321.989 9.84281 320.742 10.995L319.567 12.065C318.591 12.9703 317.627 13.8638 316.651 14.7457L315.264 16.0155L312.571 18.5315C298.795 30.8722 283.959 41.9749 268.234 51.711C268.09 51.7887 267.981 51.918 267.929 52.0728C267.876 52.2277 267.884 52.3967 267.952 52.5457C279.521 73.4622 302.225 86.3601 317.509 104.278C317.554 104.334 317.609 104.381 317.672 104.415C317.734 104.45 317.803 104.471 317.874 104.479C317.945 104.487 318.017 104.48 318.086 104.46C318.154 104.439 318.218 104.406 318.273 104.361C329.687 94.5729 342.019 85.9105 355.098 78.4943L356.203 77.8594C358.108 76.8013 360.024 75.7549 361.952 74.7555L362.716 74.3557C364.59 73.3916 366.467 72.451 368.348 71.534L369.23 71.0989L369.077 70.5111Z" fill="white"/>
<path opacity="0.1" d="M317.474 104.196C302.189 86.3247 279.486 73.4268 267.916 52.4634C267.849 52.3143 267.841 52.1454 267.893 51.9905C267.946 51.8356 268.055 51.7063 268.199 51.6286C289.668 38.4485 309.35 22.4349 328.526 3.4232C328.796 3.15278 329.137 3.18805 329.278 3.5055C340.366 27.3378 362.305 42.9281 369.077 70.3581C369.125 70.5157 369.123 70.6844 369.07 70.8404C369.017 70.9965 368.917 71.1321 368.783 71.2282C350.581 79.975 333.588 91.0405 318.226 104.149C318.132 104.253 318 104.316 317.86 104.325C317.719 104.334 317.581 104.288 317.474 104.196ZM269.269 52.334C280.826 72.7214 302.907 85.5487 317.932 103.079C333.227 90.1495 350.038 79.1301 367.996 70.2641C360.941 43.7276 339.66 28.2901 328.561 5.13978C309.679 23.5519 290.35 39.2598 269.292 52.334H269.269Z" fill="#2B21ED"/>
<path d="M485.076 290.41C468.945 271.88 457.728 250.646 450.262 227.343C450.243 227.268 450.206 227.198 450.156 227.138C450.106 227.079 450.043 227.031 449.971 227C449.9 226.968 449.823 226.953 449.745 226.955C449.667 226.958 449.591 226.978 449.521 227.014C426.254 238.771 404.561 250.529 381.328 261.428C381.259 261.457 381.196 261.5 381.144 261.554C381.092 261.609 381.052 261.673 381.025 261.743C380.999 261.814 380.987 261.889 380.991 261.964C380.994 262.039 381.013 262.113 381.046 262.18C391.725 281.132 398.939 301.835 402.351 323.319C402.395 323.482 402.497 323.623 402.637 323.716C402.778 323.809 402.948 323.848 403.115 323.825C433.049 321.506 461.577 310.167 484.935 291.304C485.07 291.203 485.161 291.053 485.188 290.886C485.214 290.718 485.174 290.548 485.076 290.41Z" fill="white"/>
<path opacity="0.1" d="M484.935 291.303C461.571 310.161 433.039 321.492 403.103 323.801C402.936 323.824 402.766 323.785 402.626 323.692C402.485 323.599 402.383 323.458 402.339 323.295C398.927 301.812 391.713 281.108 381.035 262.157C381.001 262.089 380.982 262.016 380.979 261.94C380.975 261.865 380.987 261.79 381.013 261.72C381.04 261.649 381.08 261.585 381.132 261.531C381.185 261.476 381.247 261.433 381.317 261.404C404.514 250.552 426.207 238.759 449.51 226.99C449.579 226.954 449.655 226.934 449.733 226.932C449.811 226.929 449.888 226.944 449.96 226.976C450.031 227.008 450.094 227.055 450.144 227.114C450.195 227.174 450.231 227.244 450.25 227.32C457.716 250.623 468.933 271.857 485.064 290.386C485.117 290.455 485.155 290.533 485.178 290.616C485.2 290.7 485.205 290.787 485.193 290.872C485.181 290.958 485.152 291.04 485.107 291.114C485.063 291.188 485.004 291.252 484.935 291.303ZM403.644 322.578C432.845 320.081 460.658 309.017 483.594 290.774C467.981 272.303 456.929 251.352 449.404 228.46C426.677 240.076 405.314 251.622 382.504 262.133C392.92 280.953 400.068 301.403 403.644 322.613V322.578Z" fill="#2B21ED"/>
<path d="M397.036 341.79C396.966 341.437 396.695 341.355 396.437 341.59C374.18 359.003 351.429 334.065 328.373 347.222C328.207 347.31 328.061 347.43 327.942 347.576C327.823 347.721 327.733 347.888 327.679 348.068C323.634 368.404 321.255 389.036 320.566 409.759C320.566 410.053 320.837 410.124 321.189 409.936C348.878 395.392 376.202 427.125 403.797 417.754C403.983 417.679 404.144 417.553 404.262 417.391C404.38 417.229 404.451 417.037 404.467 416.837C404.323 391.645 401.835 366.521 397.036 341.79Z" fill="white"/>
<path d="M376.047 381.973C376.278 381.452 376.449 380.906 376.556 380.347C376.926 378.385 376.502 376.356 375.377 374.707C374.252 373.057 372.518 371.922 370.556 371.552C369.905 371.43 369.241 371.393 368.581 371.44C368.081 369.965 367.118 368.69 365.835 367.807C364.552 366.924 363.017 366.479 361.461 366.539C359.904 366.599 358.408 367.16 357.197 368.139C355.985 369.119 355.123 370.463 354.738 371.973C354.398 371.842 354.048 371.741 353.691 371.668C352.267 371.392 350.792 371.655 349.552 372.406C348.312 373.158 347.397 374.344 346.984 375.734C346.15 375.636 345.31 375.86 344.636 376.36C343.962 376.861 343.504 377.6 343.357 378.427C343.21 379.253 343.385 380.105 343.845 380.807C344.305 381.509 345.016 382.009 345.833 382.204L372.945 387.326C373.611 387.449 374.299 387.365 374.915 387.082C375.532 386.8 376.046 386.335 376.388 385.75C376.729 385.165 376.882 384.488 376.825 383.813C376.768 383.138 376.504 382.497 376.069 381.977L376.047 381.973Z" fill="#F2F2FB"/>
<path d="M373.582 378.241C373.814 377.72 373.985 377.174 374.092 376.615C374.462 374.653 374.038 372.624 372.913 370.975C371.788 369.325 370.053 368.19 368.092 367.82C367.441 367.698 366.777 367.661 366.117 367.708C365.617 366.233 364.654 364.958 363.371 364.075C362.088 363.192 360.553 362.747 358.997 362.807C357.44 362.867 355.944 363.428 354.733 364.407C353.521 365.387 352.659 366.731 352.274 368.241C351.934 368.11 351.583 368.009 351.227 367.936C349.803 367.66 348.328 367.923 347.088 368.674C345.848 369.426 344.933 370.612 344.519 372.002C343.686 371.904 342.846 372.128 342.172 372.628C341.498 373.129 341.04 373.868 340.893 374.695C340.746 375.521 340.921 376.373 341.381 377.075C341.841 377.777 342.552 378.277 343.369 378.472L370.481 383.594C371.147 383.717 371.835 383.632 372.451 383.35C373.068 383.068 373.582 382.603 373.923 382.018C374.265 381.433 374.418 380.756 374.361 380.081C374.304 379.406 374.04 378.765 373.605 378.245L373.582 378.241Z" stroke="#131313" stroke-linecap="round" stroke-linejoin="round"/>
<path opacity="0.1" d="M403.797 417.754C376.202 427.16 348.878 395.415 321.189 409.936C320.837 410.124 320.554 410.053 320.566 409.759C321.255 389.036 323.634 368.404 327.679 348.068C327.733 347.888 327.822 347.721 327.942 347.576C328.061 347.43 328.207 347.31 328.373 347.222C351.429 334.065 374.227 358.979 396.437 341.59C396.695 341.355 396.966 341.437 397.036 341.79C401.835 366.521 404.323 391.645 404.467 416.837C404.451 417.037 404.38 417.229 404.262 417.391C404.144 417.553 403.983 417.679 403.797 417.754ZM321.871 408.548C349.101 394.992 375.955 425.373 403.127 416.696C402.993 392.067 400.667 367.499 396.178 343.283C374.027 359.602 351.5 335.605 328.749 347.986C324.899 367.966 322.6 388.214 321.871 408.548Z" fill="#2B21ED"/>
<path d="M396.931 397.308C373.992 402.164 351.206 382.435 328.432 388.984C328.432 388.643 328.491 388.29 328.514 387.938C351.218 381.389 373.968 401.024 396.872 396.05C396.895 396.473 396.907 396.885 396.931 397.308Z" fill="#263238"/>
<path d="M81.585 398.296C58.4699 402.329 35.4254 382.012 12.3221 388.608C12.3221 388.255 12.3221 387.902 12.3221 387.55C35.3901 380.954 58.3993 401.2 81.4909 397.038L81.585 398.296Z" fill="#263238"/>
<path d="M100.75 117.929C81.0419 104.237 62.4715 88.9777 45.2193 72.2982C45.1114 72.1896 44.9691 72.122 44.8167 72.1069C44.6644 72.0919 44.5115 72.1305 44.3845 72.2159C28.0589 84.0712 12.9016 97.4569 -0.881515 112.191C-0.972272 112.313 -1.0152 112.464 -1.00221 112.616C-0.989213 112.768 -0.921192 112.909 -0.810973 113.014C16.7778 132.158 32.7924 152.69 47.077 174.411C47.1225 174.479 47.1824 174.535 47.2522 174.576C47.322 174.618 47.4001 174.643 47.4809 174.651C47.5617 174.659 47.6433 174.649 47.7198 174.622C47.7963 174.595 47.8658 174.551 47.9235 174.494C67.3049 157.66 85.0226 139.001 100.832 118.775C100.885 118.716 100.926 118.646 100.951 118.57C100.976 118.494 100.985 118.414 100.977 118.334C100.97 118.254 100.945 118.177 100.906 118.107C100.867 118.038 100.814 117.977 100.75 117.929Z" fill="white"/>
<path d="M40.5352 135.005C40.0527 134.702 39.6069 134.344 39.2069 133.938C37.8066 132.515 37.0291 130.593 37.0454 128.597C37.0617 126.6 37.8705 124.692 39.2938 123.292C39.7664 122.828 40.2967 122.428 40.8716 122.1C40.4652 120.596 40.5558 119.001 41.1299 117.553C41.7039 116.104 42.7307 114.881 44.0571 114.064C45.3835 113.246 46.9385 112.88 48.4901 113.019C50.0417 113.158 51.5069 113.794 52.6672 114.834C52.877 114.536 53.1112 114.257 53.3673 113.998C54.3956 112.976 55.7676 112.373 57.216 112.307C58.6645 112.241 60.0856 112.716 61.2026 113.641C61.8404 113.095 62.6628 112.813 63.5013 112.854C64.3399 112.894 65.1314 113.253 65.7138 113.858C66.2962 114.463 66.6254 115.267 66.6342 116.107C66.643 116.946 66.3307 117.757 65.7611 118.374L46.0922 137.725C45.6077 138.198 44.9887 138.511 44.3198 138.62C43.651 138.729 42.9648 138.628 42.3551 138.333C41.7453 138.037 41.2417 137.56 40.913 136.968C40.5843 136.375 40.4466 135.695 40.5185 135.021L40.5352 135.005Z" fill="#F2F2FB"/>
<path d="M40.5039 130.533C40.0214 130.23 39.5757 129.872 39.1756 129.466C37.7754 128.042 36.9979 126.121 37.0142 124.125C37.0305 122.128 37.8393 120.22 39.2625 118.82C39.7352 118.356 40.2655 117.956 40.8404 117.628C40.434 116.124 40.5246 114.529 41.0987 113.081C41.6727 111.632 42.6995 110.408 44.0259 109.591C45.3523 108.774 46.9072 108.408 48.4589 108.547C50.0105 108.686 51.4757 109.322 52.636 110.362C52.8458 110.064 53.08 109.785 53.3361 109.526C54.3644 108.504 55.7364 107.901 57.1848 107.835C58.6333 107.769 60.0544 108.244 61.1714 109.169C61.8092 108.623 62.6315 108.341 63.4701 108.382C64.3087 108.422 65.1002 108.781 65.6826 109.386C66.2649 109.991 66.5942 110.795 66.603 111.635C66.6118 112.474 66.2994 113.285 65.7299 113.902L46.061 133.252C45.5764 133.726 44.9575 134.039 44.2886 134.148C43.6197 134.256 42.9336 134.156 42.3238 133.86C41.7141 133.565 41.2105 133.088 40.8818 132.495C40.5531 131.903 40.4153 131.223 40.4873 130.549L40.5039 130.533Z" stroke="#131313" stroke-linecap="round" stroke-linejoin="round"/>
<path d="M80.3722 202.352C80.519 201.801 80.6015 201.235 80.618 200.666C80.674 198.67 79.9349 196.734 78.5632 195.283C77.1916 193.832 75.2997 192.985 73.3039 192.929C72.6423 192.912 71.9811 192.98 71.3367 193.131C70.6101 191.753 69.4575 190.647 68.0509 189.977C66.6442 189.308 65.0589 189.111 63.5312 189.416C62.0035 189.721 60.6154 190.512 59.5738 191.67C58.5322 192.829 57.8929 194.293 57.7512 195.844C57.3949 195.769 57.033 195.724 56.6692 195.709C55.22 195.66 53.8048 196.153 52.6992 197.092C51.5937 198.03 50.877 199.346 50.6887 200.783C49.8498 200.818 49.0559 201.172 48.4693 201.773C47.8828 202.373 47.5479 203.175 47.5333 204.015C47.5187 204.854 47.8255 205.667 48.3908 206.288C48.9561 206.909 49.7372 207.29 50.5744 207.354L78.1551 208.128C78.8326 208.145 79.4987 207.952 80.0626 207.576C80.6265 207.2 81.0606 206.66 81.3057 206.028C81.5508 205.396 81.5949 204.704 81.432 204.046C81.2691 203.388 80.9071 202.797 80.3955 202.353L80.3722 202.352Z" fill="#F2F2FB"/>
<path d="M77.3494 199.056C77.4962 198.505 77.5787 197.939 77.5952 197.37C77.6512 195.374 76.9121 193.438 75.5404 191.987C74.1688 190.536 72.277 189.689 70.2812 189.633C69.6195 189.616 68.9583 189.684 68.3139 189.835C67.5873 188.457 66.4347 187.351 65.0281 186.681C63.6215 186.012 62.0361 185.815 60.5084 186.12C58.9808 186.425 57.5926 187.216 56.551 188.374C55.5094 189.533 54.8701 190.997 54.7285 192.548C54.3721 192.473 54.0102 192.428 53.6464 192.413C52.1972 192.364 50.782 192.857 49.6765 193.796C48.5709 194.734 47.8542 196.05 47.6659 197.488C46.8271 197.522 46.0331 197.876 45.4466 198.477C44.86 199.077 44.5252 199.879 44.5106 200.719C44.496 201.558 44.8027 202.372 45.368 202.992C45.9333 203.613 46.7145 203.994 47.5516 204.058L75.1324 204.832C75.8098 204.849 76.4759 204.656 77.0398 204.28C77.6037 203.904 78.0378 203.364 78.2829 202.732C78.528 202.1 78.5721 201.408 78.4092 200.75C78.2463 200.093 77.8844 199.501 77.3728 199.057L77.3494 199.056Z" stroke="#131313" stroke-linecap="round" stroke-linejoin="round"/>
<path d="M331.458 71.699C331.93 71.3793 332.363 71.0059 332.749 70.5865C334.099 69.1158 334.81 67.1689 334.725 65.1741C334.64 63.1793 333.766 61.3001 332.295 59.9498C331.807 59.5029 331.263 59.1208 330.677 58.8128C331.031 57.2958 330.886 55.7049 330.262 54.2773C329.638 52.8498 328.57 51.662 327.216 50.8912C325.862 50.1204 324.296 49.8079 322.75 50.0001C321.204 50.1924 319.762 50.8792 318.638 51.9581C318.418 51.668 318.174 51.3965 317.909 51.1466C316.846 50.1605 315.454 49.6053 314.004 49.5893C312.555 49.5733 311.151 50.0976 310.066 51.0601C309.41 50.5364 308.578 50.2833 307.742 50.3526C306.905 50.4219 306.126 50.8082 305.565 51.4327C305.004 52.0571 304.703 52.8725 304.723 53.7118C304.743 54.5511 305.083 55.351 305.674 55.9478L325.998 74.6084C326.499 75.0651 327.128 75.3562 327.8 75.4419C328.472 75.5276 329.155 75.4037 329.754 75.0871C330.353 74.7706 330.84 74.2768 331.148 73.6732C331.456 73.0696 331.57 72.3857 331.475 71.7147L331.458 71.699Z" fill="#F2F2FB"/>
<path d="M331.335 67.2285C331.807 66.9088 332.24 66.5355 332.626 66.116C333.976 64.6453 334.687 62.6984 334.602 60.7037C334.517 58.7089 333.643 56.8296 332.172 55.4793C331.684 55.0325 331.14 54.6503 330.554 54.3423C330.908 52.8253 330.763 51.2344 330.139 49.8069C329.515 48.3793 328.447 47.1916 327.093 46.4208C325.739 45.65 324.173 45.3374 322.627 45.5297C321.081 45.7219 319.639 46.4088 318.515 47.4877C318.295 47.1975 318.051 46.9261 317.786 46.6762C316.723 45.69 315.331 45.1348 313.882 45.1188C312.432 45.1028 311.028 45.6271 309.943 46.5896C309.287 46.066 308.456 45.8129 307.619 45.8821C306.782 45.9514 306.004 46.3378 305.442 46.9622C304.881 47.5867 304.58 48.402 304.6 49.2413C304.62 50.0806 304.96 50.8805 305.551 51.4773L325.875 70.1379C326.376 70.5947 327.005 70.8858 327.677 70.9714C328.35 71.0571 329.032 70.9332 329.631 70.6167C330.23 70.3001 330.717 69.8064 331.025 69.2028C331.333 68.5992 331.447 67.9152 331.352 67.2443L331.335 67.2285Z" stroke="#131313" stroke-linecap="round" stroke-linejoin="round"/>
<path d="M461.034 98.0331C461.267 97.5131 461.439 96.9678 461.547 96.4081C461.922 94.4471 461.503 92.4174 460.381 90.7655C459.26 89.1136 457.528 87.9749 455.567 87.5999C454.917 87.4766 454.253 87.4376 453.593 87.4837C453.096 86.0071 452.136 84.7305 450.855 83.8443C449.573 82.9581 448.04 82.5098 446.483 82.5661C444.927 82.6225 443.43 83.1806 442.216 84.1571C441.002 85.1336 440.137 86.4763 439.748 87.985C439.408 87.8539 439.058 87.7512 438.702 87.6779C437.279 87.3981 435.803 87.658 434.562 88.4069C433.32 89.1557 432.402 90.34 431.985 91.7289C431.152 91.6287 430.311 91.8507 429.636 92.3497C428.961 92.8486 428.502 93.5867 428.353 94.413C428.204 95.2392 428.377 96.0912 428.835 96.7944C429.294 97.4977 430.004 97.9992 430.82 98.1962L457.92 103.379C458.586 103.504 459.275 103.421 459.892 103.14C460.508 102.86 461.023 102.395 461.367 101.811C461.71 101.227 461.864 100.551 461.809 99.8754C461.753 99.2 461.491 98.5581 461.057 98.0375L461.034 98.0331Z" fill="#F2F2FB"/>
<path d="M458.579 94.2956C458.812 93.7756 458.984 93.2302 459.091 92.6706C459.466 90.7095 459.047 88.6798 457.926 87.028C456.804 85.3761 455.072 84.2374 453.111 83.8623C452.461 83.7391 451.797 83.7001 451.137 83.7462C450.641 82.2696 449.68 80.993 448.399 80.1068C447.118 79.2206 445.585 78.7722 444.028 78.8286C442.471 78.8849 440.974 79.443 439.76 80.4195C438.546 81.3961 437.681 82.7388 437.292 84.2474C436.953 84.1163 436.603 84.0136 436.246 83.9404C434.823 83.6606 433.347 83.9204 432.106 84.6693C430.864 85.4182 429.946 86.6025 429.53 87.9914C428.696 87.8911 427.856 88.1132 427.181 88.6121C426.505 89.1111 426.046 89.8492 425.897 90.6754C425.749 91.5017 425.921 92.3536 426.38 93.0569C426.838 93.7602 427.548 94.2616 428.364 94.4587L455.465 99.6416C456.131 99.7668 456.819 99.6834 457.436 99.4028C458.053 99.1221 458.568 98.6579 458.911 98.0736C459.254 97.4892 459.409 96.8132 459.353 96.1378C459.298 95.4624 459.035 94.8206 458.601 94.3L458.579 94.2956Z" stroke="#131313" stroke-linecap="round" stroke-linejoin="round"/>
<path d="M444.095 217.847C444.481 217.429 444.818 216.966 445.098 216.47C446.078 214.731 446.327 212.673 445.79 210.75C445.253 208.827 443.974 207.196 442.234 206.216C441.657 205.892 441.041 205.644 440.4 205.477C440.4 203.92 439.896 202.404 438.964 201.155C438.031 199.907 436.72 198.994 435.227 198.552C433.733 198.109 432.136 198.162 430.675 198.701C429.213 199.24 427.965 200.237 427.117 201.544C426.836 201.311 426.537 201.102 426.222 200.919C424.963 200.201 423.481 199.977 422.066 200.292C420.65 200.606 419.403 201.437 418.566 202.621C417.808 202.26 416.94 202.203 416.141 202.461C415.342 202.719 414.672 203.273 414.268 204.008C413.864 204.744 413.756 205.607 413.966 206.419C414.177 207.232 414.691 207.933 415.401 208.38L439.44 221.923C440.032 222.254 440.711 222.394 441.385 222.325C442.059 222.255 442.695 221.979 443.207 221.534C443.718 221.09 444.08 220.498 444.242 219.84C444.405 219.182 444.36 218.49 444.115 217.859L444.095 217.847Z" fill="#F2F2FB"/>
<path d="M442.957 213.522C443.344 213.103 443.68 212.641 443.961 212.145C444.941 210.406 445.19 208.348 444.652 206.425C444.115 204.502 442.836 202.871 441.097 201.891C440.52 201.567 439.903 201.319 439.263 201.152C439.262 199.594 438.758 198.078 437.826 196.83C436.894 195.582 435.583 194.669 434.089 194.227C432.596 193.784 430.999 193.837 429.537 194.376C428.076 194.915 426.828 195.912 425.979 197.219C425.699 196.986 425.4 196.777 425.085 196.594C423.825 195.876 422.344 195.652 420.928 195.967C419.513 196.281 418.265 197.112 417.428 198.296C416.67 197.935 415.803 197.878 415.004 198.136C414.205 198.394 413.535 198.947 413.13 199.683C412.726 200.419 412.618 201.282 412.829 202.094C413.04 202.907 413.553 203.608 414.264 204.055L438.303 217.598C438.894 217.929 439.573 218.069 440.248 218C440.922 217.93 441.558 217.654 442.069 217.209C442.581 216.765 442.942 216.173 443.105 215.515C443.267 214.857 443.223 214.165 442.977 213.534L442.957 213.522Z" stroke="#131313" stroke-linecap="round" stroke-linejoin="round"/>
<path d="M110.209 300.154C110.595 299.736 110.932 299.274 111.212 298.777C112.192 297.038 112.441 294.98 111.904 293.057C111.367 291.134 110.088 289.503 108.348 288.523C107.771 288.199 107.155 287.951 106.514 287.784C106.514 286.227 106.01 284.711 105.077 283.463C104.145 282.215 102.834 281.301 101.341 280.859C99.847 280.417 98.2503 280.469 96.7888 281.008C95.3272 281.547 94.0791 282.544 93.2305 283.851C92.9503 283.618 92.6512 283.41 92.3364 283.227C91.0769 282.508 89.595 282.285 88.1796 282.599C86.7642 282.914 85.5165 283.744 84.6797 284.928C83.9215 284.567 83.0541 284.51 82.2552 284.768C81.4562 285.026 80.786 285.58 80.3818 286.315C79.9775 287.051 79.8697 287.914 80.0804 288.726C80.2911 289.539 80.8044 290.241 81.5153 290.687L105.554 304.23C106.146 304.561 106.825 304.701 107.499 304.632C108.173 304.562 108.809 304.286 109.321 303.842C109.832 303.397 110.194 302.805 110.356 302.147C110.519 301.489 110.474 300.797 110.229 300.166L110.209 300.154Z" fill="#F2F2FB"/>
<path d="M109.071 295.829C109.458 295.411 109.794 294.948 110.075 294.452C111.055 292.713 111.303 290.655 110.766 288.732C110.229 286.809 108.95 285.178 107.211 284.198C106.634 283.874 106.017 283.626 105.377 283.459C105.376 281.902 104.872 280.386 103.94 279.138C103.008 277.889 101.697 276.976 100.203 276.534C98.7095 276.091 97.1128 276.144 95.6512 276.683C94.1897 277.222 92.9416 278.219 92.093 279.526C91.8127 279.293 91.5137 279.084 91.1989 278.901C89.9393 278.183 88.4575 277.959 87.0421 278.274C85.6266 278.589 84.379 279.419 83.5422 280.603C82.7839 280.242 81.9166 280.185 81.1176 280.443C80.3187 280.701 79.6485 281.255 79.2442 281.99C78.8399 282.726 78.7322 283.589 78.9429 284.401C79.1536 285.214 79.6669 285.916 80.3778 286.362L104.417 299.905C105.008 300.236 105.687 300.376 106.362 300.307C107.036 300.237 107.672 299.961 108.183 299.516C108.694 299.072 109.056 298.48 109.219 297.822C109.381 297.164 109.337 296.472 109.091 295.841L109.071 295.829Z" stroke="#131313" stroke-linecap="round" stroke-linejoin="round"/>
<path d="M447.689 275.621C447.553 275.067 447.355 274.531 447.096 274.023C446.188 272.245 444.612 270.9 442.712 270.284C440.813 269.668 438.747 269.832 436.969 270.74C436.38 271.041 435.832 271.418 435.339 271.86C434.041 270.998 432.499 270.58 430.943 270.667C429.388 270.754 427.902 271.341 426.708 272.341C425.513 273.341 424.674 274.7 424.315 276.216C423.956 277.732 424.097 279.323 424.716 280.753C424.368 280.858 424.028 280.991 423.702 281.153C422.407 281.805 421.401 282.916 420.881 284.269C420.36 285.622 420.362 287.121 420.886 288.473C420.166 288.906 419.639 289.597 419.412 290.405C419.185 291.213 419.276 292.078 419.666 292.821C420.055 293.565 420.714 294.132 421.508 294.406C422.302 294.679 423.17 294.64 423.935 294.294L448.511 281.753C449.114 281.443 449.606 280.954 449.921 280.354C450.236 279.754 450.358 279.071 450.27 278.399C450.182 277.727 449.889 277.099 449.431 276.6C448.973 276.101 448.371 275.755 447.709 275.61L447.689 275.621Z" fill="#F2F2FB"/>
<path d="M443.456 274.177C443.321 273.624 443.122 273.087 442.863 272.58C441.956 270.801 440.379 269.456 438.48 268.84C436.58 268.224 434.514 268.388 432.736 269.296C432.147 269.598 431.599 269.974 431.106 270.416C429.808 269.555 428.266 269.137 426.711 269.223C425.155 269.31 423.669 269.897 422.475 270.897C421.28 271.897 420.441 273.257 420.082 274.772C419.724 276.288 419.864 277.88 420.484 279.309C420.135 279.414 419.796 279.548 419.469 279.709C418.174 280.361 417.168 281.472 416.648 282.826C416.127 284.179 416.129 285.677 416.653 287.029C415.933 287.462 415.406 288.153 415.179 288.961C414.953 289.77 415.043 290.634 415.433 291.378C415.822 292.122 416.481 292.688 417.275 292.962C418.069 293.236 418.937 293.196 419.702 292.851L444.279 280.309C444.881 279.999 445.374 279.511 445.688 278.911C446.003 278.31 446.125 277.628 446.037 276.956C445.949 276.284 445.656 275.655 445.198 275.156C444.74 274.657 444.139 274.311 443.477 274.167L443.456 274.177Z" stroke="#131313" stroke-linecap="round" stroke-linejoin="round"/>
<path opacity="0.1" d="M47.077 174.411C32.7924 152.69 16.7778 132.158 -0.810973 113.014C-0.921192 112.909 -0.989213 112.768 -1.00221 112.616C-1.0152 112.464 -0.972272 112.313 -0.881515 112.191C12.9016 97.4569 28.0589 84.0712 44.3845 72.2159C44.5115 72.1305 44.6644 72.0919 44.8167 72.1069C44.9691 72.122 45.1114 72.1896 45.2193 72.2982C62.4715 88.9777 81.0419 104.237 100.75 117.929C100.808 117.983 100.855 118.048 100.886 118.121C100.918 118.194 100.935 118.272 100.935 118.352C100.935 118.432 100.918 118.51 100.886 118.583C100.855 118.656 100.808 118.721 100.75 118.775C84.9403 139.001 67.2226 157.66 47.8412 174.494C47.728 174.582 47.5851 174.623 47.4424 174.607C47.2998 174.592 47.1688 174.522 47.077 174.411ZM0.305982 112.708C17.6293 131.576 33.4853 151.74 47.7354 173.024C66.6066 156.514 83.9234 138.308 99.468 118.634C80.1053 104.945 61.82 89.7924 44.7725 73.3094C28.7926 85.0747 13.9098 98.2615 0.305982 112.708Z" fill="#2B21ED"/>
<circle opacity="0.3" cx="358" cy="209" r="9" fill="#C4C1FA"/>
<circle opacity="0.3" r="9" transform="matrix(-1 0 0 1 136 248)" fill="#C4C1FA"/>
<circle r="9" transform="matrix(-1 0 0 1 78 15)" fill="#04B94A"/>
<circle opacity="0.3" r="9" transform="matrix(1 0 0 -1 391 47)" fill="#C4C1FA"/>
<circle cx="334" cy="208" r="6" fill="#2B21ED"/>
<circle r="6" transform="matrix(-1 0 0 1 164 236)" fill="#2B21ED"/>
<circle r="6" transform="matrix(-1 0 0 1 63 360)" fill="#2B21ED"/>
<circle r="6" transform="matrix(1 0 0 -1 376 15)" fill="#2B21ED"/>
<circle r="6" transform="matrix(1 0 0 -1 49 9)" fill="#2B21ED"/>
<circle r="6" transform="matrix(1 0 0 -1 352 279)" fill="#0FAF4D"/>
<circle r="6" transform="matrix(1 0 0 -1 139 354)" fill="#0FAF4D"/>
<circle cx="349" cy="187" r="3" fill="#0FAF4D"/>
<circle r="3" transform="matrix(-1 0 0 1 148 221)" fill="#0FAF4D"/>
<circle r="3" transform="matrix(-1 0 0 1 254 9)" fill="#0FAF4D"/>
<circle r="3" transform="matrix(1 0 0 -1 403 21)" fill="#0FAF4D"/>
</g>
</svg>
