<svg width="492" height="382" viewBox="0 0 492 382" fill="none" xmlns="http://www.w3.org/2000/svg">
<mask id="mask0" mask-type="alpha" maskUnits="userSpaceOnUse" x="0" y="0" width="492" height="382">
<rect width="492" height="382" fill="#C4C4C4"/>
</mask>
<g mask="url(#mask0)">
<path d="M357.989 492.206C489.264 439.486 454.561 365.545 478.698 267.759C502.835 169.974 500.168 132.551 441.407 64.241C382.646 -4.06879 281.17 -29.4057 208.781 51.3903C136.392 132.186 69.37 124.497 27.9773 184.518C-13.4155 244.539 -5.7652 315.647 69.0649 365.803C143.895 415.96 196.113 557.224 357.989 492.206Z" fill="#F2F2FB"/>
<path d="M404.939 341.43L317.185 318.935H400.026L489.781 341.43H404.939Z" fill="#DFDEF8"/>
<path d="M92.2828 341.43L180.037 318.935H97.208L7.44131 341.43H92.2828Z" fill="#DFDEF8"/>
<path d="M252.66 317.704C252.66 317.704 252.577 317.289 252.447 316.52" stroke="#2E353A" stroke-miterlimit="10"/>
<path d="M252.056 314.199C250.789 305.995 248.646 285.524 256.685 276.384C266.879 264.817 279.097 274.727 313.148 276.384C347.198 278.042 364.72 273.081 365.076 243.885C365.431 214.689 345.458 212.759 345.458 212.759H332.837" stroke="#131313" stroke-miterlimit="10" stroke-dasharray="1.99 1.99"/>
<path d="M331.641 212.806H330.457" stroke="#2E353A" stroke-miterlimit="10"/>
<path d="M330.457 80.5004H331.641" stroke="#2E353A" stroke-miterlimit="10"/>
<path d="M334.009 80.5004H376.631C376.631 80.5004 389.477 81.6133 388.944 96.4363C388.411 111.259 367.041 125.147 368.402 154.746C369.764 184.344 420.271 179.928 427.15 209.562C434.029 239.196 383.498 237.716 378.797 253.013C377.32 256.442 376.593 260.148 376.666 263.882C376.666 268.854 376.666 280.67 376.666 285.725" stroke="#131313" stroke-miterlimit="10" stroke-dasharray="1.99 1.99"/>
<path d="M376.667 260.874V262.058" stroke="#2E353A" stroke-miterlimit="10"/>
<path d="M173.561 39.2281H172.377" stroke="#2E353A" stroke-miterlimit="10"/>
<path d="M169.583 38.7196H148.813C148.813 38.7196 67.6989 38.7196 91.785 91.1817C91.785 131.143 36.2347 130.286 58.9954 153.876C81.7561 177.466 121.345 211.612 128.461 232.961C131.198 250.478 114.601 258.588 109.088 265.749C109.088 265.749 105.118 269.36 104.776 273.769C104.505 277.237 104.658 288.603 104.776 293.267" stroke="#131313" stroke-miterlimit="10" stroke-dasharray="1.99 1.99"/>
<path d="M104.833 264.036C104.833 264.781 104.833 265.219 104.833 265.219" stroke="#2E353A" stroke-miterlimit="10"/>
<path d="M181.956 105.421C179.398 105.425 176.887 106.103 174.675 107.386C174.879 106.249 174.982 105.096 174.983 103.941C174.987 98.9236 173.116 94.0854 169.738 90.3752C166.36 86.665 161.718 84.3504 156.722 83.885C151.726 83.4196 146.737 84.8372 142.732 87.8596C138.726 90.8821 135.995 95.2916 135.072 100.224C132.643 99.3369 130.049 98.9915 127.472 99.2116C124.895 99.4316 122.398 100.212 120.154 101.497C117.91 102.783 115.974 104.543 114.481 106.655C112.989 108.767 111.975 111.179 111.512 113.723C111.048 116.267 111.146 118.882 111.798 121.385C112.45 123.887 113.641 126.217 115.287 128.211C116.933 130.206 118.995 131.817 121.329 132.931C123.662 134.046 126.211 134.637 128.797 134.665H181.968C185.846 134.665 189.565 133.124 192.307 130.382C195.049 127.64 196.59 123.921 196.59 120.043C196.59 116.165 195.049 112.446 192.307 109.704C189.565 106.962 185.846 105.421 181.968 105.421H181.956Z" fill="#DFDEF8"/>
<path d="M186.335 101.042C183.778 101.046 181.266 101.724 179.054 103.007C179.258 101.87 179.361 100.717 179.362 99.5619C179.366 94.5443 177.496 89.7062 174.118 85.996C170.74 82.2858 166.098 79.9711 161.102 79.5057C156.106 79.0404 151.116 80.4579 147.111 83.4804C143.106 86.5028 140.374 90.9123 139.451 95.8443C137.022 94.9577 134.428 94.6123 131.851 94.8323C129.275 95.0523 126.777 95.8324 124.533 97.1181C122.29 98.4038 120.354 100.164 118.861 102.276C117.368 104.387 116.354 106.8 115.891 109.344C115.427 111.888 115.525 114.503 116.177 117.005C116.829 119.508 118.02 121.838 119.666 123.832C121.312 125.827 123.374 127.437 125.708 128.552C128.042 129.667 130.59 130.258 133.176 130.285H186.347C190.225 130.285 193.944 128.745 196.686 126.003C199.428 123.261 200.969 119.541 200.969 115.664C200.969 111.786 199.428 108.067 196.686 105.324C193.944 102.582 190.225 101.042 186.347 101.042H186.335Z" fill="white" stroke="#342BDB" stroke-opacity="0.23" stroke-miterlimit="10"/>
<path d="M415.487 122.21C412.76 122.211 410.081 122.93 407.72 124.293C407.929 123.085 408.036 121.861 408.04 120.635C408.041 115.294 406.048 110.146 402.451 106.198C398.855 102.25 393.914 99.7874 388.596 99.2926C383.278 98.7977 377.968 100.306 373.704 103.523C369.441 106.739 366.532 111.432 365.548 116.681C362.954 115.718 360.18 115.335 357.422 115.559C354.664 115.783 351.989 116.609 349.584 117.978C347.18 119.347 345.104 121.226 343.504 123.484C341.903 125.741 340.817 128.321 340.32 131.044C339.824 133.766 339.931 136.564 340.632 139.24C341.333 141.917 342.612 144.408 344.379 146.537C346.146 148.666 348.358 150.383 350.86 151.566C353.361 152.748 356.092 153.369 358.859 153.383H415.487C419.616 153.383 423.576 151.743 426.496 148.823C429.415 145.903 431.056 141.943 431.056 137.814C431.056 133.685 429.415 129.725 426.496 126.805C423.576 123.885 419.616 122.245 415.487 122.245V122.21Z" fill="#DFDEF8"/>
<path d="M411.107 117.83C408.381 117.832 405.702 118.55 403.341 119.914C403.55 118.706 403.656 117.482 403.66 116.256C403.662 110.915 401.669 105.767 398.072 101.819C394.475 97.8708 389.534 95.4082 384.217 94.9133C378.899 94.4184 373.588 95.927 369.325 99.1434C365.062 102.36 362.153 107.052 361.169 112.301C358.574 111.339 355.801 110.956 353.043 111.18C350.285 111.404 347.61 112.23 345.205 113.599C342.8 114.968 340.725 116.847 339.124 119.104C337.524 121.362 336.437 123.942 335.941 126.664C335.445 129.386 335.551 132.184 336.252 134.861C336.954 137.538 338.233 140.028 340 142.158C341.767 144.287 343.979 146.004 346.48 147.186C348.982 148.369 351.712 148.989 354.479 149.004H411.107C415.237 149.004 419.197 147.363 422.116 144.444C425.036 141.524 426.676 137.564 426.676 133.435C426.676 129.306 425.036 125.346 422.116 122.426C419.197 119.506 415.237 117.866 411.107 117.866V117.83Z" fill="white" stroke="#342BDB" stroke-opacity="0.23" stroke-miterlimit="10"/>
<path d="M401.044 152.97H405.78" stroke="#C1BFEB" stroke-linecap="round" stroke-linejoin="round"/>
<path d="M377.957 152.97H394.532" stroke="#C1BFEB" stroke-linecap="round" stroke-linejoin="round"/>
<path d="M362.281 95.7734C364.705 93.7359 367.699 92.4956 370.853 92.2216" stroke="#C1BFEB" stroke-linecap="round" stroke-linejoin="round"/>
<path d="M356.646 104.428C357.073 102.556 357.879 100.791 359.014 99.2424" stroke="#C1BFEB" stroke-linecap="round" stroke-linejoin="round"/>
<path d="M122.046 154.071C117.947 154.074 113.921 155.156 110.372 157.209C110.696 155.392 110.859 153.549 110.858 151.703C110.863 143.676 107.87 135.936 102.465 130.002C97.059 124.068 89.6314 120.367 81.6385 119.626C73.6456 118.885 65.6642 121.157 59.2596 125.996C52.8551 130.835 48.4896 137.892 47.0193 145.784C43.131 144.357 38.9779 143.797 34.8506 144.144C30.7234 144.491 26.7219 145.736 23.1264 147.792C19.5309 149.848 16.4282 152.665 14.0358 156.046C11.6434 159.427 10.019 163.29 9.2764 167.364C8.5338 171.439 8.69095 175.627 9.73684 179.634C10.7827 183.642 12.6921 187.372 15.3312 190.564C17.9703 193.757 21.2753 196.333 25.0148 198.114C28.7543 199.894 32.8378 200.836 36.9794 200.873H122.046C128.158 200.735 133.973 198.211 138.247 193.839C142.521 189.468 144.914 183.597 144.914 177.484C144.914 171.37 142.521 165.5 138.247 161.128C133.973 156.757 128.158 154.232 122.046 154.095V154.071Z" fill="#DFDEF8"/>
<path d="M117.667 149.692C113.567 149.695 109.541 150.777 105.993 152.829C106.317 151.012 106.48 149.17 106.478 147.324C106.484 139.297 103.491 131.557 98.0852 125.623C92.6797 119.689 85.2521 115.988 77.2592 115.247C69.2663 114.506 61.2849 116.777 54.8804 121.616C48.4758 126.456 44.1103 133.513 42.64 141.404C38.7517 139.978 34.5986 139.418 30.4713 139.765C26.3441 140.112 22.3426 141.357 18.7471 143.413C15.1516 145.469 12.049 148.286 9.65653 151.666C7.2641 155.047 5.63971 158.91 4.89711 162.985C4.15451 167.06 4.31166 171.248 5.35756 175.255C6.40345 179.263 8.3128 182.993 10.9519 186.185C13.591 189.377 16.896 191.954 20.6355 193.734C24.375 195.515 28.4585 196.457 32.6001 196.493H117.667C123.779 196.356 129.594 193.831 133.868 189.46C138.142 185.089 140.535 179.218 140.535 173.104C140.535 166.991 138.142 161.12 133.868 156.749C129.594 152.378 123.779 149.853 117.667 149.716V149.692Z" fill="white" stroke="#342BDB" stroke-opacity="0.23" stroke-miterlimit="10"/>
<path d="M10.7563 194.114C11.9474 194.904 13.1938 195.609 14.4857 196.221" stroke="#C1BFEB" stroke-linecap="round" stroke-linejoin="round"/>
<path d="M1.46234 183.198C2.59626 185.894 4.24509 188.343 6.31651 190.408" stroke="#C1BFEB" stroke-linecap="round" stroke-linejoin="round"/>
<path d="M53.9466 113.345C58.8642 109.961 64.7619 108.296 70.7231 108.609" stroke="#C1BFEB" stroke-linecap="round" stroke-linejoin="round"/>
<path d="M48.8201 118.081C49.6454 117.003 50.5819 116.014 51.6143 115.133" stroke="#C1BFEB" stroke-linecap="round" stroke-linejoin="round"/>
<path d="M330.457 73.9534H324.833V88.8237H330.457V73.9534Z" fill="#131313" stroke="#131313" stroke-miterlimit="10"/>
<path d="M330.457 204.294H324.833V219.164H330.457V204.294Z" fill="#131313" stroke="#131313" stroke-miterlimit="10"/>
<path d="M179.184 30.5378H173.561V45.4082H179.184V30.5378Z" fill="#131313" stroke="#131313" stroke-miterlimit="10"/>
<path d="M179.184 160.997H173.561V175.867H179.184V160.997Z" fill="#131313" stroke="#131313" stroke-miterlimit="10"/>
<path d="M326.68 22.3094H178.652V54.3707H326.68V22.3094Z" fill="white" stroke="#131313" stroke-miterlimit="10"/>
<path d="M287.788 30.4907H185.767V46.1898H287.788V30.4907Z" fill="#04B94A" stroke="#131313" stroke-miterlimit="10"/>
<path d="M301.604 41.6079C303.788 41.6079 305.559 39.8374 305.559 37.6535C305.559 35.4695 303.788 33.6991 301.604 33.6991C299.42 33.6991 297.65 35.4695 297.65 37.6535C297.65 39.8374 299.42 41.6079 301.604 41.6079Z" fill="white" stroke="#131313" stroke-miterlimit="10"/>
<path d="M321.056 37.6535C321.056 36.8714 320.825 36.1068 320.39 35.4565C319.956 34.8062 319.338 34.2994 318.615 34.0001C317.893 33.7008 317.098 33.6225 316.331 33.7751C315.564 33.9277 314.859 34.3043 314.306 34.8573C313.753 35.4103 313.376 36.1149 313.224 36.882C313.071 37.6491 313.149 38.4442 313.449 39.1668C313.748 39.8893 314.255 40.5069 314.905 40.9414C315.555 41.3759 316.32 41.6079 317.102 41.6079C318.151 41.6079 319.157 41.1912 319.898 40.4496C320.64 39.7081 321.056 38.7022 321.056 37.6535Z" fill="#04B94A" stroke="#131313" stroke-miterlimit="10"/>
<path d="M278.529 41.6079C280.713 41.6079 282.484 39.8374 282.484 37.6535C282.484 35.4695 280.713 33.6991 278.529 33.6991C276.345 33.6991 274.575 35.4695 274.575 37.6535C274.575 39.8374 276.345 41.6079 278.529 41.6079Z" fill="white" stroke="#131313" stroke-miterlimit="10"/>
<path d="M321.068 54.3707H184.275V65.3459H321.068V54.3707Z" fill="#131313" stroke="#131313" stroke-miterlimit="10"/>
<path d="M326.68 65.3459H178.652V97.4072H326.68V65.3459Z" fill="white" stroke="#131313" stroke-miterlimit="10"/>
<path d="M287.788 73.5271H185.767V89.2262H287.788V73.5271Z" fill="#04B94A" stroke="#131313" stroke-miterlimit="10"/>
<path d="M301.604 84.6561C303.788 84.6561 305.559 82.8856 305.559 80.7017C305.559 78.5178 303.788 76.7473 301.604 76.7473C299.42 76.7473 297.65 78.5178 297.65 80.7017C297.65 82.8856 299.42 84.6561 301.604 84.6561Z" fill="#04B94A" stroke="#131313" stroke-miterlimit="10"/>
<path d="M321.056 80.7017C321.056 79.9196 320.825 79.1551 320.39 78.5048C319.956 77.8545 319.338 77.3476 318.615 77.0483C317.893 76.749 317.098 76.6707 316.331 76.8233C315.564 76.9759 314.859 77.3525 314.306 77.9055C313.753 78.4586 313.376 79.1632 313.224 79.9302C313.071 80.6973 313.149 81.4924 313.449 82.215C313.748 82.9375 314.255 83.5551 314.905 83.9896C315.555 84.4242 316.32 84.6561 317.102 84.6561C317.622 84.6576 318.137 84.5564 318.617 84.3582C319.098 84.1601 319.534 83.8689 319.902 83.5013C320.269 83.1338 320.56 82.6973 320.759 82.2168C320.957 81.7363 321.058 81.2214 321.056 80.7017Z" fill="white" stroke="#2E353A" stroke-miterlimit="10"/>
<path d="M278.529 84.6561C280.713 84.6561 282.484 82.8856 282.484 80.7017C282.484 78.5178 280.713 76.7473 278.529 76.7473C276.345 76.7473 274.575 78.5178 274.575 80.7017C274.575 82.8856 276.345 84.6561 278.529 84.6561Z" fill="white" stroke="#131313" stroke-miterlimit="10"/>
<path d="M321.068 97.4191H184.275V108.394H321.068V97.4191Z" fill="#131313" stroke="#131313" stroke-miterlimit="10"/>
<path d="M326.68 108.394H178.652V140.455H326.68V108.394Z" fill="white" stroke="#131313" stroke-miterlimit="10"/>
<path d="M287.788 116.575H185.767V132.274H287.788V116.575Z" fill="#04B94A" stroke="#131313" stroke-miterlimit="10"/>
<path d="M301.604 127.692C303.788 127.692 305.559 125.922 305.559 123.738C305.559 121.554 303.788 119.784 301.604 119.784C299.42 119.784 297.65 121.554 297.65 123.738C297.65 125.922 299.42 127.692 301.604 127.692Z" fill="white" stroke="#131313" stroke-miterlimit="10"/>
<path d="M321.056 123.738C321.056 122.956 320.825 122.191 320.39 121.541C319.956 120.891 319.338 120.384 318.615 120.085C317.893 119.785 317.098 119.707 316.331 119.86C315.564 120.012 314.859 120.389 314.306 120.942C313.753 121.495 313.376 122.2 313.224 122.967C313.071 123.734 313.149 124.529 313.449 125.251C313.748 125.974 314.255 126.592 314.905 127.026C315.555 127.461 316.32 127.692 317.102 127.692C318.151 127.692 319.157 127.276 319.898 126.534C320.64 125.793 321.056 124.787 321.056 123.738Z" fill="#04B94A" stroke="#131313" stroke-miterlimit="10"/>
<path d="M278.529 127.692C280.713 127.692 282.484 125.922 282.484 123.738C282.484 121.554 280.713 119.784 278.529 119.784C276.345 119.784 274.575 121.554 274.575 123.738C274.575 125.922 276.345 127.692 278.529 127.692Z" fill="white" stroke="#131313" stroke-miterlimit="10"/>
<path d="M321.068 140.455H184.275V151.431H321.068V140.455Z" fill="#131313" stroke="#131313" stroke-miterlimit="10"/>
<path d="M326.68 151.431H178.652V183.492H326.68V151.431Z" fill="white" stroke="#131313" stroke-miterlimit="10"/>
<path d="M287.788 159.612H185.767V175.311H287.788V159.612Z" fill="#04B94A" stroke="#131313" stroke-miterlimit="10"/>
<path d="M301.604 170.741C303.788 170.741 305.559 168.97 305.559 166.786C305.559 164.602 303.788 162.832 301.604 162.832C299.42 162.832 297.65 164.602 297.65 166.786C297.65 168.97 299.42 170.741 301.604 170.741Z" fill="#04B94A" stroke="#131313" stroke-miterlimit="10"/>
<path d="M321.056 166.786C321.056 166.004 320.825 165.24 320.39 164.589C319.956 163.939 319.338 163.432 318.615 163.133C317.893 162.834 317.098 162.755 316.331 162.908C315.564 163.061 314.859 163.437 314.306 163.99C313.753 164.543 313.376 165.248 313.224 166.015C313.071 166.782 313.149 167.577 313.449 168.3C313.748 169.022 314.255 169.64 314.905 170.074C315.555 170.509 316.32 170.741 317.102 170.741C317.622 170.742 318.137 170.641 318.617 170.443C319.098 170.245 319.534 169.954 319.902 169.586C320.269 169.219 320.56 168.782 320.759 168.302C320.957 167.821 321.058 167.306 321.056 166.786Z" fill="white" stroke="#131313" stroke-miterlimit="10"/>
<path d="M278.529 170.741C280.713 170.741 282.484 168.97 282.484 166.786C282.484 164.602 280.713 162.832 278.529 162.832C276.345 162.832 274.575 164.602 274.575 166.786C274.575 168.97 276.345 170.741 278.529 170.741Z" fill="white" stroke="#131313" stroke-miterlimit="10"/>
<path d="M321.068 183.504H184.275V194.479H321.068V183.504Z" fill="#131313" stroke="#131313" stroke-miterlimit="10"/>
<path d="M326.68 194.479H178.652V226.54H326.68V194.479Z" fill="white" stroke="#131313" stroke-miterlimit="10"/>
<path d="M287.788 202.66H185.767V218.359H287.788V202.66Z" fill="#04B94A" stroke="#131313" stroke-miterlimit="10"/>
<path d="M301.604 213.777C303.788 213.777 305.559 212.007 305.559 209.823C305.559 207.639 303.788 205.868 301.604 205.868C299.42 205.868 297.65 207.639 297.65 209.823C297.65 212.007 299.42 213.777 301.604 213.777Z" fill="white" stroke="#131313" stroke-miterlimit="10"/>
<path d="M321.056 209.823C321.056 209.041 320.825 208.276 320.39 207.626C319.956 206.975 319.338 206.469 318.615 206.169C317.893 205.87 317.098 205.792 316.331 205.944C315.564 206.097 314.859 206.473 314.306 207.027C313.753 207.58 313.376 208.284 313.224 209.051C313.071 209.818 313.149 210.613 313.449 211.336C313.748 212.059 314.255 212.676 314.905 213.111C315.555 213.545 316.32 213.777 317.102 213.777C318.151 213.777 319.157 213.36 319.898 212.619C320.64 211.877 321.056 210.871 321.056 209.823Z" fill="#04B94A" stroke="#131313" stroke-miterlimit="10"/>
<path d="M278.529 213.777C280.713 213.777 282.484 212.007 282.484 209.823C282.484 207.639 280.713 205.868 278.529 205.868C276.345 205.868 274.575 207.639 274.575 209.823C274.575 212.007 276.345 213.777 278.529 213.777Z" fill="white" stroke="#131313" stroke-miterlimit="10"/>
<path d="M262.522 18H270.81" stroke="#2E353A" stroke-linecap="round" stroke-linejoin="round"/>
<path d="M205.101 18H253.051" stroke="#2E353A" stroke-linecap="round" stroke-linejoin="round"/>
<path d="M172.542 212.759V218.679" stroke="#131313" stroke-miterlimit="10"/>
<path d="M172.542 194.408V206.839" stroke="#131313" stroke-miterlimit="10"/>
<path d="M305.807 246.667H200.306V318.947H305.807V246.667Z" fill="#131313" stroke="#131313" stroke-miterlimit="10"/>
<path d="M321.637 350.902H184.488L200.306 318.947H305.807L321.637 350.902Z" fill="white" stroke="#131313" stroke-miterlimit="10"/>
<path d="M298.908 252.12H206.194V312.963H298.908V252.12Z" fill="white" stroke="#131313" stroke-miterlimit="10"/>
<path d="M268.751 285.77L268.205 283.637L260.599 285.671L254.187 282L260.599 278.329L268.205 280.363L268.751 278.23L263.284 276.742L269 273.467L267.906 271.533L262.19 274.856L263.632 269.399L261.544 268.854L259.506 276.394L253.094 280.115V272.723L258.661 267.167L257.12 265.629L253.094 269.598V263H250.906V269.598L246.88 265.629L245.339 267.167L250.906 272.723V280.115L244.494 276.394L242.456 268.854L240.368 269.399L241.81 274.856L236.094 271.533L235 273.467L240.716 276.742L235.249 278.23L235.795 280.363L243.401 278.329L249.813 282L243.401 285.671L235.795 283.637L235.249 285.77L240.716 287.258L235 290.533L236.094 292.467L241.81 289.144L240.368 294.601L242.456 295.146L244.494 287.606L250.906 283.885V291.277L245.339 296.833L246.88 298.371L250.906 294.402V301H253.094V294.402L257.12 298.371L258.661 296.833L253.094 291.277V283.885L259.506 287.606L261.544 295.146L263.632 294.601L262.19 289.144L267.906 292.467L269 290.533L263.284 287.258L268.751 285.77Z" fill="#908CDD"/>
<path d="M248.658 329.07L248.836 325.175H243.271L242.892 329.07H248.658Z" fill="white" stroke="#131313" stroke-miterlimit="10"/>
<path d="M260.178 329.07L259.989 325.175H254.412L254.424 329.07H260.178Z" fill="white" stroke="#131313" stroke-miterlimit="10"/>
<path d="M290.179 333.225H296.146L294.737 329.07H288.983L290.179 333.225Z" fill="white" stroke="#131313" stroke-miterlimit="10"/>
<path d="M242.892 329.07L243.271 325.175H237.695L237.138 329.07H242.892Z" fill="white" stroke="#131313" stroke-miterlimit="10"/>
<path d="M231.373 329.07L232.118 325.175H226.542L225.619 329.07H231.373Z" fill="white" stroke="#131313" stroke-miterlimit="10"/>
<path d="M283.218 329.07L282.282 325.175H276.706L277.464 329.07H283.218Z" fill="white" stroke="#131313" stroke-miterlimit="10"/>
<path d="M288.983 329.07L287.859 325.175H282.282L283.218 329.07H288.983Z" fill="white" stroke="#131313" stroke-miterlimit="10"/>
<path d="M225.619 329.07L226.542 325.175H220.966L219.853 329.07H225.619Z" fill="white" stroke="#131313" stroke-miterlimit="10"/>
<path d="M265.944 329.07L265.565 325.175H259.989L260.178 329.07H265.944Z" fill="white" stroke="#131313" stroke-miterlimit="10"/>
<path d="M294.737 329.07L293.435 325.175H287.859L288.983 329.07H294.737Z" fill="white" stroke="#131313" stroke-miterlimit="10"/>
<path d="M277.464 329.07L276.706 325.175H271.141L271.698 329.07H277.464Z" fill="white" stroke="#131313" stroke-miterlimit="10"/>
<path d="M271.698 329.07L271.141 325.175H265.565L265.944 329.07H271.698Z" fill="white" stroke="#131313" stroke-miterlimit="10"/>
<path d="M254.424 329.07L254.412 325.175H248.836L248.658 329.07H254.424Z" fill="white" stroke="#131313" stroke-miterlimit="10"/>
<path d="M214.099 329.07H208.333L206.747 333.225H212.702L214.099 329.07Z" fill="white" stroke="#131313" stroke-miterlimit="10"/>
<path d="M215.389 325.175H209.825L208.333 329.07H214.099L215.389 325.175Z" fill="white" stroke="#131313" stroke-miterlimit="10"/>
<path d="M219.853 329.07L220.966 325.175H215.389L214.099 329.07H219.853Z" fill="white" stroke="#131313" stroke-miterlimit="10"/>
<path d="M205.042 337.689L203.207 342.484H209.612L211.21 337.689H205.042Z" fill="white" stroke="#131313" stroke-miterlimit="10"/>
<path d="M212.702 333.226H206.747L205.042 337.689H211.21L212.702 333.226Z" fill="white" stroke="#131313" stroke-miterlimit="10"/>
<path d="M211.21 337.689L209.612 342.484H216.017L217.39 337.689H211.21Z" fill="white" stroke="#131313" stroke-miterlimit="10"/>
<path d="M237.138 329.07L237.695 325.175H232.118L231.373 329.07H237.138Z" fill="white" stroke="#131313" stroke-miterlimit="10"/>
<path d="M236.546 333.225L237.138 329.07H231.373L230.579 333.225H236.546Z" fill="white" stroke="#131313" stroke-miterlimit="10"/>
<path d="M230.579 333.225L231.373 329.07H225.619L224.624 333.225H230.579Z" fill="white" stroke="#131313" stroke-miterlimit="10"/>
<path d="M242.502 333.225L242.893 329.07H237.139L236.547 333.225H242.502Z" fill="white" stroke="#131313" stroke-miterlimit="10"/>
<path d="M219.853 329.07H214.099L212.702 333.225H218.669L219.853 329.07Z" fill="white" stroke="#131313" stroke-miterlimit="10"/>
<path d="M291.47 337.689H297.638L296.146 333.226H290.179L291.47 337.689Z" fill="white" stroke="#131313" stroke-miterlimit="10"/>
<path d="M224.624 333.225L225.619 329.07H219.853L218.669 333.225H224.624Z" fill="white" stroke="#131313" stroke-miterlimit="10"/>
<path d="M212.702 333.226L211.21 337.689H217.39L218.669 333.226H212.702Z" fill="white" stroke="#131313" stroke-miterlimit="10"/>
<path d="M278.257 333.225L277.464 329.07H271.698L272.302 333.225H278.257Z" fill="white" stroke="#131313" stroke-miterlimit="10"/>
<path d="M272.302 333.225L271.698 329.07H265.944L266.346 333.225H272.302Z" fill="white" stroke="#131313" stroke-miterlimit="10"/>
<path d="M290.179 333.225L288.983 329.07H283.218L284.224 333.225H290.179Z" fill="white" stroke="#131313" stroke-miterlimit="10"/>
<path d="M254.424 333.225V329.07H248.658L248.457 333.225H254.424Z" fill="white" stroke="#131313" stroke-miterlimit="10"/>
<path d="M266.346 333.225L265.944 329.07H260.178L260.379 333.225H266.346Z" fill="white" stroke="#131313" stroke-miterlimit="10"/>
<path d="M260.379 333.225L260.178 329.07H254.424V333.225H260.379Z" fill="white" stroke="#131313" stroke-miterlimit="10"/>
<path d="M248.457 333.225L248.658 329.07H242.892L242.502 333.225H248.457Z" fill="white" stroke="#131313" stroke-miterlimit="10"/>
<path d="M266.346 333.226L266.773 337.689H272.953L272.302 333.226H266.346Z" fill="white" stroke="#131313" stroke-miterlimit="10"/>
<path d="M272.302 333.226L272.953 337.689H279.121L278.257 333.226H272.302Z" fill="white" stroke="#131313" stroke-miterlimit="10"/>
<path d="M218.669 333.226L217.39 337.689H223.559L224.624 333.226H218.669Z" fill="white" stroke="#131313" stroke-miterlimit="10"/>
<path d="M278.257 333.226L279.121 337.689H285.29L284.224 333.226H278.257Z" fill="white" stroke="#131313" stroke-miterlimit="10"/>
<path d="M254.424 333.226V337.689H260.604L260.379 333.226H254.424Z" fill="white" stroke="#131313" stroke-miterlimit="10"/>
<path d="M284.224 333.226L285.289 337.689H291.47L290.179 333.226H284.224Z" fill="white" stroke="#131313" stroke-miterlimit="10"/>
<path d="M260.379 333.226L260.604 337.689H266.773L266.346 333.226H260.379Z" fill="white" stroke="#131313" stroke-miterlimit="10"/>
<path d="M230.579 333.226L229.727 337.689H235.907L236.547 333.226H230.579Z" fill="white" stroke="#131313" stroke-miterlimit="10"/>
<path d="M224.624 333.226L223.559 337.689H229.727L230.579 333.226H224.624Z" fill="white" stroke="#131313" stroke-miterlimit="10"/>
<path d="M248.457 333.226L248.256 337.689H254.424V333.226H248.457Z" fill="white" stroke="#131313" stroke-miterlimit="10"/>
<path d="M242.502 333.226L242.076 337.689H248.256L248.457 333.226H242.502Z" fill="white" stroke="#131313" stroke-miterlimit="10"/>
<path d="M236.547 333.226L235.907 337.689H242.076L242.502 333.226H236.547Z" fill="white" stroke="#131313" stroke-miterlimit="10"/>
<path d="M284.224 333.225L283.218 329.07H277.464L278.257 333.225H284.224Z" fill="white" stroke="#131313" stroke-miterlimit="10"/>
<path d="M215.389 325.175L216.727 321.185H211.34L209.825 325.175H215.389Z" fill="white" stroke="#131313" stroke-miterlimit="10"/>
<path d="M209.825 325.175H204.675L203.017 329.07H208.333L209.825 325.175Z" fill="white" stroke="#131313" stroke-miterlimit="10"/>
<path d="M211.34 321.185H206.38L204.675 325.175H209.825L211.34 321.185Z" fill="white" stroke="#131313" stroke-miterlimit="10"/>
<path d="M208.333 329.07H203.017L201.241 333.225H206.747L208.333 329.07Z" fill="white" stroke="#131313" stroke-miterlimit="10"/>
<path d="M206.747 333.226H201.241L199.335 337.689H205.042L206.747 333.226Z" fill="white" stroke="#131313" stroke-miterlimit="10"/>
<path d="M205.042 337.689H199.335L197.299 342.484H203.207L205.042 337.689Z" fill="white" stroke="#131313" stroke-miterlimit="10"/>
<path d="M300.503 329.07L302.102 333.225H307.37L305.594 329.07H300.503Z" fill="white" stroke="#131313" stroke-miterlimit="10"/>
<path d="M303.818 337.689H309.276L307.37 333.226H302.101L303.818 337.689Z" fill="white" stroke="#131313" stroke-miterlimit="10"/>
<path d="M305.653 342.484H311.313L309.276 337.689H303.818L305.653 342.484Z" fill="white" stroke="#131313" stroke-miterlimit="10"/>
<path d="M259.989 325.175L259.799 321.185H254.412V325.175H259.989Z" fill="white" stroke="#131313" stroke-miterlimit="10"/>
<path d="M300.503 329.07H305.594L303.937 325.175H299.011L300.503 329.07Z" fill="white" stroke="#131313" stroke-miterlimit="10"/>
<path d="M297.638 337.689H303.818L302.102 333.226H296.146L297.638 337.689Z" fill="white" stroke="#131313" stroke-miterlimit="10"/>
<path d="M220.966 325.175L222.114 321.185H216.727L215.389 325.175H220.966Z" fill="white" stroke="#131313" stroke-miterlimit="10"/>
<path d="M293.435 325.175L294.737 329.07H300.503L299.011 325.175H293.435Z" fill="white" stroke="#131313" stroke-miterlimit="10"/>
<path d="M303.937 325.175L302.244 321.185H297.472L299.012 325.175H303.937Z" fill="white" stroke="#131313" stroke-miterlimit="10"/>
<path d="M299.011 325.175L297.472 321.185H292.097L293.435 325.175H299.011Z" fill="white" stroke="#131313" stroke-miterlimit="10"/>
<path d="M279.121 337.689L280.045 342.484H286.45L285.29 337.689H279.121Z" fill="white" stroke="#131313" stroke-miterlimit="10"/>
<path d="M299.248 342.484H305.653L303.818 337.689H297.638L299.248 342.484Z" fill="white" stroke="#131313" stroke-miterlimit="10"/>
<path d="M293.435 325.175L292.097 321.185H286.71L287.859 325.175H293.435Z" fill="white" stroke="#131313" stroke-miterlimit="10"/>
<path d="M291.47 337.689L292.843 342.484H299.248L297.638 337.689H291.47Z" fill="white" stroke="#131313" stroke-miterlimit="10"/>
<path d="M285.289 337.689L286.45 342.484H292.843L291.47 337.689H285.289Z" fill="white" stroke="#131313" stroke-miterlimit="10"/>
<path d="M296.146 333.225H302.101L300.503 329.07H294.737L296.146 333.225Z" fill="white" stroke="#131313" stroke-miterlimit="10"/>
<path d="M243.271 325.175L243.65 321.185H238.263L237.695 325.175H243.271Z" fill="white" stroke="#131313" stroke-miterlimit="10"/>
<path d="M287.859 325.175L286.71 321.185H281.323L282.282 325.175H287.859Z" fill="white" stroke="#131313" stroke-miterlimit="10"/>
<path d="M237.695 325.175L238.263 321.185H232.876L232.119 325.175H237.695Z" fill="white" stroke="#131313" stroke-miterlimit="10"/>
<path d="M254.412 325.175V321.185H249.025L248.836 325.175H254.412Z" fill="white" stroke="#131313" stroke-miterlimit="10"/>
<path d="M232.119 325.175L232.876 321.185H227.489L226.542 325.175H232.119Z" fill="white" stroke="#131313" stroke-miterlimit="10"/>
<path d="M226.542 325.175L227.489 321.185H222.114L220.966 325.175H226.542Z" fill="white" stroke="#131313" stroke-miterlimit="10"/>
<path d="M248.836 325.175L249.025 321.185H243.65L243.271 325.175H248.836Z" fill="white" stroke="#131313" stroke-miterlimit="10"/>
<path d="M282.282 325.175L281.323 321.185H275.948L276.706 325.175H282.282Z" fill="white" stroke="#131313" stroke-miterlimit="10"/>
<path d="M276.706 325.175L275.948 321.185H270.561L271.141 325.175H276.706Z" fill="white" stroke="#131313" stroke-miterlimit="10"/>
<path d="M265.565 325.175L265.174 321.185H259.799L259.989 325.175H265.565Z" fill="white" stroke="#131313" stroke-miterlimit="10"/>
<path d="M279.121 337.689H272.953H266.773H260.604H254.424H248.256H242.075H235.907H229.727H223.559H217.39L216.017 342.484H222.422H228.815H235.22H241.626H248.031H254.424H260.829H267.234H273.639H280.045L279.121 337.689Z" fill="white" stroke="#131313" stroke-miterlimit="10"/>
<path d="M271.141 325.175L270.561 321.185H265.174L265.565 325.175H271.141Z" fill="white" stroke="#131313" stroke-miterlimit="10"/>
<path d="M321.696 350.902H184.488V352.844H321.696V350.902Z" fill="#131313" stroke="#131313" stroke-linecap="round" stroke-linejoin="round"/>
<path d="M344.629 246.667H425.137V318.947H344.629C344.12 318.947 343.632 318.745 343.273 318.385C342.913 318.026 342.711 317.538 342.711 317.029V248.597C342.709 248.344 342.758 248.093 342.853 247.859C342.949 247.625 343.09 247.413 343.268 247.233C343.447 247.054 343.659 246.911 343.892 246.814C344.126 246.717 344.376 246.667 344.629 246.667Z" fill="white" stroke="#2E353A" stroke-linecap="round" stroke-linejoin="round"/>
<path d="M427.908 246.667H344.878V318.947H427.908V246.667Z" fill="#131313" stroke="#131313" stroke-miterlimit="10"/>
<path d="M423.907 252.386H351.805V313.229H423.907V252.386Z" fill="white" stroke="#2E353A" stroke-linecap="round" stroke-linejoin="round"/>
<path d="M400.803 285.77L400.368 283.637L394.329 285.671L389.237 282L394.329 278.329L400.368 280.363L400.803 278.23L396.461 276.742L401 273.467L400.132 271.533L395.592 274.856L396.737 269.399L395.079 268.854L393.461 276.394L388.368 280.115V272.723L392.789 267.167L391.566 265.629L388.368 269.598V263H386.632V269.598L383.434 265.629L382.211 267.167L386.632 272.723V280.115L381.539 276.394L379.921 268.854L378.263 269.399L379.408 274.856L374.868 271.533L374 273.467L378.539 276.742L374.197 278.23L374.632 280.363L380.671 278.329L385.763 282L380.671 285.671L374.632 283.637L374.197 285.77L378.539 287.258L374 290.533L374.868 292.467L379.408 289.144L378.263 294.601L379.921 295.146L381.539 287.606L386.632 283.885V291.277L382.211 296.833L383.434 298.371L386.632 294.402V301H388.368V294.402L391.566 298.371L392.789 296.833L388.368 291.277V283.885L393.461 287.606L395.079 295.146L396.737 294.601L395.592 289.144L400.132 292.467L401 290.533L396.461 287.258L400.803 285.77Z" fill="#908CDD"/>
<path d="M344.878 318.947L407.816 337.144H492.669L427.908 318.947H344.878Z" fill="white" stroke="#131313" stroke-miterlimit="10"/>
<path d="M412.09 326.146L404.217 323.908L400.772 323.872L408.621 326.122L412.09 326.146Z" fill="white" stroke="#2E353A" stroke-width="0.25" stroke-miterlimit="10"/>
<path d="M418.945 326.205L411.048 323.979L407.65 323.943L415.523 326.181L418.945 326.205Z" fill="white" stroke="#2E353A" stroke-width="0.25" stroke-miterlimit="10"/>
<path d="M443.832 328.561L447.123 328.584L438.942 326.347L435.662 326.323L443.832 328.561Z" fill="white" stroke="#2E353A" stroke-width="0.25" stroke-miterlimit="10"/>
<path d="M408.621 326.122L400.771 323.872L397.302 323.837L405.128 326.098L408.621 326.122Z" fill="white" stroke="#2E353A" stroke-width="0.25" stroke-miterlimit="10"/>
<path d="M401.624 326.075L393.798 323.813L390.282 323.778L398.084 326.051L401.624 326.075Z" fill="white" stroke="#2E353A" stroke-width="0.25" stroke-miterlimit="10"/>
<path d="M432.371 326.3L424.415 324.097L421.112 324.074L429.044 326.276L432.371 326.3Z" fill="white" stroke="#2E353A" stroke-width="0.25" stroke-miterlimit="10"/>
<path d="M435.662 326.323L427.694 324.133L424.415 324.097L432.371 326.3L435.662 326.323Z" fill="white" stroke="#2E353A" stroke-width="0.25" stroke-miterlimit="10"/>
<path d="M398.084 326.051L390.282 323.778L386.73 323.742L394.509 326.027L398.084 326.051Z" fill="white" stroke="#2E353A" stroke-width="0.25" stroke-miterlimit="10"/>
<path d="M422.331 326.228L414.422 324.003L411.048 323.979L418.945 326.205L422.331 326.228Z" fill="white" stroke="#2E353A" stroke-width="0.25" stroke-miterlimit="10"/>
<path d="M438.942 326.347L430.962 324.168L427.694 324.133L435.662 326.323L438.942 326.347Z" fill="white" stroke="#2E353A" stroke-width="0.25" stroke-miterlimit="10"/>
<path d="M429.044 326.276L421.112 324.074L417.773 324.038L425.705 326.252L429.044 326.276Z" fill="white" stroke="#2E353A" stroke-width="0.25" stroke-miterlimit="10"/>
<path d="M425.705 326.252L417.773 324.038L414.422 324.003L422.331 326.228L425.705 326.252Z" fill="white" stroke="#2E353A" stroke-width="0.25" stroke-miterlimit="10"/>
<path d="M415.523 326.181L407.65 323.943L404.217 323.908L412.09 326.145L415.523 326.181Z" fill="white" stroke="#2E353A" stroke-width="0.25" stroke-miterlimit="10"/>
<path d="M390.921 325.992L387.298 325.968L395.254 328.324L398.889 328.348L390.921 325.992Z" fill="white" stroke="#2E353A" stroke-width="0.25" stroke-miterlimit="10"/>
<path d="M383.154 323.707L379.555 323.671L387.298 325.968L390.921 325.992L383.154 323.707Z" fill="white" stroke="#2E353A" stroke-width="0.25" stroke-miterlimit="10"/>
<path d="M394.508 326.027L386.73 323.742L383.154 323.707L390.921 325.992L394.508 326.027Z" fill="white" stroke="#2E353A" stroke-width="0.25" stroke-miterlimit="10"/>
<path d="M403.412 330.739L411.806 333.226H415.476L407.07 330.751L403.412 330.739Z" fill="white" stroke="#2E353A" stroke-width="0.25" stroke-miterlimit="10"/>
<path d="M398.889 328.348L395.254 328.324L403.412 330.739L407.07 330.751L398.889 328.348Z" fill="white" stroke="#2E353A" stroke-width="0.25" stroke-miterlimit="10"/>
<path d="M407.07 330.751L415.476 333.226H419.123L410.693 330.763L407.07 330.751Z" fill="white" stroke="#2E353A" stroke-width="0.25" stroke-miterlimit="10"/>
<path d="M405.128 326.098L397.303 323.837L393.798 323.813L401.624 326.075L405.128 326.098Z" fill="white" stroke="#2E353A" stroke-width="0.25" stroke-miterlimit="10"/>
<path d="M413.167 328.419L405.128 326.098L401.624 326.074L409.639 328.395L413.167 328.419Z" fill="white" stroke="#2E353A" stroke-width="0.25" stroke-miterlimit="10"/>
<path d="M409.639 328.395L401.624 326.075L398.084 326.051L406.087 328.383L409.639 328.395Z" fill="white" stroke="#2E353A" stroke-width="0.25" stroke-miterlimit="10"/>
<path d="M416.672 328.431L408.621 326.122L405.128 326.098L413.167 328.419L416.672 328.431Z" fill="white" stroke="#2E353A" stroke-width="0.25" stroke-miterlimit="10"/>
<path d="M394.508 326.027L390.921 325.992L398.889 328.348L402.5 328.36L394.508 326.027Z" fill="white" stroke="#2E353A" stroke-width="0.25" stroke-miterlimit="10"/>
<path d="M452.214 330.869L455.505 330.881L447.123 328.584L443.832 328.561L452.214 330.869Z" fill="white" stroke="#2E353A" stroke-width="0.25" stroke-miterlimit="10"/>
<path d="M406.087 328.383L398.084 326.051L394.508 326.027L402.5 328.36L406.087 328.383Z" fill="white" stroke="#2E353A" stroke-width="0.25" stroke-miterlimit="10"/>
<path d="M398.889 328.348L407.07 330.751L410.693 330.763L402.5 328.36L398.889 328.348Z" fill="white" stroke="#2E353A" stroke-width="0.25" stroke-miterlimit="10"/>
<path d="M437.19 328.537L429.044 326.276L425.705 326.252L433.827 328.513L437.19 328.537Z" fill="white" stroke="#2E353A" stroke-width="0.25" stroke-miterlimit="10"/>
<path d="M433.827 328.514L425.705 326.252L422.331 326.229L430.453 328.502L433.827 328.514Z" fill="white" stroke="#2E353A" stroke-width="0.25" stroke-miterlimit="10"/>
<path d="M443.832 328.561L435.662 326.323L432.371 326.299L440.528 328.549L443.832 328.561Z" fill="white" stroke="#2E353A" stroke-width="0.25" stroke-miterlimit="10"/>
<path d="M423.61 328.466L415.523 326.181L412.09 326.146L420.153 328.442L423.61 328.466Z" fill="white" stroke="#2E353A" stroke-width="0.25" stroke-miterlimit="10"/>
<path d="M430.453 328.502L422.331 326.229L418.945 326.205L427.043 328.478L430.453 328.502Z" fill="white" stroke="#2E353A" stroke-width="0.25" stroke-miterlimit="10"/>
<path d="M427.043 328.478L418.945 326.205L415.523 326.181L423.61 328.466L427.043 328.478Z" fill="white" stroke="#2E353A" stroke-width="0.25" stroke-miterlimit="10"/>
<path d="M420.153 328.442L412.09 326.145L408.621 326.122L416.672 328.43L420.153 328.442Z" fill="white" stroke="#2E353A" stroke-width="0.25" stroke-miterlimit="10"/>
<path d="M430.453 328.502L438.776 330.834L442.174 330.846L433.827 328.514L430.453 328.502Z" fill="white" stroke="#2E353A" stroke-width="0.25" stroke-miterlimit="10"/>
<path d="M433.827 328.513L442.174 330.846L445.536 330.858L437.19 328.537L433.827 328.513Z" fill="white" stroke="#2E353A" stroke-width="0.25" stroke-miterlimit="10"/>
<path d="M402.5 328.36L410.693 330.763L414.304 330.775L406.087 328.383L402.5 328.36Z" fill="white" stroke="#2E353A" stroke-width="0.25" stroke-miterlimit="10"/>
<path d="M437.19 328.537L445.537 330.858H448.887L440.528 328.549L437.19 328.537Z" fill="white" stroke="#2E353A" stroke-width="0.25" stroke-miterlimit="10"/>
<path d="M423.61 328.466L431.909 330.81L435.355 330.822L427.043 328.478L423.61 328.466Z" fill="white" stroke="#2E353A" stroke-width="0.25" stroke-miterlimit="10"/>
<path d="M440.528 328.549L448.887 330.858L452.214 330.87L443.832 328.561L440.528 328.549Z" fill="white" stroke="#2E353A" stroke-width="0.25" stroke-miterlimit="10"/>
<path d="M427.043 328.478L435.355 330.822L438.776 330.834L430.453 328.501L427.043 328.478Z" fill="white" stroke="#2E353A" stroke-width="0.25" stroke-miterlimit="10"/>
<path d="M409.639 328.395L417.868 330.787H421.42L413.167 328.419L409.639 328.395Z" fill="white" stroke="#2E353A" stroke-width="0.25" stroke-miterlimit="10"/>
<path d="M406.087 328.383L414.304 330.775L417.868 330.787L409.639 328.395L406.087 328.383Z" fill="white" stroke="#2E353A" stroke-width="0.25" stroke-miterlimit="10"/>
<path d="M420.153 328.442L428.44 330.81H431.909L423.61 328.466L420.153 328.442Z" fill="white" stroke="#2E353A" stroke-width="0.25" stroke-miterlimit="10"/>
<path d="M416.672 328.431L424.948 330.799L428.44 330.81L420.153 328.442L416.672 328.431Z" fill="white" stroke="#2E353A" stroke-width="0.25" stroke-miterlimit="10"/>
<path d="M413.167 328.419L421.419 330.787L424.948 330.798L416.672 328.431L413.167 328.419Z" fill="white" stroke="#2E353A" stroke-width="0.25" stroke-miterlimit="10"/>
<path d="M440.528 328.549L432.371 326.299L429.044 326.276L437.19 328.537L440.528 328.549Z" fill="white" stroke="#2E353A" stroke-width="0.25" stroke-miterlimit="10"/>
<path d="M383.154 323.707L374.879 321.268L371.303 321.232L379.555 323.671L383.154 323.707Z" fill="white" stroke="#2E353A" stroke-width="0.25" stroke-miterlimit="10"/>
<path d="M379.555 323.671L376.205 323.636L383.936 325.944L387.298 325.968L379.555 323.671Z" fill="white" stroke="#2E353A" stroke-width="0.25" stroke-miterlimit="10"/>
<path d="M371.303 321.232L367.976 321.185L376.205 323.636L379.555 323.671L371.303 321.232Z" fill="white" stroke="#2E353A" stroke-width="0.25" stroke-miterlimit="10"/>
<path d="M387.298 325.968L383.936 325.944L391.868 328.312L395.254 328.324L387.298 325.968Z" fill="white" stroke="#2E353A" stroke-width="0.25" stroke-miterlimit="10"/>
<path d="M395.254 328.324L391.868 328.312L400.014 330.739H403.412L395.254 328.324Z" fill="white" stroke="#2E353A" stroke-width="0.25" stroke-miterlimit="10"/>
<path d="M403.412 330.739H400.014L408.384 333.226H411.806L403.412 330.739Z" fill="white" stroke="#2E353A" stroke-width="0.25" stroke-miterlimit="10"/>
<path d="M442.198 326.37L450.391 328.596L453.256 328.62L445.051 326.394L442.198 326.37Z" fill="white" stroke="#2E353A" stroke-width="0.25" stroke-miterlimit="10"/>
<path d="M458.785 330.882L461.662 330.893L453.256 328.62L450.391 328.597L458.785 330.882Z" fill="white" stroke="#2E353A" stroke-width="0.25" stroke-miterlimit="10"/>
<path d="M467.404 333.226H470.281L461.662 330.893L458.785 330.881L467.404 333.226Z" fill="white" stroke="#2E353A" stroke-width="0.25" stroke-miterlimit="10"/>
<path d="M411.048 323.979L402.618 321.599L399.232 321.564L407.65 323.943L411.048 323.979Z" fill="white" stroke="#2E353A" stroke-width="0.25" stroke-miterlimit="10"/>
<path d="M442.198 326.37L445.051 326.394L437.048 324.227L434.194 324.192L442.198 326.37Z" fill="white" stroke="#2E353A" stroke-width="0.25" stroke-miterlimit="10"/>
<path d="M455.505 330.881H458.785L450.391 328.596L447.123 328.585L455.505 330.881Z" fill="white" stroke="#2E353A" stroke-width="0.25" stroke-miterlimit="10"/>
<path d="M386.73 323.742L378.43 321.315L374.879 321.268L383.154 323.707L386.73 323.742Z" fill="white" stroke="#2E353A" stroke-width="0.25" stroke-miterlimit="10"/>
<path d="M430.962 324.168L438.942 326.347L442.198 326.371L434.194 324.192L430.962 324.168Z" fill="white" stroke="#2E353A" stroke-width="0.25" stroke-miterlimit="10"/>
<path d="M437.048 324.228L428.5 321.907L425.67 321.872L434.194 324.192L437.048 324.228Z" fill="white" stroke="#2E353A" stroke-width="0.25" stroke-miterlimit="10"/>
<path d="M434.194 324.192L425.67 321.872L422.438 321.836L430.962 324.169L434.194 324.192Z" fill="white" stroke="#2E353A" stroke-width="0.25" stroke-miterlimit="10"/>
<path d="M445.537 330.858L454.108 333.226H457.471L448.887 330.858H445.537Z" fill="white" stroke="#2E353A" stroke-width="0.25" stroke-miterlimit="10"/>
<path d="M464.113 333.226H467.404L458.785 330.881H455.505L464.113 333.226Z" fill="white" stroke="#2E353A" stroke-width="0.25" stroke-miterlimit="10"/>
<path d="M430.962 324.168L422.438 321.836L419.194 321.801L427.694 324.133L430.962 324.168Z" fill="white" stroke="#2E353A" stroke-width="0.25" stroke-miterlimit="10"/>
<path d="M452.214 330.87L460.798 333.226H464.113L455.505 330.881L452.214 330.87Z" fill="white" stroke="#2E353A" stroke-width="0.25" stroke-miterlimit="10"/>
<path d="M448.887 330.858L457.471 333.226H460.798L452.214 330.87L448.887 330.858Z" fill="white" stroke="#2E353A" stroke-width="0.25" stroke-miterlimit="10"/>
<path d="M447.123 328.585L450.391 328.597L442.198 326.371L438.942 326.347L447.123 328.585Z" fill="white" stroke="#2E353A" stroke-width="0.25" stroke-miterlimit="10"/>
<path d="M400.772 323.872L392.401 321.481L388.944 321.433L397.303 323.837L400.772 323.872Z" fill="white" stroke="#2E353A" stroke-width="0.25" stroke-miterlimit="10"/>
<path d="M427.695 324.133L419.194 321.8L415.926 321.753L424.415 324.097L427.695 324.133Z" fill="white" stroke="#2E353A" stroke-width="0.25" stroke-miterlimit="10"/>
<path d="M397.303 323.837L388.944 321.434L385.463 321.398L393.798 323.813L397.303 323.837Z" fill="white" stroke="#2E353A" stroke-width="0.25" stroke-miterlimit="10"/>
<path d="M407.65 323.943L399.232 321.564L395.834 321.516L404.217 323.908L407.65 323.943Z" fill="white" stroke="#2E353A" stroke-width="0.25" stroke-miterlimit="10"/>
<path d="M393.798 323.813L385.463 321.398L381.959 321.35L390.282 323.778L393.798 323.813Z" fill="white" stroke="#2E353A" stroke-width="0.25" stroke-miterlimit="10"/>
<path d="M390.282 323.778L381.959 321.351L378.43 321.315L386.73 323.742L390.282 323.778Z" fill="white" stroke="#2E353A" stroke-width="0.25" stroke-miterlimit="10"/>
<path d="M404.217 323.908L395.834 321.516L392.401 321.481L400.771 323.872L404.217 323.908Z" fill="white" stroke="#2E353A" stroke-width="0.25" stroke-miterlimit="10"/>
<path d="M424.415 324.097L415.926 321.753L412.635 321.718L421.112 324.074L424.415 324.097Z" fill="white" stroke="#2E353A" stroke-width="0.25" stroke-miterlimit="10"/>
<path d="M421.112 324.074L412.635 321.718L409.32 321.682L417.773 324.038L421.112 324.074Z" fill="white" stroke="#2E353A" stroke-width="0.25" stroke-miterlimit="10"/>
<path d="M414.422 324.003L405.981 321.635L402.618 321.599L411.048 323.979L414.422 324.003Z" fill="white" stroke="#2E353A" stroke-width="0.25" stroke-miterlimit="10"/>
<path d="M445.536 330.858L442.174 330.846L438.776 330.834L435.355 330.822L431.909 330.81H428.44L424.948 330.798L421.42 330.787H417.868L414.304 330.775L410.693 330.763L419.123 333.226H422.734H426.333H429.897H433.425H436.941H440.422H443.879H447.312H450.722H454.108L445.536 330.858Z" fill="white" stroke="#2E353A" stroke-width="0.25" stroke-miterlimit="10"/>
<path d="M417.773 324.038L409.32 321.682L405.981 321.635L414.422 324.003L417.773 324.038Z" fill="white" stroke="#2E353A" stroke-width="0.25" stroke-miterlimit="10"/>
<path d="M344.878 318.947V321.363L407.792 340.246L407.816 337.144L344.878 318.947Z" fill="white" stroke="#131313" stroke-miterlimit="10"/>
<path d="M492.669 337.144H407.816V340.235H492.669V337.144Z" fill="#131313" stroke="#131313" stroke-linecap="round" stroke-linejoin="round"/>
<path d="M158.371 318.947H77.8623L77.8623 246.667H158.371C158.879 246.667 159.367 246.869 159.727 247.229C160.086 247.589 160.289 248.076 160.289 248.585V317.017C160.29 317.27 160.242 317.521 160.146 317.755C160.05 317.989 159.909 318.202 159.731 318.381C159.553 318.56 159.341 318.703 159.107 318.8C158.874 318.897 158.623 318.947 158.371 318.947Z" fill="white" stroke="#2E353A" stroke-linecap="round" stroke-linejoin="round"/>
<path d="M75.0918 318.947H158.122V246.667H75.0918L75.0918 318.947Z" fill="#131313" stroke="#131313" stroke-miterlimit="10"/>
<path d="M79.8977 313H152V252.157H79.8977L79.8977 313Z" fill="white" stroke="#131313" stroke-linecap="round" stroke-linejoin="round"/>
<path d="M158.122 318.947L95.1834 337.144H10.3301L75.0919 318.947H158.122Z" fill="white" stroke="#2E353A" stroke-linecap="round" stroke-linejoin="round"/>
<path d="M90.9094 326.146L98.7827 323.908L102.228 323.872L94.3784 326.122L90.9094 326.146Z" fill="white" stroke="#2E353A" stroke-width="0.25" stroke-miterlimit="10"/>
<path d="M84.0544 326.205L91.9513 323.979L95.3492 323.943L87.476 326.181L84.0544 326.205Z" fill="white" stroke="#2E353A" stroke-width="0.25" stroke-miterlimit="10"/>
<path d="M59.1678 328.561L55.8764 328.584L64.0575 326.347L67.337 326.323L59.1678 328.561Z" fill="white" stroke="#2E353A" stroke-width="0.25" stroke-miterlimit="10"/>
<path d="M94.3783 326.122L102.228 323.872L105.697 323.837L97.8709 326.098L94.3783 326.122Z" fill="white" stroke="#2E353A" stroke-width="0.25" stroke-miterlimit="10"/>
<path d="M101.375 326.075L109.201 323.813L112.718 323.778L104.915 326.051L101.375 326.075Z" fill="white" stroke="#2E353A" stroke-width="0.25" stroke-miterlimit="10"/>
<path d="M70.6285 326.3L78.5846 324.097L81.8878 324.074L73.9554 326.276L70.6285 326.3Z" fill="white" stroke="#2E353A" stroke-width="0.25" stroke-miterlimit="10"/>
<path d="M67.3371 326.323L75.305 324.133L78.5845 324.097L70.6284 326.3L67.3371 326.323Z" fill="white" stroke="#2E353A" stroke-width="0.25" stroke-miterlimit="10"/>
<path d="M104.915 326.051L112.718 323.778L116.269 323.742L108.491 326.027L104.915 326.051Z" fill="white" stroke="#2E353A" stroke-width="0.25" stroke-miterlimit="10"/>
<path d="M80.6683 326.228L88.5771 324.002L91.9513 323.979L84.0544 326.205L80.6683 326.228Z" fill="white" stroke="#2E353A" stroke-width="0.25" stroke-miterlimit="10"/>
<path d="M64.0575 326.347L72.0373 324.168L75.305 324.133L67.337 326.323L64.0575 326.347Z" fill="white" stroke="#2E353A" stroke-width="0.25" stroke-miterlimit="10"/>
<path d="M73.9553 326.276L81.8877 324.074L85.2264 324.038L77.294 326.252L73.9553 326.276Z" fill="white" stroke="#2E353A" stroke-width="0.25" stroke-miterlimit="10"/>
<path d="M77.2941 326.252L85.2265 324.038L88.5771 324.003L80.6683 326.228L77.2941 326.252Z" fill="white" stroke="#2E353A" stroke-width="0.25" stroke-miterlimit="10"/>
<path d="M87.476 326.181L95.3492 323.943L98.7827 323.908L90.9094 326.145L87.476 326.181Z" fill="white" stroke="#2E353A" stroke-width="0.25" stroke-miterlimit="10"/>
<path d="M112.078 325.991L115.701 325.968L107.745 328.324L104.11 328.348L112.078 325.991Z" fill="white" stroke="#2E353A" stroke-width="0.25" stroke-miterlimit="10"/>
<path d="M119.845 323.706L123.444 323.671L115.701 325.968L112.078 325.991L119.845 323.706Z" fill="white" stroke="#2E353A" stroke-width="0.25" stroke-miterlimit="10"/>
<path d="M108.491 326.027L116.27 323.742L119.845 323.707L112.078 325.992L108.491 326.027Z" fill="white" stroke="#2E353A" stroke-width="0.25" stroke-miterlimit="10"/>
<path d="M99.5876 330.739L91.1935 333.225H87.5232L95.9292 330.751L99.5876 330.739Z" fill="white" stroke="#2E353A" stroke-width="0.25" stroke-miterlimit="10"/>
<path d="M104.11 328.347L107.745 328.324L99.5877 330.739L95.9294 330.751L104.11 328.347Z" fill="white" stroke="#2E353A" stroke-width="0.25" stroke-miterlimit="10"/>
<path d="M95.9293 330.751L87.5233 333.225H83.8767L92.2946 330.763L95.9293 330.751Z" fill="white" stroke="#2E353A" stroke-width="0.25" stroke-miterlimit="10"/>
<path d="M97.8709 326.098L105.697 323.837L109.201 323.813L101.375 326.075L97.8709 326.098Z" fill="white" stroke="#2E353A" stroke-width="0.25" stroke-miterlimit="10"/>
<path d="M89.832 328.419L97.871 326.098L101.375 326.074L93.3602 328.395L89.832 328.419Z" fill="white" stroke="#2E353A" stroke-width="0.25" stroke-miterlimit="10"/>
<path d="M93.3602 328.395L101.375 326.074L104.915 326.051L96.912 328.383L93.3602 328.395Z" fill="white" stroke="#2E353A" stroke-width="0.25" stroke-miterlimit="10"/>
<path d="M86.3274 328.431L94.3783 326.122L97.8709 326.098L89.8319 328.419L86.3274 328.431Z" fill="white" stroke="#2E353A" stroke-width="0.25" stroke-miterlimit="10"/>
<path d="M108.491 326.027L112.078 325.992L104.11 328.348L100.499 328.359L108.491 326.027Z" fill="white" stroke="#2E353A" stroke-width="0.25" stroke-miterlimit="10"/>
<path d="M50.7855 330.869L47.4941 330.881L55.8765 328.584L59.1678 328.561L50.7855 330.869Z" fill="white" stroke="#2E353A" stroke-width="0.25" stroke-miterlimit="10"/>
<path d="M96.912 328.383L104.915 326.051L108.491 326.027L100.499 328.359L96.912 328.383Z" fill="white" stroke="#131313" stroke-width="0.25" stroke-miterlimit="10"/>
<path d="M104.11 328.348L95.9293 330.751L92.2946 330.763L100.499 328.359L104.11 328.348Z" fill="white" stroke="#2E353A" stroke-width="0.25" stroke-miterlimit="10"/>
<path d="M65.8097 328.537L73.9553 326.276L77.294 326.252L69.1721 328.513L65.8097 328.537Z" fill="white" stroke="#2E353A" stroke-width="0.25" stroke-miterlimit="10"/>
<path d="M69.1721 328.514L77.2939 326.252L80.6682 326.229L72.5463 328.502L69.1721 328.514Z" fill="white" stroke="#2E353A" stroke-width="0.25" stroke-miterlimit="10"/>
<path d="M59.1678 328.561L67.337 326.323L70.6284 326.299L62.471 328.549L59.1678 328.561Z" fill="white" stroke="#2E353A" stroke-width="0.25" stroke-miterlimit="10"/>
<path d="M79.3895 328.466L87.4759 326.181L90.9093 326.146L82.8466 328.442L79.3895 328.466Z" fill="white" stroke="#2E353A" stroke-width="0.25" stroke-miterlimit="10"/>
<path d="M72.5464 328.502L80.6683 326.229L84.0544 326.205L75.9562 328.478L72.5464 328.502Z" fill="white" stroke="#2E353A" stroke-width="0.25" stroke-miterlimit="10"/>
<path d="M75.9562 328.478L84.0544 326.205L87.476 326.181L79.3897 328.466L75.9562 328.478Z" fill="white" stroke="#2E353A" stroke-width="0.25" stroke-miterlimit="10"/>
<path d="M82.8467 328.442L90.9094 326.145L94.3783 326.122L86.3275 328.43L82.8467 328.442Z" fill="white" stroke="#2E353A" stroke-width="0.25" stroke-miterlimit="10"/>
<path d="M72.5464 328.502L64.2233 330.834L60.8254 330.846L69.1722 328.514L72.5464 328.502Z" fill="white" stroke="#2E353A" stroke-width="0.25" stroke-miterlimit="10"/>
<path d="M69.1722 328.513L60.8254 330.846L57.463 330.858L65.8098 328.537L69.1722 328.513Z" fill="white" stroke="#2E353A" stroke-width="0.25" stroke-miterlimit="10"/>
<path d="M100.499 328.359L92.2945 330.763L88.6953 330.775L96.9119 328.383L100.499 328.359Z" fill="white" stroke="#2E353A" stroke-width="0.25" stroke-miterlimit="10"/>
<path d="M65.8097 328.537L57.4629 330.858H54.1123L62.471 328.549L65.8097 328.537Z" fill="white" stroke="#2E353A" stroke-width="0.25" stroke-miterlimit="10"/>
<path d="M79.3896 328.466L71.0902 330.81L67.6449 330.822L75.9562 328.478L79.3896 328.466Z" fill="white" stroke="#2E353A" stroke-width="0.25" stroke-miterlimit="10"/>
<path d="M62.4711 328.549L54.1124 330.858L50.7855 330.87L59.1679 328.561L62.4711 328.549Z" fill="white" stroke="#2E353A" stroke-width="0.25" stroke-miterlimit="10"/>
<path d="M75.9562 328.478L67.6449 330.822L64.2233 330.834L72.5464 328.501L75.9562 328.478Z" fill="white" stroke="#2E353A" stroke-width="0.25" stroke-miterlimit="10"/>
<path d="M93.3602 328.395L85.1318 330.787H81.58L89.8321 328.419L93.3602 328.395Z" fill="white" stroke="#2E353A" stroke-width="0.25" stroke-miterlimit="10"/>
<path d="M96.9121 328.383L88.6955 330.775L85.1318 330.786L93.3602 328.395L96.9121 328.383Z" fill="white" stroke="#2E353A" stroke-width="0.25" stroke-miterlimit="10"/>
<path d="M82.8466 328.442L74.559 330.81H71.0901L79.3895 328.466L82.8466 328.442Z" fill="white" stroke="#2E353A" stroke-width="0.25" stroke-miterlimit="10"/>
<path d="M86.3275 328.431L78.0517 330.798L74.5591 330.81L82.8467 328.442L86.3275 328.431Z" fill="white" stroke="#2E353A" stroke-width="0.25" stroke-miterlimit="10"/>
<path d="M89.8319 328.419L81.5798 330.786L78.0517 330.798L86.3274 328.43L89.8319 328.419Z" fill="white" stroke="#2E353A" stroke-width="0.25" stroke-miterlimit="10"/>
<path d="M62.4711 328.549L70.6285 326.299L73.9553 326.276L65.8098 328.537L62.4711 328.549Z" fill="white" stroke="#2E353A" stroke-width="0.25" stroke-miterlimit="10"/>
<path d="M119.845 323.706L128.121 321.268L131.696 321.232L123.444 323.671L119.845 323.706Z" fill="white" stroke="#2E353A" stroke-width="0.25" stroke-miterlimit="10"/>
<path d="M123.444 323.671L126.795 323.635L119.064 325.944L115.701 325.968L123.444 323.671Z" fill="white" stroke="#2E353A" stroke-width="0.25" stroke-miterlimit="10"/>
<path d="M131.696 321.232L135.023 321.185L126.795 323.636L123.444 323.671L131.696 321.232Z" fill="white" stroke="#2E353A" stroke-width="0.25" stroke-miterlimit="10"/>
<path d="M115.701 325.968L119.064 325.944L111.131 328.312L107.745 328.324L115.701 325.968Z" fill="white" stroke="#2E353A" stroke-width="0.25" stroke-miterlimit="10"/>
<path d="M107.745 328.324L111.131 328.312L102.986 330.739H99.5877L107.745 328.324Z" fill="white" stroke="#2E353A" stroke-width="0.25" stroke-miterlimit="10"/>
<path d="M99.5877 330.739H102.986L94.6152 333.225H91.1936L99.5877 330.739Z" fill="white" stroke="#2E353A" stroke-width="0.25" stroke-miterlimit="10"/>
<path d="M60.8017 326.37L52.6088 328.596L49.7437 328.62L57.9484 326.394L60.8017 326.37Z" fill="white" stroke="#2E353A" stroke-width="0.25" stroke-miterlimit="10"/>
<path d="M44.2145 330.882L41.3375 330.893L49.7435 328.62L52.6087 328.597L44.2145 330.882Z" fill="white" stroke="#2E353A" stroke-width="0.25" stroke-miterlimit="10"/>
<path d="M35.5955 333.226H32.7185L41.3376 330.893L44.2146 330.881L35.5955 333.226Z" fill="white" stroke="#2E353A" stroke-width="0.25" stroke-miterlimit="10"/>
<path d="M91.9512 323.979L100.381 321.599L103.767 321.563L95.3491 323.943L91.9512 323.979Z" fill="white" stroke="#131313" stroke-width="0.25" stroke-miterlimit="10"/>
<path d="M60.8016 326.37L57.9483 326.394L65.9518 324.227L68.7932 324.192L60.8016 326.37Z" fill="white" stroke="#2E353A" stroke-width="0.25" stroke-miterlimit="10"/>
<path d="M47.4941 330.881H44.2146L52.6087 328.596L55.8764 328.585L47.4941 330.881Z" fill="white" stroke="#2E353A" stroke-width="0.25" stroke-miterlimit="10"/>
<path d="M116.269 323.742L124.569 321.315L128.121 321.268L119.845 323.707L116.269 323.742Z" fill="white" stroke="#131313" stroke-width="0.25" stroke-miterlimit="10"/>
<path d="M72.0373 324.168L64.0575 326.347L60.8017 326.371L68.7933 324.192L72.0373 324.168Z" fill="white" stroke="#2E353A" stroke-width="0.25" stroke-miterlimit="10"/>
<path d="M65.9518 324.227L74.4999 321.907L77.3295 321.871L68.7933 324.192L65.9518 324.227Z" fill="white" stroke="#131313" stroke-width="0.25" stroke-miterlimit="10"/>
<path d="M68.7933 324.192L77.3295 321.871L80.5617 321.836L72.0373 324.168L68.7933 324.192Z" fill="white" stroke="#131313" stroke-width="0.25" stroke-miterlimit="10"/>
<path d="M57.4629 330.858L48.8911 333.226H45.5287L54.1123 330.858H57.4629Z" fill="white" stroke="#2E353A" stroke-width="0.25" stroke-miterlimit="10"/>
<path d="M38.8868 333.226H35.5954L44.2145 330.881H47.4941L38.8868 333.226Z" fill="white" stroke="#2E353A" stroke-width="0.25" stroke-miterlimit="10"/>
<path d="M72.0373 324.168L80.5617 321.836L83.8057 321.801L75.305 324.133L72.0373 324.168Z" fill="white" stroke="#131313" stroke-width="0.25" stroke-miterlimit="10"/>
<path d="M50.7855 330.87L42.2019 333.226H38.8868L47.4941 330.881L50.7855 330.87Z" fill="white" stroke="#2E353A" stroke-width="0.25" stroke-miterlimit="10"/>
<path d="M54.1124 330.858L45.5288 333.226H42.2019L50.7855 330.87L54.1124 330.858Z" fill="white" stroke="#2E353A" stroke-width="0.25" stroke-miterlimit="10"/>
<path d="M55.8764 328.584L52.6087 328.596L60.8016 326.37L64.0574 326.347L55.8764 328.584Z" fill="white" stroke="#2E353A" stroke-width="0.25" stroke-miterlimit="10"/>
<path d="M102.228 323.872L110.598 321.481L114.056 321.433L105.697 323.837L102.228 323.872Z" fill="white" stroke="#131313" stroke-width="0.25" stroke-miterlimit="10"/>
<path d="M75.305 324.133L83.8057 321.8L87.0734 321.753L78.5845 324.097L75.305 324.133Z" fill="white" stroke="#131313" stroke-width="0.25" stroke-miterlimit="10"/>
<path d="M105.697 323.837L114.056 321.434L117.536 321.398L109.201 323.813L105.697 323.837Z" fill="white" stroke="#131313" stroke-width="0.25" stroke-miterlimit="10"/>
<path d="M95.3492 323.943L103.767 321.563L107.165 321.516L98.7827 323.908L95.3492 323.943Z" fill="white" stroke="#131313" stroke-width="0.25" stroke-miterlimit="10"/>
<path d="M109.201 323.813L117.536 321.398L121.041 321.35L112.718 323.778L109.201 323.813Z" fill="white" stroke="#131313" stroke-width="0.25" stroke-miterlimit="10"/>
<path d="M112.718 323.778L121.041 321.35L124.569 321.315L116.269 323.742L112.718 323.778Z" fill="white" stroke="#131313" stroke-width="0.25" stroke-miterlimit="10"/>
<path d="M98.7826 323.908L107.165 321.516L110.598 321.481L102.228 323.872L98.7826 323.908Z" fill="white" stroke="#131313" stroke-width="0.25" stroke-miterlimit="10"/>
<path d="M78.5845 324.097L87.0734 321.753L90.3648 321.718L81.8877 324.074L78.5845 324.097Z" fill="white" stroke="#131313" stroke-width="0.25" stroke-miterlimit="10"/>
<path d="M81.8877 324.074L90.3647 321.718L93.6798 321.682L85.2264 324.038L81.8877 324.074Z" fill="white" stroke="#131313" stroke-width="0.25" stroke-miterlimit="10"/>
<path d="M88.577 324.003L97.0185 321.635L100.381 321.599L91.9512 323.979L88.577 324.003Z" fill="white" stroke="#131313" stroke-width="0.25" stroke-miterlimit="10"/>
<path d="M57.4629 330.857L60.8253 330.846L64.2232 330.834L67.6448 330.822L71.0901 330.81H74.559L78.0517 330.798L81.5798 330.786H85.1317L88.6954 330.775L92.2946 330.763L83.8767 333.225H80.2657H76.6665H73.1146H69.5746H66.0583H62.5775H59.1204H55.687H52.2772H48.8911L57.4629 330.857Z" fill="white" stroke="#2E353A" stroke-width="0.25" stroke-miterlimit="10"/>
<path d="M85.2264 324.038L93.6798 321.682L97.0185 321.635L88.577 324.003L85.2264 324.038Z" fill="white" stroke="#131313" stroke-width="0.25" stroke-miterlimit="10"/>
<path d="M158.122 318.947V321.362L95.1953 340.246L95.1835 337.144L158.122 318.947Z" fill="white" stroke="#131313" stroke-miterlimit="10"/>
<path d="M10.3301 340.246H95.1835V337.156H10.3301V340.246Z" fill="#131313" stroke="#131313" stroke-linecap="round" stroke-linejoin="round"/>
<circle opacity="0.3" cx="451" cy="45" r="9" fill="#C4C1FA"/>
<circle opacity="0.3" cx="27" cy="54" r="9" transform="rotate(-180 27 54)" fill="#C4C1FA"/>
<circle opacity="0.3" cx="447" cy="200" r="7" transform="rotate(-180 447 200)" fill="#C4C1FA"/>
<circle cx="427" cy="44" r="6" fill="#2B21ED"/>
<circle cx="51" cy="55" r="6" transform="rotate(-180 51 55)" fill="#2B21ED"/>
<circle cx="466" cy="201" r="5" transform="rotate(-180 466 201)" fill="#2B21ED"/>
<circle cx="442" cy="23" r="3" fill="#0FAF4D"/>
<circle cx="36" cy="76" r="3" transform="rotate(-180 36 76)" fill="#0FAF4D"/>
<circle cx="454.5" cy="217.5" r="2.5" transform="rotate(-180 454.5 217.5)" fill="#0FAF4D"/>
<circle opacity="0.3" r="7" transform="matrix(-1 0 0 1 34 248)" fill="#C4C1FA"/>
<circle r="5" transform="matrix(-1 0 0 1 53 247)" fill="#2B21ED"/>
<circle r="2.5" transform="matrix(-1 0 0 1 41.5 230.5)" fill="#0FAF4D"/>
</g>
</svg>
