<svg width="492" height="382" viewBox="0 0 492 382" fill="none" xmlns="http://www.w3.org/2000/svg">
<mask id="mask0" mask-type="alpha" maskUnits="userSpaceOnUse" x="0" y="0" width="492" height="382">
<rect width="492" height="382" fill="#C4C4C4"/>
</mask>
<g mask="url(#mask0)">
<path opacity="0.8" d="M156.653 6.26025C156.653 6.26025 124.649 -13.7023 97.5692 17.6674C70.4893 49.0371 104.955 70.4255 114.802 111.777C124.649 153.127 50.7949 130.313 23.715 161.683C-3.36487 193.053 21.167 237.255 39.7168 243.672C58.2665 250.088 95.1074 232.978 100.031 265.773C100.031 265.773 108.647 280.032 85.2602 321.383C61.873 362.734 63.1039 406.937 106.186 416.918C149.267 426.899 159.114 359.882 191.118 369.864C223.121 379.845 214.505 458.269 276.05 446.862C337.595 435.455 306.552 381.969 325.151 358.086C343.75 334.202 368.368 365.586 395.448 341.346C422.528 317.105 379.446 264.347 383.139 228.7C386.832 193.053 416.373 190.201 418.835 160.257C421.297 130.313 402.833 134.591 362.213 94.6658C321.594 54.7407 341.288 26.2228 312.977 7.68615C284.667 -10.8505 258.818 44.7594 221.89 33.3523C199.534 26.4327 177.712 17.3708 156.653 6.26025Z" fill="#F2F2FB"/>
<path d="M194.939 318.554C237.847 304.543 265.377 293.929 296.712 293.56C296.712 293.56 341.344 299.31 359.812 293.56C413.814 276.717 418.517 215.377 389.362 170.093C359.172 123.195 304.838 136.579 304.838 136.579C239.805 148.521 196.416 135.347 173.725 124.377C155.539 115.611 133.562 118.874 119.551 133.377C116.395 136.507 113.925 140.26 112.299 144.397C92.3405 199.051 115.328 252.462 123.528 285.077C126.556 297.168 152.018 332.565 194.939 318.554Z" stroke="#B2B1D5" stroke-linecap="round" stroke-linejoin="round" stroke-dasharray="2 2"/>
<path d="M214.849 106.855C213.114 126.486 211.294 146.39 211.749 166.009C212.819 213.541 217.788 260.919 220.937 308.344C222.819 336.61 228.637 366.482 222.709 394.571C217.161 420.9 195.328 442.634 166.73 444.583C135.254 446.733 112.51 418.514 115.942 390.13C118.513 368.868 131.822 349.225 132.609 327.798C133.655 298.953 98.5497 302.674 75.7327 284.094C48.8812 262.265 22.3741 233.243 14.5757 199.414C12.3248 189.692 11.7467 179.333 15.4982 169.99C32.4849 127.798 104.589 117.202 132.609 153.063C161.478 190.035 150.1 243.803 197.345 248.847C244.591 253.89 290.963 234.566 336.461 223.64C381.96 212.714 432.699 239.61 424.827 296.732C416.954 353.855 343.46 352.249 309.339 312.702C275.218 273.156 290.963 192.551 297.962 160.576C301.812 143.047 311.701 127.313 320.373 111.674C327.199 99.3425 335.81 86.4674 333.596 71.9033C327.064 28.9667 252.414 16.824 229.72 53.8782C229.695 53.9255 218.17 69.1511 214.849 106.855Z" stroke="#B2B1D5" stroke-linecap="round" stroke-linejoin="round" stroke-dasharray="2 2"/>
<path d="M228.587 276.784C217.073 276.784 206.03 272.21 197.889 264.069C189.747 255.927 185.173 244.885 185.173 233.371C185.173 221.857 189.747 210.815 197.889 202.673C206.03 194.532 217.073 189.958 228.587 189.958C240.1 189.958 251.143 194.532 259.284 202.673C267.426 210.815 272 221.857 272 233.371C272 244.885 267.426 255.927 259.284 264.069C251.143 272.21 240.1 276.784 228.587 276.784Z" fill="#DFDEF8"/>
<path d="M224.194 272.392C212.681 272.392 201.638 267.818 193.497 259.676C185.355 251.535 180.781 240.493 180.781 228.979C180.781 217.465 185.355 206.423 193.497 198.281C201.638 190.14 212.681 185.566 224.194 185.566C235.708 185.566 246.751 190.14 254.892 198.281C263.034 206.423 267.608 217.465 267.608 228.979C267.608 240.493 263.034 251.535 254.892 259.676C246.751 267.818 235.708 272.392 224.194 272.392Z" fill="white" stroke="#DFDEF8" stroke-width="2" stroke-miterlimit="10"/>
<g clip-path="url(#clip0)">
<g style="mix-blend-mode:darken">
<path d="M217.896 211.395C217.414 211.318 217.394 211.309 217.621 211.274C218.055 211.205 219.079 211.299 219.785 211.47C221.434 211.871 222.934 212.899 224.535 214.724L224.96 215.209L225.569 215.108C228.132 214.687 230.74 215.022 232.921 216.053C233.521 216.337 234.468 216.902 234.586 217.047C234.624 217.093 234.693 217.391 234.739 217.709C234.901 218.808 234.82 219.651 234.492 220.28C234.313 220.623 234.303 220.731 234.423 221.024C234.519 221.258 234.787 221.431 235.052 221.431C235.594 221.43 236.177 220.533 236.447 219.285L236.555 218.789L236.768 219.036C237.934 220.389 238.851 222.235 239.008 223.548L239.049 223.891L238.853 223.58C238.516 223.044 238.176 222.679 237.742 222.385C236.959 221.855 236.131 221.674 233.939 221.556C231.959 221.449 230.839 221.276 229.728 220.905C227.837 220.274 226.884 219.434 224.638 216.418C223.641 215.078 223.024 214.337 222.411 213.74C221.018 212.384 219.648 211.673 217.896 211.395Z" fill="#2B21ED"/>
</g>
<g style="mix-blend-mode:darken">
<path d="M235.032 214.386C235.082 213.488 235.201 212.896 235.44 212.355C235.535 212.141 235.623 211.966 235.637 211.966C235.651 211.966 235.61 212.124 235.546 212.317C235.372 212.842 235.343 213.56 235.463 214.395C235.615 215.454 235.702 215.607 236.796 216.752C237.309 217.288 237.906 217.965 238.122 218.256L238.515 218.785L238.122 218.407C237.641 217.945 236.534 217.044 236.29 216.915C236.126 216.829 236.102 216.831 236.001 216.933C235.908 217.028 235.888 217.171 235.875 217.845C235.855 218.896 235.715 219.57 235.377 220.245C235.195 220.609 235.166 220.531 235.331 220.12C235.454 219.812 235.467 219.677 235.466 218.66C235.464 216.616 235.227 216.125 233.837 215.284C233.485 215.07 232.905 214.763 232.548 214.6C232.191 214.438 231.907 214.296 231.918 214.285C231.957 214.245 233.312 214.65 233.858 214.865C234.67 215.185 234.804 215.226 234.902 215.187C234.968 215.162 235 214.965 235.032 214.386Z" fill="#2B21ED"/>
</g>
<g style="mix-blend-mode:darken">
<path d="M218.83 217.882C217.853 216.505 217.249 214.394 217.38 212.817L217.42 212.328L217.643 212.37C218.06 212.448 218.78 212.722 219.117 212.932C220.043 213.507 220.443 214.264 220.851 216.208C220.97 216.778 221.127 217.423 221.199 217.641C221.315 217.992 221.753 218.812 222.109 219.345C222.366 219.729 222.195 219.911 221.628 219.858C220.761 219.778 219.588 218.949 218.83 217.882Z" fill="#2B21ED"/>
</g>
<g style="mix-blend-mode:darken">
<path d="M233.847 228.127C229.282 226.246 227.675 224.613 227.675 221.857C227.675 221.452 227.688 221.12 227.705 221.12C227.721 221.12 227.898 221.254 228.097 221.417C229.023 222.177 230.06 222.502 232.929 222.93C234.618 223.183 235.568 223.386 236.445 223.684C239.231 224.63 240.955 226.549 241.366 229.164C241.486 229.924 241.416 231.348 241.222 232.099C241.069 232.692 240.603 233.761 240.479 233.802C240.444 233.814 240.411 233.679 240.402 233.496C240.355 232.514 239.871 231.558 239.057 230.842C238.131 230.028 236.888 229.38 233.847 228.127Z" fill="#2B21ED"/>
</g>
<g style="mix-blend-mode:darken">
<path d="M230.643 228.909C230.585 228.561 230.486 228.116 230.422 227.92L230.306 227.565L230.522 227.813C230.822 228.157 231.058 228.598 231.259 229.184C231.412 229.631 231.429 229.765 231.428 230.492C231.427 231.205 231.407 231.355 231.266 231.758C231.043 232.393 230.767 232.843 230.303 233.327C229.469 234.196 228.397 234.676 226.849 234.876C226.581 234.91 225.797 234.969 225.108 235.006C223.371 235.098 222.228 235.289 221.201 235.658C221.053 235.711 220.921 235.744 220.908 235.73C220.867 235.688 221.566 235.261 222.143 234.976C222.958 234.574 223.768 234.356 225.585 234.046C226.482 233.893 227.409 233.707 227.644 233.633C229.866 232.936 231.008 231.136 230.643 228.909Z" fill="#2B21ED"/>
</g>
<g style="mix-blend-mode:darken">
<path d="M232.735 232.713C232.129 231.378 231.99 230.09 232.322 228.888C232.357 228.76 232.415 228.655 232.449 228.655C232.483 228.655 232.626 228.734 232.767 228.83C233.047 229.023 233.607 229.347 235.1 230.181C236.964 231.221 238.027 232.026 238.749 232.946C239.382 233.752 239.774 234.67 239.962 235.789C240.069 236.423 240.006 237.948 239.847 238.587C239.346 240.599 238.182 242.18 236.521 243.103C236.278 243.238 236.059 243.349 236.035 243.349C236.012 243.35 236.1 243.119 236.232 242.837C236.791 241.641 236.855 240.478 236.432 239.184C236.174 238.391 235.646 237.424 234.582 235.789C233.343 233.889 233.04 233.383 232.735 232.713Z" fill="#2B21ED"/>
</g>
<g style="mix-blend-mode:darken">
<path d="M215.588 239.914C217.282 238.45 219.39 237.41 221.31 237.091C222.138 236.953 223.516 237.008 224.283 237.208C225.511 237.53 226.609 238.251 227.181 239.109C227.739 239.948 227.979 240.68 228.228 242.307C228.327 242.949 228.434 243.593 228.466 243.739C228.653 244.582 229.018 245.256 229.47 245.595C230.187 246.132 231.423 246.166 232.638 245.68C232.844 245.598 233.023 245.541 233.036 245.554C233.08 245.599 232.468 246.018 232.036 246.239C231.455 246.536 230.993 246.651 230.38 246.651C229.266 246.651 228.342 246.071 227.571 244.889C227.419 244.657 227.078 243.96 226.813 243.341C225.999 241.44 225.597 240.861 224.652 240.228C223.829 239.676 222.768 239.577 221.97 239.978C220.922 240.504 220.629 241.876 221.38 242.745C221.678 243.09 222.235 243.388 222.69 243.446C223.541 243.555 224.273 242.892 224.273 242.012C224.273 241.44 224.059 241.114 223.519 240.865C222.781 240.524 221.988 240.922 221.992 241.632C221.994 241.934 222.122 242.124 222.418 242.261C222.608 242.349 222.613 242.356 222.458 242.323C221.781 242.179 221.623 241.344 222.167 240.79C222.82 240.124 224.171 240.418 224.635 241.327C224.83 241.708 224.852 242.468 224.682 242.927C224.302 243.954 223.193 244.494 222.069 244.2C221.303 244 220.991 243.784 220.068 242.81C218.463 241.118 217.84 240.79 215.527 240.421L215.084 240.35L215.588 239.914Z" fill="#2B21ED"/>
</g>
<g style="mix-blend-mode:darken">
<path fill-rule="evenodd" clip-rule="evenodd" d="M208.06 209.636C213.418 216.292 217.109 219.039 217.519 219.619C217.857 220.098 217.73 220.529 217.15 220.867C216.827 221.054 216.164 221.244 215.832 221.244C215.456 221.244 215.327 221.096 215.327 221.096C215.11 220.885 214.987 220.922 213.869 218.89C212.316 216.424 211.017 214.378 210.981 214.344C210.9 214.265 210.901 214.267 213.71 219.413C214.164 220.486 213.801 220.879 213.801 221.032C213.801 221.343 213.718 221.506 213.343 221.934C212.719 222.646 212.44 223.447 212.239 225.105C212.013 226.963 211.378 228.276 209.618 230.523C208.588 231.838 208.419 232.079 208.159 232.609C207.832 233.276 207.742 233.65 207.705 234.493C207.667 235.384 207.742 235.96 208.008 236.812C208.241 237.558 208.484 238.051 209.105 239.036C209.641 239.886 209.95 240.518 209.95 240.765C209.95 240.961 209.987 240.962 210.818 240.77C212.807 240.31 214.421 239.502 215.329 238.511C215.891 237.897 216.023 237.559 216.028 236.719C216.031 236.169 216.012 236.054 215.866 235.738C215.63 235.223 215.2 234.795 214.252 234.132C213.01 233.262 212.479 232.563 212.333 231.6C212.212 230.811 212.352 230.253 213.039 228.779C213.75 227.253 213.927 226.603 214.046 225.065C214.123 224.071 214.23 223.679 214.508 223.364C214.799 223.036 215.061 222.925 215.781 222.824C216.955 222.66 217.702 222.349 218.317 221.77C218.85 221.267 219.073 220.783 219.107 220.054L219.133 219.501L218.835 219.145C217.757 217.858 207.338 208.624 207.272 208.624C207.257 208.624 207.612 209.079 208.06 209.636ZM210.556 235.501C210.8 235.059 210.67 234.491 210.262 234.213C209.877 233.951 209.278 234.075 209.278 234.417C209.278 234.521 209.334 234.597 209.461 234.664C209.675 234.776 209.691 234.903 209.522 235.162C209.352 235.424 209.366 235.655 209.561 235.811C209.876 236.064 210.322 235.925 210.556 235.501Z" fill="#2B21ED"/>
</g>
<g style="mix-blend-mode:darken">
<path fill-rule="evenodd" clip-rule="evenodd" d="M219.874 223.114C219.323 223.287 218.787 223.885 218.621 224.512C218.52 224.894 218.577 225.565 218.729 225.772C218.974 226.107 219.21 226.195 219.851 226.191C221.106 226.182 222.197 225.631 222.324 224.942C222.428 224.377 221.949 223.595 221.289 223.252C220.948 223.074 220.224 223.004 219.874 223.114ZM221.341 224.288C221.534 224.007 221.45 223.703 221.12 223.497C220.494 223.105 219.546 223.429 219.546 224.036C219.546 224.337 220.04 224.666 220.493 224.666C220.795 224.666 221.207 224.482 221.341 224.288Z" fill="#2B21ED"/>
</g>
</g>
<path d="M241.639 193.523C245.71 195.466 249.416 198.094 252.597 201.292" stroke="#DFDEF8" stroke-width="0.75" stroke-linecap="round" stroke-linejoin="round"/>
<path d="M200.184 198.152C201.083 197.438 202.031 196.761 203.016 196.108C208.267 192.665 214.265 190.526 220.51 189.871C226.755 189.215 233.067 190.062 238.918 192.341" stroke="#DFDEF8" stroke-width="0.75" stroke-linecap="round" stroke-linejoin="round"/>
<path d="M219.822 268.246C214.134 267.548 208.666 265.618 203.801 262.59C198.936 259.562 194.789 255.509 191.651 250.713V250.713C187.217 243.953 184.969 235.992 185.214 227.911C185.458 219.83 188.183 212.019 193.018 205.54" stroke="#DFDEF8" stroke-width="0.75" stroke-linecap="round" stroke-linejoin="round"/>
<path d="M234.4 267.323C231.834 268 229.206 268.412 226.557 268.554" stroke="#DFDEF8" stroke-width="0.75" stroke-linecap="round" stroke-linejoin="round"/>
<path d="M252.597 201.292C254.468 203.176 256.15 205.237 257.621 207.448V207.448C260.464 211.779 262.425 216.629 263.391 221.719C264.358 226.81 264.311 232.041 263.253 237.113C262.195 242.185 260.147 246.998 257.226 251.278C254.305 255.558 250.569 259.219 246.232 262.053C243.384 263.914 240.31 265.404 237.084 266.485" stroke="#DFDEF8" stroke-width="0.75" stroke-linecap="round" stroke-linejoin="round"/>
<path d="M408.662 276.784C397.148 276.784 386.106 272.21 377.964 264.069C369.823 255.927 365.249 244.885 365.249 233.371C365.249 221.857 369.823 210.815 377.964 202.673C386.106 194.532 397.148 189.958 408.662 189.958C420.176 189.958 431.218 194.532 439.36 202.673C447.501 210.815 452.075 221.857 452.075 233.371C452.075 244.885 447.501 255.927 439.36 264.069C431.218 272.21 420.176 276.784 408.662 276.784Z" fill="#DFDEF8"/>
<path d="M404.27 272.392C392.756 272.392 381.714 267.818 373.572 259.676C365.431 251.535 360.857 240.493 360.857 228.979C360.857 217.465 365.431 206.423 373.572 198.281C381.714 190.14 392.756 185.566 404.27 185.566C415.784 185.566 426.826 190.14 434.968 198.281C443.109 206.423 447.683 217.465 447.683 228.979C447.683 240.493 443.109 251.535 434.968 259.676C426.826 267.818 415.784 272.392 404.27 272.392Z" fill="white" stroke="#DFDEF8" stroke-width="1.3" stroke-miterlimit="10"/>
<path fill-rule="evenodd" clip-rule="evenodd" d="M416.856 224.855L408.79 226.994L406.992 218.623L409.39 218.081L410.335 222.048C410.335 222.048 412.515 218.473 409.609 214.772C407.943 212.921 407.129 212.794 405.318 212.513L405.164 212.489C403.475 212.247 399.549 212.818 398.378 217.401C397.882 220.353 398.442 222.538 402.247 225.397L402.033 228.58C402.033 228.58 397.784 225.588 396.689 223.489C395.842 221.829 394.389 218.548 397.012 213.982C398.424 211.699 401.209 209.508 406.115 209.739C408.583 209.843 414.607 212.858 413.674 219.903C413.512 221.223 412.826 222.982 412.826 222.982L416.135 222.244L416.856 224.855ZM403.561 240.848V216.865H406.173V240.848H403.561ZM403.037 247.623C407.931 247.98 410.774 245.864 412.249 243.621C414.988 239.13 413.622 235.809 412.826 234.12C411.788 231.993 407.62 228.891 407.62 228.891L407.32 232.068C411.045 235.031 411.546 237.234 410.975 240.168C409.684 244.717 405.741 245.19 404.063 244.901C404.007 244.891 403.952 244.881 403.898 244.871C402.095 244.542 401.288 244.395 399.675 242.503C396.874 238.721 399.145 235.21 399.145 235.21L399.987 239.205L402.402 238.727L400.823 230.309L392.699 232.235L393.351 234.858L396.678 234.213C396.678 234.213 395.945 235.948 395.749 237.262C394.631 244.279 400.569 247.455 403.037 247.623Z" fill="#2B21ED"/>
<path d="M383.858 262.681C380.015 260.319 376.608 257.312 373.787 253.792" stroke="#DFDEF8" stroke-width="0.75" stroke-linecap="round" stroke-linejoin="round"/>
<path d="M425.572 262.472C424.587 263.087 423.578 263.703 422.531 264.208C416.946 267.073 410.757 268.562 404.48 268.552C398.203 268.541 392.019 267.03 386.444 264.146" stroke="#DFDEF8" stroke-width="0.75" stroke-linecap="round" stroke-linejoin="round"/>
<path d="M413.506 190.703C419.088 191.998 424.32 194.497 428.835 198.025C433.35 201.554 437.039 206.026 439.645 211.129V211.129C443.336 218.322 444.724 226.475 443.623 234.483C442.522 242.492 438.984 249.968 433.489 255.897" stroke="#DFDEF8" stroke-width="0.75" stroke-linecap="round" stroke-linejoin="round"/>
<path d="M398.879 190.063C401.504 189.683 404.161 189.571 406.808 189.731" stroke="white" stroke-width="0.75" stroke-linecap="round" stroke-linejoin="round"/>
<path d="M373.787 253.791C372.123 251.709 370.671 249.465 369.453 247.093C367.087 242.485 365.652 237.456 365.232 232.293C364.812 227.13 365.413 221.935 367.003 217.005C368.593 212.075 371.139 207.507 374.496 203.562C377.853 199.617 381.955 196.373 386.567 194.015V194.015C389.595 192.464 392.81 191.31 396.134 190.58" stroke="#DFDEF8" stroke-width="0.75" stroke-linecap="round" stroke-linejoin="round"/>
<path opacity="0.2" d="M204.173 353.989C208.023 351.639 212.251 349.973 216.67 349.064" stroke="white" stroke-width="0.75" stroke-linecap="round" stroke-linejoin="round"/>
<path opacity="0.2" d="M185.348 391.209C185.249 390.064 185.2 388.894 185.2 387.724C185.195 381.446 186.691 375.257 189.563 369.673C192.435 364.09 196.6 359.274 201.711 355.626" stroke="white" stroke-width="0.75" stroke-linecap="round" stroke-linejoin="round"/>
<path d="M51.8421 276.784C46.1379 276.789 40.4887 275.669 35.2173 273.49C29.9459 271.31 25.1557 268.113 21.1205 264.082C17.0854 260.05 13.8843 255.262 11.7002 249.993C9.51622 244.723 8.39209 239.075 8.39209 233.371C8.39209 227.667 9.51622 222.018 11.7002 216.749C13.8843 211.479 17.0854 206.692 21.1205 202.66C25.1557 198.628 29.9459 195.431 35.2173 193.252C40.4887 191.072 46.1379 189.953 51.8421 189.958C63.356 189.958 74.3983 194.532 82.5398 202.673C90.6813 210.815 95.2552 221.857 95.2552 233.371C95.2552 244.885 90.6813 255.927 82.5398 264.069C74.3983 272.21 63.356 276.784 51.8421 276.784Z" fill="#DFDEF8"/>
<path d="M47.45 272.392C41.7458 272.397 36.0966 271.277 30.8252 269.098C25.5538 266.918 20.7636 263.721 16.7285 259.69C12.6933 255.658 9.49217 250.87 7.30815 245.601C5.12413 240.331 4 234.683 4 228.979C4 223.275 5.12413 217.626 7.30815 212.357C9.49217 207.087 12.6933 202.3 16.7285 198.268C20.7636 194.236 25.5538 191.039 30.8252 188.86C36.0966 186.68 41.7458 185.561 47.45 185.566C58.9639 185.566 70.0062 190.14 78.1477 198.281C86.2892 206.423 90.8631 217.465 90.8631 228.979C90.8631 240.493 86.2892 251.535 78.1477 259.676C70.0062 267.818 58.9639 272.392 47.45 272.392Z" fill="white" stroke="#DFDEF8" stroke-width="1.3" stroke-miterlimit="10"/>
<g clip-path="url(#clip1)">
<path fill-rule="evenodd" clip-rule="evenodd" d="M47.3718 207.526C59.1971 207.526 68.7832 217.112 68.7832 228.937C68.7832 240.762 59.1971 250.349 47.3718 250.349C35.5466 250.349 25.9604 240.762 25.9604 228.937C25.9604 217.112 35.5466 207.526 47.3718 207.526ZM62.6924 229.064C62.6924 237.6 55.792 244.521 47.2798 244.521C38.7675 244.521 31.867 237.6 31.867 229.064C31.867 220.527 38.7675 213.607 47.2798 213.607C55.792 213.607 62.6924 220.527 62.6924 229.064Z" fill="#2B21ED"/>
<path fill-rule="evenodd" clip-rule="evenodd" d="M48.593 220.464C48.593 220.853 48.3878 221.192 48.0757 221.374V222.338L48.1095 222.343L49.6202 222.542C49.6241 222.542 49.6281 222.542 49.632 222.543L49.6284 222.533C49.6318 222.533 49.6339 222.533 49.6357 222.533C49.638 222.534 49.64 222.536 49.6448 222.541C49.9075 222.673 52.5101 224.965 52.5101 228.358C52.5101 231.652 51.4794 232.3 51.0193 232.589L51.0185 232.589C50.9611 232.626 50.9127 232.656 50.8763 232.685C50.827 232.718 50.7614 232.718 50.7203 232.677L50.689 232.646L50.6812 232.639C50.4337 232.395 49.8462 231.815 48.6268 231.643C48.4544 231.618 48.2819 231.601 48.1095 231.585L48.0757 231.583V233.976H50.9667C51.6645 233.976 52.2392 233.48 52.3788 232.826C52.387 232.777 52.4362 232.735 52.4937 232.735C53.8986 232.735 55.2854 232.418 56.5505 231.807L56.804 231.684C56.8945 231.639 57.0006 231.652 57.0794 231.708C57.1517 231.76 57.2063 231.844 57.2063 231.933C57.2063 232.032 57.1489 232.131 57.0503 232.181C55.8937 232.741 55.1726 233.888 54.7485 235.101C54.5566 235.65 54.31 236.173 54.0156 236.664C53.824 236.983 53.4563 237.185 53.1177 237.03L52.5922 236.798C52.1982 236.624 51.7712 236.624 51.3772 236.798L50.8517 237.03C50.4576 237.204 50.0307 237.204 49.6366 237.03L49.1112 236.798C48.7171 236.624 48.2902 236.624 47.8961 236.798L47.3706 237.03C46.9765 237.204 46.5496 237.204 46.1555 237.03L45.6301 236.798C45.236 236.624 44.8091 236.624 44.415 236.798L43.8895 237.03C43.4955 237.204 43.0603 237.204 42.6745 237.03L42.149 236.798C41.7549 236.624 41.3198 236.624 40.9339 236.798L40.4495 237.013C40.2198 237.115 39.9599 237 39.8239 236.789C38.9832 235.484 38.5119 233.946 38.5119 232.297C38.5119 232.181 38.5119 232.065 38.5201 231.949C38.5201 231.883 38.5776 231.833 38.6351 231.833H43.085C43.1506 231.833 43.1999 231.883 43.1999 231.949V232.52C43.1999 233.323 43.8485 233.976 44.6449 233.976H47.033V231.57C46.49 231.596 46.0433 231.66 45.7779 231.701C45.7315 231.708 45.6924 231.687 45.6674 231.657L45.6629 231.66C45.6383 231.627 45.6301 231.586 45.6547 231.544C45.86 231.106 46.2623 229.906 46.1884 227.316C46.1063 224.511 45.1293 222.691 44.7516 222.095C44.6941 222.012 44.768 221.904 44.8665 221.913L47.033 222.198V221.369C46.7256 221.186 46.524 220.849 46.524 220.464C46.524 219.884 46.992 219.413 47.5667 219.413C48.1415 219.413 48.593 219.884 48.593 220.464ZM44.9323 230.773V226.222C44.9323 226.181 44.9076 226.131 44.8666 226.115L42.8058 225.146C42.7484 225.122 42.6745 225.146 42.6498 225.213L40.5152 230.723C40.4824 230.806 40.5398 230.889 40.622 230.889H44.8173C44.883 230.889 44.9323 230.839 44.9323 230.773Z" fill="#342BDB"/>
</g>
<path d="M26.9624 195.382C30.8121 193.031 35.0404 191.364 39.4593 190.457" stroke="#DFDEF8" stroke-width="0.75" stroke-linecap="round" stroke-linejoin="round"/>
<path d="M8.12459 232.602C8.02609 231.445 7.97685 230.287 7.97685 229.105C7.97221 222.826 9.46822 216.638 12.3402 211.054C15.2122 205.471 19.377 200.655 24.4876 197.007" stroke="#DFDEF8" stroke-width="0.75" stroke-linecap="round" stroke-linejoin="round"/>
<path d="M77.5043 254.592C73.8082 258.96 69.205 262.471 64.0148 264.88C58.8247 267.289 53.172 268.538 47.45 268.542C39.3685 268.552 31.4793 266.076 24.8521 261.451C18.225 256.826 13.1804 250.275 10.4024 242.686" stroke="#DFDEF8" stroke-width="0.75" stroke-linecap="round" stroke-linejoin="round"/>
<path d="M84.7316 241.861C83.8802 244.374 82.7702 246.792 81.4196 249.076" stroke="#DFDEF8" stroke-width="0.75" stroke-linecap="round" stroke-linejoin="round"/>
<path d="M39.4594 190.47C42.0766 189.934 44.7416 189.666 47.4131 189.669V189.669C57.8624 189.669 67.8838 193.82 75.2726 201.209C82.6614 208.598 86.8123 218.619 86.8123 229.068C86.8147 232.472 86.376 235.861 85.5072 239.152" stroke="#DFDEF8" stroke-width="0.75" stroke-linecap="round" stroke-linejoin="round"/>
<path d="M228.587 123.061C217.073 123.061 206.03 118.487 197.889 110.345C189.747 102.204 185.173 91.1615 185.173 79.6477C185.173 68.1338 189.747 57.0915 197.889 48.95C206.03 40.8085 217.073 36.2346 228.587 36.2346C240.1 36.2346 251.143 40.8085 259.284 48.95C267.426 57.0915 272 68.1338 272 79.6477C272 91.1615 267.426 102.204 259.284 110.345C251.143 118.487 240.1 123.061 228.587 123.061Z" fill="#DFDEF8"/>
<path d="M224.194 118.669C212.681 118.669 201.638 114.095 193.497 105.953C185.355 97.8118 180.781 86.7695 180.781 75.2556C180.781 63.7417 185.355 52.6994 193.497 44.5579C201.638 36.4164 212.681 31.8425 224.194 31.8425C235.708 31.8425 246.751 36.4164 254.892 44.5579C263.034 52.6994 267.608 63.7417 267.608 75.2556C267.608 86.7695 263.034 97.8118 254.892 105.953C246.751 114.095 235.708 118.669 224.194 118.669Z" fill="white" stroke="#DFDEF8" stroke-width="1.3" stroke-miterlimit="10"/>
<g clip-path="url(#clip2)">
<path d="M231.949 86.6558H226.239M217.104 62.675H222.814H217.104ZM231.949 64.9589L217.104 70.4282L231.949 64.9589ZM231.949 78.9026L217.104 84.3719L231.949 78.9026Z" stroke="#2B21ED" stroke-width="3" stroke-linecap="round" stroke-linejoin="round"/>
<path d="M231.949 71.8105L217.104 77.5203" stroke="#2B21ED" stroke-width="3" stroke-linecap="round" stroke-linejoin="bevel"/>
</g>
<path d="M204.173 42.0514C208.023 39.7014 212.251 38.0352 216.67 37.1265" stroke="white" stroke-width="0.75" stroke-linecap="round" stroke-linejoin="round"/>
<path d="M185.348 79.2714C185.249 78.1264 185.2 76.9567 185.2 75.7871C185.195 69.5083 186.691 63.3194 189.563 57.736C192.435 52.1527 196.6 47.3365 201.711 43.689" stroke="#DFDEF8" stroke-width="0.75" stroke-linecap="round" stroke-linejoin="round"/>
<path d="M254.715 101.274C251.018 105.651 246.41 109.167 241.212 111.576C236.014 113.986 230.353 115.231 224.624 115.224V115.224C216.544 115.225 208.659 112.746 202.034 108.122C195.408 103.498 190.362 96.952 187.576 89.3679" stroke="#DFDEF8" stroke-width="0.75" stroke-linecap="round" stroke-linejoin="round"/>
<path d="M261.954 88.5427C261.093 91.0519 259.984 93.4688 258.642 95.7577" stroke="#DFDEF8" stroke-width="0.75" stroke-linecap="round" stroke-linejoin="round"/>
<path d="M216.67 37.1514C219.287 36.6157 221.952 36.3475 224.624 36.3511V36.3511C235.073 36.3511 245.094 40.5021 252.483 47.8909C259.872 55.2797 264.023 65.301 264.023 75.7504C264.024 79.1538 263.585 82.5431 262.718 85.8341" stroke="#DFDEF8" stroke-width="0.75" stroke-linecap="round" stroke-linejoin="round"/>
<path d="M314.86 356.488C343.372 356.488 366.486 333.375 366.486 304.863C366.486 276.351 343.372 253.237 314.86 253.237C286.348 253.237 263.235 276.351 263.235 304.863C263.235 333.375 286.348 356.488 314.86 356.488Z" fill="white" stroke="#131313" stroke-miterlimit="10"/>
<path d="M314.86 253.238C314.86 253.238 288.746 250.406 284.584 263.321C280.423 276.237 297.98 273.947 295.21 279.943C292.44 285.939 280.891 293.745 285.508 302.56C290.125 311.376 298.436 321.029 289.202 317.803C279.967 314.577 277.665 313.642 279.512 323.799C281.359 333.957 291.048 336.727 306.747 335.336C322.445 333.944 321.053 341.344 329.82 342.268C338.586 343.191 347.365 338.106 347.365 325.178C347.365 312.25 336.752 315.033 346.441 308.569C356.131 302.105 354.296 285.483 351.526 280.411C348.756 275.338 343.215 277.64 343.215 271.177C343.215 264.713 329.894 252.376 314.86 253.238Z" fill="#131313" stroke="#131313" stroke-miterlimit="10"/>
<path d="M300.492 259.27C300.492 259.27 290.827 257.978 291.147 264.097C291.467 270.216 308.236 282.147 324.033 282.479C339.83 282.811 341.43 274.735 339.177 273.122" stroke="white" stroke-width="0.75" stroke-linecap="round" stroke-linejoin="round"/>
<path d="M310.489 264.392C310.489 264.392 302.757 265.353 303.718 270.548C304.678 275.744 309.517 278.281 316.941 281.186" stroke="white" stroke-width="0.75" stroke-linecap="round" stroke-linejoin="round"/>
<path d="M349.162 295.974C349.162 295.974 348.522 304.038 338.537 309.197C328.552 314.356 319.551 322.063 328.17 325.954C336.788 329.845 341.713 334.326 338.488 335.299" stroke="white" stroke-width="0.75" stroke-linecap="round" stroke-linejoin="round"/>
<path d="M299.852 319.822C299.852 319.822 295.986 328.847 290.186 327.209C284.387 325.572 282.442 321.053 286.32 321.053C290.199 321.053 290.507 322.986 290.507 322.986" stroke="white" stroke-width="0.75" stroke-linecap="round" stroke-linejoin="round"/>
<path d="M330.632 282.885C330.632 282.885 338.549 282.762 337.256 290.494C335.964 298.226 328.552 298.879 326.618 304.678" stroke="white" stroke-width="0.75" stroke-linecap="round" stroke-linejoin="round"/>
<path d="M314.86 356.537C326.448 356.551 337.699 352.646 346.786 345.456C343.166 342.784 336.715 338.069 332.959 335.606C327.53 331.986 320.29 320.721 310.625 322.728C302.868 324.353 282.11 333.291 274.205 336.764C279.035 342.931 285.206 347.917 292.25 351.343C299.295 354.769 307.027 356.546 314.86 356.537Z" fill="white" stroke="#131313" stroke-miterlimit="10"/>
<path d="M309.049 321.029C309.049 321.029 294.742 325.178 292.895 337.182C291.048 349.187 304.666 340.531 304.666 340.531C304.666 340.531 311.819 351.034 318.283 347.808C324.747 344.582 325.67 333.489 321.977 326.101C318.283 318.714 309.049 321.029 309.049 321.029Z" fill="white" stroke="#131313" stroke-miterlimit="10"/>
<path d="M308.667 312.213C308.743 316.146 308.207 320.067 307.079 323.836C305.269 329.413 299.371 337.096 304.616 340.544C309.861 343.991 316.584 333.021 318.332 323.811C320.081 314.602 321.349 303.594 321.349 303.594L308.667 312.213Z" fill="white"/>
<g style="mix-blend-mode:multiply">
<path d="M307.448 322.605C309.139 323.217 310.895 323.63 312.681 323.836C314.282 324.021 314.922 323.676 315.143 323.27C314.946 325.572 314.195 331.888 311.573 336.542C310.773 337.97 310.12 339.177 309.603 340.236C313.494 337.613 317.126 330.3 318.357 323.848C320.105 314.651 321.324 303.668 321.324 303.668L308.643 312.287C308.704 315.764 308.302 319.234 307.448 322.605Z" fill="#F2F2FB"/>
</g>
<path d="M308.667 312.213C308.743 316.146 308.207 320.067 307.079 323.836C305.269 329.413 299.371 337.096 304.616 340.544C309.861 343.991 316.584 333.021 318.332 323.811C320.081 314.602 321.349 303.594 321.349 303.594L308.667 312.213Z" stroke="#131313" stroke-miterlimit="10"/>
<path d="M300.923 276.508C300.923 276.508 296.49 294.976 296.49 301.859C296.49 308.741 302.819 317.163 310.846 317.864C321.09 318.689 324.858 304.924 327.074 297.081C328.995 290.273 330.3 284.387 330.62 282.935C315.045 288.82 300.923 276.508 300.923 276.508Z" fill="white"/>
<g style="mix-blend-mode:multiply">
<path d="M330.632 282.885C329.084 283.477 327.479 283.91 325.843 284.178C325.116 288.869 322.888 300.406 317.778 307.498C313.444 313.518 308.803 315.697 306.168 316.485C307.635 317.217 309.226 317.668 310.859 317.815C321.103 318.64 324.87 304.875 327.086 297.032" fill="#F2F2FB"/>
</g>
<path d="M300.923 276.508C300.923 276.508 296.49 294.976 296.49 301.859C296.49 308.741 302.819 317.163 310.846 317.864C321.09 318.689 324.858 304.924 327.074 297.081C328.995 290.273 330.3 284.387 330.62 282.935C315.045 288.82 300.923 276.508 300.923 276.508Z" stroke="#131313" stroke-linecap="round" stroke-linejoin="round"/>
<path d="M309.369 289.583C308.805 291.592 307.92 293.496 306.746 295.222C305.146 297.229 301.723 295.419 302.733 296.626C303.291 297.332 303.989 297.916 304.784 298.34C305.578 298.764 306.452 299.018 307.35 299.088" stroke="#131313" stroke-linecap="round" stroke-linejoin="round"/>
<path d="M301.625 302.905C301.625 302.905 304.641 307.337 310.871 305.121" stroke="#131313" stroke-linecap="round" stroke-linejoin="round"/>
<path d="M306.439 288.155C306.254 289.251 305.614 290.063 305.01 289.952C304.407 289.842 304.062 288.881 304.247 287.786C304.432 286.69 305.072 285.889 305.675 285.988C306.279 286.086 306.623 287.059 306.439 288.155Z" fill="#131313"/>
<path d="M316.584 291.048C316.313 292.132 315.624 292.895 315.033 292.747C314.442 292.6 314.171 291.615 314.429 290.531C314.688 289.448 315.377 288.697 315.981 288.832C316.584 288.968 316.843 289.977 316.584 291.048Z" fill="#131313"/>
<path d="M302.314 282.738C302.314 282.738 303.927 278.921 308.753 281.137" stroke="#131313" stroke-linecap="round" stroke-linejoin="round"/>
<path d="M314.368 284.375C314.368 284.375 318.8 282.971 320.007 287.392" stroke="#131313" stroke-linecap="round" stroke-linejoin="round"/>
<path d="M135.15 356.488C163.662 356.488 186.776 333.375 186.776 304.863C186.776 276.351 163.662 253.237 135.15 253.237C106.639 253.237 83.5251 276.351 83.5251 304.863C83.5251 333.375 106.639 356.488 135.15 356.488Z" fill="white" stroke="#131313" stroke-miterlimit="10"/>
<path d="M102.855 345.087C112.979 353.242 125.81 357.274 138.779 356.374C151.749 355.475 163.9 349.711 172.801 340.236C166.99 332.75 155.084 319.92 141.836 319.92C127.135 319.92 109.676 337.465 102.855 345.087Z" fill="white" stroke="#263238" stroke-miterlimit="10"/>
<path d="M129.438 316.104C129.438 316.104 120.684 317.101 119.932 323.86C119.181 330.62 124.426 341.873 124.931 343.117C125.436 344.36 136.689 333.119 140.937 333.119C145.185 333.119 156.192 339.115 156.192 339.115C156.192 339.115 152.695 325.104 146.441 319.847C140.186 314.589 131.174 314.097 129.438 316.104Z" fill="white" stroke="#263238" stroke-miterlimit="10"/>
<g style="mix-blend-mode:multiply">
<path d="M117.926 291.282C117.926 291.282 114.17 287.527 112.176 290.531C110.181 293.536 111.917 297.032 114.638 299.285C117.359 301.539 121.644 301.748 121.644 300.036C121.644 298.325 117.926 291.282 117.926 291.282Z" fill="#F2F2FB"/>
</g>
<path d="M117.926 291.282C117.926 291.282 114.17 287.527 112.176 290.531C110.181 293.536 111.917 297.032 114.638 299.285C117.359 301.539 121.644 301.748 121.644 300.036C121.644 298.325 117.926 291.282 117.926 291.282Z" stroke="#131313" stroke-miterlimit="10"/>
<path d="M150.208 282.577C150.208 282.577 151.957 278.071 154.456 282.824C156.955 287.576 152.203 291.824 152.203 291.824L150.208 282.577Z" fill="white" stroke="#131313" stroke-miterlimit="10"/>
<path d="M121.681 300.085C121.681 300.085 126.68 318.098 127.935 324.353C129.191 330.608 134.941 339.62 139.189 336.665C143.437 333.71 143.203 328.157 140.691 323.405C139.038 320.12 137.698 316.686 136.689 313.149L121.681 300.085Z" fill="white"/>
<g style="mix-blend-mode:multiply">
<path d="M140.691 323.356C139.038 320.07 137.698 316.636 136.689 313.1L121.681 300.085C121.681 300.085 125.781 314.86 127.48 322.248C129.65 323.942 132.118 325.216 134.756 326.003C137.037 326.626 139.471 326.349 141.553 325.227C141.305 324.586 141.017 323.961 140.691 323.356Z" fill="#F2F2FB"/>
</g>
<path d="M121.681 300.085C121.681 300.085 126.68 318.098 127.935 324.353C129.191 330.608 134.941 339.62 139.189 336.665C143.437 333.71 143.203 328.157 140.691 323.405C139.038 320.12 137.698 316.686 136.689 313.149L121.681 300.085Z" stroke="#263238" stroke-miterlimit="10"/>
<path d="M112.705 281.322C112.705 281.322 124.463 309.64 129.474 316.104C134.486 322.568 147.943 323.109 153.742 313.641C159.541 304.173 152.991 291.381 151.994 285.619C150.996 279.856 148.3 270.364 149.987 268.615C151.674 266.867 158.741 265.611 155.995 261.105C153.249 256.598 149.236 258.852 148.743 255.601C148.251 252.351 150.738 244.335 141.479 243.092C132.22 241.848 115.956 252.843 109.467 261.351C102.978 269.859 100.91 277.566 112.705 281.322Z" fill="#131313" stroke="#131313" stroke-miterlimit="10"/>
<path d="M116.399 272.814C116.399 272.814 108.691 272.235 112.557 264.823C116.423 257.411 142.218 247.426 142.538 252.905C142.858 258.384 137.059 259.997 137.059 259.997" stroke="white" stroke-width="0.75" stroke-linecap="round" stroke-linejoin="round"/>
<path d="M126.766 265.796C126.766 265.796 120.967 264.503 122.9 260.317C124.833 256.131 139.016 254.161 136.443 256.771C134.918 258.3 133.18 259.602 131.284 260.637" stroke="white" stroke-width="0.75" stroke-linecap="round" stroke-linejoin="round"/>
<path d="M145.443 298.337C145.443 298.337 141.196 305.085 134.436 301.834" stroke="white" stroke-width="0.75" stroke-linecap="round" stroke-linejoin="round"/>
<path d="M151.957 285.569C151.021 280.189 148.546 271.508 149.667 268.984C148.916 267.175 146.33 262.951 138.696 262.557C128.933 262.053 118.43 267.556 116.423 272.814C114.417 278.071 119.181 275.276 120.93 279.068C122.678 282.86 118.172 287.33 119.181 290.075C120.191 292.821 124.931 303.619 124.931 303.619C125.682 300.615 136.948 295.604 136.948 295.604C138.577 296.034 140.264 296.204 141.947 296.108C144.2 295.862 142.944 293.855 142.944 293.855L154.481 294.545C153.496 290.913 152.326 287.748 151.957 285.569Z" fill="white"/>
<g style="mix-blend-mode:multiply">
<path d="M125.313 274.821C124.845 269.896 121.619 268.923 119.477 268.837C118.147 269.896 117.091 271.26 116.399 272.814C114.404 278.071 119.157 275.276 120.905 279.068C122.653 282.861 118.147 287.33 119.157 290.076C120.166 292.821 124.907 303.619 124.907 303.619C125.153 302.659 126.458 301.489 128.132 300.356C125.67 296.847 122.666 292.575 120.967 290.1C117.765 285.36 126.039 282.454 125.313 274.821Z" fill="#F2F2FB"/>
</g>
<path d="M151.957 285.569C151.021 280.189 148.546 271.508 149.667 268.984C148.916 267.175 146.33 262.951 138.696 262.557C128.933 262.053 118.43 267.556 116.423 272.814C114.417 278.071 119.181 275.276 120.93 279.068C122.678 282.86 118.172 287.33 119.181 290.075C120.191 292.821 124.931 303.619 124.931 303.619C125.682 300.615 136.948 295.604 136.948 295.604C138.577 296.034 140.264 296.204 141.947 296.108C144.2 295.862 142.944 293.855 142.944 293.855L154.481 294.545C153.496 290.913 152.326 287.748 151.957 285.569Z" stroke="#131313" stroke-miterlimit="10"/>
<path d="M130.755 284.363C131.075 285.754 130.755 287.023 130.127 287.17C129.499 287.318 128.662 286.308 128.354 284.905C128.046 283.501 128.354 282.245 128.982 282.098C129.61 281.95 130.447 282.959 130.755 284.363Z" fill="#131313"/>
<path d="M145.653 281.297C145.973 282.7 145.653 283.956 145.025 284.104C144.397 284.252 143.56 283.242 143.24 281.838C142.919 280.435 143.24 279.179 143.88 279.031C144.52 278.883 145.333 279.893 145.653 281.297Z" fill="#131313"/>
<path d="M124.931 277.813C124.931 277.813 125.929 272.309 131.691 274.562" stroke="#131313" stroke-linecap="round" stroke-linejoin="round"/>
<path d="M147.18 272.063C142.919 269.305 141.417 273.294 141.417 273.294C141.417 273.294 138.721 276.249 139.817 281.703" stroke="#131313" stroke-linecap="round" stroke-linejoin="round"/>
<path d="M125.682 292.575L132.934 289.583" stroke="#131313" stroke-width="0.5" stroke-linecap="round" stroke-linejoin="round"/>
<path d="M143.203 287.33L149.199 286.825" stroke="#131313" stroke-width="0.5" stroke-linecap="round" stroke-linejoin="round"/>
<path d="M326.933 194.298C354.654 187.627 371.718 159.748 365.048 132.027C358.378 104.307 330.498 87.242 302.777 93.9125C275.057 100.583 257.992 128.462 264.663 156.183C271.333 183.904 299.213 200.968 326.933 194.298Z" fill="white" stroke="#131313" stroke-miterlimit="10"/>
<path d="M358.952 133.828C365.906 115.078 355.718 94.008 336.197 86.7673C316.675 79.5266 295.212 88.857 288.257 107.607C281.303 126.358 291.49 147.427 311.012 154.668C330.534 161.909 351.997 152.578 358.952 133.828Z" fill="#131313" stroke="#131313" stroke-miterlimit="10"/>
<path d="M358.68 113.542C360.387 119.643 360.275 126.108 358.36 132.146" stroke="white" stroke-width="0.75" stroke-linecap="round" stroke-linejoin="round"/>
<path d="M356.069 137.034C356.069 137.034 353.779 139.977 352.474 141.615" stroke="white" stroke-width="0.75" stroke-linecap="round" stroke-linejoin="round"/>
<path d="M302.536 97.8691C302.536 97.8691 297.315 104.025 300.578 111.585" stroke="white" stroke-width="0.75" stroke-linecap="round" stroke-linejoin="round"/>
<path d="M314.86 195.739C324.373 195.756 333.704 193.131 341.812 188.155C335.791 182.602 320.118 168.776 312.73 168.172C304.998 167.544 282.43 174.772 275.202 177.173C280.044 182.99 286.107 187.669 292.961 190.878C299.815 194.087 307.292 195.747 314.86 195.739Z" fill="white" stroke="#131313" stroke-miterlimit="10"/>
<path d="M322.482 174.685C322.691 174.07 322.876 173.454 323.073 172.949C319.108 170.314 315.377 168.394 312.73 168.172C309.516 168.139 306.311 168.507 303.188 169.268C301.822 172.961 301.465 176.655 300.356 182.947C298.854 191.454 301.107 193.954 307.362 190.703C313.617 187.453 319.982 182.183 322.482 174.685Z" fill="white" stroke="#131313" stroke-miterlimit="10"/>
<path d="M307.473 158.913C307.473 158.913 308.975 161.671 307.227 168.172C305.478 174.673 301.071 185.409 303.114 187.453C305.158 189.497 317.483 180.189 317.975 173.183C318.468 166.178 318.48 152.166 318.48 152.166L307.473 158.913Z" fill="white"/>
<g style="mix-blend-mode:multiply">
<path d="M308.052 163.124L315.956 169.28L315.353 179.13C316.754 177.42 317.661 175.359 317.975 173.171C318.48 166.165 318.48 152.154 318.48 152.154L307.473 158.901C308.008 160.24 308.207 161.69 308.052 163.124Z" fill="#F2F2FB"/>
</g>
<path d="M307.473 158.913C307.473 158.913 308.975 161.671 307.227 168.172C305.478 174.673 301.071 185.409 303.114 187.453C305.158 189.497 317.483 180.189 317.975 173.183C318.468 166.178 318.48 152.166 318.48 152.166L307.473 158.913Z" stroke="#131313" stroke-miterlimit="10"/>
<path d="M294.927 128.145C294.927 128.145 293.178 123.639 290.925 126.914C288.672 130.189 291.418 134.166 292.674 134.166C293.929 134.166 294.927 128.145 294.927 128.145Z" fill="white" stroke="#131313" stroke-miterlimit="10"/>
<path d="M300.714 113.629C300.714 113.629 293.462 127.886 291.713 137.65C289.965 147.414 297.217 162.164 304.469 162.164C311.721 162.164 322.937 150.91 322.937 150.91C322.937 150.91 333.44 151.156 334.942 147.66C336.444 144.163 334.695 141.405 331.937 141.405H326.434C326.434 141.405 324.932 142.156 325.683 135.151C326.434 128.145 328.687 124.894 328.687 124.894C328.687 124.894 309.701 126.384 300.714 113.629Z" fill="white"/>
<g style="mix-blend-mode:multiply">
<path d="M319.945 146.392C318.424 150.263 315.921 153.67 312.682 156.28C309.444 158.89 305.582 160.613 301.477 161.277H301.403C302.35 161.83 303.422 162.131 304.518 162.152C311.77 162.152 322.986 150.898 322.986 150.898C322.986 150.898 333.489 151.144 334.991 147.648C336.493 144.151 334.745 141.393 331.987 141.393H326.483C326.483 141.393 324.981 142.144 325.732 135.138C326.483 128.133 328.736 124.882 328.736 124.882C328.736 124.882 327.505 124.969 325.473 124.882H325.387" fill="#F2F2FB"/>
</g>
<path d="M300.714 113.629C300.714 113.629 293.462 127.886 291.713 137.65C289.965 147.414 297.217 162.164 304.469 162.164C311.721 162.164 322.937 150.91 322.937 150.91C322.937 150.91 333.44 151.156 334.942 147.66C336.444 144.163 334.695 141.405 331.937 141.405H326.434C326.434 141.405 324.932 142.156 325.683 135.151C326.434 128.145 328.687 124.894 328.687 124.894C328.687 124.894 309.701 126.384 300.714 113.629Z" stroke="#131313" stroke-miterlimit="10"/>
<path d="M301.677 127.899C301.718 128.296 301.682 128.856 301.554 129.48C301.416 130.089 301.207 130.601 300.997 130.935C300.926 131.048 300.861 131.13 300.807 131.187C300.785 131.115 300.764 131.018 300.75 130.891C300.707 130.498 300.742 129.94 300.881 129.312C301.02 128.688 301.23 128.176 301.439 127.846C301.508 127.737 301.571 127.658 301.623 127.603C301.644 127.675 301.664 127.773 301.677 127.899ZM300.697 131.278C300.697 131.278 300.698 131.278 300.7 131.277C300.698 131.278 300.697 131.278 300.697 131.278ZM300.863 131.316C300.864 131.317 300.865 131.318 300.865 131.318C300.865 131.318 300.864 131.318 300.863 131.316ZM301.735 127.511C301.735 127.511 301.734 127.512 301.732 127.512C301.734 127.511 301.735 127.511 301.735 127.511ZM301.568 127.469C301.567 127.468 301.566 127.467 301.566 127.467C301.566 127.467 301.567 127.467 301.568 127.469Z" fill="#131313" stroke="#131313"/>
<path d="M313.314 134.72C313.175 135.332 312.965 135.849 312.754 136.186C312.684 136.298 312.621 136.379 312.568 136.435C312.545 136.363 312.523 136.263 312.508 136.133C312.465 135.744 312.5 135.192 312.639 134.571C312.778 133.952 312.988 133.436 313.198 133.102C313.268 132.991 313.331 132.91 313.384 132.855C313.408 132.929 313.43 133.03 313.445 133.163C313.488 133.554 313.453 134.106 313.314 134.72ZM312.46 136.526C312.46 136.526 312.461 136.525 312.463 136.524C312.461 136.525 312.46 136.526 312.46 136.526ZM312.624 136.559C312.625 136.561 312.625 136.561 312.625 136.562C312.625 136.562 312.625 136.561 312.624 136.559ZM313.491 132.766C313.491 132.766 313.49 132.767 313.488 132.767C313.49 132.766 313.491 132.766 313.491 132.766ZM313.328 132.732C313.327 132.73 313.326 132.729 313.326 132.729C313.326 132.729 313.327 132.73 313.328 132.732Z" fill="#131313" stroke="#131313"/>
<path d="M303.964 132.897C303.964 132.897 298.46 136.899 299.211 137.896C301.265 139.663 303.79 140.792 306.476 141.147C308.729 141.147 308.224 138.401 308.224 138.401" stroke="#131313" stroke-linecap="round" stroke-linejoin="round"/>
<path d="M299.962 144.409C302.714 145.909 305.862 146.52 308.975 146.158C310.259 146.032 311.496 145.604 312.583 144.908C313.67 144.213 314.577 143.27 315.23 142.156" stroke="#131313" stroke-linecap="round" stroke-linejoin="round"/>
<path d="M300.467 123.638C300.467 123.638 301.969 120.388 304.974 124.143" stroke="#131313" stroke-linecap="round" stroke-linejoin="round"/>
<path d="M313.223 128.145C313.223 128.145 318.234 126.643 318.234 131.641" stroke="#131313" stroke-linecap="round" stroke-linejoin="round"/>
<path d="M143.531 195.059C171.665 190.432 190.721 163.874 186.094 135.74C181.466 107.606 154.908 88.55 126.774 93.1772C98.6402 97.8045 79.5843 124.363 84.2116 152.497C88.8389 180.631 115.397 199.686 143.531 195.059Z" fill="white" stroke="#131313" stroke-miterlimit="10"/>
<path d="M99.6295 170.302C98.743 173.836 94.7046 173.343 95.9358 177.689C104.185 187.346 115.706 193.622 128.294 195.314C140.881 197.006 153.651 193.997 164.158 186.862C167.852 182.491 170.068 177.899 170.166 174.205C170.499 162.927 158.581 154.505 157.94 149.076C157.3 143.646 162.447 131.371 162.447 131.371C162.447 131.371 171.459 130.078 174.685 122.038C177.911 113.998 165.648 95.9113 154.69 90.4324C143.732 84.9534 125.387 89.7921 116.374 102.991C107.362 116.19 118.307 127.788 112.508 133.907C106.709 140.026 91.5772 140.346 89.9643 152.585C88.3514 164.823 100.59 166.436 99.6295 170.302Z" fill="#131313" stroke="#131313" stroke-miterlimit="10"/>
<path d="M154.727 102.708C154.727 102.708 157.99 110.698 145.283 115.414C132.577 120.129 122.777 117.593 119.501 125.941C116.226 134.289 118.775 140.112 119.144 144.409C119.514 148.706 109.295 148.029 103.138 153.483C96.9823 158.938 109.295 165.463 112.582 169.095C115.869 172.727 115.118 178.169 109.307 179.992" stroke="white" stroke-width="0.75" stroke-linecap="round" stroke-linejoin="round"/>
<path d="M116.239 119.415C116.239 119.415 120.954 107.793 128.219 105.97C135.483 104.148 143.473 109.602 148.915 104.517C154.358 99.4325 153.274 95.8127 149.273 92.907" stroke="white" stroke-width="0.75" stroke-linecap="round" stroke-linejoin="round"/>
<path d="M160.169 107.423C160.169 107.423 172.887 115.783 168.529 122.321C164.17 128.859 162.718 120.868 162.718 120.868" stroke="white" stroke-width="0.75" stroke-linecap="round" stroke-linejoin="round"/>
<path d="M107.152 187.478C116.796 193.71 128.244 196.547 139.683 195.539C151.121 194.531 161.897 189.736 170.302 181.912C166.501 178.42 162.47 175.187 158.236 172.235C150.184 166.756 143.744 164.848 139.238 165.143C139.238 165.143 135.692 166.756 128.933 173.195C124.525 177.394 113.936 183.636 107.152 187.478Z" fill="white" stroke="#131313" stroke-miterlimit="10"/>
<path d="M151.144 173.996C151.148 171.853 150.841 169.721 150.233 167.667C146.823 165.963 143.049 165.117 139.238 165.205C139.238 165.205 136.419 166.436 131.038 171.361C130.924 172.272 130.867 173.188 130.866 174.106C130.866 182.565 135.397 189.411 140.999 189.411C146.601 189.411 151.144 182.454 151.144 173.996Z" fill="white" stroke="#131313" stroke-miterlimit="10"/>
<path d="M136.652 148.719C136.652 148.719 136.652 157.743 135.692 166.116C134.732 174.488 136.012 183.501 142.131 184.141C148.251 184.781 147.278 170.302 146.638 164.503C146.258 160.864 146.258 157.196 146.638 153.557L136.652 148.719Z" fill="white"/>
<g style="mix-blend-mode:multiply">
<path d="M135.507 168.061L146.379 157.522C146.379 157.19 146.379 156.869 146.379 156.574L144.163 152.449L136.616 148.756C136.616 148.756 136.616 157.78 135.655 166.153C135.618 166.756 135.557 167.409 135.507 168.061Z" fill="#F2F2FB"/>
</g>
<path d="M136.652 148.719C136.652 148.719 136.652 157.743 135.692 166.116C134.732 174.488 136.012 183.501 142.131 184.141C148.251 184.781 147.278 170.302 146.638 164.503C146.258 160.864 146.258 157.196 146.638 153.557L136.652 148.719Z" stroke="#131313" stroke-miterlimit="10"/>
<path d="M158.556 108.47C158.556 108.47 159.196 112.656 148.251 117.815C137.305 122.974 131.826 127.147 130.866 131.974C129.905 136.8 129.573 138.746 129.573 138.746C129.573 138.746 127.32 134.227 123.134 136.48C118.947 138.733 122.813 147.438 126.68 147.758C130.546 148.078 131.506 146.786 131.506 146.786C131.506 146.786 144.064 159.344 151.464 159.344C158.864 159.344 161.77 152.264 163.382 139.644C164.946 127.529 158.556 108.47 158.556 108.47Z" fill="white"/>
<g style="mix-blend-mode:multiply">
<path d="M134.387 134.301C134.778 130.245 136.221 126.362 138.573 123.035C133.981 126.039 131.481 128.871 130.866 131.974C129.893 136.813 129.573 138.746 129.573 138.746C129.573 138.746 127.32 134.227 123.134 136.48C118.947 138.733 122.813 147.438 126.68 147.758C130.546 148.078 131.506 146.786 131.506 146.786C131.506 146.786 144.064 159.344 151.464 159.344C149.267 158.252 147.202 156.914 145.308 155.355C140.925 152.154 134.03 142.304 134.387 134.301Z" fill="#F2F2FB"/>
</g>
<path d="M158.556 108.47C158.556 108.47 159.196 112.656 148.251 117.815C137.305 122.974 131.826 127.147 130.866 131.974C129.905 136.8 129.573 138.746 129.573 138.746C129.573 138.746 127.32 134.227 123.134 136.48C118.947 138.733 122.813 147.438 126.68 147.758C130.546 148.078 131.506 146.786 131.506 146.786C131.506 146.786 144.064 159.344 151.464 159.344C158.864 159.344 161.77 152.264 163.382 139.644C164.946 127.529 158.556 108.47 158.556 108.47Z" stroke="#131313" stroke-miterlimit="10"/>
<path d="M156.327 128.009C155.962 129.007 155.81 130.071 155.882 131.132C155.955 132.192 156.249 133.226 156.746 134.165C158.433 137.33 159.282 138.376 158.654 139.226C158.474 139.518 158.238 139.771 157.96 139.972C157.682 140.173 157.367 140.317 157.033 140.396C156.699 140.475 156.353 140.487 156.014 140.432C155.676 140.377 155.351 140.256 155.059 140.075" stroke="#131313" stroke-linecap="round" stroke-linejoin="round"/>
<path d="M155.059 147.647C155.059 147.647 148.903 149.974 146.822 145.53" stroke="#131313" stroke-linecap="round" stroke-linejoin="round"/>
<path d="M148.44 132.762C148.44 133.392 148.35 133.95 148.218 134.334C148.174 134.461 148.13 134.558 148.09 134.627C148.052 134.561 148.011 134.47 147.97 134.349C147.841 133.971 147.753 133.413 147.753 132.762C147.753 132.11 147.841 131.552 147.97 131.174C148.011 131.054 148.052 130.962 148.09 130.896C148.13 130.966 148.174 131.062 148.218 131.19C148.35 131.573 148.44 132.132 148.44 132.762ZM148 134.748C148 134.748 148.001 134.747 148.003 134.746C148.001 134.747 148 134.748 148 134.748ZM148.176 134.745C148.177 134.746 148.178 134.747 148.178 134.747C148.178 134.747 148.177 134.746 148.176 134.745ZM148.178 130.777C148.178 130.777 148.177 130.777 148.176 130.778C148.177 130.777 148.178 130.777 148.178 130.777ZM148.003 130.778C148.001 130.777 148 130.776 148 130.776C148 130.776 148.001 130.776 148.003 130.778Z" fill="#263238" stroke="#131313"/>
<path d="M159.632 130.016C159.632 130.645 159.542 131.193 159.411 131.566C159.367 131.693 159.322 131.787 159.282 131.854C159.243 131.787 159.198 131.693 159.154 131.566C159.023 131.193 158.933 130.645 158.933 130.016C158.933 129.387 159.023 128.84 159.154 128.467C159.198 128.34 159.243 128.246 159.282 128.179C159.322 128.246 159.367 128.34 159.411 128.467C159.542 128.84 159.632 129.387 159.632 130.016ZM159.198 131.963C159.198 131.963 159.199 131.962 159.201 131.961C159.199 131.963 159.198 131.963 159.198 131.963ZM159.364 131.961C159.366 131.962 159.367 131.963 159.367 131.963C159.367 131.963 159.366 131.963 159.364 131.961ZM159.367 128.069C159.367 128.07 159.366 128.07 159.364 128.071C159.366 128.07 159.367 128.069 159.367 128.069ZM159.201 128.071C159.199 128.07 159.198 128.07 159.198 128.069C159.198 128.069 159.199 128.07 159.201 128.071Z" fill="#263238" stroke="#131313"/>
<path d="M142.821 125.695C142.821 125.695 144.052 122.309 149.149 122.949" stroke="#131313" stroke-linecap="round" stroke-linejoin="round"/>
<path d="M156.537 122.309C156.537 122.309 158.014 118.726 161.178 121.681" stroke="#131313" stroke-linecap="round" stroke-linejoin="round"/>
<circle opacity="0.3" cx="441" cy="109" r="9" fill="#C4C1FA"/>
<circle opacity="0.3" r="9" transform="matrix(-1 0 0 1 51 314)" fill="#C4C1FA"/>
<circle cx="63" cy="57" r="9" fill="#04B94A"/>
<circle opacity="0.3" r="9" transform="matrix(1 0 0 -1 70 15)" fill="#C4C1FA"/>
<circle cx="419" cy="90" r="6" fill="#2B21ED"/>
<circle r="6" transform="matrix(-1 0 0 1 32 333)" fill="#2B21ED"/>
<circle r="6" transform="matrix(1 0 0 -1 376 15)" fill="#2B21ED"/>
<circle cx="92" cy="51" r="6" transform="rotate(-180 92 51)" fill="#2B21ED"/>
<circle r="6" transform="matrix(1 0 0 -1 413 322)" fill="#0FAF4D"/>
<circle cx="441" cy="87" r="3" fill="#0FAF4D"/>
<circle r="3" transform="matrix(-1 0 0 1 16 318)" fill="#0FAF4D"/>
<circle r="3" transform="matrix(1 0 0 -1 382 36)" fill="#0FAF4D"/>
</g>
<defs>
<clipPath id="clip0">
<rect width="35.8229" height="39.5288" fill="white" transform="translate(206.036 208.624)"/>
</clipPath>
<clipPath id="clip1">
<rect width="42.8228" height="42.8228" fill="white" transform="translate(25.9604 207.526)"/>
</clipPath>
<clipPath id="clip2">
<rect width="19.413" height="28.5485" fill="white" transform="translate(214.82 60.3911)"/>
</clipPath>
</defs>
</svg>
