<svg width="492" height="382" viewBox="0 0 492 382" fill="none" xmlns="http://www.w3.org/2000/svg">
<mask id="mask0" mask-type="alpha" maskUnits="userSpaceOnUse" x="0" y="0" width="492" height="382">
<rect width="492" height="382" fill="#C4C4C4"/>
</mask>
<g mask="url(#mask0)">
<path opacity="0.7" d="M435.81 72.4839C398.577 30.0794 346.685 1.89249 290.449 0.0722023C210.356 -2.50654 169.096 64.6511 109.647 95.6374C50.1984 126.624 8.92477 153.845 1.64362 214.522C-5.63754 275.198 0.430081 332.041 50.1847 360.448C99.9392 388.856 130.277 341.142 194.58 343.666C258.884 346.189 297.73 423.772 378.416 400.508C431.521 385.201 470.878 329.117 485.675 275.17C505.946 201.256 482.476 125.714 435.81 72.4839Z" fill="#F2F2FB"/>
<path d="M161.043 229.127C161.043 229.127 168.71 273.931 172.075 296.933C175.44 319.935 174.957 320.376 173.04 327.602C171.124 334.828 135.655 400.69 134.938 401.641C134.221 402.593 128.043 401.393 127.271 399.242L126.554 397.09C126.554 397.09 142.123 340.303 146.674 330.236C151.224 320.17 151.238 317.067 146.922 305.566C142.606 294.065 134.842 273.504 134.842 273.504C134.842 273.504 130.705 315.426 124.058 346.812C117.411 378.198 119.507 412.466 117.839 413.652C116.17 414.838 109.441 415.817 108.489 413.184C107.538 410.55 95.3057 367.414 98.9049 338.91C102.504 310.406 106.338 301.525 102.504 284.274C98.6705 267.023 94.106 242.587 95.0713 229.114C96.0366 215.641 150.921 214.041 161.043 229.127Z" fill="#131313" stroke="#263238" stroke-linecap="round" stroke-linejoin="round"/>
<path d="M243.425 166.162H229.166C227.787 166.162 216.686 171.871 216.686 171.871L192.098 179.359L194.953 189.343L218.479 177.566L226.67 176.863C229.243 176.638 231.65 175.498 233.455 173.65C233.455 173.65 241.646 171.512 243.425 170.092C245.204 168.672 243.425 166.162 243.425 166.162Z" fill="white" stroke="#263238" stroke-linecap="round" stroke-linejoin="round"/>
<path d="M420.296 57.8684C420.296 57.8684 416.063 44.1749 397.791 41.5685C379.519 38.9622 361.937 45.4849 356.048 59.8266C350.16 74.1683 363.495 81.4908 359.579 92.578C355.662 103.665 333.157 93.8743 320.773 109.209C308.39 124.543 310.003 136.596 317.174 147.366C324.345 158.136 333.488 159.777 324.676 169.871C315.864 179.966 306.418 185.523 310.651 202.154C314.885 218.785 332.84 232.809 369.949 233.457C407.058 234.105 411.691 201.506 409.085 175.084C406.479 148.662 414.946 142.801 428.391 129.108C441.836 115.414 440.499 80.7048 420.296 57.8684Z" fill="#131313" stroke="#131313" stroke-linecap="round" stroke-linejoin="round"/>
<path d="M332.771 220.619C336.067 223.377 340.024 224.301 343.334 222.757" stroke="white" stroke-linecap="round" stroke-linejoin="round"/>
<path d="M330.33 124.571C327.089 127.126 324.932 130.81 324.29 134.886C321.642 151.282 339.1 158.164 342.217 167.679C345.333 177.194 328.992 185.137 326.344 200.485C325.216 206.209 326.369 212.148 329.558 217.033" stroke="white" stroke-linecap="round" stroke-linejoin="round"/>
<path d="M369.273 83.1047C369.273 83.1047 367.687 102.673 358.696 110.616C354.352 114.45 346.795 116.422 339.845 119.304" stroke="white" stroke-linecap="round" stroke-linejoin="round"/>
<path d="M395.391 78.9812C397.852 86.3934 402.36 92.9577 408.395 97.915C424.268 110.616 432.197 112.726 432.197 112.726" stroke="white" stroke-linecap="round" stroke-linejoin="round"/>
<path d="M392.523 64.0603C392.571 65.9832 392.756 67.9002 393.075 69.797" stroke="white" stroke-linecap="round" stroke-linejoin="round"/>
<path d="M414.215 55.6207C405.706 54.6063 397.085 56.0767 389.393 59.8542C376.168 66.1977 366.653 75.7266 360.296 71.493" stroke="white" stroke-linecap="round" stroke-linejoin="round"/>
<path d="M425.412 102.507C427.038 103.92 428.777 105.197 430.611 106.327" stroke="white" stroke-linecap="round" stroke-linejoin="round"/>
<path d="M409.981 57.179C409.981 57.179 406.892 81.8356 421.441 98.5492" stroke="white" stroke-linecap="round" stroke-linejoin="round"/>
<path d="M360.254 60.3646C360.254 60.3646 362.902 64.5844 377.189 56.131C391.475 47.6777 402.576 51.3597 408.395 53.4834" stroke="white" stroke-linecap="round" stroke-linejoin="round"/>
<path d="M386.8 294.768C386.8 294.768 385.49 322.169 385.49 335.215C385.49 348.26 383.201 395.215 384.842 410.867C386.483 426.519 395.874 434.034 398.867 433.372C401.859 432.71 400.494 422.34 396.908 413.804C393.323 405.268 393.323 388.692 394.619 384.845C395.915 380.998 407.665 357.775 407.665 344.73C407.665 331.684 405.389 322.224 407.016 311.454C408.644 300.684 409.623 296.134 409.623 296.134L386.8 294.768Z" fill="white" stroke="#131313" stroke-miterlimit="10"/>
<path d="M381.298 294.768C381.298 294.768 382.594 322.169 382.594 335.215C382.594 348.26 384.883 395.215 383.256 410.867C381.629 426.519 372.224 434.034 369.232 433.372C366.239 432.71 367.604 422.34 371.19 413.804C374.775 405.268 374.775 388.692 373.465 384.845C372.155 380.998 360.42 357.775 360.42 344.73C360.42 331.684 362.709 322.224 361.082 311.454C359.454 300.684 358.462 296.134 358.462 296.134L381.298 294.768Z" fill="white" stroke="#131313" stroke-miterlimit="10"/>
<path d="M378.788 108.561L347.485 120.296L362.157 185.84C362.157 185.84 351.401 199.865 346.837 214.551C342.272 229.238 344.216 254.005 348.133 269.339C352.049 284.674 358.117 301.291 358.117 301.291H411.457C411.457 301.291 425.095 254.984 422.489 227.266C421.001 210.801 415.876 194.872 407.485 180.628L420.862 118.986L390.523 107.582L378.788 108.561Z" fill="#04B94A" stroke="#131313" stroke-linecap="round" stroke-linejoin="round"/>
<path d="M374.513 243.386C374.513 243.386 384.663 268.374 383.891 288.673" stroke="#131313" stroke-linecap="round" stroke-linejoin="round"/>
<path d="M396.384 248.075C393.989 254.167 390.838 259.935 387.007 265.244" stroke="#131313" stroke-linecap="round" stroke-linejoin="round"/>
<path d="M376.513 103.376C377.154 110.215 378.354 116.99 380.098 123.633C382.705 132.68 387.917 135.7 391.503 124.93C395.088 114.159 393.792 96.4944 393.792 96.4944C393.792 96.4944 385.311 108.547 376.513 103.376Z" fill="white" stroke="#131313" stroke-linecap="round" stroke-linejoin="round"/>
<path d="M420.862 119.055L448.276 176.766C449.766 179.993 449.118 187.302 446.387 189.577C445.489 190.331 444.433 190.876 443.298 191.171C442.162 191.465 440.975 191.503 439.823 191.281C438.671 191.059 437.583 190.583 436.638 189.888C435.694 189.192 434.916 188.295 434.362 187.26L414.67 148.414L420.862 119.055Z" fill="#04B94A" stroke="#131313" stroke-linecap="round" stroke-linejoin="round"/>
<path opacity="0.3" d="M425.083 190.665C425.715 191.023 426.103 191.695 426.097 192.421L425.957 209.861L426.097 227.302C426.103 228.028 425.715 228.7 425.083 229.058L409.909 237.657L394.875 246.498C394.25 246.866 393.473 246.866 392.848 246.498L377.814 237.657L362.64 229.058C362.008 228.7 361.62 228.028 361.626 227.302L361.767 209.861L361.626 192.421C361.62 191.695 362.008 191.023 362.64 190.665L377.814 182.066L392.848 173.225C393.473 172.857 394.25 172.857 394.875 173.225L409.909 182.066L425.083 190.665Z" fill="#DFDEF8"/>
<path d="M429.083 186.665C429.715 187.023 430.103 187.695 430.097 188.421L429.957 205.861L430.097 223.302C430.103 224.028 429.715 224.7 429.083 225.058L413.909 233.657L398.875 242.498C398.25 242.866 397.473 242.866 396.848 242.498L381.814 233.657L366.64 225.058C366.008 224.7 365.62 224.028 365.626 223.302L365.767 205.861L365.626 188.421C365.62 187.695 366.008 187.023 366.64 186.665L381.814 178.066L396.848 169.225C397.473 168.857 398.25 168.857 398.875 169.225L413.909 178.066L429.083 186.665Z" fill="#2B21ED"/>
<path fill-rule="evenodd" clip-rule="evenodd" d="M421.705 192.891L398.931 179.765L376.148 192.908L376.139 219.176L398.912 232.301L421.695 219.159L421.705 192.891ZM419.012 194.444L398.934 182.877L378.844 194.466L378.831 217.622L398.909 229.189L418.999 217.6L419.012 194.444ZM409.778 195.228L413.707 197.607L413.568 205.432L416.569 205.595L416.652 195.907L409.851 192.071L381.304 208.553L381.145 211.76L395.56 203.437L400.633 212.223L403.528 210.552L398.895 202.527L398.895 202.527L398.455 201.766L409.778 195.228ZM397.898 200.801L397.898 200.801L395.003 202.472L395.56 203.437L395.56 203.437L395.003 202.472L397.898 200.801ZM395.497 225.074L413.487 214.688L413.138 219.324L415.999 217.67L416.421 207.103L413.661 207.004L413.461 211.28L392.538 223.368L395.497 225.074ZM392.919 191.825L381.227 203.436L381.226 205.822L407.067 190.902L404.132 189.211L392.407 195.981L400.383 187.638L397.903 186.208L381.231 195.825L381.23 198.574L392.919 191.825Z" fill="white"/>
<path d="M437.493 175.084L408.147 218.454L413.663 224.329C413.663 224.329 449.2 190.419 450.51 185.841C451.82 181.262 447.904 176.063 445.615 172.478" fill="#04B94A"/>
<path d="M437.493 175.084L408.147 218.454L413.663 224.329C413.663 224.329 449.2 190.419 450.51 185.841C451.82 181.262 447.904 176.063 445.615 172.478" stroke="#131313" stroke-linecap="round" stroke-linejoin="round"/>
<path d="M408.147 218.454C408.147 218.454 399.666 221.722 398.687 222.37C396.714 224.557 394.872 226.86 393.171 229.265C393.171 229.265 391.53 233.182 393.171 233.182C394.812 233.182 396.108 230.562 397.088 229.913C398.067 229.265 398.384 232.52 397.088 233.83C395.791 235.14 392.192 240.725 394.798 241.98C397.405 243.235 399.694 239.704 400.673 239.704C401.652 239.704 406.865 240.353 409.802 237.084C412.739 233.816 413.718 224.37 413.718 224.37L408.147 218.454Z" fill="white" stroke="#131313" stroke-linecap="round" stroke-linejoin="round"/>
<path d="M347.485 120.296L333.419 176.105C332.688 179.028 329.875 185.689 332.343 187.426L333.984 189.067C337.666 191.66 344.809 191.039 346.781 187.013L356.655 161.391L347.485 120.296Z" fill="#04B94A" stroke="#131313" stroke-linecap="round" stroke-linejoin="round"/>
<path d="M340.631 174.105L300.516 168.589L300.199 175.76C300.199 175.76 322.042 187.344 329.158 190.612C336.273 193.88 344.396 192.253 346.671 187.04C348.946 181.828 351.346 170.92 351.346 170.92" fill="#04B94A"/>
<path d="M340.631 174.105L300.516 168.589L300.199 175.76C300.199 175.76 322.042 187.344 329.158 190.612C336.273 193.88 344.396 192.253 346.671 187.04C348.946 181.828 351.346 170.92 351.346 170.92" stroke="#131313" stroke-linecap="round" stroke-linejoin="round"/>
<path d="M295.193 171.25C293.86 170.764 292.469 170.458 291.056 170.34L288.491 163.666C288.491 163.666 281.761 162.204 277.817 162.894C273.873 163.583 278.741 169.402 279.679 170.795C280.024 171.319 281.927 171.816 284.147 172.174L282.92 176.311C282.92 176.311 286.877 178.628 289.663 178.628C292.449 178.628 300.24 175.677 300.24 175.677C299.021 173.744 297.268 172.206 295.193 171.25Z" fill="white" stroke="#131313" stroke-linecap="round" stroke-linejoin="round"/>
<path d="M257.802 145.715C258.427 145.347 259.204 145.347 259.829 145.715L274.863 154.557L290.037 163.156C290.669 163.514 291.057 164.186 291.051 164.912L290.91 182.352L291.051 199.793C291.057 200.519 290.669 201.191 290.037 201.549L274.863 210.147L259.829 218.989C259.204 219.357 258.427 219.357 257.802 218.989L242.768 210.147L227.594 201.549C226.962 201.191 226.574 200.519 226.58 199.793L226.72 182.352L226.58 164.912C226.574 164.186 226.962 163.514 227.594 163.156L242.768 154.557L257.802 145.715Z" fill="#DFDEF8"/>
<path d="M253.802 141.715C254.427 141.347 255.204 141.347 255.829 141.715L270.863 150.557L286.037 159.156C286.669 159.514 287.057 160.186 287.051 160.912L286.91 178.352L287.051 195.793C287.057 196.519 286.669 197.191 286.037 197.549L270.863 206.147L255.829 214.989C255.204 215.357 254.427 215.357 253.802 214.989L238.768 206.147L223.594 197.549C222.962 197.191 222.574 196.519 222.58 195.793L222.72 178.352L222.58 160.912C222.574 160.186 222.962 159.514 223.594 159.156L238.768 150.557L253.802 141.715Z" fill="#2B21ED"/>
<path fill-rule="evenodd" clip-rule="evenodd" d="M255.515 152.151L232.761 165.311L232.751 191.612L255.495 204.755L278.249 191.595L278.259 165.294L255.515 152.151ZM255.513 155.26L235.457 166.864L235.449 190.057L255.496 201.647L275.552 190.042L275.561 166.849L255.513 155.26ZM251.576 163.649L255.6 161.436L262.308 165.469L263.95 162.951L255.6 158.035L248.878 162.007V194.971L251.576 196.712V180.066H252.456V180.066H261.721V176.723H251.576V163.649ZM251.576 176.723V176.723H250.462V180.066H250.462V176.723H251.576ZM270.283 190.939V170.167L274.123 172.787L274.121 169.482L265.181 163.834L263.715 166.174L267.319 168.485L267.326 192.649L270.283 190.939ZM240.199 176.547L244.408 192.478L246.474 193.672V163.834L243.542 165.53V179.069L240.305 167.99L237.827 169.423L237.819 188.669L240.199 190.045V176.547Z" fill="white"/>
<path d="M300.516 168.561C300.516 168.561 290.408 163.666 288.449 163.666C286.491 163.666 281.927 171.83 280.299 172.809C278.672 173.788 275.735 175.415 278.672 176.063C281.18 176.389 283.721 175.812 285.843 174.436C286.763 173.734 287.634 172.969 288.449 172.147C288.449 172.147 290.739 173.457 293.014 174.436C295.347 175.159 297.76 175.594 300.199 175.732L300.516 168.561Z" fill="white" stroke="#131313" stroke-linecap="round" stroke-linejoin="round"/>
<path d="M99.2497 56.4206C99.2497 56.4206 93.0441 50.2151 75.8065 50.2151C58.569 50.2151 47.5369 71.5897 47.5369 86.7588C47.5369 101.928 56.5004 123.302 59.948 137.782C63.3955 152.262 60.6375 163.983 47.5369 165.362C34.4363 166.741 27.7619 178.876 40.8625 193.356C53.9631 207.836 88.9071 198.458 99.9392 178.463C110.971 158.467 115.108 146.056 110.282 110.891C105.455 75.7267 99.2497 56.4206 99.2497 56.4206Z" fill="#131313" stroke="#131313" stroke-linecap="round" stroke-linejoin="round"/>
<path d="M88.8106 61.4813C88.8106 61.4813 68.1255 60.8193 60.8443 83.4626C53.5631 106.106 68.1668 121.427 70.8283 146.731C73.4898 172.036 67.5049 184.696 51.5222 183.372C35.5395 182.048 43.524 168.699 49.5227 168.699C55.5213 168.699 55.5075 174.698 55.5075 174.698" stroke="white" stroke-linecap="round" stroke-linejoin="round"/>
<path d="M86.811 70.7896C79.4885 82.0422 74.2207 95.9289 79.916 108.947C84.6735 119.896 93.706 127.674 90.1758 140.664" stroke="white" stroke-linecap="round" stroke-linejoin="round"/>
<path d="M135.518 61.4675C135.518 61.4675 143.792 66.7353 141.999 72.8167C140.206 78.8982 132.884 81.0908 131.863 78.8982C130.843 76.7056 126.347 65.7287 128.016 62.4742C129.684 59.2197 135.518 61.4675 135.518 61.4675Z" fill="#131313" stroke="#131313" stroke-linecap="round" stroke-linejoin="round"/>
<path d="M119.3 110.781C119.507 111.388 119.3 112.601 123.437 120.599C126.113 125.867 138.606 132.321 138.606 132.321C138.606 132.321 120.776 135.313 116.115 136.32C111.454 137.327 92.4098 129.563 92.4098 129.563C92.4098 129.563 102.752 125.785 102.752 113.015C102.752 100.245 104.504 97.9562 104.504 97.9562C106.383 97.8382 108.259 98.2279 109.935 99.0844C111.612 99.9408 113.027 101.233 114.033 102.824C115.926 105.383 117.684 108.039 119.3 110.781Z" fill="white" stroke="#263238" stroke-linecap="round" stroke-linejoin="round"/>
<path d="M141.309 122.613C141.309 122.613 150.273 125.371 153.72 130.887C157.168 136.403 168.2 183.289 168.2 183.289C168.2 183.289 169.579 183.289 177.164 181.221C184.748 179.152 181.37 180.338 181.37 180.338L186.196 181.717L194.856 178.228L198.869 189.688L191.712 192.749C191.712 192.749 188.265 200.334 184.128 202.402C177.81 205.309 171.005 207.011 164.063 207.422C155.099 208.111 148.204 202.595 148.204 195.7C148.204 188.805 140.62 135.024 140.62 135.024" fill="#04B94A"/>
<path d="M141.309 122.613C141.309 122.613 150.273 125.371 153.72 130.887C157.168 136.403 168.2 183.289 168.2 183.289C168.2 183.289 169.579 183.289 177.164 181.221C184.748 179.152 181.37 180.338 181.37 180.338L186.196 181.717L194.856 178.228L198.869 189.688L191.712 192.749C191.712 192.749 188.265 200.334 184.128 202.402C177.81 205.309 171.005 207.011 164.063 207.422C155.099 208.111 148.204 202.595 148.204 195.7C148.204 188.805 140.62 135.024 140.62 135.024" stroke="#263238" stroke-linecap="round" stroke-linejoin="round"/>
<path d="M128.167 247.096C112.488 248.971 102.215 248.185 95.9262 246.999C95.1256 241.059 94.8488 235.061 95.0988 229.072C96.0503 215.654 150.921 213.986 160.988 229.072C160.988 229.072 161.539 232.354 162.367 237.498C161.167 238.794 154.562 243.952 128.167 247.096Z" fill="white" stroke="#131313" stroke-linecap="round" stroke-linejoin="round"/>
<path d="M158.506 208.263C157.402 180.972 163.084 169.816 141.309 122.613C132.773 120.448 130.208 121.868 127.519 118.062C123.424 121.952 118.281 124.56 112.723 125.564C103.194 127.384 97.9258 122.723 97.9258 122.723C97.9258 122.723 70.7594 125.564 73.6002 139.34C76.4409 153.116 91.4307 191.839 92.0375 205.629C92.6443 219.419 87.3764 234.009 92.0375 237.043C96.6985 240.077 119.618 242.724 137.048 239.69C154.479 236.657 166.559 232.133 165.594 227.721C164.628 223.308 158.878 217.392 158.506 208.263Z" fill="#04B94A" stroke="#131313" stroke-linecap="round" stroke-linejoin="round"/>
<path d="M155.941 177.98C155.941 177.98 141.502 202.802 130.291 213.241" stroke="#263238" stroke-linecap="round" stroke-linejoin="round"/>
<path d="M134.29 200.417C128.479 206.328 121.703 211.205 114.253 214.841" stroke="#263238" stroke-linecap="round" stroke-linejoin="round"/>
<path d="M99.9392 117.786C99.9392 117.786 103.166 127.439 112.695 125.564C118.253 124.56 123.397 121.952 127.492 118.062C128.609 119.62 131.27 120.82 134.566 121.868C132.346 135.658 115.26 139.988 104.766 137.037C98.3533 135.286 95.1126 127.495 92.5339 123.564C95.6367 122.971 99.9392 117.786 99.9392 117.786Z" fill="white" stroke="#131313" stroke-linecap="round" stroke-linejoin="round"/>
<path d="M87.6522 223.86C87.6522 223.86 95.9262 246.82 98.9049 259.534C101.884 272.249 99.5668 276.91 99.7737 283.86C99.9805 290.81 99.7737 298.809 98.505 298.436C97.2363 298.064 96.6295 295.43 96.6433 292.713C96.6571 289.997 96.4916 282.55 96.4916 282.55C96.4916 282.55 93.1131 292.962 92.7132 293.858C92.3132 294.754 90.4792 295.127 90.9894 292.189C91.4996 289.252 93.4578 279.847 93.4578 279.847C93.4578 279.847 88.1487 289.293 87.7074 289.859C87.2661 290.424 85.0597 290.493 85.6802 288.563C86.3008 286.632 90.8377 276.248 90.8377 276.248C90.8377 276.248 84.3977 283.612 83.6807 283.364C82.9636 283.115 83.0049 281.916 83.6807 280.606C84.3564 279.296 88.3831 274.29 88.9761 273.545C89.569 272.801 89.4173 272.98 90.1068 270.18C90.7963 267.381 92.8648 264.775 93.2785 263.878C93.6923 262.982 73.807 223.211 73.807 223.211L87.6522 223.86Z" fill="white" stroke="#131313" stroke-linecap="round" stroke-linejoin="round"/>
<path d="M84.0254 126.916C84.0254 126.916 69.3114 129.591 65.9604 136.955C62.6094 144.319 67.3394 158.357 67.3394 167.058C67.3394 175.76 62.6646 199.837 64.6642 205.864C66.6637 211.89 68.0151 219.916 68.6771 222.591C69.339 225.266 75.3652 227.266 75.3652 227.266L77.2269 235.374L92.396 232.52L90.7136 225.239C90.7136 225.239 94.0646 225.901 92.727 217.875C91.3893 209.849 88.714 205.16 88.714 198.472C88.714 191.784 88.0383 169.044 91.3893 154.992" fill="#04B94A"/>
<path d="M84.0254 126.916C84.0254 126.916 69.3114 129.591 65.9604 136.955C62.6094 144.319 67.3394 158.357 67.3394 167.058C67.3394 175.76 62.6646 199.837 64.6642 205.864C66.6637 211.89 68.0151 219.916 68.6771 222.591C69.339 225.266 75.3652 227.266 75.3652 227.266L77.2269 235.374L92.396 232.52L90.7136 225.239C90.7136 225.239 94.0646 225.901 92.727 217.875C91.3893 209.849 88.714 205.16 88.714 198.472C88.714 191.784 88.0383 169.044 91.3893 154.992" stroke="#131313" stroke-linecap="round" stroke-linejoin="round"/>
<path d="M216.576 172.271L222.354 164.218L231.441 162.246C231.441 162.246 235.192 161.129 234.682 163.142C234.172 165.155 233.482 165.362 231.097 166.079L226.96 167.293C226.26 169.458 224.851 171.323 222.96 172.588C222.354 172.914 221.688 173.115 221.002 173.181" fill="white"/>
<path d="M216.576 172.271L222.354 164.218L231.441 162.246C231.441 162.246 235.192 161.129 234.682 163.142C234.172 165.155 233.482 165.362 231.097 166.079L226.96 167.293C226.26 169.458 224.851 171.323 222.96 172.588C222.354 172.914 221.688 173.115 221.002 173.181" stroke="#263238" stroke-linecap="round" stroke-linejoin="round"/>
<path d="M133.89 64.1015C133.89 64.1015 137.545 87.8204 135.518 96.5358C133.49 105.251 126.568 113.539 119.3 112.546C112.033 111.553 106.531 101.597 106.531 101.597C106.531 101.597 104.297 102.976 103.29 101.404C102.283 99.8316 102.077 95.7222 103.29 91.461C104.504 87.1999 123.562 59.2336 133.89 64.1015Z" fill="white" stroke="#263238" stroke-linecap="round" stroke-linejoin="round"/>
<path d="M119.507 80.7046C119.851 79.8152 120.452 79.0481 121.233 78.5006C122.013 77.9531 122.939 77.6499 123.893 77.6294" stroke="#263238" stroke-linecap="round" stroke-linejoin="round"/>
<path d="M130.222 76.8159C130.866 76.5472 131.581 76.4974 132.256 76.6743C132.931 76.8512 133.53 77.245 133.959 77.795" stroke="#263238" stroke-linecap="round" stroke-linejoin="round"/>
<path d="M129.85 83.7661C129.85 83.7661 128.691 87.6273 131.008 88.7995C133.325 89.9716 131.008 91.8885 130.236 93.0468" stroke="#263238" stroke-linecap="round" stroke-linejoin="round"/>
<path d="M127.947 99.2388C126.835 99.4289 125.693 99.3517 124.616 99.0136C123.54 98.6755 122.559 98.0863 121.755 97.2944" stroke="#263238" stroke-linecap="round" stroke-linejoin="round"/>
<path d="M124.541 85.0901C124.541 86.2623 124.099 87.2 123.562 87.2C123.024 87.2 122.596 86.2623 122.596 85.0901C122.596 83.9179 123.024 82.9802 123.562 82.9802C124.099 82.9802 124.541 83.9317 124.541 85.0901Z" fill="#263238"/>
<path d="M133.311 84.5801C133.311 85.7385 132.87 86.69 132.332 86.69C131.794 86.69 131.353 85.7385 131.353 84.5801C131.353 83.4217 131.794 82.4702 132.332 82.4702C132.87 82.4702 133.311 83.4355 133.311 84.5801Z" fill="#263238"/>
<path d="M107.524 52.9729C107.524 52.9729 136.938 50.5183 138.151 56.5997C139.365 62.6811 115.646 83.2007 108.558 92.2746C101.47 101.348 98.8221 103.624 95.1816 102.203C91.541 100.783 80.7158 81.3253 84.7701 68.142C88.8243 54.9587 107.524 52.9729 107.524 52.9729Z" fill="#131313" stroke="#131313" stroke-linecap="round" stroke-linejoin="round"/>
<path d="M126.775 54.1592C126.775 54.1592 121.452 76.1405 108.13 86.1246C94.8092 96.1086 89.4863 91.4751 89.4863 91.4751" stroke="white" stroke-linecap="round" stroke-linejoin="round"/>
<path d="M107.524 52.9731C107.524 52.9731 111.454 70.1418 104.766 78.14C98.0775 86.1383 86.1215 85.4625 86.1215 85.4625" stroke="white" stroke-linecap="round" stroke-linejoin="round"/>
<path d="M389.351 67.9353C388.951 67.756 388.91 67.4803 389.145 67.1217C389.007 66.4874 388.91 66.0461 388.855 65.8254C386.377 67.4414 383.776 68.8615 381.077 70.0728C376.124 72.3235 370.838 73.7534 365.426 74.3063C365.426 74.3063 368.032 92.2334 373.245 101.376C377.037 108.009 380.746 111.484 390.537 105.293C392.802 103.814 394.75 101.901 396.27 99.6642C397.79 97.4272 398.85 94.9109 399.391 92.261C393.861 84.7041 390.551 72.8584 389.351 67.9353Z" fill="white" stroke="#131313" stroke-linecap="round" stroke-linejoin="round"/>
<path d="M384.856 78.7192C384.517 77.8288 383.92 77.0601 383.141 76.5121C382.362 75.964 381.437 75.6617 380.484 75.644" stroke="#131313" stroke-linecap="round" stroke-linejoin="round"/>
<path d="M374.155 74.8305C373.512 74.5626 372.799 74.5119 372.124 74.6861C371.45 74.8604 370.85 75.25 370.418 75.7958" stroke="#131313" stroke-linecap="round" stroke-linejoin="round"/>
<path d="M374.513 81.8218C374.513 81.8218 375.672 85.683 373.355 86.8414C371.038 87.9997 373.355 89.9441 374.127 91.1025" stroke="#131313" stroke-linecap="round" stroke-linejoin="round"/>
<path d="M376.444 97.2392C377.555 97.4299 378.696 97.3543 379.772 97.0187C380.848 96.6831 381.83 96.097 382.636 95.3086" stroke="#131313" stroke-linecap="round" stroke-linejoin="round"/>
<path d="M379.822 83.1043C379.822 84.2626 380.264 85.2142 380.801 85.2142C381.339 85.2142 381.781 84.2626 381.781 83.1043C381.781 81.9459 381.339 80.9944 380.801 80.9944C380.264 80.9944 379.822 81.9321 379.822 83.1043Z" fill="#131313"/>
<path d="M371.066 82.6216C371.066 83.78 371.493 84.7315 372.031 84.7315C372.569 84.7315 373.01 83.78 373.01 82.6216C373.01 81.4632 372.583 80.5117 372.031 80.5117C371.479 80.5117 371.066 81.4494 371.066 82.6216Z" fill="#131313"/>
<circle opacity="0.3" cx="438" cy="20" r="9" fill="#C4C1FA"/>
<circle opacity="0.3" cx="133" cy="14" r="9" transform="rotate(-180 133 14)" fill="#C4C1FA"/>
<circle opacity="0.3" cx="445" cy="245" r="7" transform="rotate(-180 445 245)" fill="#C4C1FA"/>
<circle cx="412" cy="5" r="6" fill="#2B21ED"/>
<circle cx="171" cy="26" r="6" transform="rotate(-180 171 26)" fill="#2B21ED"/>
<circle cx="464" cy="223" r="5" transform="rotate(-180 464 223)" fill="#2B21ED"/>
<circle cx="409" cy="26" r="3" fill="#0FAF4D"/>
<circle cx="150" cy="32" r="3" transform="rotate(-180 150 32)" fill="#0FAF4D"/>
<circle cx="468.5" cy="251.5" r="2.5" transform="rotate(-180 468.5 251.5)" fill="#0FAF4D"/>
<circle opacity="0.3" r="7" transform="matrix(-1 0 0 1 34 248)" fill="#C4C1FA"/>
<circle r="5" transform="matrix(-1 0 0 1 53 247)" fill="#2B21ED"/>
<circle r="2.5" transform="matrix(-1 0 0 1 41.5 230.5)" fill="#0FAF4D"/>
</g>
</svg>
