<svg width="131" height="28" viewBox="0 0 131 28" fill="none" xmlns="http://www.w3.org/2000/svg">
<g opacity="0.3">
<path d="M82.6777 18.072C83.4073 18.072 83.9384 17.9486 84.2711 17.7018C84.6037 17.455 84.77 17.1063 84.77 16.6556C84.77 16.3874 84.711 16.1567 84.593 15.9635C84.4857 15.7704 84.3247 15.5987 84.1101 15.4485C83.9063 15.2875 83.6541 15.1427 83.3537 15.0139C83.0532 14.8744 82.7098 14.7403 82.3236 14.6116C81.9373 14.4721 81.5617 14.3218 81.1969 14.1609C80.8428 13.9892 80.5263 13.78 80.2473 13.5332C79.979 13.2864 79.759 12.9913 79.5874 12.6479C79.4264 12.3046 79.3459 11.8915 79.3459 11.4086C79.3459 10.4 79.6947 9.6113 80.3921 9.0426C81.0896 8.46317 82.0392 8.17346 83.241 8.17346C83.9384 8.17346 84.5554 8.25393 85.0919 8.41489C85.4437 8.51145 85.7467 8.61467 86.001 8.72454C86.2253 8.82151 86.3156 9.0812 86.2283 9.30952L85.9583 10.0157C85.8494 10.3004 85.5133 10.4206 85.2304 10.3072C85.013 10.2201 84.7844 10.1473 84.5447 10.0888C84.1155 9.98149 83.6702 9.92784 83.2088 9.92784C82.6616 9.92784 82.2324 10.0405 81.9212 10.2658C81.6207 10.4912 81.4705 10.8077 81.4705 11.2155C81.4705 11.4623 81.5188 11.6769 81.6154 11.8593C81.7227 12.0309 81.8675 12.1865 82.0499 12.326C82.2431 12.4655 82.4631 12.5943 82.7098 12.7123C82.9674 12.8303 83.2464 12.943 83.5468 13.0503C84.0726 13.2435 84.5393 13.442 84.9471 13.6458C85.3656 13.839 85.7143 14.075 85.9933 14.354C86.283 14.6223 86.503 14.9442 86.6532 15.3197C86.8034 15.6846 86.8785 16.1299 86.8785 16.6556C86.8785 17.6643 86.519 18.4476 85.8001 19.0055C85.0919 19.5528 84.0511 19.8264 82.6777 19.8264C82.2163 19.8264 81.7924 19.7942 81.4061 19.7298C81.0306 19.6762 80.6926 19.6064 80.3921 19.5206C80.1024 19.4348 79.8503 19.3489 79.6357 19.2631C79.5847 19.2401 79.5362 19.2178 79.4901 19.1961C79.272 19.0934 79.1797 18.841 79.2612 18.6142L79.5172 17.9016C79.6214 17.6114 79.9628 17.4816 80.2484 17.5978C80.4389 17.6754 80.6532 17.753 80.8911 17.8306C81.3847 17.9915 81.9802 18.072 82.6777 18.072Z" fill="#9B9CA8"/>
<path d="M96.7445 8.43098C97.0206 8.43098 97.2445 8.65484 97.2445 8.93098V9.68536C97.2445 9.9615 97.0206 10.1854 96.7445 10.1854H94.3162C94.04 10.1854 93.8162 10.4092 93.8162 10.6854V19.085C93.8162 19.3611 93.5923 19.585 93.3162 19.585H92.2721C91.9959 19.585 91.7721 19.3611 91.7721 19.085V10.6854C91.7721 10.4092 91.5482 10.1854 91.2721 10.1854H88.8438C88.5677 10.1854 88.3438 9.9615 88.3438 9.68536V8.93098C88.3438 8.65484 88.5677 8.43098 88.8438 8.43098H96.7445Z" fill="#9B9CA8"/>
<path d="M106.446 19.585C106.232 19.585 106.042 19.4489 105.971 19.247C105.858 18.9221 105.741 18.6002 105.621 18.2813C105.501 17.9611 105.384 17.6349 105.27 17.3028C105.2 17.0993 105.009 16.9615 104.794 16.9615H100.815C100.6 16.9615 100.409 17.0993 100.34 17.3029C100.225 17.6374 100.108 17.9689 99.9881 18.2974C99.8769 18.615 99.7658 18.9326 99.6546 19.2502C99.5844 19.4507 99.3951 19.585 99.1827 19.585H98.1346C97.7899 19.585 97.5486 19.2444 97.6639 18.9196C97.9967 17.9815 98.3154 17.1035 98.62 16.2855C98.9955 15.2768 99.3604 14.3218 99.7145 13.4205C100.079 12.5192 100.439 11.6608 100.793 10.8453C101.104 10.1277 101.424 9.41842 101.752 8.71746C101.834 8.54238 102.011 8.43098 102.204 8.43098H103.486C103.679 8.43098 103.855 8.54238 103.937 8.71746C104.266 9.41842 104.586 10.1277 104.897 10.8453C105.251 11.6608 105.605 12.5192 105.959 13.4205C106.324 14.3218 106.694 15.2768 107.07 16.2855C107.383 17.1036 107.707 17.9817 108.042 18.9198C108.157 19.2444 107.916 19.585 107.571 19.585H106.446ZM103.248 11.6547C103.084 11.2486 102.523 11.2478 102.357 11.6531C102.229 11.9659 102.094 12.3029 101.952 12.664C101.714 13.2858 101.468 13.9481 101.212 14.651C101.093 14.9763 101.335 15.3197 101.681 15.3197H103.928C104.275 15.3197 104.516 14.9763 104.397 14.6512C104.139 13.946 103.887 13.2782 103.642 12.6479C103.503 12.2908 103.371 11.9597 103.248 11.6547Z" fill="#9B9CA8"/>
<path d="M115.182 19.8264C114.345 19.8264 113.594 19.6976 112.929 19.4401C112.263 19.1826 111.7 18.807 111.239 18.3135C110.777 17.8091 110.423 17.1975 110.176 16.4786C109.929 15.7597 109.806 14.9335 109.806 13.9999C109.806 13.0664 109.946 12.2402 110.225 11.5213C110.514 10.8023 110.906 10.1961 111.399 9.70251C111.893 9.19819 112.472 8.81727 113.138 8.55974C113.803 8.30222 114.517 8.17346 115.278 8.17346C115.74 8.17346 116.158 8.21101 116.534 8.28613C116.909 8.35051 117.237 8.42562 117.516 8.51146C117.795 8.5973 118.025 8.68851 118.208 8.78508C118.214 8.78817 118.219 8.79124 118.225 8.79428C118.44 8.90793 118.534 9.16086 118.452 9.38926L118.208 10.0685C118.1 10.3686 117.738 10.4984 117.44 10.3843C117.276 10.3214 117.092 10.2605 116.888 10.2015C116.416 10.0512 115.901 9.97612 115.343 9.97612C114.86 9.97612 114.409 10.062 113.991 10.2336C113.572 10.3946 113.208 10.6414 112.896 10.974C112.596 11.3067 112.36 11.7251 112.188 12.2295C112.016 12.7338 111.931 13.3186 111.931 13.9838C111.931 14.574 111.995 15.1159 112.124 15.6095C112.263 16.103 112.472 16.5322 112.751 16.8971C113.03 17.2512 113.385 17.5302 113.814 17.734C114.243 17.9272 114.758 18.0237 115.359 18.0237C116.078 18.0237 116.663 17.954 117.113 17.8145C117.3 17.7522 117.47 17.6917 117.621 17.6331C117.909 17.5221 118.247 17.662 118.344 17.9548L118.587 18.6923C118.658 18.9059 118.577 19.1413 118.371 19.2318C118.31 19.2583 118.245 19.2848 118.176 19.3114C117.961 19.3972 117.703 19.483 117.403 19.5689C117.103 19.644 116.765 19.703 116.389 19.7459C116.013 19.7996 115.611 19.8264 115.182 19.8264Z" fill="#9B9CA8"/>
<path d="M128.228 19.585C128.059 19.585 127.901 19.4991 127.807 19.3587C127.564 18.9981 127.292 18.6229 126.991 18.233C126.626 17.7609 126.24 17.3048 125.832 16.8649C125.435 16.4249 125.022 16.0065 124.593 15.6095C124.421 15.4504 124.25 15.3 124.079 15.1582C123.77 14.9 123.321 15.1303 123.321 15.5336V19.085C123.321 19.3611 123.097 19.585 122.821 19.585H121.793C121.517 19.585 121.293 19.3611 121.293 19.085V8.93098C121.293 8.65484 121.517 8.43098 121.793 8.43098H122.821C123.097 8.43098 123.321 8.65484 123.321 8.93098V11.8271C123.321 12.2726 123.858 12.4943 124.17 12.1759C124.256 12.0876 124.344 11.9981 124.432 11.9076C124.818 11.4998 125.199 11.0921 125.574 10.6843C125.961 10.2658 126.326 9.86346 126.669 9.47717C126.952 9.15827 127.214 8.86496 127.454 8.59725C127.548 8.49138 127.684 8.43098 127.826 8.43098H128.936C129.365 8.43098 129.594 8.93399 129.308 9.25402C129.177 9.40161 129.043 9.5511 128.906 9.70251C128.509 10.1424 128.101 10.5877 127.683 11.0384C127.264 11.4783 126.841 11.9183 126.411 12.3582C126.133 12.6504 125.858 12.9331 125.585 13.2063C125.369 13.4223 125.391 13.7797 125.624 13.9765C125.927 14.2317 126.232 14.5131 126.54 14.8208C127.012 15.2715 127.474 15.7597 127.924 16.2855C128.375 16.8005 128.804 17.3424 129.212 17.9111C129.443 18.2185 129.662 18.5259 129.869 18.8333C130.088 19.1574 129.851 19.585 129.46 19.585H128.228Z" fill="#9B9CA8"/>
<path d="M38.5653 19.8264C37.7283 19.8264 36.9772 19.6976 36.3119 19.4401C35.6467 19.1826 35.0833 18.807 34.6219 18.3135C34.1605 17.8091 33.8064 17.1975 33.5596 16.4786C33.3128 15.7597 33.1895 14.9335 33.1895 13.9999C33.1895 13.0664 33.3289 12.2402 33.6079 11.5213C33.8976 10.8023 34.2893 10.1961 34.7829 9.70251C35.2765 9.19819 35.8559 8.81727 36.5212 8.55974C37.1864 8.30222 37.9 8.17346 38.6618 8.17346C39.1232 8.17346 39.5417 8.21101 39.9173 8.28613C40.2928 8.35051 40.6201 8.42562 40.8991 8.51146C41.1781 8.5973 41.4087 8.68851 41.5912 8.78508C41.597 8.78817 41.6028 8.79124 41.6085 8.79429C41.823 8.90794 41.9176 9.16086 41.8356 9.38926L41.5916 10.0685C41.4838 10.3686 41.1214 10.4984 40.8237 10.3843C40.6597 10.3214 40.4756 10.2605 40.2714 10.2015C39.7992 10.0512 39.2842 9.97612 38.7262 9.97612C38.2434 9.97612 37.7927 10.062 37.3742 10.2336C36.9557 10.3946 36.5909 10.6414 36.2797 10.974C35.9793 11.3067 35.7432 11.7251 35.5715 12.2295C35.3999 12.7338 35.314 13.3186 35.314 13.9838C35.314 14.574 35.3784 15.1159 35.5072 15.6095C35.6467 16.103 35.8559 16.5322 36.1349 16.8971C36.4139 17.2512 36.768 17.5302 37.1972 17.734C37.6264 17.9272 38.1414 18.0237 38.7423 18.0237C39.4612 18.0237 40.046 17.954 40.4967 17.8145C40.6836 17.7522 40.8529 17.6917 41.0048 17.6331C41.2924 17.5221 41.6307 17.6619 41.7273 17.9548L41.9708 18.6923C42.0413 18.9059 41.96 19.1413 41.754 19.2318C41.6936 19.2583 41.6286 19.2848 41.559 19.3114C41.3444 19.3972 41.0868 19.483 40.7864 19.5689C40.486 19.644 40.148 19.703 39.7724 19.7459C39.3968 19.7996 38.9945 19.8264 38.5653 19.8264Z" fill="#9B9CA8"/>
<path d="M46.0514 13.9999C46.0514 14.6115 46.1265 15.1695 46.2768 15.6738C46.427 16.1674 46.6416 16.5913 46.9206 16.9454C47.2103 17.2887 47.559 17.557 47.9668 17.7501C48.3745 17.9433 48.8359 18.0398 49.3509 18.0398C49.8553 18.0398 50.3113 17.9433 50.719 17.7501C51.1268 17.557 51.4701 17.2887 51.7491 16.9454C52.0388 16.5913 52.2588 16.1674 52.409 15.6738C52.5593 15.1695 52.6344 14.6115 52.6344 13.9999C52.6344 13.3883 52.5593 12.8357 52.409 12.3421C52.2588 11.8378 52.0388 11.414 51.7491 11.0706C51.4701 10.7165 51.1268 10.4429 50.719 10.2497C50.3113 10.0566 49.8553 9.96003 49.3509 9.96003C48.8359 9.96003 48.3745 10.0566 47.9668 10.2497C47.559 10.4429 47.2103 10.7165 46.9206 11.0706C46.6416 11.4247 46.427 11.8485 46.2768 12.3421C46.1265 12.8357 46.0514 13.3883 46.0514 13.9999ZM54.7589 13.9999C54.7589 14.9549 54.6141 15.7972 54.3244 16.5269C54.0454 17.2565 53.6591 17.8682 53.1655 18.3617C52.6827 18.8446 52.114 19.2094 51.4594 19.4562C50.8049 19.703 50.1074 19.8264 49.367 19.8264C48.6267 19.8264 47.9238 19.703 47.2586 19.4562C46.604 19.2094 46.03 18.8446 45.5364 18.3617C45.0535 17.8682 44.6672 17.2565 44.3775 16.5269C44.0878 15.7972 43.9429 14.9549 43.9429 13.9999C43.9429 13.0449 44.0878 12.208 44.3775 11.4891C44.6672 10.7594 45.0589 10.1478 45.5525 9.65422C46.0568 9.16063 46.6362 8.79044 47.2908 8.54365C47.9453 8.29685 48.6374 8.17346 49.367 8.17346C50.0967 8.17346 50.7888 8.29685 51.4433 8.54365C52.0979 8.79044 52.6666 9.16063 53.1494 9.65422C53.643 10.1478 54.0347 10.7594 54.3244 11.4891C54.6141 12.208 54.7589 13.0449 54.7589 13.9999Z" fill="#9B9CA8"/>
<path d="M64.3382 17.8306C64.6143 17.8306 64.8382 18.0545 64.8382 18.3306V19.085C64.8382 19.3611 64.6143 19.585 64.3382 19.585H58.2885C58.0123 19.585 57.7885 19.3611 57.7885 19.085V8.93098C57.7885 8.65484 58.0123 8.43098 58.2885 8.43098H59.3165C59.5926 8.43098 59.8165 8.65484 59.8165 8.93098V17.3306C59.8165 17.6067 60.0403 17.8306 60.3165 17.8306H64.3382Z" fill="#9B9CA8"/>
<path d="M69.219 17.4545C69.219 17.7131 69.4163 17.9282 69.6745 17.9426C69.6782 17.9428 69.682 17.9431 69.6858 17.9433C69.8789 17.9433 70.1418 17.9433 70.4744 17.9433C71.8372 17.9433 72.8511 17.5999 73.5164 16.9132C74.1924 16.2157 74.5304 15.2446 74.5304 13.9999C74.5304 12.7338 74.2031 11.7627 73.5486 11.0867C72.8941 10.4107 71.8801 10.0727 70.5066 10.0727C70.1703 10.0727 69.8877 10.0777 69.659 10.0878C69.4071 10.0989 69.219 10.3102 69.219 10.5624V17.4545ZM76.655 13.9999C76.655 14.9656 76.5048 15.808 76.2043 16.5269C75.9039 17.2351 75.4747 17.8306 74.9167 18.3135C74.3695 18.7856 73.7042 19.1397 72.9209 19.3757C72.1483 19.6011 71.2899 19.7137 70.3457 19.7137C69.895 19.7137 69.3853 19.6923 68.8166 19.6494C68.3897 19.6252 67.9779 19.5768 67.5812 19.5043C67.3519 19.4624 67.191 19.2588 67.191 19.0256V8.99031C67.191 8.7572 67.3519 8.5536 67.5812 8.51184C67.9802 8.4392 68.3974 8.39079 68.8327 8.3666C69.4121 8.33441 69.9272 8.31832 70.3778 8.31832C71.3114 8.31832 72.1644 8.43098 72.937 8.65632C73.7096 8.87092 74.3695 9.21428 74.9167 9.68641C75.4747 10.1478 75.9039 10.738 76.2043 11.4569C76.5048 12.1651 76.655 13.0128 76.655 13.9999Z" fill="#9B9CA8"/>
<path d="M13.7285 7.47669L16.5688 8.97258V8.97255L19.4089 10.4684L22.078 9.06265V7.12739C22.078 6.955 22.2313 6.8152 22.4203 6.8152C22.6093 6.8152 22.7625 6.955 22.7625 7.12739V8.70216L25.2605 7.38654C25.4237 7.30035 25.6326 7.35114 25.7271 7.49995C25.8216 7.6488 25.7659 7.83938 25.6027 7.92558L23.1031 9.24204L24.599 10.0299C24.7621 10.116 24.8178 10.3066 24.7233 10.4555C24.6288 10.6043 24.4199 10.6551 24.2567 10.5689L22.4203 9.60168L19.7512 11.0074V16.9933L22.4196 18.3986L24.2567 17.4311C24.4199 17.3449 24.6288 17.3956 24.7233 17.5445C24.8178 17.6933 24.7621 17.8839 24.599 17.9701L23.1025 18.7583L25.6014 20.0744C25.7646 20.1599 25.8209 20.3499 25.7271 20.4988C25.6334 20.6476 25.425 20.6989 25.2619 20.6134L22.7625 19.2971V20.8726C22.7625 21.045 22.6093 21.1847 22.4203 21.1847C22.2313 21.1847 22.078 21.045 22.078 20.8726V18.9366L19.4096 17.5312L13.7285 20.5233V23.3372L15.5636 24.3036C15.7268 24.3892 15.783 24.5792 15.6893 24.728C15.5955 24.8769 15.3872 24.9282 15.2241 24.8426L13.7285 24.055V26.6878C13.7285 26.8602 13.5753 27 13.3863 27C13.1973 27 13.044 26.8602 13.044 26.6878V24.055L11.5484 24.8426C11.3853 24.9282 11.177 24.8769 11.0832 24.728C10.9895 24.5792 11.0457 24.3892 11.2089 24.3036L13.044 23.3372V20.5233L7.36288 17.5312L4.69307 18.9373L4.69309 20.8726C4.69309 21.0443 4.54043 21.1835 4.35217 21.1835C4.16391 21.1835 4.01127 21.0443 4.01127 20.8726L4.01124 19.2964L1.51059 20.6134C1.34743 20.6989 1.13911 20.6476 1.04534 20.4988C0.951608 20.3499 1.00788 20.1599 1.17101 20.0744L3.66997 18.7583L2.17346 17.9701C2.01033 17.8839 1.95464 17.6933 2.04914 17.5445C2.14363 17.3956 2.35257 17.3449 2.51573 17.4311L4.35284 18.3986L7.02131 16.9932V11.0067L4.35284 9.60131L2.51573 10.5689C2.35257 10.6551 2.14363 10.6043 2.04914 10.4555C1.95464 10.3066 2.01033 10.116 2.17346 10.0299L3.67 9.24169L1.17101 7.92558C1.00788 7.84007 0.951608 7.65003 1.04534 7.50118C1.13911 7.35236 1.34743 7.30104 1.51059 7.38654L4.00993 8.70285V7.12739C4.00993 6.955 4.16318 6.8152 4.35217 6.8152C4.54119 6.8152 4.69444 6.955 4.69444 7.12739V9.06337L7.36288 10.4687L10.7575 8.68093L13.044 7.47669V4.66282L11.2089 3.69635C11.0457 3.61082 10.9895 3.42078 11.0832 3.27196C11.177 3.12312 11.3853 3.07179 11.5484 3.15732L13.044 3.94496V1.31219C13.044 1.13979 13.1972 1 13.3862 1C13.5752 1 13.7285 1.13979 13.7285 1.31219V3.94496L15.224 3.15732C15.3872 3.07179 15.5955 3.12312 15.6893 3.27196C15.783 3.42078 15.7267 3.61082 15.5636 3.69635L13.7285 4.66282V7.47669V7.47669ZM19.0667 13.4826L13.5608 16.3823C13.4579 16.438 13.326 16.4427 13.2151 16.3842L7.70579 13.4826V14.8779L13.3863 17.8696L19.0667 14.8779V13.4826V13.4826ZM7.70579 12.7633L13.3863 15.755L19.0667 12.7633V11.3679L16.5688 12.6835L16.5497 12.6928L13.556 14.2695C13.4467 14.3268 13.3172 14.3226 13.2154 14.269L13.2151 14.2695L7.70579 11.3679V12.7633V12.7633ZM19.0667 15.5972L13.5608 18.497C13.4579 18.5526 13.326 18.5573 13.2151 18.4987L7.70579 15.5972V16.9925L13.3863 19.9842L19.0667 16.9925V15.5972V15.5972ZM8.04642 10.828L13.3869 13.6407L16.2089 12.1545L16.2265 12.1445L18.7261 10.828L16.2265 9.51158L13.3863 8.01573L8.04642 10.828V10.828Z" fill="#9B9CA8" stroke="#9B9CA8"/>
</g>
</svg>
