<svg width="209" height="42" viewBox="0 0 209 42" fill="none" xmlns="http://www.w3.org/2000/svg"><g clip-path="url(#clip0)"><path d="M20.56 10.46l4.59 2.42v0l4.59 2.41 4.3-2.27V9.9c0-.28.26-.5.56-.5.3 0 .55.22.55.5v2.54l4.04-2.12c.26-.14.6-.06.75.18.16.24.07.55-.2.69l-4.03 2.12 2.41 1.28c.27.14.36.44.2.68a.58.58 0 01-.75.19l-2.97-1.57-4.31 2.28v9.67l4.31 2.27 2.97-1.57c.26-.14.6-.05.75.19.16.24.07.54-.2.68L35.7 28.7l4.04 2.12c.26.14.36.45.2.69a.58.58 0 01-.75.18l-4.04-2.12v2.54c0 .28-.24.5-.55.5-.3 0-.55-.22-.55-.5v-3.13l-4.31-2.27-9.18 4.84v4.54l2.97 1.56c.26.14.35.45.2.69a.58.58 0 01-.75.19l-2.42-1.28v4.26c0 .27-.25.5-.55.5-.3 0-.55-.23-.55-.5v-4.26l-2.42 1.27a.58.58 0 01-.75-.18c-.15-.24-.06-.55.2-.69l2.97-1.56v-4.54l-9.18-4.84-4.31 2.28v3.12c0 .28-.25.5-.55.5-.3 0-.56-.22-.56-.5v-2.54L.82 31.68a.58.58 0 01-.75-.18c-.15-.24-.06-.55.2-.69l4.04-2.12L1.9 27.4c-.27-.14-.36-.44-.2-.68a.58.58 0 01.75-.19l2.97 1.57 4.3-2.27v-9.68l-4.3-2.27-2.97 1.57a.58.58 0 01-.76-.19c-.15-.24-.06-.54.2-.68l2.42-1.28L.28 11.2c-.27-.14-.36-.45-.2-.69a.58.58 0 01.74-.18l4.04 2.12V9.9c0-.28.25-.5.56-.5.3 0 .55.22.55.5v3.13l4.3 2.27 5.5-2.9 3.69-1.94V5.92l-2.97-1.56c-.26-.14-.35-.45-.2-.69a.58.58 0 01.75-.19l2.42 1.28V.5c0-.27.24-.5.55-.5.3 0 .55.23.55.5v4.26l2.42-1.28c.26-.13.6-.05.75.19.15.24.06.55-.2.69l-2.97 1.56v4.54zm8.62 9.7l-8.89 4.69a.6.6 0 01-.56 0l-8.9-4.69v2.26l9.18 4.83 9.17-4.83v-2.26zM10.83 19l9.18 4.83L29.18 19v-2.25l-4.03 2.12-.03.02-4.84 2.55a.6.6 0 01-.55 0h0l-8.9-4.7V19zm18.35 4.58l-8.89 4.68a.6.6 0 01-.56 0l-8.9-4.68v2.25l9.18 4.84 9.17-4.84v-2.25zm-17.8-7.7l8.63 4.54 4.56-2.4.03-.02 4.03-2.12-4.03-2.13-4.6-2.42-8.62 4.55z" fill="#342BDB" stroke="#342BDB"/></g><path d="M131.94 27.58c1.18 0 2.04-.2 2.57-.6.54-.4.81-.96.81-1.69 0-.43-.1-.8-.28-1.12a2.54 2.54 0 00-.78-.83c-.33-.26-.74-.5-1.23-.7a16 16 0 00-1.66-.65c-.63-.23-1.23-.47-1.82-.73a6.72 6.72 0 01-1.54-1.01c-.43-.4-.78-.88-1.06-1.43a4.69 4.69 0 01-.4-2c0-1.64.57-2.9 1.7-3.83 1.13-.93 2.66-1.4 4.6-1.4 1.13 0 2.12.13 3 .39.67.19 1.24.39 1.7.6.22.11.3.37.22.6l-.66 1.72c-.1.28-.44.4-.72.27a8.87 8.87 0 00-3.6-.75c-.88 0-1.57.18-2.07.55a1.8 1.8 0 00-.73 1.53c0 .4.08.75.23 1.04.18.28.41.53.7.76.32.22.67.43 1.07.62.42.2.87.37 1.35.55.85.3 1.6.63 2.27.96.67.31 1.24.7 1.69 1.14.46.44.82.96 1.06 1.56.24.6.37 1.31.37 2.16 0 1.63-.58 2.9-1.74 3.8-1.15.88-2.83 1.32-5.05 1.32-.75 0-1.43-.05-2.05-.15a12.32 12.32 0 01-2.86-.76l-.47-.22a.47.47 0 01-.23-.59l.63-1.73c.1-.29.44-.42.72-.29a9.37 9.37 0 004.26.9zM154.97 12c.28 0 .5.23.5.5v1.84a.5.5 0 01-.5.5h-4.54a.5.5 0 00-.5.5v14.18a.5.5 0 01-.5.5h-2.3a.5.5 0 01-.5-.5V15.34a.5.5 0 00-.5-.5h-4.54a.5.5 0 01-.5-.5V12.5c0-.27.23-.5.5-.5h13.38zM170.12 30.02a.5.5 0 01-.48-.34c-.2-.6-.42-1.18-.64-1.76-.22-.59-.43-1.19-.63-1.8a.5.5 0 00-.48-.34h-6.87a.5.5 0 00-.48.35c-.2.6-.42 1.21-.64 1.81l-.6 1.75a.5.5 0 01-.48.33h-2.34a.5.5 0 01-.48-.66 307.6 307.6 0 013.46-9.3 178.85 178.85 0 013.38-7.77.5.5 0 01.45-.29h2.46c.2 0 .37.12.45.29a135.6 135.6 0 013.35 7.77 179 179 0 011.8 4.63c.55 1.44 1.12 3 1.7 4.67a.5.5 0 01-.46.66h-2.47zm-5.22-13.47a.49.49 0 00-.9 0 133.24 133.24 0 00-2.27 5.91.5.5 0 00.47.67h4.5a.5.5 0 00.48-.67 168.85 168.85 0 00-2.28-5.9zM184.45 30.41c-1.35 0-2.57-.2-3.64-.62a7.26 7.26 0 01-2.73-1.82 8.32 8.32 0 01-1.72-2.97c-.4-1.16-.6-2.5-.6-4a11 11 0 01.68-4 8.67 8.67 0 011.9-2.94 7.84 7.84 0 012.8-1.85 10.38 10.38 0 015.49-.44c.6.1 1.14.23 1.59.36.45.14.82.29 1.12.45.09.05.17.1.25.13.22.12.31.37.23.6l-.61 1.7c-.11.3-.47.42-.76.3a9.75 9.75 0 00-3.74-.81c-.78 0-1.51.14-2.19.42a4.7 4.7 0 00-1.76 1.2 5.73 5.73 0 00-1.15 2.02 10.4 10.4 0 00-.1 5.46c.22.8.56 1.5 1.01 2.08a4.72 4.72 0 001.72 1.35c.7.31 1.52.47 2.5.47 1.16 0 2.1-.11 2.83-.34.45-.15.83-.29 1.15-.43.29-.12.63.02.72.31l.58 1.76a.45.45 0 01-.2.55c-.16.08-.34.15-.54.23-.34.14-.76.28-1.24.42-.49.12-1.04.21-1.64.28-.6.09-1.26.13-1.95.13zM205.35 30.02a.5.5 0 01-.41-.22 34.5 34.5 0 00-6.58-7.3c-.31-.25-.76-.01-.76.39v6.63a.5.5 0 01-.5.5h-2.28a.5.5 0 01-.5-.5V12.5c0-.27.22-.5.5-.5h2.28c.27 0 .5.23.5.5v5.73c0 .45.53.67.85.35l.94-.96a196.21 196.21 0 004.97-5.45.5.5 0 01.38-.17h2.6c.43 0 .66.5.38.83a152.79 152.79 0 01-6.72 7.14c-.22.21-.2.57.04.76a32.71 32.71 0 014 3.96c.72.83 1.41 1.7 2.07 2.63.49.65.94 1.3 1.37 1.95a.49.49 0 01-.42.75h-2.7z" fill="#131313"/><path d="M60.68 30.41c-1.35 0-2.56-.2-3.64-.62A7.27 7.27 0 0152.6 25c-.4-1.16-.6-2.5-.6-4s.23-2.84.68-4a8.68 8.68 0 011.9-2.94 7.84 7.84 0 012.8-1.85 10.38 10.38 0 015.49-.44c.6.1 1.13.23 1.58.36a6.52 6.52 0 011.38.58c.21.12.3.37.22.6l-.6 1.7c-.11.3-.47.42-.77.3a9.7 9.7 0 00-3.74-.81c-.78 0-1.5.14-2.18.42a4.7 4.7 0 00-1.77 1.2 5.74 5.74 0 00-1.14 2.02 10.4 10.4 0 00-.1 5.46c.22.8.56 1.5 1 2.08a4.73 4.73 0 001.72 1.35c.7.31 1.53.47 2.5.47 1.16 0 2.1-.11 2.83-.34.45-.15.84-.29 1.16-.43.28-.12.62.02.72.31l.58 1.76a.45.45 0 01-.21.55l-.53.23c-.35.14-.76.28-1.25.42-.48.12-1.03.21-1.64.28-.6.09-1.25.13-1.95.13zM72.78 21c0 .99.12 1.89.36 2.7a4.97 4.97 0 004.97 3.82 5.1 5.1 0 002.2-.46 4.71 4.71 0 001.67-1.3c.47-.57.82-1.26 1.07-2.06.24-.81.36-1.71.36-2.7 0-.99-.12-1.88-.36-2.68-.25-.81-.6-1.5-1.07-2.05a4.6 4.6 0 00-1.66-1.33 5.1 5.1 0 00-2.21-.47 4.83 4.83 0 00-3.93 1.8 6.2 6.2 0 00-1.04 2.05c-.24.8-.36 1.7-.36 2.68zm14.06 0a11 11 0 01-.7 4.08 8.33 8.33 0 01-1.87 2.97 7.68 7.68 0 01-2.76 1.76 9.5 9.5 0 01-3.38.6c-1.2 0-2.33-.2-3.4-.6a7.94 7.94 0 01-2.79-1.76 8.84 8.84 0 01-1.87-2.97 11 11 0 01-.7-4.08c0-1.54.23-2.9.7-4.06a8.02 8.02 0 014.7-4.76c1.07-.4 2.18-.6 3.36-.6 1.18 0 2.3.2 3.36.6 1.05.4 1.97 1 2.75 1.8.8.8 1.43 1.79 1.9 2.96s.7 2.52.7 4.06zM102.63 27.19c.27 0 .5.22.5.5v1.83a.5.5 0 01-.5.5h-10.4a.5.5 0 01-.5-.5V12.5c0-.27.23-.5.5-.5h2.28c.28 0 .5.23.5.5V26.7c0 .27.23.5.5.5h7.11zM110.2 26.86c0 .26.2.48.46.5l.3.01h1.27c2.2 0 3.84-.55 4.91-1.66 1.1-1.13 1.64-2.7 1.64-4.71 0-2.05-.53-3.61-1.58-4.7-1.06-1.1-2.7-1.64-4.92-1.64-.68 0-1.23 0-1.64.03a.47.47 0 00-.44.49v11.68zM122.21 21c0 1.56-.24 2.92-.72 4.08a7.78 7.78 0 01-2.08 2.89 8.71 8.71 0 01-3.23 1.71c-1.25.37-2.63.55-4.16.55-.73 0-1.55-.03-2.47-.1a16 16 0 01-2.23-.28.49.49 0 01-.4-.49v-16.7c0-.23.17-.43.4-.48.71-.14 1.47-.24 2.26-.28.93-.05 1.77-.08 2.5-.08 1.5 0 2.88.18 4.13.55 1.25.34 2.31.9 3.2 1.66.9.75 1.59 1.7 2.08 2.86.48 1.15.72 2.52.72 4.11z" fill="#342BDB"/><defs><clipPath id="clip0"><path fill="#fff" d="M0 0h40v42H0z"/></clipPath></defs></svg>