<svg width="92" height="92" viewBox="0 0 92 92" fill="none" xmlns="http://www.w3.org/2000/svg">
<path fill-rule="evenodd" clip-rule="evenodd" d="M46 12C49.3137 12 52 9.31371 52 6C52 2.68629 49.3137 0 46 0C42.6863 0 40 2.68629 40 6C40 9.31371 42.6863 12 46 12ZM52 46C52 49.3137 49.3137 52 46 52C42.6863 52 40 49.3137 40 46C40 42.6863 42.6863 40 46 40C49.3137 40 52 42.6863 52 46ZM6 52C9.31371 52 12 49.3137 12 46C12 42.6863 9.31371 40 6 40C2.68629 40 0 42.6863 0 46C0 49.3137 2.68629 52 6 52ZM92 46C92 49.3137 89.3137 52 86 52C82.6863 52 80 49.3137 80 46C80 42.6863 82.6863 40 86 40C89.3137 40 92 42.6863 92 46ZM46 92C49.3137 92 52 89.3137 52 86C52 82.6863 49.3137 80 46 80C42.6863 80 40 82.6863 40 86C40 89.3137 42.6863 92 46 92Z" fill="#ECECF9"/>
</svg>
