<svg width="127" height="22" viewBox="0 0 127 22" fill="none" xmlns="http://www.w3.org/2000/svg">
<path d="M33.2269 12.6208H29.3399L28.4299 14.9998H27.3379L30.6789 6.41977H31.9139L35.2419 14.9998H34.1369L33.2269 12.6208ZM32.8499 11.6458L31.6929 8.60377L31.2899 7.40776H31.2639L30.8869 8.56477L29.7169 11.6458H32.8499Z" fill="#18181B"/>
<path d="M44.3439 8.36976C44.7773 8.36976 45.1803 8.46077 45.5529 8.64277C45.9343 8.8161 46.2419 9.0891 46.4759 9.46177C46.7099 9.83443 46.8269 10.2938 46.8269 10.8398V14.9998H45.7869V10.9438C45.7869 10.3804 45.6439 9.96443 45.3579 9.69577C45.0806 9.41843 44.7123 9.27977 44.2529 9.27977C43.9063 9.27977 43.5856 9.36643 43.2909 9.53977C43.0049 9.70443 42.7709 9.95143 42.5889 10.2808C42.4156 10.6014 42.3289 10.9871 42.3289 11.4378V14.9998H41.2889V10.9438C41.2889 10.3804 41.1459 9.96443 40.8599 9.69577C40.5826 9.41843 40.2143 9.27977 39.7549 9.27977C39.4429 9.27977 39.1396 9.3621 38.8449 9.52677C38.5503 9.68277 38.3076 9.92977 38.1169 10.2678C37.9263 10.6058 37.8309 11.0261 37.8309 11.5288V14.9998H36.7909V8.49977H37.7009L37.7659 9.51377C37.9913 9.13243 38.2859 8.84643 38.6499 8.65577C39.0226 8.4651 39.4213 8.36976 39.8459 8.36976C40.3226 8.36976 40.7603 8.4781 41.1589 8.69477C41.5663 8.91143 41.8739 9.22777 42.0819 9.64377C42.2726 9.22777 42.5846 8.91143 43.0179 8.69477C43.4513 8.4781 43.8933 8.36976 44.3439 8.36976Z" fill="#18181B"/>
<path d="M54.5115 14.2458C54.6849 14.2458 54.8582 14.2241 55.0315 14.1808L54.9665 14.9998C54.7239 15.0864 54.4639 15.1298 54.1865 15.1298C53.8485 15.1298 53.5799 15.0561 53.3805 14.9088C53.1899 14.7614 53.0685 14.5144 53.0165 14.1678C52.8172 14.4711 52.5225 14.7094 52.1325 14.8828C51.7512 15.0474 51.3482 15.1298 50.9235 15.1298C50.2822 15.1298 49.7535 14.9824 49.3375 14.6878C48.9215 14.3844 48.7135 13.9511 48.7135 13.3878C48.7135 12.8938 48.9302 12.4691 49.3635 12.1138C49.7969 11.7498 50.4252 11.4984 51.2485 11.3598L52.9775 11.0738V10.7098C52.9775 10.2764 52.8432 9.92977 52.5745 9.66977C52.3059 9.40977 51.9332 9.27977 51.4565 9.27977C51.0232 9.27977 50.6462 9.38377 50.3255 9.59177C50.0135 9.79977 49.7709 10.1074 49.5975 10.5148L48.8305 9.95577C49.0039 9.47043 49.3245 9.08477 49.7925 8.79877C50.2692 8.51277 50.8239 8.36976 51.4565 8.36976C52.2279 8.36976 52.8475 8.5561 53.3155 8.92877C53.7835 9.30143 54.0175 9.85177 54.0175 10.5798V13.7778C54.0175 13.9338 54.0565 14.0508 54.1345 14.1288C54.2125 14.2068 54.3382 14.2458 54.5115 14.2458ZM50.9755 14.2198C51.5215 14.2198 51.9895 14.0898 52.3795 13.8298C52.7782 13.5698 52.9775 13.2318 52.9775 12.8158V11.9188L51.5215 12.1918C50.9409 12.2958 50.5075 12.4474 50.2215 12.6468C49.9355 12.8374 49.7925 13.0844 49.7925 13.3878C49.7925 13.6564 49.8965 13.8644 50.1045 14.0118C50.3125 14.1504 50.6029 14.2198 50.9755 14.2198Z" fill="#18181B"/>
<path d="M56.0768 14.2068L59.4828 10.2158L60.3018 9.37077L59.1448 9.39677H56.1158V8.49977H61.4588V9.29277L58.0528 13.2838L57.2468 14.1288L58.5078 14.1028H61.5628V14.9998H56.0768V14.2068Z" fill="#18181B"/>
<path d="M66.1306 8.36976C67.1099 8.36976 67.8769 8.66877 68.4316 9.26677C68.9949 9.86477 69.2766 10.6924 69.2766 11.7498C69.2766 12.8071 68.9949 13.6348 68.4316 14.2328C67.8769 14.8308 67.1099 15.1298 66.1306 15.1298C65.1513 15.1298 64.3799 14.8308 63.8166 14.2328C63.2619 13.6348 62.9846 12.8071 62.9846 11.7498C62.9846 10.6924 63.2619 9.86477 63.8166 9.26677C64.3799 8.66877 65.1513 8.36976 66.1306 8.36976ZM66.1306 9.26677C65.4719 9.26677 64.9563 9.48777 64.5836 9.92977C64.2109 10.3718 64.0246 10.9784 64.0246 11.7498C64.0246 12.5211 64.2109 13.1278 64.5836 13.5698C64.9563 14.0118 65.4719 14.2328 66.1306 14.2328C66.7893 14.2328 67.3049 14.0118 67.6776 13.5698C68.0503 13.1278 68.2366 12.5211 68.2366 11.7498C68.2366 10.9784 68.0503 10.3718 67.6776 9.92977C67.3049 9.48777 66.7893 9.26677 66.1306 9.26677Z" fill="#18181B"/>
<path d="M74.4558 8.36976C75.1924 8.36976 75.7991 8.5821 76.2758 9.00677C76.7524 9.43143 76.9908 10.0424 76.9908 10.8398V14.9998H75.9508V11.2038C75.9508 10.5278 75.8034 10.0381 75.5088 9.73477C75.2228 9.43143 74.8371 9.27977 74.3518 9.27977C74.0051 9.27977 73.6801 9.35777 73.3768 9.51377C73.0734 9.6611 72.8221 9.9081 72.6228 10.2548C72.4321 10.5928 72.3368 11.0218 72.3368 11.5418V14.9998H71.2968V8.49977H72.2068L72.2718 9.51377C72.4884 9.12377 72.7874 8.83777 73.1688 8.65577C73.5501 8.4651 73.9791 8.36976 74.4558 8.36976Z" fill="#18181B"/>
<path d="M90.9523 10.6708V14.9998H90.1723L90.1333 13.8428C89.8819 14.2588 89.5266 14.5794 89.0673 14.8048C88.6166 15.0214 88.0706 15.1298 87.4293 15.1298C86.6233 15.1298 85.9213 14.9521 85.3233 14.5968C84.7253 14.2328 84.2616 13.7214 83.9323 13.0628C83.6116 12.3954 83.4513 11.6111 83.4513 10.7098C83.4513 9.8171 83.6159 9.0371 83.9453 8.36976C84.2833 7.70243 84.7513 7.1911 85.3493 6.83577C85.9559 6.47177 86.6579 6.28977 87.4553 6.28977C88.3046 6.28977 89.0023 6.4501 89.5483 6.77077C90.1029 7.09143 90.5493 7.58543 90.8873 8.25277L89.9383 8.77277C89.7476 8.28743 89.4356 7.91477 89.0023 7.65477C88.5776 7.39477 88.0619 7.26477 87.4553 7.26477C86.8746 7.26477 86.3633 7.40343 85.9213 7.68077C85.4879 7.9581 85.1499 8.35677 84.9073 8.87677C84.6646 9.3881 84.5433 9.9991 84.5433 10.7098C84.5433 11.8018 84.7946 12.6511 85.2973 13.2578C85.7999 13.8558 86.5236 14.1548 87.4683 14.1548C88.2136 14.1548 88.8203 13.9641 89.2883 13.5828C89.7649 13.2014 90.0033 12.6554 90.0033 11.9448V11.6458H87.2733V10.6708H90.9523Z" fill="#18181B"/>
<path d="M94.1715 13.2578C94.1715 13.5871 94.2192 13.8168 94.3145 13.9468C94.4185 14.0681 94.6048 14.1288 94.8735 14.1288C95.0555 14.1288 95.2115 14.1158 95.3415 14.0898C95.4802 14.0638 95.6405 14.0161 95.8225 13.9468L95.6535 14.9478C95.3675 15.0691 95.0468 15.1298 94.6915 15.1298C94.1628 15.1298 93.7685 14.9868 93.5085 14.7008C93.2572 14.4148 93.1315 13.9771 93.1315 13.3878V5.50977H94.1715V13.2578Z" fill="#18181B"/>
<path d="M102.487 14.2458C102.66 14.2458 102.834 14.2241 103.007 14.1808L102.942 14.9998C102.699 15.0864 102.439 15.1298 102.162 15.1298C101.824 15.1298 101.555 15.0561 101.356 14.9088C101.165 14.7614 101.044 14.5144 100.992 14.1678C100.793 14.4711 100.498 14.7094 100.108 14.8828C99.7268 15.0474 99.3238 15.1298 98.8991 15.1298C98.2578 15.1298 97.7291 14.9824 97.3131 14.6878C96.8971 14.3844 96.6891 13.9511 96.6891 13.3878C96.6891 12.8938 96.9058 12.4691 97.3391 12.1138C97.7725 11.7498 98.4008 11.4984 99.2241 11.3598L100.953 11.0738V10.7098C100.953 10.2764 100.819 9.92977 100.55 9.66977C100.281 9.40977 99.9088 9.27977 99.4321 9.27977C98.9988 9.27977 98.6218 9.38377 98.3011 9.59177C97.9891 9.79977 97.7465 10.1074 97.5731 10.5148L96.8061 9.95577C96.9795 9.47043 97.3001 9.08477 97.7681 8.79877C98.2448 8.51277 98.7995 8.36976 99.4321 8.36976C100.203 8.36976 100.823 8.5561 101.291 8.92877C101.759 9.30143 101.993 9.85177 101.993 10.5798V13.7778C101.993 13.9338 102.032 14.0508 102.11 14.1288C102.188 14.2068 102.314 14.2458 102.487 14.2458ZM98.9511 14.2198C99.4971 14.2198 99.9651 14.0898 100.355 13.8298C100.754 13.5698 100.953 13.2318 100.953 12.8158V11.9188L99.4971 12.1918C98.9165 12.2958 98.4831 12.4474 98.1971 12.6468C97.9111 12.8374 97.7681 13.0844 97.7681 13.3878C97.7681 13.6564 97.8721 13.8644 98.0801 14.0118C98.2881 14.1504 98.5785 14.2198 98.9511 14.2198Z" fill="#18181B"/>
<path d="M107.263 8.36976C107.913 8.36976 108.459 8.52143 108.901 8.82477C109.352 9.11943 109.703 9.5441 109.954 10.0988L108.966 10.5668C108.689 9.70877 108.113 9.27977 107.237 9.27977C106.587 9.27977 106.076 9.50077 105.703 9.94277C105.339 10.3761 105.157 10.9784 105.157 11.7498C105.157 12.5211 105.339 13.1278 105.703 13.5698C106.076 14.0031 106.587 14.2198 107.237 14.2198C107.74 14.2198 108.143 14.1071 108.446 13.8818C108.758 13.6478 108.962 13.3141 109.057 12.8808L110.019 13.2188C109.794 13.8254 109.447 14.2978 108.979 14.6358C108.511 14.9651 107.939 15.1298 107.263 15.1298C106.284 15.1298 105.513 14.8308 104.949 14.2328C104.395 13.6348 104.117 12.8071 104.117 11.7498C104.117 10.6924 104.395 9.86477 104.949 9.26677C105.513 8.66877 106.284 8.36976 107.263 8.36976Z" fill="#18181B"/>
<path d="M112.378 7.25177C112.144 7.25177 111.954 7.18243 111.806 7.04377C111.668 6.89643 111.598 6.70577 111.598 6.47177C111.598 6.23777 111.668 6.05143 111.806 5.91277C111.954 5.76543 112.144 5.69177 112.378 5.69177C112.612 5.69177 112.799 5.76543 112.937 5.91277C113.085 6.05143 113.158 6.23777 113.158 6.47177C113.158 6.70577 113.085 6.89643 112.937 7.04377C112.799 7.18243 112.612 7.25177 112.378 7.25177ZM112.898 14.9998H111.858V8.49977H112.898V14.9998Z" fill="#18181B"/>
<path d="M120.888 11.4118C120.888 11.6544 120.871 11.8971 120.836 12.1398H115.935C115.996 12.7984 116.213 13.3098 116.585 13.6738C116.967 14.0378 117.456 14.2198 118.054 14.2198C118.531 14.2198 118.925 14.1374 119.237 13.9728C119.558 13.8081 119.775 13.5698 119.887 13.2578L120.758 13.7128C120.498 14.1721 120.152 14.5231 119.718 14.7658C119.285 15.0084 118.73 15.1298 118.054 15.1298C117.075 15.1298 116.304 14.8308 115.74 14.2328C115.186 13.6348 114.908 12.8071 114.908 11.7498C114.908 10.6924 115.173 9.86477 115.701 9.26677C116.239 8.66877 116.997 8.36976 117.976 8.36976C118.583 8.36976 119.107 8.5041 119.549 8.77277C119.991 9.04143 120.325 9.40543 120.55 9.86477C120.776 10.3241 120.888 10.8398 120.888 11.4118ZM117.976 9.27977C117.404 9.27977 116.941 9.44877 116.585 9.78677C116.239 10.1248 116.026 10.6014 115.948 11.2168H119.887C119.818 10.6101 119.619 10.1378 119.289 9.79977C118.96 9.4531 118.522 9.27977 117.976 9.27977Z" fill="#18181B"/>
<path d="M125.933 8.36976C126.245 8.36976 126.483 8.4131 126.648 8.49977L126.44 9.51377C126.232 9.4011 125.959 9.34477 125.621 9.34477C125.344 9.34477 125.071 9.4271 124.802 9.59177C124.542 9.74777 124.325 9.99043 124.152 10.3198C123.987 10.6404 123.905 11.0304 123.905 11.4898V14.9998H122.865V8.49977H123.71L123.853 9.56577C124.217 8.76843 124.91 8.36976 125.933 8.36976Z" fill="#18181B"/>
<path d="M16.5827 3.88916V18.0701L12.1025 17.0349V4.92434L16.5827 3.88916Z" fill="#8C3123"/>
<path d="M18.0003 4.56784V17.5126L16.5831 18.0704V3.88945L18.0003 4.56784ZM9.04004 0L12.3019 1.70352V20.2965L9.04004 22V0Z" fill="#E05243"/>
<path d="M0 4.72349L1.45193 3.84912V18.1506L0 17.432V4.72349Z" fill="#8C3123"/>
<path d="M3.34165 4.28631L5.93226 4.9245V17.0753L1.45215 18.1506V3.84912L3.34165 4.28631Z" fill="#E05243"/>
<path d="M6 1.70352V20.3317L9.30166 22V0L6 1.70352Z" fill="#8C3123"/>
</svg>
