<svg width="23" height="23" viewBox="0 0 23 23" fill="none" xmlns="http://www.w3.org/2000/svg">
<path fill-rule="evenodd" clip-rule="evenodd" d="M2 11.6585C2 6.32425 6.32425 2 11.6585 2C16.9927 2 21.317 6.32425 21.317 11.6585C21.317 16.9927 16.9927 21.317 11.6585 21.317C6.32425 21.317 2 16.9927 2 11.6585ZM11.6585 0.5C5.49583 0.5 0.5 5.49583 0.5 11.6585C0.5 17.8212 5.49583 22.817 11.6585 22.817C17.8212 22.817 22.817 17.8212 22.817 11.6585C22.817 5.49583 17.8212 0.5 11.6585 0.5ZM13.4728 15.071C13.5081 15.2024 13.5511 15.3187 13.6016 15.4198H15.7397V15.2909C15.6335 15.0837 15.5527 14.836 15.4971 14.5479C15.4414 14.2598 15.4137 13.8959 15.4137 13.4561V9.93817C15.4137 9.46309 15.3252 9.04607 15.1483 8.68719C14.9714 8.32327 14.7262 8.02252 14.4128 7.78495C14.0995 7.54745 13.728 7.36798 13.2984 7.24668C12.8738 7.12537 12.4138 7.06472 11.9185 7.06472C11.3675 7.06472 10.8773 7.13548 10.4476 7.27701C10.0231 7.4135 9.66164 7.60047 9.36345 7.83804C9.07029 8.07562 8.84535 8.3511 8.68863 8.66448C8.53701 8.97786 8.4612 9.30892 8.4612 9.65765H10.5689C10.5689 9.34938 10.6675 9.10421 10.8646 8.92221C11.0617 8.73525 11.3751 8.64169 11.8048 8.64169C12.29 8.64169 12.6615 8.75796 12.9193 8.9905C13.1771 9.21792 13.306 9.52875 13.306 9.92305V10.4083H12.1308C10.852 10.4083 9.88913 10.6459 9.24214 11.1209C8.60018 11.591 8.27928 12.2582 8.27928 13.1225C8.27928 13.4764 8.34997 13.8049 8.49151 14.1082C8.63305 14.4064 8.83016 14.6642 9.08293 14.8815C9.33562 15.0989 9.63637 15.2682 9.98517 15.3895C10.3389 15.5108 10.7256 15.5715 11.1451 15.5715C11.403 15.5715 11.643 15.5461 11.8654 15.4956C12.0878 15.4502 12.29 15.3869 12.4719 15.3061C12.659 15.2202 12.8283 15.1216 12.9799 15.0104C13.1316 14.8992 13.2655 14.7804 13.3818 14.654C13.407 14.8006 13.4373 14.9396 13.4728 15.071ZM12.1838 13.8656C12.0019 13.9161 11.8048 13.9414 11.5925 13.9414C11.1881 13.9414 10.8849 13.8478 10.6826 13.6609C10.4855 13.4738 10.387 13.2388 10.387 12.9557C10.387 12.7687 10.4223 12.5968 10.4931 12.4402C10.5639 12.2784 10.6726 12.1419 10.8191 12.0308C10.9657 11.9145 11.1552 11.8261 11.3878 11.7654C11.6203 11.6997 11.9008 11.6668 12.2293 11.6668H13.306V13.077C13.2453 13.1832 13.1619 13.2893 13.0558 13.3955C12.9496 13.4965 12.8232 13.5875 12.6766 13.6684C12.5301 13.7493 12.3658 13.815 12.1838 13.8656Z" fill="#222326"/>
</svg>
