<svg width="91" height="22" viewBox="0 0 91 22" fill="none" xmlns="http://www.w3.org/2000/svg">
<path d="M34.7825 14.2809C34.7357 14.1873 34.6959 14.0796 34.6631 13.9579C34.6303 13.8363 34.6023 13.7076 34.5789 13.5718C34.4713 13.6889 34.3472 13.7989 34.2068 13.9018C34.0665 14.0048 33.9096 14.096 33.7365 14.1755C33.568 14.2505 33.3808 14.3089 33.1749 14.3511C32.969 14.3979 32.7467 14.4213 32.508 14.4213C32.1196 14.4213 31.7615 14.3651 31.434 14.2528C31.111 14.1405 30.8326 13.9837 30.5986 13.7824C30.3646 13.5812 30.1821 13.3426 30.051 13.0664C29.92 12.7856 29.8545 12.4814 29.8545 12.1538C29.8545 11.3536 30.1517 10.7358 30.746 10.3006C31.3451 9.86065 32.2366 9.64072 33.4206 9.64072H34.5087V9.19144C34.5087 8.82638 34.3894 8.53859 34.1507 8.32801C33.912 8.11268 33.568 8.00509 33.1187 8.00509C32.721 8.00509 32.4308 8.09165 32.2483 8.26483C32.0658 8.43327 31.9745 8.66028 31.9745 8.94573H30.023C30.023 8.62281 30.0932 8.31625 30.2336 8.02613C30.3786 7.73593 30.5869 7.48094 30.8583 7.26094C31.1345 7.04101 31.4691 6.86784 31.8622 6.74148C32.26 6.61044 32.7139 6.54492 33.2241 6.54492C33.6827 6.54492 34.1085 6.60108 34.5016 6.7134C34.8994 6.82572 35.2435 6.99185 35.5336 7.21178C35.8238 7.43178 36.0507 7.71022 36.2145 8.04717C36.3783 8.37943 36.4602 8.76553 36.4602 9.20547V12.4627C36.4602 12.8698 36.486 13.2069 36.5375 13.4736C36.5889 13.7404 36.6638 13.9696 36.7621 14.1615V14.2809H34.7825ZM32.9222 12.912C33.1187 12.912 33.3013 12.8886 33.4697 12.8418C33.6382 12.795 33.7903 12.7341 33.9261 12.6593C34.0618 12.5844 34.1787 12.5002 34.277 12.4065C34.3753 12.3083 34.4526 12.21 34.5087 12.1117V10.806H33.5119C33.2076 10.806 32.9479 10.8364 32.7326 10.8973C32.5174 10.9534 32.3419 11.0353 32.2062 11.143C32.0704 11.2459 31.9698 11.3723 31.9043 11.5221C31.8388 11.6671 31.806 11.8262 31.806 11.9994C31.806 12.2615 31.8973 12.4791 32.0798 12.6522C32.267 12.8254 32.5478 12.912 32.9222 12.912Z" fill="#222326"/>
<path d="M44.1259 6.54492C44.4207 6.54492 44.6921 6.56598 44.9402 6.6081C45.1929 6.64554 45.3965 6.68766 45.5509 6.73446L45.2631 8.67898C45.0057 8.61813 44.7413 8.57365 44.4699 8.5456C44.2031 8.51281 43.9481 8.49645 43.7047 8.49645C43.1571 8.49645 42.7172 8.60177 42.3849 8.81235C42.0573 9.02293 41.8117 9.32482 41.6478 9.71793V14.2809H39.6963V6.68532H41.5145L41.6058 7.92781C41.9146 7.4973 42.2843 7.16036 42.7149 6.91698C43.1454 6.66894 43.6157 6.54492 44.1259 6.54492Z" fill="#222326"/>
<path d="M52.1629 11.9013L52.8228 6.68555H54.6128L53.251 14.2811H51.5381L50.5413 9.4514L49.5796 14.2811H47.8667L46.5049 6.68555H48.2879L48.9478 11.9224L49.9025 6.68555H51.2082L52.1629 11.9013Z" fill="#222326"/>
<path d="M59.6253 14.4213C59.0403 14.4213 58.5092 14.3253 58.0318 14.1335C57.5545 13.9416 57.1449 13.6818 56.8033 13.3543C56.4617 13.022 56.1973 12.6335 56.0101 12.1889C55.8276 11.7397 55.7363 11.26 55.7363 10.7499V10.469C55.7363 9.88877 55.8276 9.35988 56.0101 8.88255C56.1926 8.40054 56.4477 7.98632 56.7753 7.64003C57.1029 7.29373 57.4913 7.02465 57.9406 6.83274C58.3898 6.64086 58.8789 6.54492 59.4077 6.54492C59.9552 6.54492 60.442 6.63618 60.8679 6.8187C61.2984 6.99653 61.6611 7.24925 61.9559 7.57685C62.2555 7.90444 62.4824 8.29989 62.6369 8.7632C62.7913 9.22183 62.8685 9.72962 62.8685 10.2866V11.1149H57.7159C57.7534 11.3723 57.8283 11.6086 57.9406 11.8239C58.0575 12.0345 58.205 12.217 58.3828 12.3715C58.5606 12.5259 58.7642 12.6452 58.9936 12.7295C59.2228 12.8137 59.4732 12.8558 59.7447 12.8558C59.9365 12.8558 60.1261 12.8371 60.3133 12.7996C60.5052 12.7622 60.6877 12.7084 60.8608 12.6382C61.034 12.5634 61.1955 12.4721 61.3452 12.3645C61.495 12.2568 61.626 12.1304 61.7383 11.9854L62.7141 13.0383C62.5924 13.2115 62.4333 13.3823 62.2368 13.5508C62.0449 13.7146 61.8155 13.862 61.5488 13.9931C61.2867 14.1194 60.9942 14.2224 60.6713 14.3019C60.3484 14.3815 59.9997 14.4213 59.6253 14.4213ZM59.3937 8.12437C59.1737 8.12437 58.9725 8.16418 58.79 8.24372C58.6075 8.31859 58.446 8.42859 58.3056 8.57365C58.1699 8.71878 58.0552 8.8919 57.9616 9.09313C57.868 9.29436 57.7978 9.51904 57.751 9.76709H60.9521V9.6126C60.9428 9.4067 60.903 9.21248 60.8328 9.02995C60.7626 8.84748 60.6619 8.69067 60.5309 8.55963C60.3998 8.42392 60.2384 8.31859 60.0465 8.24372C59.8593 8.16418 59.6417 8.12437 59.3937 8.12437Z" fill="#222326"/>
<path d="M69.3196 14.2809C69.2728 14.1873 69.2329 14.0796 69.1999 13.9579C69.1676 13.8363 69.1395 13.7076 69.1161 13.5718C69.0081 13.6889 68.8844 13.7989 68.7441 13.9018C68.6032 14.0048 68.4465 14.096 68.2739 14.1755C68.1048 14.2505 67.9178 14.3089 67.7122 14.3511C67.506 14.3979 67.2839 14.4213 67.0453 14.4213C66.6569 14.4213 66.2987 14.3651 65.9708 14.2528C65.6483 14.1405 65.3697 13.9837 65.1357 13.7824C64.9017 13.5812 64.7192 13.3426 64.5882 13.0664C64.4571 12.7856 64.3916 12.4814 64.3916 12.1538C64.3916 11.3536 64.6887 10.7358 65.2831 10.3006C65.8821 9.86065 66.7738 9.64072 67.9576 9.64072H69.0459V9.19144C69.0459 8.82638 68.9263 8.53859 68.6878 8.32801C68.4492 8.11268 68.1048 8.00509 67.6558 8.00509C67.2578 8.00509 66.9677 8.09165 66.7855 8.26483C66.6026 8.43327 66.5118 8.66028 66.5118 8.94573H64.56C64.56 8.62281 64.6302 8.31625 64.7706 8.02613C64.9157 7.73593 65.124 7.48094 65.3954 7.26094C65.6717 7.04101 66.0058 6.86784 66.3991 6.74148C66.7971 6.61044 67.2509 6.54492 67.761 6.54492C68.2196 6.54492 68.6458 6.60108 69.0391 6.7134C69.4365 6.82572 69.7802 6.99185 70.0703 7.21178C70.3611 7.43178 70.588 7.71022 70.7516 8.04717C70.9153 8.37943 70.9971 8.76553 70.9971 9.20547V12.4627C70.9971 12.8698 71.0232 13.2069 71.0748 13.4736C71.1263 13.7404 71.2006 13.9696 71.2989 14.1615V14.2809H69.3196ZM67.4592 12.912C67.6558 12.912 67.838 12.8886 68.0071 12.8418C68.1756 12.795 68.3275 12.7341 68.463 12.6593C68.5991 12.5844 68.716 12.5002 68.8143 12.4065C68.9126 12.3083 68.9896 12.21 69.0459 12.1117V10.806H68.0491C67.7445 10.806 67.4853 10.8364 67.2695 10.8973C67.0543 10.9534 66.879 11.0353 66.7435 11.143C66.6074 11.2459 66.507 11.3723 66.4417 11.5221C66.3757 11.6671 66.3434 11.8262 66.3434 11.9994C66.3434 12.2615 66.4342 12.4791 66.617 12.6522C66.804 12.8254 67.0852 12.912 67.4592 12.912Z" fill="#222326"/>
<path d="M76.4385 12.0277L76.5368 12.5753L76.6351 12.0488L78.3057 6.68555H80.3414L77.456 14.2811H75.6238L72.7246 6.68555H74.7603L76.4385 12.0277Z" fill="#222326"/>
<path d="M85.5288 14.4213C84.9438 14.4213 84.4123 14.3253 83.9352 14.1335C83.4574 13.9416 83.0483 13.6818 82.7066 13.3543C82.365 13.022 82.1003 12.6335 81.9133 12.1889C81.7311 11.7397 81.6396 11.26 81.6396 10.7499V10.469C81.6396 9.88877 81.7311 9.35988 81.9133 8.88255C82.0961 8.40054 82.3512 7.98632 82.6785 7.64003C83.0064 7.29373 83.3948 7.02465 83.8438 6.83274C84.2934 6.64086 84.7822 6.54492 85.3109 6.54492C85.8588 6.54492 86.3449 6.63618 86.7711 6.8187C87.2015 6.99653 87.5645 7.24925 87.8594 7.57685C88.1585 7.90444 88.3854 8.29989 88.5401 8.7632C88.6947 9.22183 88.7717 9.72962 88.7717 10.2866V11.1149H83.619C83.6568 11.3723 83.7317 11.6086 83.8438 11.8239C83.9606 12.0345 84.1084 12.217 84.2858 12.3715C84.4639 12.5259 84.6674 12.6452 84.897 12.7295C85.1259 12.8137 85.3762 12.8558 85.6478 12.8558C85.8396 12.8558 86.0293 12.8371 86.2163 12.7996C86.4081 12.7622 86.591 12.7084 86.7642 12.6382C86.9375 12.5634 87.0984 12.4721 87.2482 12.3645C87.3981 12.2568 87.5294 12.1304 87.6415 11.9854L88.6171 13.0383C88.4954 13.2115 88.3366 13.3823 88.1399 13.5508C87.9481 13.7146 87.7185 13.862 87.4517 13.9931C87.1898 14.1194 86.8976 14.2224 86.5745 14.3019C86.2514 14.3815 85.9028 14.4213 85.5288 14.4213ZM85.2971 8.12437C85.0771 8.12437 84.8757 8.16418 84.6935 8.24372C84.5106 8.31859 84.3491 8.42859 84.2088 8.57365C84.0734 8.71878 83.9586 8.8919 83.8651 9.09313C83.7716 9.29436 83.7008 9.51904 83.654 9.76709H86.855V9.6126C86.8461 9.4067 86.8062 9.21248 86.7361 9.02995C86.6659 8.84748 86.5649 8.69067 86.4342 8.55963C86.3029 8.42392 86.1414 8.31859 85.9496 8.24372C85.7626 8.16418 85.5446 8.12437 85.2971 8.12437Z" fill="#222326"/>
<path fill-rule="evenodd" clip-rule="evenodd" d="M1.85742 10.9944C1.85742 5.84085 6.03519 1.66309 11.1887 1.66309C16.3422 1.66309 20.52 5.84085 20.52 10.9944C20.52 16.1479 16.3422 20.3257 11.1887 20.3257C6.03519 20.3257 1.85742 16.1479 1.85742 10.9944ZM11.1887 0.163086C5.20676 0.163086 0.357422 5.01242 0.357422 10.9944C0.357422 16.9763 5.20676 21.8257 11.1887 21.8257C17.1707 21.8257 22.02 16.9763 22.02 10.9944C22.02 5.01242 17.1707 0.163086 11.1887 0.163086ZM12.9459 14.2996C12.9801 14.4269 13.0217 14.5395 13.0707 14.6374H15.1416V14.5125C15.0387 14.3118 14.9604 14.072 14.9066 13.7929C14.8527 13.5139 14.8258 13.1614 14.8258 12.7355V9.32808C14.8258 8.86793 14.7401 8.46403 14.5687 8.11643C14.3974 7.76395 14.16 7.47265 13.8564 7.24255C13.5529 7.01251 13.1931 6.83869 12.777 6.72119C12.3657 6.6037 11.9202 6.54495 11.4405 6.54495C10.9068 6.54495 10.432 6.61349 10.0158 6.75057C9.60465 6.88278 9.25458 7.06387 8.96576 7.29397C8.68182 7.52408 8.46395 7.7909 8.31215 8.09443C8.1653 8.39796 8.09188 8.71861 8.09188 9.05638H10.1333C10.1333 8.7578 10.2288 8.52033 10.4198 8.34406C10.6107 8.16297 10.9142 8.07236 11.3303 8.07236C11.8003 8.07236 12.1602 8.18497 12.4098 8.4102C12.6595 8.63047 12.7843 8.93153 12.7843 9.31343V9.78341H11.6461C10.4075 9.78341 9.47492 10.0135 8.84826 10.4737C8.22649 10.929 7.91567 11.5752 7.91567 12.4123C7.91567 12.7551 7.98414 13.0732 8.12123 13.367C8.25832 13.6558 8.44924 13.9055 8.69406 14.116C8.93881 14.3265 9.2301 14.4905 9.56794 14.608C9.91059 14.7255 10.2851 14.7843 10.6915 14.7843C10.9412 14.7843 11.1737 14.7597 11.3891 14.7108C11.6045 14.6668 11.8003 14.6055 11.9765 14.5272C12.1577 14.444 12.3217 14.3485 12.4686 14.2408C12.6154 14.1332 12.7452 14.0181 12.8578 13.8957C12.8822 14.0377 12.9116 14.1723 12.9459 14.2996ZM11.6975 13.132C11.5213 13.181 11.3303 13.2054 11.1247 13.2054C10.733 13.2054 10.4393 13.1148 10.2435 12.9337C10.0526 12.7526 9.95713 12.525 9.95713 12.2508C9.95713 12.0696 9.99137 11.9032 10.0599 11.7514C10.1285 11.5948 10.2337 11.4626 10.3757 11.3549C10.5177 11.2423 10.7012 11.1566 10.9264 11.0978C11.1517 11.0342 11.4234 11.0024 11.7415 11.0024H12.7843V12.3683C12.7256 12.4711 12.6448 12.5739 12.542 12.6767C12.4391 12.7746 12.3168 12.8627 12.1748 12.941C12.0328 13.0194 11.8737 13.083 11.6975 13.132Z" fill="#222326"/>
</svg>
