<svg width="22" height="19" viewBox="0 0 22 19" fill="none" xmlns="http://www.w3.org/2000/svg">
<path d="M15.3656 16.9616C15.3388 16.9679 13.0042 17.4286 10.1777 17.9853L5.03868 18.9976L13.5193 18.9988L22 19L21.9652 18.9323C21.9461 18.895 19.889 14.9192 17.3938 10.0972C14.7286 4.94661 12.8535 1.33688 12.8483 1.34694C12.8328 1.37704 10.0773 9.83757 10.0773 9.85503C10.0773 9.86425 11.2782 11.4644 12.7458 13.4109L15.4143 16.95L15.3656 16.9616Z" fill="#0089D6"/>
<path d="M2.79417 11.4978C1.25738 14.4674 0 16.9011 0 16.9061C0 16.911 1.13639 16.9135 2.52531 16.9116L5.05061 16.9081L8.5234 8.60327C10.4334 4.03563 12.0246 0.230308 12.0593 0.146994C12.094 0.0636811 12.1175 -0.00243501 12.1116 6.8837e-05C12.1057 0.00257318 10.6356 1.37575 8.84462 3.05158L5.58834 6.09853L2.79417 11.4978Z" fill="#0089D6"/>
</svg>
