<svg width="70" height="20" viewBox="0 0 70 20" fill="none" xmlns="http://www.w3.org/2000/svg">
<g clip-path="url(#clip0)">
<path d="M11.9221 18.9319C15.233 18.3459 17.9676 17.861 17.999 17.8543L18.0561 17.8421L14.9303 14.1168C13.2111 12.0678 11.8045 10.3834 11.8045 10.3737C11.8045 10.3553 15.0322 1.44951 15.0503 1.41783C15.0564 1.40724 17.2529 5.20695 20.3748 10.6286C23.2977 15.7044 25.7074 19.8895 25.7298 19.9287L25.7705 20L15.8364 19.9987L5.90224 19.9974L11.9221 18.9319ZM50.0183 18.031C48.5062 17.9338 47.6267 17.0711 47.3936 15.4562C47.3316 15.0266 47.3314 15.0154 47.325 12.2266L47.3189 9.52741H47.9881H48.6574L48.6627 12.1382C48.6674 14.4912 48.6704 14.7671 48.6928 14.9326C48.784 15.6044 48.9654 16.0562 49.2742 16.3804C49.5214 16.64 49.8107 16.7919 50.2113 16.8725C50.4002 16.9106 50.9378 16.9107 51.1101 16.8727C51.5162 16.7832 51.8416 16.6061 52.1287 16.3185C52.456 15.9908 52.6981 15.5257 52.8152 14.9999L52.8547 14.8227L52.8591 12.1898L52.8635 9.5569H53.5467H54.23V13.6959V17.8348H53.5538H52.8776V17.1781C52.8776 16.7319 52.8727 16.5231 52.8623 16.5265C52.854 16.5293 52.8192 16.5826 52.7852 16.6448C52.5521 17.0706 52.1639 17.4601 51.7385 17.6947C51.2285 17.9759 50.7171 18.0758 50.0183 18.031ZM65.367 18.0243C64.8332 17.9841 64.2711 17.8002 63.8117 17.5155C62.8435 16.9153 62.2706 15.9262 62.1028 14.5649C62.0448 14.0938 62.0378 13.461 62.0862 13.0608C62.1945 12.1664 62.5452 11.2884 63.0447 10.6616C63.1728 10.5009 63.4632 10.2098 63.6236 10.0815C64.0566 9.73511 64.5632 9.49285 65.101 9.37497C65.4144 9.30629 65.9662 9.27404 66.2991 9.30495C67.1354 9.38261 67.9019 9.77715 68.4229 10.3981C68.9522 11.029 69.2431 11.9106 69.2802 12.9962C69.2861 13.1663 69.2875 13.4646 69.2834 13.659L69.2759 14.0125L66.3469 14.0162L63.4178 14.0199V14.1509C63.4178 14.5496 63.5145 15.0037 63.6818 15.3901C63.826 15.7232 64.0743 16.087 64.2775 16.2631C64.6943 16.6241 65.2044 16.8402 65.7625 16.8922C65.9695 16.9115 66.4969 16.8912 66.7327 16.8548C67.4056 16.7512 68.0453 16.4868 68.562 16.0987C68.6227 16.0531 68.6809 16.0104 68.6912 16.0039C68.7063 15.9944 68.7099 16.1137 68.7095 16.6152L68.709 17.2382L68.5706 17.324C67.9862 17.6862 67.3167 17.9187 66.6078 18.0058C66.3962 18.0317 65.62 18.0433 65.367 18.0243ZM67.9161 12.7694C67.9161 12.1016 67.6352 11.3597 67.2378 10.9777C66.9541 10.7051 66.6112 10.5385 66.2035 10.4752C66.0107 10.4453 65.6042 10.4568 65.4008 10.498C64.971 10.585 64.6155 10.7743 64.3054 11.0814C63.979 11.4045 63.7343 11.797 63.5804 12.2441C63.5251 12.4049 63.4604 12.6689 63.4403 12.8157L63.4307 12.8857H65.6734H67.9161V12.7694ZM28.1839 17.8164C28.1873 17.8062 29.1819 15.1881 30.3942 11.9983L32.5983 6.19867L33.3065 6.19863L34.0146 6.19858L34.0734 6.34956C34.253 6.81093 38.4858 17.8222 38.4858 17.8279C38.4858 17.8317 38.1468 17.8347 37.7324 17.8347L36.979 17.8345L36.3689 16.2071L35.7589 14.5796L33.3025 14.5796L30.846 14.5795L30.8247 14.6348C30.8129 14.6652 30.5523 15.3975 30.2455 16.2621L29.6876 17.8342L28.9326 17.8345C28.335 17.8347 28.1789 17.8309 28.1839 17.8164ZM35.3105 13.3376C35.3105 13.3351 34.9 12.2199 34.3982 10.8594C33.4594 8.31426 33.4069 8.16113 33.3327 7.75252C33.298 7.56092 33.2804 7.55559 33.2597 7.73043C33.245 7.8554 33.181 8.13503 33.1316 8.29014C33.1072 8.3671 32.6844 9.52966 32.1922 10.8736C31.7 12.2175 31.2973 13.3228 31.2973 13.3297C31.2973 13.3367 32.2003 13.3423 33.3039 13.3423C34.4075 13.3423 35.3105 13.3402 35.3105 13.3376ZM38.9415 17.6228V17.4109L41.3889 14.0399L43.8362 10.6689L41.6204 10.6616L39.4046 10.6542L39.4007 10.0908L39.3969 9.52741H42.6018H45.8066V9.7177V9.90799L43.359 13.2973C42.0128 15.1615 40.9114 16.6898 40.9114 16.6937C40.9114 16.6975 41.9996 16.7006 43.3296 16.7006H45.7478V17.2677V17.8348H42.3447H38.9415V17.6228ZM56.9006 17.825C56.8952 17.8196 56.8908 15.9504 56.8908 13.6713V9.52741H57.5597H58.2285V10.3817C58.2285 10.8516 58.2342 11.236 58.2412 11.236C58.2482 11.236 58.2807 11.1591 58.3135 11.0651C58.4639 10.6343 58.7247 10.2318 59.0607 9.91194C59.3634 9.62376 59.7093 9.45143 60.1175 9.38548C60.2322 9.36695 60.3292 9.36342 60.5586 9.3694C60.8466 9.37692 60.9971 9.39801 61.1723 9.45538L61.2274 9.47344V10.1691V10.8647L61.0694 10.7855C60.7902 10.6455 60.5148 10.5901 60.1837 10.6073C59.9682 10.6185 59.8268 10.6463 59.6545 10.711C59.3 10.8443 59.0125 11.0796 58.8116 11.4008C58.5207 11.8657 58.3133 12.4633 58.2521 13.0126C58.2411 13.1111 58.2346 13.9139 58.2321 15.4965L58.2283 17.8348H57.5693C57.2069 17.8348 56.906 17.8304 56.9006 17.825ZM0 17.7959C0 17.7906 1.47288 15.2288 3.27306 12.1029L6.54611 6.41951L10.3605 3.21219C12.4584 1.44816 14.1805 0.00270861 14.1874 7.24601e-05C14.1943 -0.00256317 14.1667 0.0670328 14.1261 0.154731C14.0854 0.242429 12.2216 4.24803 9.9842 9.05607L5.91622 17.798L2.95811 17.8017C1.33115 17.8037 0 17.8011 0 17.7959Z" fill="#0089D6"/>
</g>
<defs>
<clipPath id="clip0">
<rect width="69.2857" height="20" fill="white"/>
</clipPath>
</defs>
</svg>
