<svg width="97" height="21" viewBox="0 0 97 21" fill="none" xmlns="http://www.w3.org/2000/svg">
<g clip-path="url(#clip0)">
<path d="M21.6529 15.6544H23.5429C24.2067 15.6544 24.9517 15.3713 24.9517 14.5341C24.9517 13.6283 23.9355 13.4786 23.2434 13.4786H21.6529V15.6544ZM21.6529 11.6954H23.1795C23.8278 11.6954 24.5025 11.4242 24.5025 10.6536C24.5025 9.85472 23.7465 9.65111 23.0873 9.65111H21.6529V11.6954ZM19.541 7.86793H23.111C24.7874 7.86793 26.6135 8.22128 26.6135 10.3003C26.6135 11.3667 25.9506 12.0981 24.9627 12.4121V12.4368C26.2181 12.6012 27.0599 13.5325 27.0599 14.7769C27.0599 16.7738 25.1654 17.4412 23.4644 17.4412H19.541V7.86793ZM32.131 10.6536L30.9714 13.6283H33.3088L32.131 10.6536ZM31.322 7.86885H33.0659L37.2276 17.4412H34.8491L34.0255 15.4115H30.3094L29.5096 17.4412H27.1841L31.322 7.86793V7.86885ZM44.3192 10.3542C43.8974 9.85472 43.2875 9.57259 42.5068 9.57259C40.9126 9.57259 39.7357 10.8673 39.7357 12.6541C39.7357 14.4382 40.9126 15.7356 42.4383 15.7356C43.2875 15.7356 43.9795 15.3576 44.4105 14.7085L46.169 16.0178C45.3747 17.1554 44.0224 17.6832 42.7058 17.6832C39.7202 17.6832 37.5453 15.7219 37.5453 12.6541C37.5453 9.58354 39.7211 7.62598 42.7058 7.62598C43.7759 7.62598 45.1281 7.98937 45.9408 9.03115L44.3192 10.3542ZM47.2711 7.86793H49.3793V11.8415L53.0954 7.86793H55.8528L51.5943 12.3154L56.2198 17.4412H53.2743L49.3793 12.897V17.4412H47.2711V7.86793Z" fill="#231F20"/>
<path d="M58.9285 15.6546H60.8212C61.485 15.6546 62.2273 15.3716 62.2273 14.5343C62.2273 13.6286 61.2138 13.4788 60.5254 13.4788H58.9276V15.6546H58.9285ZM58.9285 11.6956H60.4532C61.107 11.6956 61.7808 11.4245 61.7808 10.6539C61.7808 9.85495 61.0248 9.65134 60.361 9.65134H58.9276V11.6956H58.9285ZM56.8193 7.86816H60.3893C62.0629 7.86816 63.889 8.22151 63.889 10.3005C63.889 11.3669 63.2252 12.0983 62.241 12.4124V12.437C63.4964 12.6014 64.3382 13.5327 64.3382 14.7772C64.3382 16.774 62.4446 17.4414 60.739 17.4414H56.8193V7.86816ZM65.5298 7.86816H67.6407V15.4939H71.5458V17.4414H65.5289L65.5298 7.86816Z" fill="#646475"/>
<path d="M75.4088 10.6539L74.2456 13.6286H76.5857L75.4079 10.6539H75.4088ZM74.5989 7.86908H76.3428L80.5054 17.4414H78.1297L77.3024 15.4117H73.5827L72.7874 17.4414H70.4619L74.5989 7.86816V7.86908ZM80.8368 15.4939L85.6915 9.73351H81.0121V7.86816H88.2444V9.73351L83.4874 15.4939H88.4087V17.4414H80.8368V15.4939ZM89.8029 7.86816H96.3083V9.81569H91.9111V11.5989H96.0627V13.5464H91.9111V15.4939H96.5512V17.4414H89.8038L89.8029 7.86816Z" fill="#646475"/>
<path fill-rule="evenodd" clip-rule="evenodd" d="M4.15922 -0.0244141C4.15922 -0.0244141 7.28366 2.70741 6.85909 5.1288C6.80205 5.45398 6.63189 5.8432 6.44328 6.27463L6.44328 6.27463C6.00697 7.27262 5.47194 8.49645 6.00996 9.67576C6.84449 11.4991 7.27636 15.0116 3.52375 14.1022C-0.177731 13.2074 0.11079 8.67415 2.86088 6.28198C5.64931 3.85602 4.70796 1.18719 4.15922 -0.0244141ZM7.01251 8.16741C6.93644 8.84432 7.16304 9.52024 7.40037 10.2281C7.80967 11.449 8.25085 12.765 7.22616 14.3451C6.10312 16.0744 7.82512 18.504 10.0365 18.0612C12.4615 17.5763 13.0614 16.0433 12.9966 14.2629C12.9165 12.1299 12.1113 11.4502 10.3395 9.9545C10.2335 9.86498 10.124 9.77253 10.0109 9.67667C7.84703 7.83963 9.51972 4.37281 9.51972 4.37281C9.51972 4.37281 7.24442 6.13863 7.01251 8.16741ZM4.96816 15.4535C2.43355 15.3969 1.10963 14.4053 0.424851 13.5635C0.27146 13.3745 0.0322423 14.9267 0.499721 16.246C0.505177 16.2613 0.51067 16.2767 0.516204 16.2922C0.951402 17.511 1.63508 19.4258 4.25507 20.4049C6.48746 21.2395 9.61555 21.3855 11.417 19.0783C11.8131 18.5689 11.3131 18.7543 10.7664 18.9569L10.7395 18.9669C9.78355 19.3275 7.99672 19.3029 6.67007 18.1862C5.81537 17.4689 5.62287 16.7071 5.48729 16.1705C5.37955 15.7441 5.30776 15.46 4.96816 15.4535Z" fill="#D30035"/>
</g>
<defs>
<clipPath id="clip0">
<rect width="96.7826" height="21" fill="white"/>
</clipPath>
</defs>
</svg>
