<svg width="14" height="22" viewBox="0 0 14 22" fill="none" xmlns="http://www.w3.org/2000/svg">
<path fill-rule="evenodd" clip-rule="evenodd" d="M4.3103 0C4.3103 0 7.73417 2.86364 7.26892 5.40186C7.20641 5.74273 7.01994 6.15073 6.81325 6.60297C6.33513 7.64911 5.74883 8.93199 6.33841 10.1682C7.25291 12.0795 7.72617 15.7615 3.61392 14.8082C-0.442292 13.8703 -0.12612 9.11827 2.88753 6.61067C5.94319 4.06766 4.91163 1.27007 4.3103 0ZM7.43735 8.587C7.35399 9.29656 7.60231 10.0051 7.86238 10.7471C8.31091 12.0269 8.79437 13.4064 7.67148 15.0627C6.44081 16.8755 8.32784 19.4223 10.7512 18.9581C13.4086 18.4499 14.066 16.8429 13.9949 14.9766C13.9071 12.7406 13.0248 12.0282 11.0832 10.4603L11.0832 10.4603C10.967 10.3664 10.847 10.2695 10.7231 10.1691C8.35185 8.2434 10.1849 4.6093 10.1849 4.6093C10.1849 4.6093 7.69149 6.46033 7.43735 8.587ZM5.19708 16.2247C2.41956 16.1653 0.968772 15.1259 0.218362 14.2435C0.0502702 14.0454 -0.211873 15.6724 0.300407 17.0554C0.306386 17.0714 0.312406 17.0876 0.31847 17.1038C0.795376 18.3815 1.54457 20.3887 4.41565 21.415C6.86199 22.2898 10.2899 22.4429 12.2639 20.0244C12.6981 19.4904 12.1501 19.6847 11.551 19.8971L11.5215 19.9076C10.474 20.2856 8.51589 20.2598 7.0621 19.0893C6.12549 18.3373 5.91454 17.5387 5.76597 16.9763C5.64791 16.5293 5.56923 16.2315 5.19708 16.2247Z" fill="#D30035"/>
</svg>
