<svg width="22" height="24" viewBox="0 0 22 24" fill="none" xmlns="http://www.w3.org/2000/svg">
<g clip-path="url(#clip0)">
<path d="M11.3088 5.97849L13.8322 7.35931V7.35929L16.3556 8.74006L18.727 7.44245V5.65606C18.727 5.49692 18.8632 5.36788 19.0311 5.36788C19.199 5.36788 19.3352 5.49692 19.3352 5.65606V7.10969L21.5545 5.89528C21.6995 5.81571 21.8851 5.86259 21.9691 5.99996C22.053 6.13736 22.0036 6.31328 21.8586 6.39284L19.6378 7.60805L20.9668 8.33527C21.1118 8.41481 21.1612 8.59076 21.0773 8.72812C20.9933 8.86552 20.8077 8.9124 20.6627 8.83283L19.0311 7.94002L16.6597 9.2376V14.763L19.0305 16.0603L20.6627 15.1672C20.8077 15.0876 20.9933 15.1345 21.0773 15.2718C21.1612 15.4092 21.1118 15.5852 20.9668 15.6647L19.6372 16.3922L21.8574 17.6071C22.0024 17.6861 22.0524 17.8615 21.9691 17.9989C21.8858 18.1363 21.7007 18.1836 21.5558 18.1047L19.3352 16.8896V18.3439C19.3352 18.503 19.199 18.6321 19.0311 18.6321C18.8632 18.6321 18.727 18.503 18.727 18.3439V16.5569L16.3563 15.2596L11.3088 18.0215V20.6189L12.9392 21.5111C13.0842 21.59 13.1342 21.7654 13.0509 21.9028C12.9676 22.0402 12.7825 22.0876 12.6375 22.0086L11.3088 21.2816V23.7118C11.3088 23.871 11.1726 24 11.0047 24C10.8368 24 10.7006 23.871 10.7006 23.7118V21.2816L9.37189 22.0086C9.22695 22.0876 9.04184 22.0402 8.95856 21.9028C8.87528 21.7654 8.92524 21.59 9.07021 21.5111L10.7006 20.6189V18.0215L5.65317 15.2596L3.28115 16.5575L3.28117 18.3439C3.28117 18.5024 3.14554 18.631 2.97828 18.631C2.81101 18.631 2.6754 18.5024 2.6754 18.3439L2.67538 16.889L0.453643 18.1047C0.308677 18.1836 0.123591 18.1363 0.0402853 17.9989C-0.0429942 17.8615 0.0069995 17.6861 0.15194 17.6071L2.37217 16.3922L1.04258 15.6647C0.897636 15.5852 0.848162 15.4092 0.932118 15.2718C1.01607 15.1345 1.2017 15.0876 1.34667 15.1672L2.97887 16.0603L5.3497 14.763V9.23698L2.97887 7.93967L1.34667 8.83283C1.2017 8.9124 1.01607 8.86552 0.932118 8.72812C0.848162 8.59076 0.897636 8.41481 1.04258 8.33527L2.37219 7.60772L0.15194 6.39284C0.0069995 6.31392 -0.0429942 6.13849 0.0402853 6.0011C0.123591 5.86373 0.308677 5.81635 0.453643 5.89528L2.67421 7.11033V5.65606C2.67421 5.49692 2.81036 5.36788 2.97828 5.36788C3.14621 5.36788 3.28237 5.49692 3.28237 5.65606V7.44312L5.65317 8.74038L8.66914 7.09009L10.7006 5.97849V3.38107L9.07018 2.48894C8.92522 2.40999 8.87525 2.23456 8.95853 2.0972C9.04184 1.9598 9.22692 1.91243 9.37189 1.99138L10.7006 2.71843V0.288173C10.7006 0.129038 10.8368 0 11.0047 0C11.1726 0 11.3088 0.129038 11.3088 0.288173V2.71843L12.6375 1.99138C12.7825 1.91243 12.9676 1.9598 13.0508 2.0972C13.1342 2.23456 13.0842 2.40999 12.9392 2.48894L11.3088 3.38107V5.97849ZM16.0516 11.5224L11.1598 14.1991C11.0684 14.2505 10.9512 14.2548 10.8527 14.2008L5.95784 11.5224V12.8104L11.0047 15.572L16.0516 12.8104V11.5224ZM5.95784 10.8584L11.0047 13.62L16.0516 10.8584V9.57038L13.8322 10.7848L13.8154 10.7934L11.1555 12.2488C11.0584 12.3017 10.9434 12.2978 10.8529 12.2483L10.8527 12.2488L5.95784 9.57038V10.8584ZM16.0516 13.4743L11.1598 16.1511C11.0684 16.2024 10.9512 16.2068 10.8527 16.1527L5.95784 13.4743V14.7623L11.0047 17.5239L16.0516 14.7623V13.4743ZM6.26048 9.07205L11.0053 11.6684L13.5125 10.2964L13.5282 10.2872L15.7489 9.07205L13.5282 7.85685L11.0047 6.47606L6.26048 9.07205Z" fill="#342BDB" stroke="#342BDB" stroke-width="0.3"/>
</g>
<defs>
<clipPath id="clip0">
<rect width="22" height="24" fill="white"/>
</clipPath>
</defs>
</svg>
