<svg width="114" height="27" viewBox="0 0 114 27" fill="none" xmlns="http://www.w3.org/2000/svg">
<path d="M73.9288 16.8805C74.542 16.8805 74.9884 16.7696 75.2679 16.5478C75.5475 16.326 75.6873 16.0125 75.6873 15.6075C75.6873 15.3664 75.6377 15.159 75.5385 14.9855C75.4483 14.8119 75.313 14.6576 75.1327 14.5225C74.9613 14.3779 74.7494 14.2477 74.4969 14.132C74.2444 14.0066 73.9559 13.886 73.6312 13.7703C73.3066 13.6449 72.991 13.5099 72.6844 13.3653C72.3868 13.211 72.1208 13.0229 71.8863 12.8011C71.6609 12.5793 71.476 12.3141 71.3317 12.0054C71.1965 11.6968 71.1288 11.3255 71.1288 10.8916C71.1288 9.98502 71.4219 9.27619 72.008 8.76505C72.5942 8.24428 73.3923 7.98389 74.4022 7.98389C74.9884 7.98389 75.5069 8.05622 75.9578 8.20088C76.2365 8.2827 76.4787 8.36982 76.6846 8.46227C76.8987 8.55843 76.9836 8.80676 76.9046 9.02779L76.7173 9.55177C76.6112 9.84848 76.2597 9.97274 75.9664 9.8574C75.8163 9.79836 75.6601 9.74767 75.4979 9.70535C75.1372 9.60891 74.7629 9.56069 74.3752 9.56069C73.9153 9.56069 73.5546 9.66195 73.2931 9.86447C73.0406 10.067 72.9143 10.3515 72.9143 10.718C72.9143 10.9398 72.9549 11.1327 73.0361 11.2966C73.1262 11.4509 73.248 11.5908 73.4013 11.7161C73.5636 11.8415 73.7485 11.9572 73.9559 12.0633C74.1723 12.1694 74.4067 12.2707 74.6592 12.3671C75.1011 12.5407 75.4934 12.7191 75.836 12.9023C76.1877 13.0759 76.4808 13.2881 76.7153 13.5389C76.9587 13.78 77.1436 14.0693 77.2699 14.4068C77.3961 14.7347 77.4592 15.1349 77.4592 15.6075C77.4592 16.514 77.1571 17.2181 76.553 17.7195C75.9578 18.2114 75.0831 18.4573 73.9288 18.4573C73.5411 18.4573 73.1849 18.4284 72.8602 18.3705C72.5446 18.3223 72.2605 18.2596 72.008 18.1825C71.7646 18.1053 71.5527 18.0281 71.3723 17.951C71.3425 17.9367 71.3137 17.9226 71.2859 17.9088C71.0785 17.8058 70.9915 17.5646 71.0652 17.3452L71.2428 16.8164C71.3442 16.5145 71.7016 16.3789 71.996 16.5004C72.1277 16.5548 72.2715 16.6092 72.4274 16.6635C72.8422 16.8082 73.3427 16.8805 73.9288 16.8805Z" fill="white"/>
<path d="M85.6708 8.21534C85.947 8.21534 86.1708 8.4392 86.1708 8.71534V9.29214C86.1708 9.56828 85.947 9.79214 85.6708 9.79214H83.7897C83.5135 9.79214 83.2897 10.016 83.2897 10.2921V17.7403C83.2897 18.0165 83.0658 18.2403 82.7897 18.2403H82.0718C81.7957 18.2403 81.5718 18.0165 81.5718 17.7403V10.2921C81.5718 10.016 81.348 9.79214 81.0718 9.79214H79.1907C78.9145 9.79214 78.6907 9.56829 78.6907 9.29214V8.71534C78.6907 8.4392 78.9145 8.21534 79.1907 8.21534H85.6708Z" fill="white"/>
<path d="M93.9683 18.2403C93.7508 18.2403 93.5585 18.0996 93.4906 17.8929C93.3996 17.6157 93.3063 17.3409 93.2108 17.0686C93.1149 16.7949 93.0212 16.5164 92.9298 16.233C92.8626 16.0248 92.6695 15.8824 92.4507 15.8824H89.2367C89.0179 15.8824 88.8247 16.0247 88.758 16.2331C88.6665 16.5189 88.5726 16.8022 88.4766 17.083C88.3879 17.354 88.2992 17.6249 88.2106 17.8958C88.1433 18.1013 87.9516 18.2403 87.7354 18.2403H87.0164C86.676 18.2403 86.4352 17.9076 86.5424 17.5845C86.8152 16.7631 87.0767 15.9932 87.3268 15.2748C87.6424 14.3682 87.949 13.5099 88.2466 12.6998C88.5532 11.8897 88.8553 11.1182 89.1529 10.3853C89.4091 9.75415 89.672 9.1302 89.9417 8.51339C90.0209 8.33203 90.2004 8.21534 90.3983 8.21534H91.3568C91.5547 8.21534 91.7341 8.33203 91.8134 8.51339C92.083 9.13019 92.3459 9.75415 92.6021 10.3853C92.8997 11.1182 93.1973 11.8897 93.4949 12.6998C93.8015 13.5099 94.1126 14.3682 94.4282 15.2748C94.6855 15.9933 94.9513 16.7632 95.2256 17.5847C95.3334 17.9076 95.0925 18.2403 94.7522 18.2403H93.9683ZM91.2893 11.3065C91.1318 10.8855 90.5533 10.8846 90.394 11.3049C90.3087 11.5302 90.2196 11.7685 90.1268 12.0199C89.9335 12.5617 89.7328 13.1377 89.5247 13.7479C89.4144 14.0714 89.6555 14.4068 89.9973 14.4068H91.6901C92.0319 14.4068 92.273 14.0714 92.1621 13.7481C91.9522 13.1356 91.7472 12.5547 91.5471 12.0054C91.4572 11.7586 91.3712 11.5256 91.2893 11.3065Z" fill="white"/>
<path d="M101.245 18.4573C100.542 18.4573 99.9109 18.3416 99.3518 18.1101C98.7927 17.8787 98.3192 17.5411 97.9315 17.0975C97.5437 16.6442 97.2461 16.0945 97.0387 15.4484C96.8313 14.8022 96.7276 14.0596 96.7276 13.2206C96.7276 12.3816 96.8449 11.639 97.0793 10.9928C97.3228 10.3467 97.6519 9.80179 98.0667 9.35816C98.4816 8.90489 98.9685 8.56253 99.5276 8.33107C100.087 8.09962 100.686 7.98389 101.327 7.98389C101.714 7.98389 102.066 8.01764 102.382 8.08515C102.697 8.14301 102.972 8.21052 103.207 8.28767C103.441 8.36483 103.635 8.4468 103.788 8.5336C103.979 8.64174 104.064 8.86923 103.994 9.07731L103.821 9.59181C103.716 9.90412 103.335 10.0413 103.027 9.9249C102.92 9.88456 102.804 9.84513 102.679 9.80661C102.283 9.67159 101.85 9.60409 101.381 9.60409C100.975 9.60409 100.596 9.68124 100.245 9.83554C99.8928 9.9802 99.5862 10.202 99.3247 10.501C99.0722 10.7999 98.8738 11.1761 98.7295 11.6293C98.5853 12.0826 98.5131 12.6082 98.5131 13.2061C98.5131 13.7366 98.5672 14.2236 98.6754 14.6672C98.7927 15.1108 98.9685 15.4966 99.203 15.8245C99.4374 16.1427 99.735 16.3935 100.096 16.5767C100.456 16.7503 100.889 16.8371 101.394 16.8371C101.998 16.8371 102.49 16.7744 102.869 16.6491C102.982 16.6085 103.089 16.5688 103.187 16.5299C103.483 16.4131 103.836 16.5591 103.93 16.863L104.101 17.418C104.165 17.6239 104.089 17.8487 103.893 17.938C103.851 17.9568 103.808 17.9756 103.761 17.9944C103.581 18.0715 103.365 18.1487 103.112 18.2259C102.86 18.2934 102.576 18.3464 102.26 18.385C101.944 18.4332 101.606 18.4573 101.245 18.4573Z" fill="white"/>
<path d="M112.263 18.2403C112.088 18.2403 111.927 18.1489 111.833 18.0014C111.635 17.6882 111.414 17.3628 111.17 17.0252C110.863 16.6008 110.539 16.191 110.196 15.7956C109.862 15.4001 109.515 15.024 109.154 14.6672C109.052 14.566 108.95 14.4687 108.849 14.3753C108.546 14.0973 108.086 14.3231 108.086 14.7337V17.7403C108.086 18.0165 107.862 18.2403 107.586 18.2403H106.881C106.605 18.2403 106.381 18.0165 106.381 17.7403V8.71534C106.381 8.4392 106.605 8.21534 106.881 8.21534H107.586C107.862 8.21534 108.086 8.4392 108.086 8.71534V11.0858C108.086 11.5394 108.639 11.7568 108.945 11.4216C108.969 11.3945 108.994 11.3673 109.019 11.34C109.344 10.9735 109.664 10.6071 109.979 10.2406C110.304 9.86447 110.611 9.50282 110.899 9.15564C111.128 8.88064 111.339 8.62682 111.534 8.39418C111.629 8.28076 111.769 8.21534 111.917 8.21534H112.676C113.097 8.21534 113.328 8.70269 113.059 9.02576C112.967 9.1354 112.874 9.2462 112.779 9.35816C112.446 9.75357 112.103 10.1538 111.751 10.5588C111.4 10.9542 111.044 11.3497 110.683 11.7451C110.458 11.9977 110.235 12.2425 110.014 12.4794C109.815 12.6931 109.836 13.031 110.052 13.2274C110.297 13.4494 110.543 13.693 110.791 13.9584C111.188 14.3634 111.576 14.8022 111.954 15.2748C112.333 15.7377 112.694 16.2247 113.036 16.7358C113.215 16.9909 113.386 17.246 113.549 17.5011C113.755 17.8254 113.517 18.2403 113.132 18.2403H112.263Z" fill="white"/>
<path d="M36.9998 18.4573C36.3052 18.4573 35.6818 18.3416 35.1296 18.1101C34.5775 17.8787 34.1099 17.5411 33.727 17.0975C33.3441 16.6442 33.0502 16.0945 32.8453 15.4484C32.6405 14.8022 32.5381 14.0596 32.5381 13.2206C32.5381 12.3816 32.6539 11.639 32.8854 10.9928C33.1259 10.3467 33.4509 9.80179 33.8606 9.35816C34.2702 8.90489 34.7512 8.56253 35.3033 8.33107C35.8555 8.09962 36.4477 7.98389 37.08 7.98389C37.4629 7.98389 37.8103 8.01764 38.122 8.08515C38.4337 8.14301 38.7053 8.21052 38.9368 8.28767C39.1684 8.36483 39.3599 8.4468 39.5113 8.5336C39.7003 8.64198 39.7834 8.86762 39.7148 9.07445L39.5455 9.58486C39.4412 9.89944 39.0565 10.0378 38.7466 9.92028C38.6445 9.88155 38.5343 9.84366 38.4159 9.80661C38.024 9.67159 37.5965 9.60409 37.1334 9.60409C36.7327 9.60409 36.3586 9.68124 36.0113 9.83554C35.664 9.9802 35.3612 10.202 35.1029 10.501C34.8536 10.7999 34.6576 11.1761 34.5152 11.6293C34.3727 12.0826 34.3014 12.6082 34.3014 13.2061C34.3014 13.7366 34.3549 14.2236 34.4617 14.6672C34.5775 15.1108 34.7512 15.4966 34.9827 15.8245C35.2143 16.1427 35.5081 16.3935 35.8644 16.5767C36.2206 16.7503 36.6481 16.8371 37.1468 16.8371C37.7435 16.8371 38.2288 16.7744 38.6029 16.6491C38.711 16.61 38.8121 16.5718 38.9061 16.5344C39.2032 16.4161 39.5596 16.5631 39.6529 16.869L39.8211 17.421C39.8835 17.6255 39.8085 17.8485 39.6143 17.9379C39.5734 17.9567 39.5302 17.9756 39.4845 17.9944C39.3064 18.0715 39.0927 18.1487 38.8433 18.2259C38.594 18.2934 38.3134 18.3464 38.0017 18.385C37.69 18.4332 37.3561 18.4573 36.9998 18.4573Z" fill="white"/>
<path d="M43.2131 13.2206C43.2131 13.7703 43.2755 14.2718 43.4002 14.7251C43.5248 15.1687 43.703 15.5496 43.9345 15.8679C44.175 16.1765 44.4644 16.4176 44.8028 16.5912C45.1412 16.7648 45.5242 16.8516 45.9516 16.8516C46.3702 16.8516 46.7487 16.7648 47.0871 16.5912C47.4255 16.4176 47.7105 16.1765 47.9421 15.8679C48.1825 15.5496 48.3651 15.1687 48.4898 14.7251C48.6145 14.2718 48.6768 13.7703 48.6768 13.2206C48.6768 12.6709 48.6145 12.1742 48.4898 11.7306C48.3651 11.2773 48.1825 10.8964 47.9421 10.5878C47.7105 10.2695 47.4255 10.0236 47.0871 9.85001C46.7487 9.67641 46.3702 9.58962 45.9516 9.58962C45.5242 9.58962 45.1412 9.67641 44.8028 9.85001C44.4644 10.0236 44.175 10.2695 43.9345 10.5878C43.703 10.906 43.5248 11.287 43.4002 11.7306C43.2755 12.1742 43.2131 12.6709 43.2131 13.2206ZM50.4401 13.2206C50.4401 14.0789 50.3199 14.836 50.0794 15.4918C49.8479 16.1476 49.5273 16.6973 49.1176 17.1409C48.7169 17.5749 48.2449 17.9028 47.7016 18.1246C47.1584 18.3464 46.5795 18.4573 45.965 18.4573C45.3505 18.4573 44.7672 18.3464 44.215 18.1246C43.6718 17.9028 43.1953 17.5749 42.7857 17.1409C42.3849 16.6973 42.0643 16.1476 41.8239 15.4918C41.5834 14.836 41.4632 14.0789 41.4632 13.2206C41.4632 12.3623 41.5834 11.61 41.8239 10.9639C42.0643 10.3081 42.3894 9.75839 42.799 9.31476C43.2176 8.87114 43.6985 8.53842 44.2418 8.31661C44.785 8.09479 45.3594 7.98389 45.965 7.98389C46.5706 7.98389 47.145 8.09479 47.6883 8.31661C48.2315 8.53842 48.7035 8.87114 49.1043 9.31476C49.5139 9.75839 49.839 10.3081 50.0794 10.9639C50.3199 11.61 50.4401 12.3623 50.4401 13.2206Z" fill="white"/>
<path d="M58.3056 16.6635C58.5818 16.6635 58.8056 16.8874 58.8056 17.1635V17.7403C58.8056 18.0165 58.5818 18.2403 58.3056 18.2403H53.4546C53.1784 18.2403 52.9546 18.0165 52.9546 17.7403V8.71534C52.9546 8.4392 53.1784 8.21534 53.4546 8.21534H54.1377C54.4139 8.21534 54.6377 8.4392 54.6377 8.71534V16.1635C54.6377 16.4397 54.8616 16.6635 55.1377 16.6635H58.3056Z" fill="white"/>
<path d="M62.4415 16.3474C62.4415 16.5678 62.6089 16.7515 62.8289 16.7648C62.9892 16.7648 63.2074 16.7648 63.4835 16.7648C64.6145 16.7648 65.4561 16.4562 66.0083 15.839C66.5693 15.2121 66.8499 14.3393 66.8499 13.2206C66.8499 12.0826 66.5782 11.2098 66.035 10.6022C65.4917 9.99467 64.6502 9.69088 63.5102 9.69088C63.2646 9.69088 63.0535 9.69439 62.877 9.70141C62.6269 9.71136 62.4415 9.92094 62.4415 10.1712V16.3474ZM68.6132 13.2206C68.6132 14.0886 68.4885 14.8456 68.2392 15.4918C67.9898 16.1283 67.6336 16.6635 67.1705 17.0975C66.7163 17.5218 66.1641 17.8401 65.514 18.0523C64.8728 18.2548 64.1603 18.356 63.3766 18.356C63.0026 18.356 62.5796 18.3368 62.1076 18.2982C61.7741 18.2777 61.4517 18.238 61.1404 18.1791C60.9146 18.1363 60.7584 17.9343 60.7584 17.7046V8.75109C60.7584 8.52133 60.9146 8.31935 61.1404 8.2768C61.4539 8.21772 61.7807 8.17795 62.1209 8.15748C62.6018 8.12855 63.0293 8.11408 63.4034 8.11408C64.1782 8.11408 64.8862 8.21534 65.5274 8.41787C66.1686 8.61075 66.7163 8.91936 67.1705 9.3437C67.6336 9.75839 67.9898 10.2888 68.2392 10.935C68.4885 11.5715 68.6132 12.3333 68.6132 13.2206Z" fill="white"/>
<path d="M12.3408 7.37747L15.0327 8.85044V8.85042L17.7245 10.3233L20.2541 8.93913V7.03352C20.2541 6.86377 20.3994 6.72612 20.5785 6.72612C20.7576 6.72612 20.9029 6.86377 20.9029 7.03352V8.58416L23.2703 7.28871C23.425 7.20383 23.623 7.25384 23.7125 7.40038C23.8021 7.54694 23.7493 7.7346 23.5947 7.81948L21.2257 9.11578L22.6434 9.89153C22.798 9.97638 22.8508 10.1641 22.7612 10.3106C22.6717 10.4572 22.4737 10.5072 22.319 10.4223L20.5785 9.46991L18.0489 10.8541V16.7482L20.5779 18.1321L22.319 17.1794C22.4737 17.0945 22.6717 17.1445 22.7612 17.291C22.8508 17.4376 22.798 17.6253 22.6434 17.7101L21.2251 18.4862L23.5935 19.7822C23.7481 19.8664 23.8014 20.0535 23.7126 20.2001C23.6237 20.3466 23.4263 20.3972 23.2717 20.3129L20.9029 19.0168V20.5681C20.9029 20.7379 20.7576 20.8755 20.5785 20.8755C20.3994 20.8755 20.2541 20.7379 20.2541 20.5681V18.6618L17.7251 17.278L12.3408 20.2242V22.995L14.0801 23.9466C14.2347 24.0308 14.288 24.218 14.1992 24.3645C14.1103 24.5111 13.9129 24.5616 13.7583 24.4774L12.3408 23.7018V26.2943C12.3408 26.464 12.1956 26.6017 12.0165 26.6017C11.8374 26.6017 11.6921 26.464 11.6921 26.2943V23.7018L10.2747 24.4774C10.1201 24.5616 9.9226 24.5111 9.83376 24.3645C9.74492 24.218 9.79822 24.0308 9.95286 23.9466L11.6921 22.995V20.2242L6.30779 17.278L3.77746 18.6625L3.77749 20.5681C3.77749 20.7372 3.6328 20.8743 3.45438 20.8743C3.27595 20.8743 3.13129 20.7372 3.13129 20.5681L3.13126 19.0161L0.761261 20.3129C0.606621 20.3972 0.409183 20.3466 0.320318 20.2001C0.23148 20.0535 0.28481 19.8664 0.439423 19.7822L2.80782 18.4862L1.3895 17.7101C1.23488 17.6253 1.18211 17.4376 1.27167 17.291C1.36123 17.1445 1.55925 17.0945 1.71389 17.1794L3.45502 18.1321L5.98407 16.7482V10.8534L3.45502 9.46954L1.71389 10.4223C1.55925 10.5072 1.36123 10.4572 1.27167 10.3106C1.18211 10.1641 1.23488 9.97638 1.3895 9.89153L2.80785 9.11544L0.439423 7.81948C0.28481 7.73529 0.23148 7.54815 0.320318 7.40159C0.409183 7.25505 0.606621 7.20451 0.761261 7.28871L3.13002 8.58485V7.03352C3.13002 6.86377 3.27526 6.72612 3.45438 6.72612C3.63352 6.72612 3.77877 6.86377 3.77877 7.03352V8.93984L6.30779 10.3237L9.52503 8.56326L11.6921 7.37747V4.60671L9.95284 3.65505C9.79819 3.57083 9.74489 3.38369 9.83373 3.23715C9.9226 3.09059 10.12 3.04005 10.2747 3.12427L11.6921 3.89984V1.3074C11.6921 1.13765 11.8373 1 12.0164 1C12.1956 1 12.3408 1.13765 12.3408 1.3074V3.89984L13.7582 3.12427C13.9129 3.04005 14.1103 3.09059 14.1992 3.23715C14.288 3.38369 14.2347 3.57083 14.08 3.65505L12.3408 4.60671V7.37747ZM17.4002 13.2913L12.1819 16.1467C12.0844 16.2015 11.9593 16.2061 11.8543 16.1485L6.63279 13.2913V14.6653L12.0165 17.6112L17.4002 14.6653V13.2913ZM6.63279 12.5831L12.0165 15.529L17.4002 12.5831V11.2091L15.0327 12.5045L15.0147 12.5137L12.1773 14.0662C12.0738 14.1226 11.9511 14.1185 11.8546 14.0657L11.8543 14.0662L6.63279 11.2091V12.5831ZM17.4002 15.3736L12.1819 18.2289C12.0844 18.2837 11.9593 18.2883 11.8543 18.2307L6.63279 15.3736V16.7475L12.0165 19.6934L17.4002 16.7475V15.3736ZM6.95562 10.6775L12.0171 13.4471L14.6917 11.9836L14.7083 11.9738L17.0773 10.6775L14.7083 9.38119L12.0165 7.90825L6.95562 10.6775Z" fill="white" stroke="white" stroke-width="0.3"/>
</svg>
