<svg width="86" height="21" viewBox="0 0 86 21" fill="none" xmlns="http://www.w3.org/2000/svg">
<mask id="mask0" mask-type="alpha" maskUnits="userSpaceOnUse" x="0" y="0" width="21" height="21">
<path fill-rule="evenodd" clip-rule="evenodd" d="M0 0H21V21H0V0Z" fill="#FB923C"/>
</mask>
<g mask="url(#mask0)">
<path fill-rule="evenodd" clip-rule="evenodd" d="M10.5 20.9995C4.725 20.9995 0 16.2745 0 10.447C0.0525 4.67196 4.725 -0.0530433 10.5525 -0.00054325C16.3275 0.0519568 21 4.72446 21 10.6045C20.9475 16.327 16.275 20.9995 10.5 20.9995Z" fill="#0090FF"/>
<path fill-rule="evenodd" clip-rule="evenodd" d="M11.4975 9.23982L11.1825 10.9198L14.175 11.3398L13.965 12.1273L11.025 11.7073C10.815 12.3898 10.71 13.1248 10.4475 13.7548C10.185 14.4898 9.92246 15.2248 9.60746 15.9073C9.18746 16.7998 8.45246 17.4298 7.45496 17.5873C6.87746 17.6923 6.24746 17.6398 5.77496 17.2723C5.61746 17.1673 5.45996 16.9573 5.45996 16.7998C5.45996 16.5898 5.56496 16.3273 5.72246 16.2223C5.82746 16.1698 6.08996 16.2223 6.24746 16.2748C6.40496 16.4323 6.56246 16.6423 6.66746 16.8523C6.98246 17.2723 7.40246 17.3248 7.82246 17.0098C8.29496 16.5898 8.55746 16.0123 8.71496 15.4348C9.02996 14.1748 9.34496 12.9673 9.60746 11.7073V11.4973L6.82496 11.0773L6.92996 10.2898L9.81746 10.7098L10.185 9.08232L7.19246 8.60982L7.29746 7.76982L10.395 8.18982C10.5 7.87482 10.5525 7.61232 10.6575 7.34982C10.92 6.40482 11.1825 5.45982 11.8125 4.61982C12.4425 3.77982 13.1775 3.25482 14.28 3.30732C14.7525 3.30732 15.225 3.46482 15.54 3.83232C15.5925 3.88482 15.6975 3.98982 15.6975 4.09482C15.6975 4.30482 15.6975 4.56732 15.54 4.72482C15.33 4.88232 15.0675 4.82982 14.8575 4.61982C14.7 4.46232 14.595 4.30482 14.4375 4.14732C14.1225 3.72732 13.65 3.67482 13.2825 4.04232C13.02 4.30482 12.7575 4.67232 12.6 5.03982C12.2325 6.14232 11.97 7.29732 11.6025 8.45232L14.49 8.87232L14.28 9.65982L11.4975 9.23982Z" fill="white"/>
</g>
<path d="M30.0086 6.87681V9.87824H34.5657V11.3397H30.0086V15.8025H28.3271V5.4311H35.8229V6.87681H30.0086Z" fill="#18181B"/>
<path d="M38.5466 6.62538C38.1904 6.62538 37.9128 6.53633 37.7137 6.35824C37.5147 6.16967 37.4152 5.90776 37.4152 5.57252C37.4152 5.23729 37.5147 4.98062 37.7137 4.80252C37.9128 4.62443 38.1904 4.53538 38.5466 4.53538C38.9028 4.53538 39.1752 4.62443 39.3637 4.80252C39.5628 4.98062 39.6623 5.23729 39.6623 5.57252C39.6623 5.90776 39.5628 6.16967 39.3637 6.35824C39.1752 6.53633 38.9028 6.62538 38.5466 6.62538ZM39.3794 15.8025H37.698V7.94538H39.3794V15.8025Z" fill="#18181B"/>
<path d="M43.6445 13.5082C43.6445 13.8959 43.7021 14.1682 43.8174 14.3254C43.9326 14.472 44.1474 14.5454 44.4617 14.5454C44.6607 14.5454 44.8283 14.5349 44.9645 14.514C45.1112 14.4825 45.2893 14.4249 45.4988 14.3411L45.3102 15.6925C44.9541 15.8706 44.5193 15.9597 44.006 15.9597C43.3041 15.9597 42.7855 15.7816 42.4502 15.4254C42.1255 15.0692 41.9631 14.5087 41.9631 13.744V4.40967H43.6445V13.5082Z" fill="#18181B"/>
<path d="M53.9299 11.6382C53.9299 11.942 53.9089 12.2301 53.867 12.5025H48.1156C48.2099 13.194 48.4561 13.723 48.8542 14.0897C49.2523 14.4459 49.7656 14.624 50.3942 14.624C50.9075 14.624 51.3318 14.5349 51.667 14.3568C52.0128 14.1682 52.2485 13.9011 52.3742 13.5554L53.7728 14.1368C53.1861 15.352 52.0599 15.9597 50.3942 15.9597C49.158 15.9597 48.1889 15.5982 47.487 14.8754C46.7956 14.1525 46.4499 13.152 46.4499 11.874C46.4499 10.5854 46.7851 9.58491 47.4556 8.87252C48.1261 8.14967 49.0689 7.78824 50.2842 7.78824C51.4366 7.78824 52.3323 8.13919 52.9713 8.8411C53.6104 9.543 53.9299 10.4754 53.9299 11.6382ZM50.2842 9.12395C49.6766 9.12395 49.1842 9.30205 48.807 9.65824C48.4404 10.0144 48.2099 10.533 48.1156 11.214H52.3585C52.2747 10.554 52.0494 10.0406 51.6828 9.67395C51.3266 9.30729 50.8604 9.12395 50.2842 9.12395Z" fill="#18181B"/>
<path d="M59.4936 7.78824C61.2117 7.78824 62.3484 8.52157 62.9036 9.98824L61.3322 10.6168C61.0598 9.62157 60.4469 9.12395 59.4936 9.12395C58.7917 9.12395 58.2469 9.3649 57.8593 9.84681C57.4717 10.3287 57.2779 11.0097 57.2779 11.8897C57.2779 12.7697 57.4717 13.4454 57.8593 13.9168C58.2469 14.3882 58.7917 14.624 59.4936 14.624C60.0279 14.624 60.4574 14.493 60.7822 14.2311C61.1069 13.9692 61.3217 13.592 61.4265 13.0997L62.9665 13.6182C62.736 14.3516 62.3274 14.9278 61.7408 15.3468C61.1541 15.7554 60.4155 15.9597 59.525 15.9597C58.2889 15.9597 57.3198 15.5982 56.6179 14.8754C55.9265 14.1525 55.5808 13.152 55.5808 11.874C55.5808 10.5959 55.9265 9.59538 56.6179 8.87252C57.3093 8.14967 58.2679 7.78824 59.4936 7.78824Z" fill="#18181B"/>
<path d="M68.3943 7.78824C69.62 7.78824 70.5786 8.14967 71.27 8.87252C71.9614 9.59538 72.3071 10.5959 72.3071 11.874C72.3071 13.152 71.9614 14.1525 71.27 14.8754C70.5786 15.5982 69.62 15.9597 68.3943 15.9597C67.1686 15.9597 66.21 15.5982 65.5186 14.8754C64.8271 14.1525 64.4814 13.152 64.4814 11.874C64.4814 10.5959 64.8271 9.59538 65.5186 8.87252C66.21 8.14967 67.1686 7.78824 68.3943 7.78824ZM68.3943 9.10824C67.6819 9.10824 67.1319 9.34919 66.7443 9.8311C66.3671 10.3025 66.1786 10.9835 66.1786 11.874C66.1786 12.7644 66.3671 13.4506 66.7443 13.9325C67.1319 14.404 67.6819 14.6397 68.3943 14.6397C69.1067 14.6397 69.6567 14.3987 70.0443 13.9168C70.4319 13.4349 70.6257 12.754 70.6257 11.874C70.6257 10.994 70.4319 10.313 70.0443 9.8311C69.6567 9.34919 69.1067 9.10824 68.3943 9.10824Z" fill="#18181B"/>
<path d="M75.3156 6.62538C74.9594 6.62538 74.6818 6.53633 74.4827 6.35824C74.2837 6.16967 74.1841 5.90776 74.1841 5.57252C74.1841 5.23729 74.2837 4.98062 74.4827 4.80252C74.6818 4.62443 74.9594 4.53538 75.3156 4.53538C75.6718 4.53538 75.9441 4.62443 76.1327 4.80252C76.3318 4.98062 76.4313 5.23729 76.4313 5.57252C76.4313 5.90776 76.3318 6.16967 76.1327 6.35824C75.9441 6.53633 75.6718 6.62538 75.3156 6.62538ZM76.1484 15.8025H74.467V7.94538H76.1484V15.8025Z" fill="#18181B"/>
<path d="M83.0064 7.78824C83.8759 7.78824 84.583 8.03967 85.1278 8.54252C85.683 9.04538 85.9606 9.76824 85.9606 10.7111V15.8025H84.2792V11.2454C84.2792 9.86252 83.7187 9.17109 82.5978 9.17109C82.0111 9.17109 81.5083 9.37538 81.0892 9.78395C80.6702 10.182 80.4606 10.8001 80.4606 11.6382V15.8025H78.7792V7.94538H80.2721L80.3507 9.24967C80.6126 8.75729 80.974 8.39062 81.4349 8.14967C81.8959 7.90872 82.4197 7.78824 83.0064 7.78824Z" fill="#18181B"/>
</svg>
