<svg width="20" height="20" viewBox="0 0 20 20" fill="none" xmlns="http://www.w3.org/2000/svg">
<mask id="mask0" mask-type="alpha" maskUnits="userSpaceOnUse" x="0" y="0" width="20" height="20">
<path fill-rule="evenodd" clip-rule="evenodd" d="M0 0H20V20H0V0Z" fill="white"/>
</mask>
<g mask="url(#mask0)">
<path fill-rule="evenodd" clip-rule="evenodd" d="M10 19.9994C4.5 19.9994 0 15.4994 0 9.94944C0.05 4.44944 4.5 -0.0505639 10.05 -0.000563884C15.55 0.0494361 20 4.49944 20 10.0994C19.95 15.5494 15.5 19.9994 10 19.9994Z" fill="#0090FF"/>
<path fill-rule="evenodd" clip-rule="evenodd" d="M10.9502 8.79992L10.6502 10.3999L13.5002 10.7999L13.3002 11.5499L10.5002 11.1499C10.3002 11.7999 10.2002 12.4999 9.9502 13.0999C9.7002 13.7999 9.4502 14.4999 9.1502 15.1499C8.7502 15.9999 8.0502 16.5999 7.1002 16.7499C6.5502 16.8499 5.9502 16.7999 5.5002 16.4499C5.3502 16.3499 5.2002 16.1499 5.2002 15.9999C5.2002 15.7999 5.3002 15.5499 5.4502 15.4499C5.5502 15.3999 5.8002 15.4499 5.9502 15.4999C6.1002 15.6499 6.2502 15.8499 6.3502 16.0499C6.6502 16.4499 7.0502 16.4999 7.4502 16.1999C7.9002 15.7999 8.1502 15.2499 8.3002 14.6999C8.6002 13.4999 8.9002 12.3499 9.1502 11.1499V10.9499L6.5002 10.5499L6.6002 9.79992L9.3502 10.1999L9.7002 8.64992L6.8502 8.19992L6.9502 7.39992L9.9002 7.79992C10.0002 7.49992 10.0502 7.24992 10.1502 6.99992C10.4002 6.09992 10.6502 5.19992 11.2502 4.39992C11.8502 3.59992 12.5502 3.09992 13.6002 3.14992C14.0502 3.14992 14.5002 3.29992 14.8002 3.64992C14.8502 3.69992 14.9502 3.79992 14.9502 3.89992C14.9502 4.09992 14.9502 4.34992 14.8002 4.49992C14.6002 4.64992 14.3502 4.59992 14.1502 4.39992C14.0002 4.24992 13.9002 4.09992 13.7502 3.94992C13.4502 3.54992 13.0002 3.49992 12.6502 3.84992C12.4002 4.09992 12.1502 4.44992 12.0002 4.79992C11.6502 5.84992 11.4002 6.94992 11.0502 8.04992L13.8002 8.44992L13.6002 9.19992L10.9502 8.79992Z" fill="white"/>
</g>
</svg>
