<svg width="115" height="18" viewBox="0 0 115 18" fill="none" xmlns="http://www.w3.org/2000/svg">
<g clip-path="url(#clip0)">
<path d="M13.5149 4.7202H14.1644L16.0156 2.86892L16.1064 2.08264C12.6608 -0.958924 7.40237 -0.630348 4.36082 2.81523C3.51573 3.77155 2.90333 4.9107 2.56836 6.14318C2.7742 6.0588 3.00305 6.04473 3.21784 6.10482L6.92037 5.4937C6.92037 5.4937 7.10831 5.18174 7.20676 5.20092C8.85347 3.39183 11.6253 3.18088 13.5277 4.7202H13.5149Z" fill="#EA4335"/>
<path d="M18.6537 6.14318C18.228 4.57574 17.3547 3.16683 16.1402 2.09033L13.5423 4.68824C14.6392 5.58447 15.2644 6.93585 15.2375 8.35242V8.81396C16.5148 8.81396 17.5503 9.84955 17.5503 11.1268C17.5503 12.404 16.5148 13.4396 15.2375 13.4396H10.6119L10.1504 13.9075V16.6819L10.6119 17.1434H15.2375C18.5591 17.169 21.2733 14.4969 21.2989 11.1754C21.3143 9.15788 20.3209 7.27081 18.6537 6.14318Z" fill="#4285F4"/>
<path d="M5.97957 17.1141H10.6052V13.4115H5.97957C5.64972 13.4115 5.32498 13.3399 5.02453 13.2031L4.37506 13.4051L2.511 15.2564L2.34863 15.9059C3.39317 16.696 4.66911 17.1205 5.97957 17.1141Z" fill="#34A853"/>
<path d="M5.97965 5.10357C2.65683 5.12274 -0.0190751 7.83189 0.000102439 11.1547C0.0116089 13.0098 0.877153 14.7563 2.34871 15.8865L5.031 13.2042C3.86756 12.6787 3.34977 11.3081 3.87524 10.1447C4.4007 8.98127 5.77125 8.46347 6.93469 8.98894C7.44736 9.22035 7.85776 9.63202 8.09045 10.1447L10.7727 7.4624C9.63232 5.96911 7.85776 5.09589 5.97965 5.10357Z" fill="#FBBC05"/>
<path d="M33.6135 14.5287C32.0038 14.5492 30.4569 13.9137 29.3267 12.7682C28.1594 11.6713 27.5074 10.1345 27.5278 8.53254C27.5086 6.93058 28.1607 5.3951 29.3267 4.29687C30.4517 3.13983 32 2.49163 33.6135 2.50442C35.1502 2.48396 36.632 3.08102 37.7251 4.16135L36.5694 5.33757C35.778 4.57175 34.7143 4.1524 33.6135 4.16774C32.459 4.15368 31.3505 4.62545 30.5604 5.4667C29.7396 6.2811 29.287 7.39596 29.3062 8.55172C29.296 9.6947 29.7486 10.7929 30.5604 11.5984C32.2327 13.2655 34.929 13.2975 36.641 11.67C37.1511 11.1126 37.463 10.4017 37.5308 9.64995H33.6326V7.9879H39.1481C39.2018 8.32287 39.2235 8.66167 39.2133 9.00175C39.2823 10.4196 38.7684 11.8042 37.7903 12.8347C36.7023 13.9662 35.1835 14.5824 33.6135 14.5287ZM46.4368 13.4241C44.8988 14.8982 42.4722 14.8982 40.9342 13.4241C40.1888 12.7017 39.7822 11.7007 39.8104 10.6638C39.7822 9.62694 40.1901 8.62587 40.9342 7.90352C42.4735 6.43325 44.8975 6.43325 46.4368 7.90352C47.1809 8.62587 47.5888 9.62694 47.5606 10.6638C47.5875 11.7019 47.1771 12.703 46.4304 13.4241H46.4368ZM42.1487 12.3399C42.9427 13.1888 44.2749 13.2323 45.1238 12.4371C45.157 12.4051 45.1903 12.3732 45.221 12.3399C45.6544 11.8912 45.8884 11.2877 45.8705 10.6638C45.8896 10.0386 45.6557 9.43133 45.221 8.9813C44.404 8.12981 43.0514 8.10041 42.1986 8.91737C42.1769 8.93783 42.1551 8.95956 42.1347 8.9813C41.7 9.43133 41.466 10.0386 41.4852 10.6638C41.4686 11.2877 41.7051 11.8924 42.1411 12.3399H42.1487ZM54.8941 13.4241C53.3561 14.8982 50.9295 14.8982 49.3914 13.4241C48.6461 12.7017 48.2395 11.7007 48.2676 10.6638C48.2395 9.62694 48.6474 8.62587 49.3914 7.90352C50.9295 6.42941 53.3561 6.42941 54.8941 7.90352C55.6382 8.62587 56.046 9.62694 56.0179 10.6638C56.0473 11.7007 55.6395 12.7017 54.8941 13.4241ZM50.6073 12.3399C51.4012 13.1888 52.7334 13.2323 53.5824 12.4371C53.6156 12.4051 53.6488 12.3732 53.6795 12.3399C54.1129 11.8912 54.3469 11.2877 54.329 10.6638C54.3482 10.0386 54.1142 9.43133 53.6795 8.9813C52.8626 8.12981 51.5099 8.10041 50.6584 8.91737C50.6367 8.93783 50.615 8.95956 50.5945 8.9813C50.1598 9.43133 49.9259 10.0386 49.945 10.6638C49.9284 11.2877 50.1649 11.8924 50.6009 12.3399H50.6073ZM60.4543 17.9973C59.6757 18.0216 58.9124 17.7787 58.2911 17.3082C57.74 16.8939 57.3054 16.3429 57.0305 15.71L58.511 15.0925C58.6721 15.471 58.9239 15.8034 59.2448 16.0603C59.5875 16.3365 60.0183 16.4823 60.4594 16.4695C61.0245 16.504 61.5768 16.2905 61.9732 15.8852C62.3644 15.4134 62.5574 14.8074 62.5127 14.1963V13.6376H62.4539C61.9514 14.2334 61.1984 14.5581 60.4211 14.5146C59.4353 14.5172 58.4931 14.1081 57.8232 13.3844C57.097 12.6672 56.6955 11.684 56.7121 10.6625C56.6942 9.63589 57.0957 8.64633 57.8232 7.92142C58.4918 7.19523 59.4341 6.78228 60.4211 6.78483C60.834 6.78355 61.2431 6.87561 61.6165 7.05076C61.9399 7.1914 62.2276 7.40235 62.4615 7.66828H62.5204V7.05076H64.1313V13.9687C64.2169 15.0746 63.8436 16.1677 63.0982 16.9898C62.3887 17.6687 61.4362 18.0318 60.4543 17.9973ZM60.5719 13.0086C61.1332 13.0214 61.6714 12.7823 62.0396 12.3591C62.4398 11.9001 62.6521 11.3056 62.6303 10.6958C62.6546 10.0757 62.4436 9.47096 62.0396 9.00047C61.6714 8.57601 61.1332 8.33821 60.5719 8.351C59.9953 8.33949 59.4417 8.57601 59.0518 9.00047C58.6222 9.45434 58.3882 10.0591 58.4023 10.683C58.3895 11.3018 58.6222 11.9001 59.0518 12.3463C59.4392 12.7746 59.9928 13.0162 60.5719 13.0086ZM66.9964 2.94038V14.2947H65.3011V2.94038H66.9964ZM71.6476 14.5287C70.6209 14.5556 69.6301 14.1528 68.9129 13.4177C68.1854 12.6889 67.7878 11.693 67.8146 10.6638C67.7763 9.63205 68.1585 8.62843 68.8732 7.88306C69.5483 7.17222 70.4918 6.77844 71.4711 6.79762C71.9173 6.7925 72.3584 6.87944 72.7701 7.05076C73.1409 7.20035 73.4784 7.42153 73.7635 7.70024C74.009 7.93676 74.2263 8.20013 74.413 8.48652C74.5638 8.72815 74.6917 8.98257 74.7965 9.24595L74.9717 9.68831L69.7758 11.826C70.098 12.5649 70.8408 13.0303 71.6463 12.9958C72.4249 12.9983 73.1473 12.5905 73.55 11.9244L74.8489 12.8015C74.5178 13.2758 74.0933 13.6785 73.6011 13.9841C73.0181 14.3523 72.338 14.5415 71.6476 14.5287ZM69.478 10.5462L72.9337 9.11042C72.8276 8.85728 72.6371 8.64889 72.3942 8.51976C72.1232 8.36634 71.8163 8.28835 71.5044 8.29218C70.9764 8.30625 70.4739 8.52743 70.1083 8.9097C69.6646 9.33416 69.4332 9.93378 69.478 10.5462Z" fill="#5F6368"/>
<path d="M83.8533 14.529C80.8972 14.5801 78.4602 12.2251 78.409 9.26924C78.4078 9.19765 78.4078 9.12477 78.4103 9.05317C78.3413 6.09728 80.6824 3.6464 83.6372 3.57736C83.7088 3.57608 83.7817 3.57608 83.8533 3.57608C85.3314 3.53006 86.7506 4.16163 87.7057 5.29055L86.7698 6.19956C86.0678 5.31612 84.9861 4.82134 83.8597 4.86737C82.7793 4.84308 81.7347 5.26115 80.9688 6.02313C80.1722 6.82475 79.7465 7.9217 79.7925 9.05062C79.7452 10.1795 80.1722 11.2765 80.9688 12.0781C81.7347 12.8414 82.7793 13.2582 83.8597 13.2339C85.1178 13.2479 86.3133 12.688 87.1073 11.7137L88.0433 12.6496C87.5536 13.2351 86.9386 13.7031 86.2443 14.0201C85.495 14.3679 84.678 14.5418 83.8533 14.529Z" fill="#5F6368"/>
<path d="M90.5569 14.2951H89.2119V3.80371H90.5569V14.2951Z" fill="#5F6368"/>
<path d="M92.7531 7.98035C94.2194 6.52413 96.5872 6.52413 98.0535 7.98035C98.749 8.71549 99.1236 9.69739 99.0929 10.7087C99.1236 11.72 98.749 12.7019 98.0535 13.437C96.5872 14.8933 94.2194 14.8933 92.7531 13.437C92.0576 12.7019 91.683 11.72 91.7137 10.7087C91.683 9.69739 92.0563 8.71549 92.7531 7.98035ZM93.7528 12.5932C94.6132 13.5022 96.0476 13.5419 96.9579 12.6814C96.9886 12.6533 97.018 12.6226 97.0461 12.5932C97.5204 12.0844 97.771 11.4055 97.7416 10.71C97.7723 10.0145 97.5217 9.33557 97.0461 8.82672C96.1857 7.9177 94.7513 7.87807 93.841 8.73851C93.8103 8.76663 93.7809 8.79732 93.7528 8.82672C93.2785 9.33557 93.0279 10.0145 93.0573 10.71C93.0305 11.4042 93.2836 12.0805 93.7592 12.5868L93.7528 12.5932Z" fill="#5F6368"/>
<path d="M106.543 14.2951H105.244V13.3017H105.206C104.974 13.6789 104.647 13.9883 104.257 14.198C103.853 14.4319 103.392 14.5559 102.924 14.5547C102.155 14.6071 101.404 14.3054 100.885 13.7364C100.393 13.1138 100.146 12.3326 100.189 11.5412V7.12402H101.535V11.2945C101.535 12.6331 102.125 13.3017 103.308 13.3017C103.841 13.3184 104.349 13.0767 104.672 12.6523C105.021 12.2112 105.207 11.6627 105.199 11.1002V7.12402H106.544V14.2951H106.543Z" fill="#5F6368"/>
<path d="M111.11 14.5291C110.187 14.5317 109.308 14.1315 108.706 13.4309C108.032 12.6868 107.672 11.7126 107.699 10.7089C107.672 9.7053 108.032 8.73108 108.706 7.98699C109.308 7.28764 110.187 6.88619 111.11 6.88875C111.621 6.88108 112.126 7.00126 112.577 7.23906C112.975 7.43851 113.311 7.74151 113.552 8.11612H113.61L113.552 7.12271V3.80371H114.897V14.2951H113.598V13.3017H113.539C113.298 13.6763 112.962 13.9793 112.565 14.1788C112.117 14.414 111.617 14.5355 111.11 14.5291ZM111.331 13.3017C111.946 13.3107 112.535 13.055 112.948 12.5998C113.405 12.0795 113.639 11.4006 113.598 10.7089C113.639 10.0185 113.405 9.33837 112.948 8.81802C112.133 7.9205 110.744 7.8553 109.847 8.67227C109.795 8.71829 109.747 8.76815 109.701 8.81802C109.243 9.33453 109.009 10.0121 109.051 10.7013C109.009 11.3904 109.243 12.068 109.701 12.5845C110.115 13.0499 110.71 13.3107 111.331 13.3017Z" fill="#5F6368"/>
</g>
<defs>
<clipPath id="clip0">
<rect width="114.896" height="18" fill="white"/>
</clipPath>
</defs>
</svg>
