<svg width="20" height="16" viewBox="0 0 20 16" fill="none" xmlns="http://www.w3.org/2000/svg">
<path d="M12.6137 4.4053H13.2199L14.9477 2.67753L15.0324 1.9437C11.8167 -0.89495 6.90899 -0.588295 4.07034 2.62741C3.28163 3.51993 2.71008 4.58308 2.39746 5.73334C2.58957 5.65459 2.80315 5.64146 3.00361 5.69754L6.45915 5.12719C6.45915 5.12719 6.63456 4.83604 6.72643 4.85394C8.26329 3.16555 10.8502 2.96867 12.6257 4.4053H12.6137Z" fill="#EA4335"/>
<path d="M17.4092 5.73365C17.0119 4.27078 16.1969 2.95586 15.0633 1.95117L12.6387 4.37578C13.6625 5.21222 14.246 6.47344 14.2209 7.79552V8.22627C15.413 8.22627 16.3795 9.19277 16.3795 10.3848C16.3795 11.5768 15.413 12.5433 14.2209 12.5433H9.90389L9.47314 12.98V15.5693L9.90389 16H14.2209C17.3209 16.0239 19.8541 13.5301 19.878 10.4301C19.8923 8.54725 18.9651 6.78607 17.4092 5.73365Z" fill="#4285F4"/>
<path d="M5.58062 15.9723H9.89766V12.5168H5.58062C5.27277 12.5168 4.96969 12.4499 4.68929 12.3223L4.08314 12.5108L2.34343 14.2386L2.19189 14.8447C3.16675 15.5821 4.35757 15.9783 5.58062 15.9723Z" fill="#34A853"/>
<path d="M5.58075 4.76323C2.47959 4.78113 -0.0178026 7.30954 9.56055e-05 10.4107C0.0108345 12.1421 0.818639 13.772 2.19203 14.8268L4.69538 12.3234C3.60956 11.833 3.12631 10.5539 3.61672 9.46806C4.10713 8.38224 5.38625 7.89899 6.47208 8.3894C6.95055 8.60537 7.33357 8.98959 7.55074 9.46806L10.0541 6.96471C8.98975 5.57103 7.33357 4.75607 5.58075 4.76323Z" fill="#FBBC05"/>
</svg>
