<svg width="22" height="22" viewBox="0 0 22 22" fill="none" xmlns="http://www.w3.org/2000/svg">
<path fill-rule="evenodd" clip-rule="evenodd" d="M8.1505 7.22534L8.13058 7.16983C8.02069 6.84999 8.03698 6.50027 8.17612 6.19202L10.6128 0.78346C10.7014 0.587236 10.8362 0.415421 11.0057 0.282753C11.1752 0.150085 11.3744 0.0605255 11.5862 0.0217576C11.7979 -0.0170103 12.0159 -0.00382927 12.2215 0.0601699C12.427 0.124169 12.614 0.237076 12.7663 0.389204C12.9563 0.578914 13.0846 0.821687 13.1341 1.08562C13.1836 1.34956 13.1522 1.6223 13.0438 1.86802L10.6242 7.32924C10.5164 7.57392 10.3373 7.78041 10.1103 7.92174C9.88336 8.06306 9.61904 8.13266 9.3519 8.12144C9.08476 8.11022 8.8272 8.0187 8.61288 7.85884C8.39855 7.69898 8.23741 7.4782 8.1505 7.22534ZM12.488 5.5759C12.3629 5.69077 12.2628 5.83028 12.1941 5.98566C12.0974 6.20367 12.0659 6.44503 12.1035 6.68056C12.1411 6.91608 12.2461 7.13567 12.4058 7.31275C12.5656 7.48984 12.7733 7.61683 13.0037 7.67836C13.2341 7.73989 13.4775 7.73333 13.7042 7.65947L16.7615 6.66315C16.9624 6.59814 17.1432 6.48262 17.2866 6.32766C17.43 6.1727 17.5312 5.9835 17.5805 5.7782C17.6298 5.57289 17.6255 5.35836 17.5681 5.15519C17.5107 4.95201 17.402 4.76699 17.2525 4.61786L17.2127 4.57801C17.0495 4.41464 16.8437 4.3004 16.6187 4.24831C16.3937 4.19622 16.1586 4.20837 15.9402 4.28339L12.9214 5.31813C12.7607 5.37327 12.6132 5.46103 12.488 5.5759ZM14.8272 8.09634L14.7717 8.11485C14.5194 8.20233 14.2992 8.36371 14.1399 8.57799C13.9805 8.79226 13.8893 9.04953 13.8781 9.31635C13.8669 9.58316 13.9362 9.84717 14.077 10.0741C14.2179 10.3009 14.4237 10.4802 14.6678 10.5886L20.129 13.0082C20.3744 13.1173 20.6471 13.1494 20.9111 13.1004C21.1751 13.0513 21.418 12.9234 21.6078 12.7335C21.7603 12.5814 21.8736 12.3946 21.9379 12.189C22.0022 11.9835 22.0156 11.7654 21.977 11.5536C21.9383 11.3417 21.8488 11.1424 21.716 10.9728C21.5833 10.8032 21.4114 10.6684 21.215 10.58L15.8065 8.14189C15.4978 8.00237 15.1475 7.98608 14.8272 8.09634ZM16.4542 12.4925C16.3392 12.3674 16.1996 12.2673 16.0442 12.1984C15.8263 12.1029 15.5855 12.0724 15.3508 12.1105C15.116 12.1486 14.8973 12.2538 14.7209 12.4134C14.5445 12.5729 14.418 12.78 14.3565 13.0098C14.2951 13.2396 14.3014 13.4822 14.3746 13.7085L15.3709 16.7658C15.437 16.9655 15.553 17.145 15.708 17.2873C15.863 17.4296 16.0518 17.5299 16.2564 17.5786C16.4611 17.6274 16.6748 17.623 16.8773 17.566C17.0798 17.5089 17.2643 17.401 17.4134 17.2525L17.4532 17.2127C17.6163 17.0493 17.7304 16.8435 17.7824 16.6186C17.8345 16.3937 17.8225 16.1587 17.7479 15.9402L16.7131 12.9257C16.6574 12.7651 16.5693 12.6176 16.4542 12.4925ZM13.875 14.8287L13.8565 14.7746C13.7687 14.5231 13.6074 14.3037 13.3935 14.1449C13.1796 13.9861 12.923 13.8951 12.6568 13.8838C12.3907 13.8724 12.1272 13.9412 11.9006 14.0813C11.674 14.2213 11.4946 14.4262 11.3857 14.6693L8.96605 20.1305C8.85703 20.3761 8.82493 20.649 8.87396 20.9132C8.92299 21.1774 9.05086 21.4206 9.24075 21.6107C9.39306 21.7629 9.58001 21.8758 9.78555 21.9398C9.99109 22.0038 10.2091 22.017 10.4208 21.9782C10.6326 21.9394 10.8318 21.8499 11.0013 21.7172C11.1709 21.5845 11.3057 21.4127 11.3942 21.2165L13.8323 15.8079C13.9709 15.4989 13.9862 15.1486 13.875 14.8287ZM9.47865 16.4527C9.60408 16.3378 9.70433 16.1981 9.7731 16.0426C9.86771 15.8247 9.8975 15.5841 9.85888 15.3497C9.82026 15.1153 9.71488 14.897 9.55537 14.721C9.39585 14.5449 9.18897 14.4186 8.95949 14.3572C8.73002 14.2957 8.4877 14.3017 8.26155 14.3745L5.20429 15.3708C5.00405 15.4356 4.82374 15.5505 4.68054 15.7048C4.53733 15.859 4.436 16.0473 4.3862 16.2518C4.3364 16.4563 4.33979 16.6701 4.39604 16.8729C4.45229 17.0757 4.55954 17.2607 4.70756 17.4104L4.74599 17.4502C4.91014 17.6149 5.11744 17.7299 5.34404 17.782C5.57064 17.8341 5.80735 17.8213 6.02696 17.7448L9.04437 16.7101C9.20536 16.6552 9.35323 16.5675 9.47865 16.4527ZM7.16983 13.9119L7.22534 13.8934C7.4782 13.8065 7.69898 13.6453 7.85884 13.431C8.0187 13.2167 8.11022 12.9591 8.12144 12.692C8.13266 12.4249 8.06306 12.1605 7.92174 11.9336C7.78041 11.7066 7.57392 11.5275 7.32924 11.4197L1.86802 9.00007C1.62242 8.89113 1.34952 8.85933 1.08545 8.9089C0.821385 8.95846 0.57859 9.08704 0.389204 9.27762C0.237076 9.42993 0.124169 9.61688 0.0601699 9.82242C-0.00382927 10.028 -0.0170103 10.246 0.0217576 10.4577C0.0605255 10.6695 0.150085 10.8687 0.282753 11.0382C0.415421 11.2077 0.587236 11.3425 0.78346 11.4311L6.19202 13.8678C6.50045 14.0065 6.85016 14.0222 7.16983 13.9119ZM5.52161 9.55775C5.6357 9.68286 5.77426 9.78321 5.92871 9.85259C6.14745 9.95067 6.39003 9.98292 6.62681 9.94538C6.86358 9.90785 7.08429 9.80216 7.26198 9.64123C7.43966 9.4803 7.56663 9.2711 7.62736 9.03919C7.68808 8.80728 7.67995 8.5627 7.60394 8.33534L6.60762 5.27808C6.54207 5.07746 6.4262 4.89698 6.27108 4.75385C6.11596 4.61072 5.92676 4.50972 5.72152 4.46048C5.51628 4.41123 5.30185 4.4154 5.09867 4.47257C4.8955 4.52973 4.71036 4.638 4.56091 4.78704L4.52106 4.8269C4.35652 4.99114 4.24161 5.19844 4.1895 5.42501C4.13739 5.65158 4.15019 5.88824 4.22643 6.10787L5.26545 9.12528C5.32033 9.28545 5.40752 9.43265 5.52161 9.55775Z" fill="#4953E9"/>
</svg>
