<svg width="89" height="24" viewBox="0 0 89 24" fill="none" xmlns="http://www.w3.org/2000/svg">
<path fill-rule="evenodd" clip-rule="evenodd" d="M9.63736 7.82162L9.65909 7.88218C9.7539 8.15803 9.92969 8.39887 10.1635 8.57327C10.3973 8.74766 10.6783 8.8475 10.9697 8.85974C11.2611 8.87198 11.5495 8.79606 11.7971 8.64188C12.0447 8.48771 12.2401 8.26245 12.3577 7.99552L14.9973 2.03784C15.1155 1.76978 15.1498 1.47224 15.0958 1.18431C15.0417 0.896385 14.9018 0.631541 14.6945 0.424586C14.5283 0.258628 14.3244 0.135457 14.1002 0.0656398C13.8759 -0.00417738 13.6381 -0.0185567 13.4071 0.0237355C13.1761 0.0660277 12.9588 0.163729 12.7739 0.308457C12.5889 0.453185 12.4418 0.64062 12.3453 0.854682L9.68704 6.75492C9.53525 7.09119 9.51748 7.4727 9.63736 7.82162ZM14.0704 6.52989C14.1454 6.36038 14.2545 6.20819 14.3911 6.08287C14.5276 5.95756 14.6886 5.86182 14.8639 5.80167L18.1571 4.67286C18.3954 4.59103 18.6518 4.57777 18.8973 4.63459C19.1427 4.69142 19.3672 4.81604 19.5452 4.99427L19.5887 5.03775C19.7518 5.20043 19.8703 5.40227 19.933 5.62391C19.9956 5.84556 20.0003 6.07959 19.9465 6.30356C19.8927 6.52753 19.7823 6.73393 19.6259 6.90298C19.4694 7.07203 19.2722 7.19805 19.053 7.26897L15.7178 8.35585C15.4705 8.43643 15.205 8.44359 14.9536 8.37646C14.7023 8.30934 14.4757 8.1708 14.3014 7.97762C14.1271 7.78444 14.0126 7.54489 13.9716 7.28796C13.9306 7.03102 13.9649 6.76771 14.0704 6.52989ZM16.8822 8.85267L16.9428 8.83248C17.2922 8.7122 17.6743 8.72997 18.011 8.88217L23.9113 11.5419C24.1255 11.6384 24.3131 11.7855 24.4579 11.9705C24.6027 12.1555 24.7003 12.3729 24.7425 12.604C24.7847 12.8351 24.77 13.073 24.6999 13.2972C24.6297 13.5215 24.5062 13.7253 24.3398 13.8912C24.1328 14.0984 23.8677 14.2379 23.5797 14.2914C23.2917 14.3449 22.9943 14.3098 22.7266 14.1908L16.7689 11.5513C16.5026 11.4331 16.2781 11.2375 16.1244 10.99C15.9708 10.7425 15.8951 10.4545 15.9074 10.1634C15.9196 9.87233 16.0191 9.59167 16.193 9.35791C16.3668 9.12415 16.607 8.94811 16.8822 8.85267ZM18.2703 13.3075C18.4399 13.3826 18.5922 13.4918 18.7177 13.6283C18.8432 13.7648 18.9394 13.9257 19.0001 14.1009L20.1289 17.3895C20.2104 17.6278 20.2235 17.8841 20.1666 18.1295C20.1098 18.3748 19.9854 18.5994 19.8075 18.7776L19.764 18.8211C19.6014 18.983 19.4001 19.1008 19.1792 19.163C18.9583 19.2253 18.7252 19.23 18.5019 19.1768C18.2787 19.1236 18.0727 19.0142 17.9036 18.859C17.7346 18.7038 17.608 18.508 17.5359 18.2901L16.449 14.9549C16.3691 14.708 16.3623 14.4433 16.4293 14.1927C16.4963 13.942 16.6343 13.716 16.8268 13.542C17.0192 13.3679 17.2578 13.2532 17.5139 13.2116C17.77 13.17 18.0327 13.2033 18.2703 13.3075ZM15.8837 16.1178L15.9039 16.1768C16.0252 16.5258 16.0085 16.9079 15.8573 17.2451L13.1976 23.1453C13.101 23.3594 12.9539 23.5468 12.769 23.6915C12.584 23.8363 12.3667 23.934 12.1357 23.9763C11.9047 24.0185 11.6669 24.0042 11.4427 23.9343C11.2184 23.8645 11.0145 23.7414 10.8483 23.5754C10.6412 23.368 10.5017 23.1027 10.4482 22.8144C10.3947 22.5262 10.4297 22.2285 10.5487 21.9606L13.1882 16.0029C13.3071 15.7377 13.5028 15.5142 13.75 15.3615C13.9972 15.2087 14.2846 15.1336 14.575 15.146C14.8653 15.1584 15.1453 15.2576 15.3786 15.4309C15.6119 15.6041 15.7879 15.8434 15.8837 16.1178ZM11.4293 17.5009C11.3543 17.6706 11.2449 17.8229 11.1081 17.9483C10.9712 18.0736 10.8099 18.1692 10.6343 18.2291L7.34259 19.3579C7.10302 19.4413 6.84479 19.4553 6.59759 19.3985C6.35038 19.3416 6.12424 19.2161 5.94516 19.0365L5.90324 18.993C5.74177 18.8298 5.62477 18.628 5.56341 18.4067C5.50204 18.1855 5.49835 17.9522 5.55267 17.7292C5.607 17.5061 5.71754 17.3006 5.87377 17.1324C6.02999 16.9641 6.22669 16.8387 6.44513 16.768L9.78032 15.6811C10.027 15.6018 10.2914 15.5952 10.5417 15.6623C10.792 15.7293 11.0177 15.8671 11.1918 16.0591C11.3658 16.2512 11.4807 16.4893 11.5229 16.745C11.565 17.0007 11.5325 17.2632 11.4293 17.5009ZM8.64976 15.1565L8.5892 15.1767C8.24048 15.297 7.85897 15.2798 7.5225 15.1285L1.62226 12.4703C1.4082 12.3737 1.22076 12.2267 1.07604 12.0417C0.931307 11.8568 0.833606 11.6395 0.791314 11.4085C0.749021 11.1775 0.763401 10.9396 0.833218 10.7154C0.903035 10.4912 1.02621 10.2872 1.19216 10.1211C1.39877 9.91318 1.66363 9.77291 1.95171 9.71884C2.23978 9.66478 2.53748 9.69946 2.80541 9.81831L8.7631 12.4579C9.03003 12.5755 9.25529 12.7709 9.40946 13.0185C9.56363 13.2661 9.63956 13.5544 9.62732 13.8459C9.61508 14.1373 9.51524 14.4183 9.34085 14.6521C9.16645 14.8859 8.9256 15.0617 8.64976 15.1565ZM7.23519 10.7484C7.0667 10.6727 6.91555 10.5633 6.79109 10.4268C6.66663 10.2903 6.57151 10.1297 6.51164 9.955L5.37817 6.66329C5.295 6.42369 5.28103 6.16551 5.33788 5.91834C5.39473 5.67118 5.52009 5.44504 5.69958 5.26586L5.74305 5.22238C5.90609 5.05979 6.10806 4.94168 6.3297 4.87932C6.55135 4.81695 6.78527 4.81241 7.00917 4.86613C7.23307 4.91985 7.43947 5.03003 7.60869 5.18617C7.77792 5.34231 7.90431 5.5392 7.97583 5.75806L9.06272 9.09325C9.14563 9.34128 9.15451 9.60809 9.08826 9.86109C9.02201 10.1141 8.88351 10.3423 8.68967 10.5179C8.49583 10.6934 8.25505 10.8087 7.99676 10.8497C7.73846 10.8906 7.47383 10.8554 7.23519 10.7484ZM54.2445 11.2684C54.3439 11.145 54.4501 11.0273 54.5628 10.9159C54.9462 10.5237 55.4056 10.2138 55.9128 10.005C56.42 9.79628 56.9645 9.69307 57.5129 9.7017C57.6687 9.70345 57.8243 9.71485 57.9787 9.73586V11.5649C57.8253 11.5346 57.6693 11.519 57.5129 11.5184C57.2023 11.5133 56.8939 11.5717 56.6066 11.6899C56.3193 11.8082 56.0592 11.9839 55.8422 12.2062C55.6208 12.4191 55.4454 12.6751 55.3268 12.9585C55.2082 13.2418 55.149 13.5465 55.1528 13.8536V18.0195H53.3362V13.8536C53.3331 13.4492 53.2261 13.0523 53.0254 12.7012C52.8246 12.3501 52.5369 12.0566 52.1899 11.8488C51.8429 11.6411 51.4482 11.5261 51.0439 11.515C50.6396 11.5039 50.2393 11.597 49.8814 11.7854V18.0195H48.0648V9.66599H49.8814V9.85697C50.5888 9.65713 51.3368 9.64991 52.0479 9.83609C52.759 10.0223 53.4075 10.3951 53.9262 10.9159C54.0384 11.0277 54.1447 11.1454 54.2445 11.2684ZM30.555 5.96126H32.3717L32.367 16.2028H37.8014V18.0195H31.4633C31.2243 18.0136 30.9967 17.916 30.8276 17.7469C30.6585 17.5778 30.5609 17.3502 30.555 17.1112V5.96126ZM44.6116 9.63804H46.4251L46.4235 13.776V13.8521V18.0179H44.6069V13.8521C44.6107 13.5449 44.5515 13.2403 44.4329 12.9569C44.3143 12.6736 44.1389 12.4175 43.9175 12.2046C43.4767 11.7643 42.8792 11.517 42.2561 11.517C41.6331 11.517 41.0355 11.7643 40.5947 12.2046C40.3727 12.4168 40.1968 12.6725 40.0779 12.9556C39.959 13.2388 39.8997 13.5434 39.9038 13.8505C39.9037 14.3183 40.0426 14.7756 40.3029 15.1643C40.5631 15.553 40.9331 15.8556 41.3657 16.0337C41.7983 16.2117 42.2741 16.2572 42.7326 16.1642C43.1911 16.0713 43.6116 15.8443 43.9408 15.5119L43.9579 17.6577C43.4264 17.8953 42.8507 18.0181 42.2685 18.0179C41.7201 18.0266 41.1757 17.9234 40.6685 17.7146C40.1612 17.5058 39.7019 17.1959 39.3184 16.8037C38.9297 16.4182 38.6211 15.9595 38.4105 15.4541C38.1999 14.9487 38.0915 14.4066 38.0915 13.859C38.0915 13.3115 38.1999 12.7694 38.4105 12.264C38.6211 11.7586 38.9297 11.2999 39.3184 10.9144C39.7019 10.5222 40.1612 10.2122 40.6685 10.0035C41.1757 9.79472 41.7201 9.69151 42.2685 9.70015C43.1051 9.68703 43.9246 9.93685 44.6116 10.4144V9.63804ZM64.1351 10.065C64.6654 9.82342 65.2417 9.69947 65.8245 9.7017C66.3729 9.69307 66.9173 9.79628 67.4246 10.005C67.9318 10.2138 68.3911 10.5237 68.7746 10.9159C69.1701 11.2946 69.4832 11.7508 69.6943 12.256C69.9053 12.7612 70.0098 13.3046 70.0012 13.8521C70.0021 14.6097 69.7968 15.3533 69.4075 16.0032C69.0181 16.6532 68.4593 17.185 67.7909 17.5417C67.1225 17.8984 66.3697 18.0665 65.613 18.0282C64.8563 17.9898 64.1243 17.7464 63.4954 17.3239V18.0428H61.6819V14.3086C61.6679 14.1533 61.6586 13.998 61.6586 13.8427V5.96126H63.4752V9.48588H63.4954V14.1533C63.5553 14.7599 63.8485 15.3195 64.313 15.7141C64.7776 16.1087 65.3773 16.3074 65.9855 16.2683C66.5938 16.2292 67.1631 15.9554 67.5734 15.5046C67.9837 15.0538 68.2028 14.4613 68.1846 13.8521C68.1885 13.5451 68.1294 13.2407 68.0108 12.9575C67.8922 12.6744 67.7167 12.4187 67.4952 12.2062C67.2783 11.9837 67.0183 11.8078 66.7309 11.6895C66.4436 11.5713 66.1351 11.513 65.8245 11.5184C65.5094 11.5146 65.197 11.5755 64.9064 11.6973C64.6159 11.8191 64.3534 11.9991 64.1351 12.2264V10.065ZM88.2299 9.48588V13.7729C88.2301 13.7773 88.2304 13.7817 88.2307 13.7861C88.2322 13.8081 88.2337 13.8301 88.2299 13.8521V18.0273V18.0459H86.4117V13.8536C86.4156 13.5467 86.3565 13.2422 86.2379 12.9591C86.1193 12.676 85.9438 12.4202 85.7223 12.2078C85.2812 11.7673 84.6834 11.52 84.0601 11.52C83.4368 11.52 82.839 11.7673 82.3979 12.2078C82.1764 12.4202 82.0009 12.676 81.8823 12.9591C81.7637 13.2422 81.7046 13.5467 81.7085 13.8536C81.7077 14.3218 81.8461 14.7796 82.1063 15.1688C82.3665 15.558 82.7366 15.861 83.1695 16.0391C83.6024 16.2173 84.0786 16.2626 84.5373 16.1692C84.9961 16.0759 85.4167 15.8482 85.7455 15.515L85.7642 17.6608C85.2327 17.8983 84.657 18.0211 84.0748 18.021C83.5264 18.0297 82.982 17.9265 82.4748 17.7177C81.9675 17.509 81.5082 17.199 81.1247 16.8068C80.7365 16.421 80.4285 15.9622 80.2182 15.4568C80.008 14.9514 79.8998 14.4095 79.8998 13.8622C79.8998 13.3148 80.008 12.7729 80.2182 12.2675C80.4285 11.7621 80.7365 11.3033 81.1247 10.9175C81.5085 10.5257 81.9679 10.2161 82.4751 10.0073C82.9822 9.79862 83.5265 9.69516 84.0748 9.70326C84.9113 9.69034 85.7308 9.94015 86.4179 10.4175V9.48588H88.2299ZM76.993 13.9732V9.48588V5.97834H78.805V13.8614C78.805 13.8932 78.8031 13.9246 78.8011 13.9561C78.7992 13.9875 78.7972 14.019 78.7972 14.0508V18.0381H76.9837V17.3161C76.3565 17.7427 75.6248 17.9901 74.8675 18.0316C74.1101 18.0732 73.3558 17.9073 72.6857 17.5519C72.0156 17.1965 71.4552 16.665 71.0648 16.0147C70.6744 15.3644 70.4688 14.6199 70.4701 13.8614C70.4691 13.1682 70.6415 12.4858 70.9719 11.8764C71.3022 11.267 71.7798 10.75 72.3612 10.3726C72.9426 9.99514 73.6092 9.76925 74.3003 9.71553C74.9913 9.66181 75.6849 9.78197 76.3176 10.065V12.2202C76.0995 11.9977 75.8396 11.8205 75.5527 11.699C75.2658 11.5776 74.9577 11.5141 74.6461 11.5124C74.3346 11.5107 74.0258 11.5707 73.7375 11.689C73.4493 11.8072 73.1874 11.9815 72.9669 12.2015C72.5302 12.6446 72.2854 13.2416 72.2854 13.8637C72.2854 14.4858 72.5302 15.0828 72.9669 15.5259C73.2888 15.8517 73.6989 16.0766 74.1468 16.1728C74.5947 16.2691 75.0609 16.2325 75.4883 16.0677C75.9157 15.9029 76.2858 15.6169 76.553 15.2448C76.8203 14.8728 76.9732 14.4308 76.993 13.9732ZM58.6075 11.7854V9.85697V9.66599H60.4242V18.0195H58.6075V11.7854Z" fill="#4953E9"/>
</svg>
