<svg width="22" height="22" viewBox="0 0 22 22" fill="none" xmlns="http://www.w3.org/2000/svg">
<path fill-rule="evenodd" clip-rule="evenodd" d="M21.8438 10.9998C21.8438 16.9888 16.9888 21.8438 10.9998 21.8438C5.01072 21.8438 0.155762 16.9888 0.155762 10.9998C0.155762 5.01072 5.01072 0.155762 10.9998 0.155762C16.9888 0.155762 21.8438 5.01072 21.8438 10.9998Z" fill="white"/>
<path fill-rule="evenodd" clip-rule="evenodd" d="M10.8739 0.000713003C8.67657 0.0254997 6.6321 0.698334 4.92241 1.83595L5.32486 2.34562C6.98623 1.25244 8.97914 0.623827 11.1176 0.647734C16.6376 0.709407 21.1694 5.14182 21.3475 10.6593C21.5403 16.6367 16.6365 21.5405 10.6591 21.3475C5.14175 21.1694 0.709405 16.6375 0.647732 11.1175C0.623899 8.97907 1.25251 6.98623 2.34555 5.32486L1.83595 4.92241C0.698259 6.63211 0.0254982 8.67657 0.000711473 10.8739C-0.0671219 16.8858 4.72404 21.8613 10.7465 21.9971C17.0179 22.1386 22.1387 17.0178 21.9972 10.7465C21.8612 4.72397 16.8857 -0.0671937 10.8739 0.000713003Z" fill="#7F8C8D"/>
<path fill-rule="evenodd" clip-rule="evenodd" d="M4.52944 3.451C4.52944 4.04661 4.04661 4.52944 3.451 4.52944C2.85539 4.52944 2.37256 4.04661 2.37256 3.451C2.37256 2.85539 2.85539 2.37256 3.451 2.37256C4.04661 2.37256 4.52944 2.85539 4.52944 3.451Z" fill="#1ED660"/>
<path fill-rule="evenodd" clip-rule="evenodd" d="M14.2354 11V14.2354H11.0001C9.21327 14.2354 7.76479 12.7868 7.76479 11C7.76479 9.2132 9.21327 7.76472 11.0001 7.76472C12.7869 7.76472 14.2354 9.2132 14.2354 11ZM11.0409 5.60806C8.04419 5.58584 5.60791 8.00841 5.60791 11C5.60791 13.978 8.02205 16.3922 11.0001 16.3922H16.3922V11.0677C16.3922 8.0945 14.014 5.63006 11.0409 5.60806Z" fill="#1ED660"/>
</svg>
