<svg width="55" height="24" viewBox="0 0 55 24" fill="none" xmlns="http://www.w3.org/2000/svg">
<path fill-rule="evenodd" clip-rule="evenodd" d="M52.493 15.8661V12.2691C52.493 10.2501 50.8781 8.57168 48.8592 8.56175C46.8309 8.55173 45.1787 10.2039 45.1887 12.2322C45.1987 14.2511 46.877 15.8661 48.896 15.8661H52.493ZM48.8408 6.12695C52.2025 6.12695 54.9277 8.85207 54.9277 12.2139V18.3008H48.8408C45.479 18.3008 42.7539 15.5756 42.7539 12.2139C42.7539 8.85207 45.479 6.12695 48.8408 6.12695Z" fill="#1ED660"/>
<path fill-rule="evenodd" clip-rule="evenodd" d="M39.1016 18.3004H41.5363V6.12646H39.1016V18.3004Z" fill="#1ED660"/>
<path fill-rule="evenodd" clip-rule="evenodd" d="M41.5363 3.69152C41.5363 4.36388 40.9912 4.90892 40.3189 4.90892C39.6466 4.90892 39.1016 4.36388 39.1016 3.69152C39.1016 3.01916 39.6466 2.47412 40.3189 2.47412C40.9912 2.47412 41.5363 3.01916 41.5363 3.69152Z" fill="#1ED660"/>
<path fill-rule="evenodd" clip-rule="evenodd" d="M29.8504 14.5277C30.2914 15.0244 30.8329 15.4342 31.4745 15.7572C32.1162 16.0804 32.7358 16.2439 33.3338 16.2483C33.9776 16.2532 34.5075 16.102 34.9234 15.7947C35.3395 15.4875 35.5488 15.159 35.5511 14.8088C35.5537 14.443 35.4292 14.1477 35.1779 13.9228C34.9265 13.6984 34.5709 13.5446 34.1118 13.4614L32.7569 13.1888C31.2564 12.8912 30.217 12.4819 29.6381 11.9603C29.0589 11.4391 28.7727 10.7406 28.7788 9.86536C28.7859 8.83125 29.1864 7.94688 29.9812 7.21293C30.7756 6.4789 31.8398 6.11673 33.1735 6.12666C33.9552 6.13246 34.6977 6.26557 35.4012 6.52518C36.1043 6.78503 36.8297 7.19621 37.5772 7.75855L36.8769 8.6449L36.2085 9.49086C35.6751 9.00948 35.1565 8.67148 34.6519 8.47685C34.1473 8.28215 33.6728 8.18306 33.2284 8.17975C32.6765 8.17569 32.1963 8.30351 31.7885 8.56303C31.3803 8.82255 31.175 9.17529 31.1719 9.62058C31.1675 10.2572 31.6476 10.6665 32.612 10.8486L35.0231 11.3439C36.9824 11.7404 37.9566 12.7738 37.9451 14.4447C37.942 14.8903 37.847 15.339 37.6598 15.7911C37.4727 16.2432 37.1861 16.6629 36.8004 17.0498C36.4143 17.4371 35.9179 17.7438 35.3109 17.9696C34.7036 18.1957 34.0017 18.3061 33.2047 18.3001C31.3957 18.2866 29.7293 17.5982 28.2061 16.2341L29.8504 14.5277Z" fill="#1ED660"/>
<path fill-rule="evenodd" clip-rule="evenodd" d="M23.8296 11.9998C23.8296 18.5333 18.5333 23.8296 11.9998 23.8296C5.46624 23.8296 0.169922 18.5333 0.169922 11.9998C0.169922 5.46624 5.46624 0.169922 11.9998 0.169922C18.5333 0.169922 23.8296 5.46624 23.8296 11.9998Z" fill="white"/>
<path fill-rule="evenodd" clip-rule="evenodd" d="M11.8625 0.000777821C9.46534 0.0278178 7.23502 0.761819 5.3699 2.00286L5.80894 2.55886C7.62134 1.3663 9.79542 0.680538 12.1283 0.706618C18.1502 0.773898 23.0939 5.60926 23.2882 11.6283C23.4986 18.1491 18.1489 23.4987 11.6281 23.2882C5.60918 23.0938 0.773897 18.15 0.706617 12.1282C0.680617 9.79535 1.36638 7.62134 2.55878 5.80894L2.00286 5.3699C0.761737 7.23502 0.0278162 9.46535 0.000776152 11.8625C-0.0732239 18.4209 5.1535 23.8487 11.7235 23.9969C18.565 24.1512 24.1513 18.5649 23.997 11.7234C23.8486 5.15342 18.4208 -0.0733022 11.8625 0.000777821Z" fill="#7F8C8D"/>
<path fill-rule="evenodd" clip-rule="evenodd" d="M4.94085 3.76486C4.94085 4.41462 4.41413 4.94134 3.76437 4.94134C3.11461 4.94134 2.58789 4.41462 2.58789 3.76486C2.58789 3.1151 3.11461 2.58838 3.76437 2.58838C4.41413 2.58838 4.94085 3.1151 4.94085 3.76486Z" fill="#1ED660"/>
<path fill-rule="evenodd" clip-rule="evenodd" d="M15.529 12V15.5295H11.9996C10.0503 15.5295 8.47015 13.9492 8.47015 12C8.47015 10.0507 10.0503 8.47056 11.9996 8.47056C13.9488 8.47056 15.529 10.0507 15.529 12ZM12.0441 6.11784C8.77495 6.0936 6.11719 8.7364 6.11719 12C6.11719 15.2487 8.75079 17.8823 11.9996 17.8823H17.8819V12.0738C17.8819 8.83032 15.2875 6.14184 12.0441 6.11784Z" fill="#1ED660"/>
</svg>
