<svg width="20" height="23" viewBox="0 0 20 23" fill="none" xmlns="http://www.w3.org/2000/svg">
<path d="M7.93802 14.7281C7.94385 14.7281 7.94967 14.7281 7.9555 14.728C7.95693 14.728 7.95841 14.7281 7.95995 14.7281H9.44861C9.44894 14.8368 9.44905 14.901 9.44905 14.9208C9.4457 16.4703 9.44603 18.0193 9.44872 19.5687C9.44883 19.6781 9.41514 19.7403 9.31755 19.788C8.80646 20.0397 8.42071 20.6891 8.52594 21.3836C8.64804 22.1904 9.45954 22.7997 10.2427 22.6432C10.9326 22.5056 11.3858 22.0245 11.4829 21.2843C11.5486 20.7823 11.3122 20.1197 10.6802 19.7878C10.5944 19.7431 10.5471 19.6941 10.5474 19.5865C10.5505 18.0816 10.5508 16.5766 10.5474 15.072C10.5474 15.0237 10.5553 14.9892 10.5707 14.9639V14.7281H12.3889C12.4458 14.7281 12.5024 14.7234 12.5581 14.7143C12.9777 14.6705 13.3667 14.5243 13.6997 14.3012L16.3141 15.8481L16.3038 15.8563C16.3736 15.8968 16.4433 15.9373 16.513 15.9778C16.643 16.0529 16.6932 16.136 16.6893 16.2914C16.6661 17.1919 17.4348 17.9275 18.3311 17.83C19.211 17.7344 19.8345 16.8693 19.6303 15.9946C19.3857 14.9463 18.274 14.4732 17.376 15.0398C17.2813 15.0994 17.2129 15.1157 17.112 15.0553C16.3521 14.6019 15.5905 14.1515 14.8257 13.7068C14.7858 13.6837 14.7581 13.6611 14.7406 13.6362L14.4748 13.4792C14.6955 13.1038 14.8222 12.6662 14.8222 12.1988C14.8222 11.2711 14.3253 10.4659 13.588 10.0258L13.5975 10.0202C13.6103 10.0104 13.6249 10.0007 13.6415 9.99093C13.9649 9.80177 14.2882 9.61233 14.6114 9.42261L16.7588 8.15682C16.8775 8.08658 16.9962 8.01629 17.1149 7.94595C17.208 7.89103 17.2712 7.89013 17.3626 7.95279C17.6884 8.17612 18.0536 8.2468 18.4368 8.17825C19.1827 8.04468 19.7233 7.35524 19.6569 6.54138C19.5845 5.65851 18.7367 4.99852 17.8899 5.19C17.1468 5.35809 16.6799 5.95128 16.6885 6.73115C16.6897 6.86399 16.6536 6.93972 16.5375 7.00755C16.2382 7.18252 15.939 7.35776 15.6399 7.53335L15.6401 7.53374L12.9029 9.15311C12.4205 8.29005 11.5598 7.66911 10.5497 7.50681C10.5499 6.19486 10.5524 4.88286 10.5455 3.57097C10.5445 3.37413 10.5895 3.26004 10.7701 3.15409C11.4175 2.77412 11.6636 1.95615 11.3674 1.25866C11.0686 0.555083 10.3055 0.179231 9.58967 0.401939C8.93823 0.604654 8.57506 1.0747 8.51121 1.7588C8.46208 2.28666 8.70656 2.87306 9.2964 3.20233C9.38701 3.25283 9.45015 3.29724 9.44976 3.42421C9.44855 3.81039 9.44767 4.19655 9.44707 4.58269H9.46883V7.51142C8.57336 7.6631 7.784 8.17746 7.28362 8.92294C7.15547 8.95172 7.03046 8.9888 6.90913 9.03357C5.78149 8.37537 4.65887 7.70798 3.52929 7.05299C3.35989 6.95487 3.27816 6.84963 3.30641 6.65032C3.31771 6.57088 3.2937 6.48573 3.28098 6.40394C3.16526 5.6589 2.45192 5.03573 1.59088 5.18021C0.746182 5.32223 0.209823 6.10297 0.34926 6.93871C0.527039 8.00597 1.71943 8.54619 2.61901 7.96238C2.72051 7.89653 2.79073 7.89136 2.89476 7.9533C3.21519 8.1442 3.53609 8.33431 3.85725 8.52398L3.86939 8.50244L5.87277 9.68537C5.32299 10.2177 4.98024 10.9616 4.98024 11.7894C4.98024 12.4292 5.18493 13.0187 5.53158 13.4992L3.19771 14.8748L3.19625 14.8645C3.08299 14.9307 2.96968 14.9966 2.85632 15.0625C2.80567 15.0919 2.70729 15.0858 2.65583 15.0541C2.41379 14.9049 2.156 14.8057 1.8739 14.798C0.935366 14.7734 0.364596 15.5565 0.332512 16.2368C0.295382 17.0336 0.885625 17.8498 1.8402 17.8425C2.67733 17.8361 3.31438 17.1504 3.30611 16.295C3.3048 16.1421 3.34879 16.0557 3.48005 15.9795C4.12489 15.6045 5.08748 15.038 6.36782 14.2801C6.82385 14.5642 7.36269 14.7281 7.93802 14.7281ZM19.0795 8.29308C18.9705 8.35967 18.9326 8.42743 18.9329 8.55444C18.9367 10.5202 18.9363 12.486 18.9334 14.4513C18.9332 14.5694 18.9627 14.6406 19.0687 14.703C19.7524 15.1065 20.0984 15.8509 19.9756 16.6334C19.8579 17.3833 19.271 17.9993 18.5109 18.1467C18.0702 18.2326 17.6433 18.1642 17.2571 17.9222C17.1393 17.8486 17.0564 17.8616 16.946 17.9265C15.2916 18.9053 13.6354 19.8816 11.9773 20.8542C11.8639 20.9208 11.8214 20.994 11.8217 21.1292C11.8234 22.075 11.1088 22.898 10.216 22.9897C9.26518 23.0877 8.42455 22.4774 8.21909 21.535C8.18766 21.3901 8.17706 21.2386 8.17381 21.0903C8.1714 20.9898 8.14414 20.9283 8.05666 20.8765C6.37567 19.8888 4.69605 18.8987 3.01714 17.9072C2.92623 17.8531 2.8548 17.8527 2.76309 17.9094C1.66605 18.5839 0.267838 17.9373 0.0351723 16.6772C-0.111631 15.8812 0.205585 15.1369 0.903077 14.7177C1.01325 14.6512 1.0631 14.5843 1.06289 14.4468C1.05785 12.4808 1.05866 10.5153 1.06169 8.54967C1.06178 8.43158 1.03172 8.36169 0.925881 8.29897C0.225663 7.88351 -0.103761 7.1617 0.0307329 6.35126C0.164319 5.54617 0.773828 4.95555 1.56707 4.84012C1.99224 4.77839 2.40228 4.85754 2.77015 5.09746C2.85561 5.15331 2.91907 5.15156 3.00604 5.10034C4.68 4.11088 6.35529 3.12421 8.03188 2.1398C8.13326 2.08023 8.17283 2.01191 8.1731 1.88989C8.17585 0.807267 9.01335 -0.0215252 10.0746 0.000426089C10.9017 0.0173275 11.6757 0.714717 11.7931 1.54846C11.8037 1.62513 11.8206 1.67233 11.8206 1.77786C11.8206 2.00902 11.904 2.10703 12.0801 2.20988C13.7069 3.16069 15.3292 4.11892 16.9504 5.0788C17.0618 5.14497 17.1428 5.14765 17.2588 5.08045C18.3599 4.43892 19.6951 5.05376 19.9631 6.32321C19.9884 6.44135 19.986 6.56561 19.9947 6.67354C19.9767 7.39412 19.6705 7.93114 19.0795 8.29308ZM17.7583 16.3236C17.7583 16.0732 17.9344 15.8914 18.1755 15.892C18.4077 15.8932 18.6055 16.0889 18.6078 16.3205C18.6104 16.5436 18.399 16.7593 18.179 16.7597C17.9433 16.7597 17.7584 16.5681 17.7583 16.3236ZM9.57335 1.86258C9.57423 1.62018 9.7593 1.43314 9.99844 1.43293C10.2379 1.43272 10.4216 1.61936 10.4225 1.86268C10.4231 2.096 10.2236 2.30232 9.99921 2.29944C9.77111 2.29717 9.57263 2.09332 9.57335 1.86258ZM2.23722 16.3253C2.23631 16.5697 2.04975 16.7616 1.81537 16.7597C1.59391 16.7575 1.38919 16.5466 1.38818 16.3188C1.38707 16.0913 1.58967 15.892 1.82213 15.892C2.06297 15.8921 2.23813 16.0749 2.23722 16.3253ZM10.0031 20.7152C10.242 20.7169 10.4235 20.9025 10.4224 21.1441C10.4208 21.3847 10.2367 21.566 9.99449 21.5644C9.75435 21.5632 9.57071 21.3763 9.57335 21.1354C9.57609 20.8959 9.7632 20.7134 10.0031 20.7152ZM1.82688 7.10633C1.58473 7.10852 1.39545 6.92828 1.38828 6.6893C1.38112 6.45639 1.57262 6.26089 1.81134 6.25735C2.06055 6.25354 2.23369 6.42318 2.23722 6.67416C2.24095 6.92632 2.07195 7.10409 1.82688 7.10633ZM18.1703 7.10701C17.9255 7.10521 17.7559 6.92716 17.7583 6.67494C17.7607 6.42464 17.9344 6.25438 18.1836 6.25769C18.4225 6.26106 18.6127 6.45482 18.607 6.68897C18.6014 6.92621 18.4108 7.10875 18.1703 7.10701ZM7.93802 13.679C6.87204 13.679 6.00789 12.8329 6.00789 11.7894C6.00789 10.75 6.86506 9.90662 7.92505 9.89977C8.26432 9.08658 9.07566 8.51405 10.0225 8.51405C11.264 8.51405 12.2723 9.49817 12.2894 10.7186C12.2907 10.7186 12.292 10.7186 12.2933 10.7186C13.1224 10.7186 13.7945 11.3813 13.7945 12.1988C13.7945 12.9787 13.1826 13.6179 12.4063 13.6748C12.4011 13.6775 12.3952 13.679 12.3889 13.679H7.95995C7.95901 13.679 7.95813 13.679 7.95726 13.6788C7.95083 13.679 7.9444 13.679 7.93802 13.679Z" fill="#0055C6"/>
</svg>
