<svg width="61" height="24" viewBox="0 0 61 24" fill="none" xmlns="http://www.w3.org/2000/svg">
<g clip-path="url(#clip0)">
<path fill-rule="evenodd" clip-rule="evenodd" d="M9.02059 15.3684L9.00198 15.3684C8.3891 15.3684 7.81509 15.1974 7.32929 14.901C5.9654 15.6918 4.93999 16.2829 4.25307 16.6743C4.11323 16.7538 4.06638 16.844 4.06777 17.0035C4.07659 17.8961 3.39795 18.6116 2.50619 18.6183C1.48932 18.6259 0.860558 17.7742 0.900111 16.9427C0.934289 16.2328 1.54231 15.4157 2.54209 15.4414C2.8426 15.4494 3.11722 15.5529 3.37506 15.7086C3.42987 15.7417 3.53467 15.748 3.58862 15.7174C3.70939 15.6486 3.83009 15.5798 3.95074 15.5108L3.9523 15.5215L6.43848 14.0861C6.06921 13.5847 5.85116 12.9695 5.85116 12.3019C5.85116 11.4382 6.21628 10.6619 6.80194 10.1065L4.66782 8.8721L4.65489 8.89458C4.31276 8.69666 3.97091 8.49828 3.62958 8.29908C3.51876 8.23446 3.44396 8.23984 3.33583 8.30857C2.37754 8.91776 1.10733 8.35405 0.917952 7.24039C0.769415 6.36831 1.34078 5.55362 2.2406 5.40543C3.15784 5.25466 3.91773 5.90494 4.04101 6.68236C4.04422 6.70263 4.04812 6.7231 4.05203 6.74365C4.06458 6.80959 4.07727 6.87626 4.06809 6.93945C4.038 7.14743 4.12506 7.25725 4.30552 7.35963C4.9984 7.75318 5.68882 8.15103 6.37923 8.54886C6.88782 8.84193 7.3964 9.13499 7.90594 9.42632C8.03519 9.37961 8.16836 9.34092 8.30486 9.31089C8.8379 8.533 9.67878 7.99627 10.6327 7.83799V4.78194H10.6095C10.6102 4.379 10.6111 3.97605 10.6124 3.57308C10.6128 3.4406 10.5455 3.39425 10.449 3.34155C9.82067 2.99797 9.56024 2.38607 9.61257 1.83526C9.68059 1.12143 10.0675 0.630942 10.7614 0.419414C11.5239 0.187024 12.3369 0.579216 12.6551 1.31338C12.9707 2.0412 12.7086 2.89473 12.0188 3.29123C11.8265 3.40178 11.7785 3.52082 11.7796 3.72622C11.7856 4.83559 11.785 5.94504 11.7844 7.05447C11.7842 7.31404 11.7841 7.57362 11.784 7.83319C12.8601 8.00254 13.777 8.65048 14.2909 9.55106L17.2068 7.86129L17.2065 7.86088C17.5251 7.67766 17.8438 7.49479 18.1627 7.31221C18.2863 7.24144 18.3248 7.16242 18.3235 7.0238C18.3144 6.21003 18.8117 5.59105 19.6033 5.41565C20.5054 5.21584 21.4086 5.90453 21.4856 6.82578C21.5564 7.67502 20.9806 8.39444 20.186 8.53381C19.7777 8.60535 19.3886 8.53159 19.0416 8.29856C18.9442 8.23317 18.8769 8.23411 18.7778 8.29141L18.3984 8.51145L16.1108 9.83227C15.7666 10.0302 15.4222 10.2279 15.0777 10.4253C15.06 10.4355 15.0444 10.4456 15.0308 10.4559L15.0207 10.4617C15.8061 10.9209 16.3354 11.7611 16.3354 12.7291C16.3354 13.2169 16.2005 13.6735 15.9654 14.0653L16.2485 14.229C16.2671 14.255 16.2966 14.2786 16.3391 14.3027C17.1538 14.7667 17.9652 15.2367 18.7747 15.7099C18.8822 15.7729 18.9551 15.7559 19.0559 15.6937C20.0125 15.1025 21.1967 15.5961 21.4573 16.69C21.6748 17.6028 21.0106 18.5055 20.0733 18.6052C19.1186 18.7069 18.2997 17.9394 18.3244 16.9997C18.3285 16.8375 18.275 16.7508 18.1366 16.6724L17.9138 16.5457L17.9247 16.5372L15.1397 14.923C14.7849 15.1558 14.3705 15.3084 13.9236 15.354C13.8643 15.3636 13.804 15.3684 13.7433 15.3684H11.8065V15.6145C11.79 15.6409 11.7816 15.6769 11.7816 15.7273C11.7853 17.2973 11.785 18.8677 11.7816 20.4381C11.7813 20.5504 11.8317 20.6015 11.9231 20.6481C12.5964 20.9944 12.8482 21.6859 12.7782 22.2097C12.6748 22.982 12.192 23.4841 11.4571 23.6277C10.6228 23.791 9.75833 23.1552 9.62826 22.3133C9.51616 21.5886 9.92709 20.911 10.4715 20.6484C10.5755 20.5986 10.6114 20.5336 10.6113 20.4195C10.6084 18.8028 10.608 17.1864 10.6116 15.5696L10.6111 15.3684H9.02533L9.02059 15.3684ZM20.7144 8.92636C20.7141 8.79383 20.7544 8.72312 20.8706 8.65364C21.5001 8.27596 21.8263 7.71559 21.8455 6.96369C21.8427 6.92985 21.841 6.89447 21.8392 6.85819C21.8351 6.77372 21.8307 6.68436 21.8119 6.59813C21.5263 5.27348 20.104 4.63191 18.931 5.30134C18.8074 5.37145 18.7212 5.36865 18.6026 5.29962C16.8756 4.298 15.1474 3.29811 13.4143 2.30596C13.2267 2.19864 13.1379 2.09637 13.1379 1.85516C13.1379 1.77769 13.129 1.73034 13.1198 1.68122C13.1159 1.66052 13.112 1.6395 13.1086 1.61578C12.9836 0.745791 12.1591 0.0180809 11.278 0.000444614C10.1475 -0.0224611 9.25532 0.842365 9.2524 1.97206C9.2521 2.09938 9.20996 2.17068 9.10196 2.23284C7.31595 3.26004 5.53133 4.28961 3.74812 5.32209C3.65548 5.37554 3.58787 5.37736 3.49683 5.31908C3.10496 5.06873 2.66816 4.98614 2.21524 5.05055C1.37023 5.171 0.720941 5.7873 0.578637 6.6274C0.435366 7.47307 0.786289 8.22626 1.5322 8.65979C1.64495 8.72523 1.67698 8.79817 1.67687 8.92138C1.67365 10.9725 1.67279 13.0235 1.67816 15.0749C1.67838 15.2184 1.62528 15.2882 1.50791 15.3576C0.7649 15.795 0.426982 16.5717 0.583366 17.4023C0.831216 18.7172 2.32068 19.3919 3.48931 18.688C3.58701 18.6289 3.66311 18.6293 3.75995 18.6858C5.54842 19.7204 7.33766 20.7535 9.12836 21.7842C9.22155 21.8382 9.25058 21.9023 9.25316 22.0072C9.25661 22.1619 9.26791 22.3201 9.30139 22.4713C9.52026 23.4547 10.4158 24.0915 11.4287 23.9892C12.3797 23.8935 13.1409 23.0347 13.1391 22.0479C13.1388 21.9068 13.1841 21.8304 13.3048 21.7609C15.0712 20.746 16.8355 19.7273 18.5978 18.7059C18.7154 18.6382 18.8038 18.6246 18.9292 18.7014C19.3406 18.954 19.7954 19.0253 20.2648 18.9357C21.0746 18.7818 21.6997 18.1391 21.8251 17.3566C21.9559 16.5401 21.5874 15.7633 20.8591 15.3422C20.7461 15.2771 20.7147 15.2028 20.715 15.0796C20.7181 13.0288 20.7184 10.9775 20.7144 8.92636ZM19.9076 16.5829C19.6507 16.5823 19.4632 16.772 19.4632 17.0333C19.4633 17.2884 19.6603 17.4883 19.9113 17.4883C20.1456 17.4879 20.3708 17.2628 20.3681 17.0301C20.3657 16.7884 20.1549 16.5842 19.9076 16.5829ZM11.1969 1.49523C10.9421 1.49545 10.745 1.69062 10.744 1.94356C10.7433 2.18433 10.9547 2.39704 11.1977 2.39941C11.4367 2.40242 11.6492 2.18713 11.6486 1.94367C11.6476 1.68976 11.452 1.49501 11.1969 1.49523ZM2.47975 17.4883C2.72942 17.4904 2.92816 17.2901 2.92912 17.0351C2.93009 16.7738 2.74351 16.5831 2.48695 16.5829C2.23932 16.5829 2.0235 16.7909 2.02468 17.0283C2.02575 17.266 2.24383 17.4861 2.47975 17.4883ZM11.6485 22.0634C11.6496 21.8113 11.4563 21.6176 11.2018 21.6159C10.9463 21.6139 10.747 21.8044 10.744 22.0543C10.7412 22.3057 10.9368 22.5007 11.1926 22.502C11.4506 22.5036 11.6468 22.3144 11.6485 22.0634ZM2.02478 6.98014C2.03242 7.2295 2.23405 7.41758 2.492 7.4153C2.75307 7.41296 2.9331 7.22745 2.92912 6.96433C2.92536 6.70244 2.74093 6.52542 2.47545 6.5294C2.22115 6.53309 2.01715 6.73709 2.02478 6.98014ZM19.4632 6.96515C19.4606 7.22833 19.6412 7.41413 19.902 7.416C20.1582 7.41781 20.3612 7.22734 20.3673 6.97979C20.3733 6.73545 20.1707 6.53327 19.9162 6.52976C19.6507 6.5263 19.4657 6.70396 19.4632 6.96515ZM6.94588 12.3019C6.94588 13.3909 7.86643 14.2737 9.00198 14.2737L9.02246 14.2736L9.02533 14.2737H13.7433C13.75 14.2737 13.7563 14.2722 13.7619 14.2693C14.5888 14.2099 15.2406 13.543 15.2406 12.7291C15.2406 11.8761 14.5247 11.1846 13.6415 11.1846H13.6373C13.6191 9.91112 12.545 8.88421 11.2225 8.88421C10.2139 8.88421 9.34957 9.48164 8.98816 10.3302C7.85899 10.3373 6.94588 11.2174 6.94588 12.3019ZM56.3366 9.90533H58.7348V12.9779C58.7348 13.8229 58.3596 14.188 57.7553 14.188C57.2447 14.188 56.8382 13.9168 56.4215 13.4577L55.4107 14.5845C55.9109 15.1791 56.6611 15.6799 57.797 15.6799C59.3389 15.6799 60.3815 14.8244 60.3815 13.0509V8.27286H58.7348H56.3366V9.90533ZM29.0002 15.6799C30.5741 15.6799 31.679 14.8669 31.679 13.4181V13.3973C31.679 12.1257 30.8451 11.5941 29.365 11.2085C28.1038 10.8854 27.7911 10.729 27.7911 10.2495V10.2287C27.7911 9.87431 28.1142 9.59292 28.7292 9.59292C29.3442 9.59292 29.98 9.86389 30.6263 10.3121L31.4601 9.10303C30.72 8.50894 29.8132 8.1754 28.75 8.1754C27.2595 8.1754 26.1963 9.05093 26.1963 10.3746V10.3955C26.1963 11.8442 27.1449 12.2507 28.6145 12.6259C29.8341 12.9386 30.0842 13.1471 30.0842 13.5536V13.5745C30.0842 14.0018 29.6882 14.2624 29.0315 14.2624C28.1976 14.2624 27.5097 13.9184 26.853 13.3764L25.9045 14.5125C26.7801 15.2942 27.8954 15.6799 29.0002 15.6799ZM36.2822 9.75565H38.5012V8.27286H32.4587V9.75565H34.6778V15.5824H36.2822V9.75565ZM43.0349 15.7043C45.2914 15.7043 46.9316 14.0037 46.9316 11.9277V11.9068C46.9316 9.8307 45.3123 8.15105 43.0558 8.15105C40.7993 8.15105 39.1591 9.85154 39.1591 11.9277V11.9485C39.1591 14.0246 40.7784 15.7043 43.0349 15.7043ZM45.2504 11.9277V11.9484C45.2504 13.1977 44.3517 14.218 43.0558 14.218C41.76 14.218 40.8403 13.1769 40.8403 11.9277V11.9068C40.8403 10.6575 41.7391 9.63729 43.0349 9.63729C44.3308 9.63729 45.2504 10.6784 45.2504 11.9277ZM52.7291 15.5824H54.6067L52.823 12.9718C53.7513 12.6273 54.3876 11.8859 54.3876 10.7059V10.685C54.3876 9.18135 53.355 8.27286 51.6339 8.27286H48.2961V15.5824H49.9024V13.2434H51.1645L52.7291 15.5824ZM52.7549 10.7772V10.7981C52.7549 11.4132 52.3075 11.8302 51.5272 11.8302H49.9042V9.73476H51.496C52.2763 9.73476 52.7549 10.0892 52.7549 10.7772Z" fill="#0055C6"/>
</g>
<defs>
<clipPath id="clip0">
<rect width="60" height="24" fill="white" transform="translate(0.666016)"/>
</clipPath>
</defs>
</svg>
