<svg width="374" height="590" viewBox="0 0 374 590" fill="none" xmlns="http://www.w3.org/2000/svg">
<path fill-rule="evenodd" clip-rule="evenodd" d="M310.337 143.098C313.388 150.475 318.72 156.825 325.342 161.284C342.037 172.527 353 191.651 353 213.353C353 247.882 325.062 276 290.6 276H78.4004C43.8648 276 16 247.952 16 213.353C16 189.494 29.3398 168.695 48.9546 158.12C51.6835 156.648 53.4444 153.806 53.4444 150.706C53.4444 102.267 92.5615 63 140.815 63C165.329 63 187.485 73.1346 203.352 89.4577C212.207 98.5671 225.851 102.658 238.459 101.105C241.228 100.764 244.047 100.588 246.907 100.588C275.504 100.588 300.016 118.14 310.337 143.098Z" fill="#F6F6FC"/>
<path fill-rule="evenodd" clip-rule="evenodd" d="M296.105 469.527C300.042 476.632 305.665 482.943 312.51 487.317C326.155 496.037 335 510.142 335 526.059C335 552.482 310.461 574 280.191 574H93.8087C63.4747 574 39 552.536 39 526.059C39 507.648 50.9133 491.618 68.3778 483.59C70.5098 482.61 71.8889 480.464 71.8889 478.118C71.8889 441.05 106.247 411 148.63 411C169.43 411 188.297 418.238 202.119 429.99C211.008 437.549 223.312 441.261 234.923 440.105C237.185 439.88 239.484 439.765 241.815 439.765C265.7 439.765 286.342 451.911 296.105 469.527Z" fill="#F6F6FC"/>
<path d="M66.5 116L66.5 21C66.5 17.6863 69.1863 15 72.5 15L163 15" stroke="#9B9CA8"/>
<path d="M306.5 116L306.5 21C306.5 17.6863 303.814 15 300.5 15L210 15" stroke="#9B9CA8"/>
<path d="M37 515L7 515C3.68629 515 1 512.314 1 509L0.999998 152C0.999998 148.686 3.68629 146 7 146L37.5 146" stroke="#9B9CA8"/>
<path d="M333.5 515L367.5 515C370.814 515 373.5 512.314 373.5 509L373.5 152C373.5 148.686 370.814 146 367.5 146L337 146" stroke="#9B9CA8"/>
<line x1="186" y1="96" x2="186" y2="48" stroke="#04B94A" stroke-width="2" stroke-dasharray="3 3"/>
<line x1="186" y1="420" x2="186" y2="361" stroke="#04B94A" stroke-width="2" stroke-dasharray="3 3"/>
<line x1="186" y1="301" x2="186" y2="156" stroke="#04B94A" stroke-width="2" stroke-dasharray="3 3"/>
<line x1="157.212" y1="126.977" x2="97.2118" y2="139.977" stroke="#04B94A" stroke-width="2" stroke-dasharray="3 3"/>
<line y1="-1" x2="61.3922" y2="-1" transform="matrix(0.977323 0.211753 0.211753 -0.977323 217 126)" stroke="#04B94A" stroke-width="2" stroke-dasharray="3 3"/>
<circle cx="67" cy="146" r="30" fill="#342BDB"/>
<rect width="60" height="40" transform="translate(37 186)" fill="#F6F6FC"/>
<path d="M49.0523 201.21C48.4177 201.21 47.867 201.112 47.4003 200.916C46.9337 200.72 46.551 200.454 46.2523 200.118C45.9537 199.773 45.7297 199.367 45.5803 198.9C45.4403 198.433 45.3703 197.929 45.3703 197.388V191.298H46.7283V197.234C46.7283 198.205 46.943 198.909 47.3723 199.348C47.8017 199.787 48.3617 200.006 49.0523 200.006C49.3977 200.006 49.7103 199.955 49.9903 199.852C50.2797 199.74 50.527 199.572 50.7323 199.348C50.9377 199.124 51.0963 198.839 51.2083 198.494C51.3203 198.139 51.3763 197.719 51.3763 197.234V191.298H52.7343V197.388C52.7343 197.929 52.6597 198.433 52.5103 198.9C52.3703 199.367 52.1463 199.773 51.8383 200.118C51.5397 200.454 51.157 200.72 50.6903 200.916C50.233 201.112 49.687 201.21 49.0523 201.21ZM60.049 197.374C60.049 196.525 59.839 195.871 59.419 195.414C58.999 194.957 58.439 194.728 57.739 194.728C57.347 194.728 57.039 194.742 56.815 194.77C56.6003 194.798 56.4277 194.831 56.297 194.868V199.46C56.4557 199.591 56.6843 199.717 56.983 199.838C57.2817 199.959 57.6083 200.02 57.963 200.02C58.3363 200.02 58.6537 199.955 58.915 199.824C59.1857 199.684 59.405 199.497 59.573 199.264C59.741 199.021 59.8623 198.741 59.937 198.424C60.0117 198.097 60.049 197.747 60.049 197.374ZM61.407 197.374C61.407 197.925 61.3323 198.433 61.183 198.9C61.043 199.367 60.833 199.768 60.553 200.104C60.273 200.44 59.9277 200.701 59.517 200.888C59.1157 201.075 58.6537 201.168 58.131 201.168C57.711 201.168 57.3377 201.112 57.011 201C56.6937 200.888 56.4557 200.781 56.297 200.678V203.59H54.995V193.944C55.303 193.869 55.6857 193.79 56.143 193.706C56.6097 193.613 57.1463 193.566 57.753 193.566C58.313 193.566 58.817 193.655 59.265 193.832C59.713 194.009 60.0957 194.261 60.413 194.588C60.7303 194.915 60.973 195.316 61.141 195.792C61.3183 196.259 61.407 196.786 61.407 197.374ZM65.4231 201.14C64.6205 201.121 64.0511 200.949 63.7151 200.622C63.3791 200.295 63.2111 199.787 63.2111 199.096V190.36L64.5131 190.136V198.886C64.5131 199.101 64.5318 199.278 64.5691 199.418C64.6065 199.558 64.6671 199.67 64.7511 199.754C64.8351 199.838 64.9471 199.903 65.0871 199.95C65.2271 199.987 65.3998 200.02 65.6051 200.048L65.4231 201.14ZM73.4933 197.36C73.4933 197.939 73.4093 198.461 73.2413 198.928C73.0733 199.395 72.8353 199.796 72.5273 200.132C72.2286 200.468 71.8693 200.729 71.4493 200.916C71.0293 201.093 70.5719 201.182 70.0773 201.182C69.5826 201.182 69.1253 201.093 68.7053 200.916C68.2853 200.729 67.9213 200.468 67.6133 200.132C67.3146 199.796 67.0813 199.395 66.9133 198.928C66.7453 198.461 66.6613 197.939 66.6613 197.36C66.6613 196.791 66.7453 196.273 66.9133 195.806C67.0813 195.33 67.3146 194.924 67.6133 194.588C67.9213 194.252 68.2853 193.995 68.7053 193.818C69.1253 193.631 69.5826 193.538 70.0773 193.538C70.5719 193.538 71.0293 193.631 71.4493 193.818C71.8693 193.995 72.2286 194.252 72.5273 194.588C72.8353 194.924 73.0733 195.33 73.2413 195.806C73.4093 196.273 73.4933 196.791 73.4933 197.36ZM72.1353 197.36C72.1353 196.539 71.9486 195.89 71.5753 195.414C71.2113 194.929 70.7119 194.686 70.0773 194.686C69.4426 194.686 68.9386 194.929 68.5653 195.414C68.2013 195.89 68.0193 196.539 68.0193 197.36C68.0193 198.181 68.2013 198.835 68.5653 199.32C68.9386 199.796 69.4426 200.034 70.0773 200.034C70.7119 200.034 71.2113 199.796 71.5753 199.32C71.9486 198.835 72.1353 198.181 72.1353 197.36ZM77.7891 200.062C78.0971 200.062 78.3677 200.057 78.6011 200.048C78.8437 200.029 79.0444 200.001 79.2031 199.964V197.794C79.1097 197.747 78.9557 197.71 78.7411 197.682C78.5357 197.645 78.2837 197.626 77.9851 197.626C77.7891 197.626 77.5791 197.64 77.3551 197.668C77.1404 197.696 76.9397 197.757 76.7531 197.85C76.5757 197.934 76.4264 198.055 76.3051 198.214C76.1837 198.363 76.1231 198.564 76.1231 198.816C76.1231 199.283 76.2724 199.609 76.5711 199.796C76.8697 199.973 77.2757 200.062 77.7891 200.062ZM77.6771 193.538C78.1997 193.538 78.6384 193.608 78.9931 193.748C79.3571 193.879 79.6464 194.07 79.8611 194.322C80.0851 194.565 80.2437 194.859 80.3371 195.204C80.4304 195.54 80.4771 195.913 80.4771 196.324V200.874C80.3651 200.893 80.2064 200.921 80.0011 200.958C79.8051 200.986 79.5811 201.014 79.3291 201.042C79.0771 201.07 78.8017 201.093 78.5031 201.112C78.2137 201.14 77.9244 201.154 77.6351 201.154C77.2244 201.154 76.8464 201.112 76.5011 201.028C76.1557 200.944 75.8571 200.813 75.6051 200.636C75.3531 200.449 75.1571 200.207 75.0171 199.908C74.8771 199.609 74.8071 199.25 74.8071 198.83C74.8071 198.429 74.8864 198.083 75.0451 197.794C75.2131 197.505 75.4371 197.271 75.7171 197.094C75.9971 196.917 76.3237 196.786 76.6971 196.702C77.0704 196.618 77.4624 196.576 77.8731 196.576C78.0037 196.576 78.1391 196.585 78.2791 196.604C78.4191 196.613 78.5497 196.632 78.6711 196.66C78.8017 196.679 78.9137 196.697 79.0071 196.716C79.1004 196.735 79.1657 196.749 79.2031 196.758V196.394C79.2031 196.179 79.1797 195.969 79.1331 195.764C79.0864 195.549 79.0024 195.363 78.8811 195.204C78.7597 195.036 78.5917 194.905 78.3771 194.812C78.1717 194.709 77.9011 194.658 77.5651 194.658C77.1357 194.658 76.7577 194.691 76.4311 194.756C76.1137 194.812 75.8757 194.873 75.7171 194.938L75.5631 193.86C75.7311 193.785 76.0111 193.715 76.4031 193.65C76.7951 193.575 77.2197 193.538 77.6771 193.538ZM87.3435 195.26C87.1849 195.129 86.9562 195.003 86.6575 194.882C86.3589 194.761 86.0322 194.7 85.6775 194.7C85.3042 194.7 84.9822 194.77 84.7115 194.91C84.4502 195.041 84.2355 195.227 84.0675 195.47C83.8995 195.703 83.7782 195.983 83.7035 196.31C83.6289 196.637 83.5915 196.987 83.5915 197.36C83.5915 198.209 83.8015 198.867 84.2215 199.334C84.6415 199.791 85.2015 200.02 85.9015 200.02C86.2562 200.02 86.5502 200.006 86.7835 199.978C87.0262 199.941 87.2129 199.903 87.3435 199.866V195.26ZM87.3435 190.36L88.6455 190.136V200.79C88.3469 200.874 87.9642 200.958 87.4975 201.042C87.0309 201.126 86.4942 201.168 85.8875 201.168C85.3275 201.168 84.8235 201.079 84.3755 200.902C83.9275 200.725 83.5449 200.473 83.2275 200.146C82.9102 199.819 82.6629 199.423 82.4855 198.956C82.3175 198.48 82.2335 197.948 82.2335 197.36C82.2335 196.8 82.3035 196.287 82.4435 195.82C82.5929 195.353 82.8075 194.952 83.0875 194.616C83.3675 194.28 83.7082 194.019 84.1095 193.832C84.5202 193.645 84.9869 193.552 85.5095 193.552C85.9295 193.552 86.2982 193.608 86.6155 193.72C86.9422 193.832 87.1849 193.939 87.3435 194.042V190.36ZM49.9296 213.93C50.2282 213.855 50.6202 213.776 51.1056 213.692C51.6002 213.608 52.1696 213.566 52.8136 213.566C53.2802 213.566 53.6722 213.631 53.9896 213.762C54.3069 213.883 54.5729 214.065 54.7876 214.308C54.8529 214.261 54.9556 214.196 55.0956 214.112C55.2356 214.028 55.4082 213.949 55.6136 213.874C55.8189 213.79 56.0476 213.72 56.2996 213.664C56.5516 213.599 56.8222 213.566 57.1116 213.566C57.6716 213.566 58.1289 213.65 58.4836 213.818C58.8382 213.977 59.1136 214.205 59.3096 214.504C59.5149 214.803 59.6502 215.157 59.7156 215.568C59.7902 215.979 59.8276 216.427 59.8276 216.912V221H58.5256V217.192C58.5256 216.763 58.5022 216.394 58.4556 216.086C58.4182 215.778 58.3389 215.521 58.2176 215.316C58.1056 215.111 57.9469 214.961 57.7416 214.868C57.5456 214.765 57.2889 214.714 56.9716 214.714C56.5329 214.714 56.1689 214.775 55.8796 214.896C55.5996 215.008 55.4082 215.111 55.3056 215.204C55.3802 215.447 55.4362 215.713 55.4736 216.002C55.5109 216.291 55.5296 216.595 55.5296 216.912V221H54.2276V217.192C54.2276 216.763 54.2042 216.394 54.1576 216.086C54.1109 215.778 54.0269 215.521 53.9056 215.316C53.7936 215.111 53.6349 214.961 53.4296 214.868C53.2336 214.765 52.9816 214.714 52.6736 214.714C52.5429 214.714 52.4029 214.719 52.2536 214.728C52.1042 214.737 51.9596 214.751 51.8196 214.77C51.6889 214.779 51.5676 214.793 51.4556 214.812C51.3436 214.831 51.2689 214.845 51.2316 214.854V221H49.9296V213.93ZM68.4142 217.36C68.4142 217.939 68.3302 218.461 68.1622 218.928C67.9942 219.395 67.7562 219.796 67.4482 220.132C67.1495 220.468 66.7902 220.729 66.3702 220.916C65.9502 221.093 65.4928 221.182 64.9982 221.182C64.5035 221.182 64.0462 221.093 63.6262 220.916C63.2062 220.729 62.8422 220.468 62.5342 220.132C62.2355 219.796 62.0022 219.395 61.8342 218.928C61.6662 218.461 61.5822 217.939 61.5822 217.36C61.5822 216.791 61.6662 216.273 61.8342 215.806C62.0022 215.33 62.2355 214.924 62.5342 214.588C62.8422 214.252 63.2062 213.995 63.6262 213.818C64.0462 213.631 64.5035 213.538 64.9982 213.538C65.4928 213.538 65.9502 213.631 66.3702 213.818C66.7902 213.995 67.1495 214.252 67.4482 214.588C67.7562 214.924 67.9942 215.33 68.1622 215.806C68.3302 216.273 68.4142 216.791 68.4142 217.36ZM67.0562 217.36C67.0562 216.539 66.8695 215.89 66.4962 215.414C66.1322 214.929 65.6328 214.686 64.9982 214.686C64.3635 214.686 63.8595 214.929 63.4862 215.414C63.1222 215.89 62.9402 216.539 62.9402 217.36C62.9402 218.181 63.1222 218.835 63.4862 219.32C63.8595 219.796 64.3635 220.034 64.9982 220.034C65.6328 220.034 66.1322 219.796 66.4962 219.32C66.8695 218.835 67.0562 218.181 67.0562 217.36ZM74.95 215.26C74.7913 215.129 74.5626 215.003 74.264 214.882C73.9653 214.761 73.6386 214.7 73.284 214.7C72.9106 214.7 72.5886 214.77 72.318 214.91C72.0566 215.041 71.842 215.227 71.674 215.47C71.506 215.703 71.3846 215.983 71.31 216.31C71.2353 216.637 71.198 216.987 71.198 217.36C71.198 218.209 71.408 218.867 71.828 219.334C72.248 219.791 72.808 220.02 73.508 220.02C73.8626 220.02 74.1566 220.006 74.39 219.978C74.6326 219.941 74.8193 219.903 74.95 219.866V215.26ZM74.95 210.36L76.252 210.136V220.79C75.9533 220.874 75.5706 220.958 75.104 221.042C74.6373 221.126 74.1006 221.168 73.494 221.168C72.934 221.168 72.43 221.079 71.982 220.902C71.534 220.725 71.1513 220.473 70.834 220.146C70.5166 219.819 70.2693 219.423 70.092 218.956C69.924 218.48 69.84 217.948 69.84 217.36C69.84 216.8 69.91 216.287 70.05 215.82C70.1993 215.353 70.414 214.952 70.694 214.616C70.974 214.28 71.3146 214.019 71.716 213.832C72.1266 213.645 72.5933 213.552 73.116 213.552C73.536 213.552 73.9046 213.608 74.222 213.72C74.5486 213.832 74.7913 213.939 74.95 214.042V210.36ZM78.0841 217.374C78.0841 216.73 78.1775 216.17 78.3641 215.694C78.5508 215.209 78.7981 214.807 79.1061 214.49C79.4141 214.173 79.7688 213.935 80.1701 213.776C80.5715 213.617 80.9821 213.538 81.4021 213.538C82.3821 213.538 83.1335 213.846 83.6561 214.462C84.1788 215.069 84.4401 215.997 84.4401 217.248C84.4401 217.304 84.4401 217.379 84.4401 217.472C84.4401 217.556 84.4355 217.635 84.4261 217.71H79.4421C79.4981 218.466 79.7175 219.04 80.1001 219.432C80.4828 219.824 81.0801 220.02 81.8921 220.02C82.3495 220.02 82.7321 219.983 83.0401 219.908C83.3575 219.824 83.5955 219.745 83.7541 219.67L83.9361 220.762C83.7775 220.846 83.4975 220.935 83.0961 221.028C82.7041 221.121 82.2561 221.168 81.7521 221.168C81.1175 221.168 80.5668 221.075 80.1001 220.888C79.6428 220.692 79.2648 220.426 78.9661 220.09C78.6675 219.754 78.4435 219.357 78.2941 218.9C78.1541 218.433 78.0841 217.925 78.0841 217.374ZM83.0821 216.66C83.0915 216.072 82.9421 215.591 82.6341 215.218C82.3355 214.835 81.9201 214.644 81.3881 214.644C81.0895 214.644 80.8235 214.705 80.5901 214.826C80.3661 214.938 80.1748 215.087 80.0161 215.274C79.8575 215.461 79.7315 215.675 79.6381 215.918C79.5541 216.161 79.4981 216.408 79.4701 216.66H83.0821Z" fill="black"/>
<rect width="60" height="40" transform="translate(157 166)" fill="#F6F6FC"/>
<path d="M170.888 181.084C170.692 181.084 170.478 181.079 170.244 181.07C170.02 181.061 169.792 181.047 169.558 181.028C169.334 181.009 169.11 180.986 168.886 180.958C168.662 180.93 168.457 180.893 168.27 180.846V171.438C168.457 171.391 168.662 171.354 168.886 171.326C169.11 171.298 169.334 171.275 169.558 171.256C169.792 171.237 170.02 171.223 170.244 171.214C170.468 171.205 170.678 171.2 170.874 171.2C171.434 171.2 171.957 171.242 172.442 171.326C172.937 171.41 173.362 171.555 173.716 171.76C174.08 171.956 174.365 172.217 174.57 172.544C174.776 172.871 174.878 173.272 174.878 173.748C174.878 174.28 174.752 174.719 174.5 175.064C174.248 175.4 173.912 175.652 173.492 175.82C174.062 175.988 174.514 176.254 174.85 176.618C175.186 176.982 175.354 177.495 175.354 178.158C175.354 179.129 174.995 179.861 174.276 180.356C173.567 180.841 172.438 181.084 170.888 181.084ZM169.614 176.478V179.894C169.717 179.903 169.838 179.913 169.978 179.922C170.1 179.931 170.24 179.941 170.398 179.95C170.566 179.95 170.758 179.95 170.972 179.95C171.374 179.95 171.752 179.927 172.106 179.88C172.47 179.824 172.788 179.731 173.058 179.6C173.329 179.469 173.544 179.287 173.702 179.054C173.87 178.821 173.954 178.527 173.954 178.172C173.954 177.855 173.894 177.589 173.772 177.374C173.651 177.15 173.474 176.973 173.24 176.842C173.016 176.711 172.746 176.618 172.428 176.562C172.111 176.506 171.756 176.478 171.364 176.478H169.614ZM169.614 175.386H171.042C171.378 175.386 171.696 175.363 171.994 175.316C172.293 175.269 172.55 175.185 172.764 175.064C172.988 174.943 173.161 174.784 173.282 174.588C173.413 174.392 173.478 174.145 173.478 173.846C173.478 173.566 173.413 173.333 173.282 173.146C173.152 172.95 172.97 172.796 172.736 172.684C172.512 172.563 172.246 172.474 171.938 172.418C171.63 172.362 171.304 172.334 170.958 172.334C170.613 172.334 170.342 172.339 170.146 172.348C169.95 172.357 169.773 172.371 169.614 172.39V175.386ZM178.485 181H177.183V173.72H178.485V181ZM177.827 172.404C177.593 172.404 177.393 172.329 177.225 172.18C177.066 172.021 176.986 171.811 176.986 171.55C176.986 171.289 177.066 171.083 177.225 170.934C177.393 170.775 177.593 170.696 177.827 170.696C178.06 170.696 178.256 170.775 178.415 170.934C178.583 171.083 178.667 171.289 178.667 171.55C178.667 171.811 178.583 172.021 178.415 172.18C178.256 172.329 178.06 172.404 177.827 172.404ZM182.908 181.14C182.105 181.121 181.536 180.949 181.2 180.622C180.864 180.295 180.696 179.787 180.696 179.096V170.36L181.998 170.136V178.886C181.998 179.101 182.016 179.278 182.054 179.418C182.091 179.558 182.152 179.67 182.236 179.754C182.32 179.838 182.432 179.903 182.572 179.95C182.712 179.987 182.884 180.02 183.09 180.048L182.908 181.14ZM186.736 181.14C185.933 181.121 185.364 180.949 185.028 180.622C184.692 180.295 184.524 179.787 184.524 179.096V170.36L185.826 170.136V178.886C185.826 179.101 185.844 179.278 185.882 179.418C185.919 179.558 185.98 179.67 186.064 179.754C186.148 179.838 186.26 179.903 186.4 179.95C186.54 179.987 186.712 180.02 186.918 180.048L186.736 181.14ZM189.682 181H188.38V173.72H189.682V181ZM189.024 172.404C188.79 172.404 188.59 172.329 188.422 172.18C188.263 172.021 188.184 171.811 188.184 171.55C188.184 171.289 188.263 171.083 188.422 170.934C188.59 170.775 188.79 170.696 189.024 170.696C189.257 170.696 189.453 170.775 189.612 170.934C189.78 171.083 189.864 171.289 189.864 171.55C189.864 171.811 189.78 172.021 189.612 172.18C189.453 172.329 189.257 172.404 189.024 172.404ZM191.921 173.93C192.219 173.855 192.616 173.776 193.111 173.692C193.605 173.608 194.175 173.566 194.819 173.566C195.397 173.566 195.878 173.65 196.261 173.818C196.643 173.977 196.947 174.205 197.171 174.504C197.404 174.793 197.567 175.143 197.661 175.554C197.754 175.965 197.801 176.417 197.801 176.912V181H196.499V177.192C196.499 176.744 196.466 176.361 196.401 176.044C196.345 175.727 196.247 175.47 196.107 175.274C195.967 175.078 195.78 174.938 195.547 174.854C195.313 174.761 195.024 174.714 194.679 174.714C194.539 174.714 194.394 174.719 194.245 174.728C194.095 174.737 193.951 174.751 193.811 174.77C193.68 174.779 193.559 174.793 193.447 174.812C193.344 174.831 193.269 174.845 193.223 174.854V181H191.921V173.93ZM204.524 180.272C204.412 180.347 204.193 180.445 203.866 180.566C203.549 180.678 203.175 180.734 202.746 180.734C202.307 180.734 201.892 180.664 201.5 180.524C201.117 180.384 200.781 180.169 200.492 179.88C200.203 179.581 199.974 179.213 199.806 178.774C199.638 178.335 199.554 177.813 199.554 177.206C199.554 176.674 199.633 176.189 199.792 175.75C199.951 175.302 200.179 174.919 200.478 174.602C200.786 174.275 201.159 174.023 201.598 173.846C202.037 173.659 202.531 173.566 203.082 173.566C203.689 173.566 204.216 173.613 204.664 173.706C205.121 173.79 205.504 173.869 205.812 173.944V180.44C205.812 181.56 205.523 182.372 204.944 182.876C204.365 183.38 203.488 183.632 202.312 183.632C201.855 183.632 201.421 183.595 201.01 183.52C200.609 183.445 200.259 183.357 199.96 183.254L200.198 182.12C200.459 182.223 200.777 182.311 201.15 182.386C201.533 182.47 201.929 182.512 202.34 182.512C203.115 182.512 203.67 182.358 204.006 182.05C204.351 181.742 204.524 181.252 204.524 180.58V180.272ZM204.51 174.868C204.379 174.831 204.202 174.798 203.978 174.77C203.763 174.733 203.469 174.714 203.096 174.714C202.396 174.714 201.855 174.943 201.472 175.4C201.099 175.857 200.912 176.464 200.912 177.22C200.912 177.64 200.963 177.999 201.066 178.298C201.178 178.597 201.323 178.844 201.5 179.04C201.687 179.236 201.897 179.381 202.13 179.474C202.373 179.567 202.62 179.614 202.872 179.614C203.217 179.614 203.535 179.567 203.824 179.474C204.113 179.371 204.342 179.255 204.51 179.124V174.868ZM177.6 201C177.395 200.655 177.157 200.267 176.886 199.838C176.625 199.409 176.34 198.965 176.032 198.508C175.724 198.041 175.402 197.57 175.066 197.094C174.739 196.618 174.413 196.161 174.086 195.722C173.759 195.274 173.442 194.854 173.134 194.462C172.826 194.07 172.541 193.725 172.28 193.426V201H170.95V191.298H172.028C172.467 191.765 172.933 192.311 173.428 192.936C173.932 193.552 174.427 194.191 174.912 194.854C175.407 195.507 175.869 196.151 176.298 196.786C176.737 197.421 177.105 197.985 177.404 198.48V191.298H178.734V201H177.6ZM187.478 197.36C187.478 197.939 187.394 198.461 187.226 198.928C187.058 199.395 186.82 199.796 186.512 200.132C186.213 200.468 185.854 200.729 185.434 200.916C185.014 201.093 184.556 201.182 184.062 201.182C183.567 201.182 183.11 201.093 182.69 200.916C182.27 200.729 181.906 200.468 181.598 200.132C181.299 199.796 181.066 199.395 180.898 198.928C180.73 198.461 180.646 197.939 180.646 197.36C180.646 196.791 180.73 196.273 180.898 195.806C181.066 195.33 181.299 194.924 181.598 194.588C181.906 194.252 182.27 193.995 182.69 193.818C183.11 193.631 183.567 193.538 184.062 193.538C184.556 193.538 185.014 193.631 185.434 193.818C185.854 193.995 186.213 194.252 186.512 194.588C186.82 194.924 187.058 195.33 187.226 195.806C187.394 196.273 187.478 196.791 187.478 197.36ZM186.12 197.36C186.12 196.539 185.933 195.89 185.56 195.414C185.196 194.929 184.696 194.686 184.062 194.686C183.427 194.686 182.923 194.929 182.55 195.414C182.186 195.89 182.004 196.539 182.004 197.36C182.004 198.181 182.186 198.835 182.55 199.32C182.923 199.796 183.427 200.034 184.062 200.034C184.696 200.034 185.196 199.796 185.56 199.32C185.933 198.835 186.12 198.181 186.12 197.36ZM194.013 195.26C193.855 195.129 193.626 195.003 193.327 194.882C193.029 194.761 192.702 194.7 192.347 194.7C191.974 194.7 191.652 194.77 191.381 194.91C191.12 195.041 190.905 195.227 190.737 195.47C190.569 195.703 190.448 195.983 190.373 196.31C190.299 196.637 190.261 196.987 190.261 197.36C190.261 198.209 190.471 198.867 190.891 199.334C191.311 199.791 191.871 200.02 192.571 200.02C192.926 200.02 193.22 200.006 193.453 199.978C193.696 199.941 193.883 199.903 194.013 199.866V195.26ZM194.013 190.36L195.315 190.136V200.79C195.017 200.874 194.634 200.958 194.167 201.042C193.701 201.126 193.164 201.168 192.557 201.168C191.997 201.168 191.493 201.079 191.045 200.902C190.597 200.725 190.215 200.473 189.897 200.146C189.58 199.819 189.333 199.423 189.155 198.956C188.987 198.48 188.903 197.948 188.903 197.36C188.903 196.8 188.973 196.287 189.113 195.82C189.263 195.353 189.477 194.952 189.757 194.616C190.037 194.28 190.378 194.019 190.779 193.832C191.19 193.645 191.657 193.552 192.179 193.552C192.599 193.552 192.968 193.608 193.285 193.72C193.612 193.832 193.855 193.939 194.013 194.042V190.36ZM197.148 197.374C197.148 196.73 197.241 196.17 197.428 195.694C197.614 195.209 197.862 194.807 198.17 194.49C198.478 194.173 198.832 193.935 199.234 193.776C199.635 193.617 200.046 193.538 200.466 193.538C201.446 193.538 202.197 193.846 202.72 194.462C203.242 195.069 203.504 195.997 203.504 197.248C203.504 197.304 203.504 197.379 203.504 197.472C203.504 197.556 203.499 197.635 203.49 197.71H198.506C198.562 198.466 198.781 199.04 199.164 199.432C199.546 199.824 200.144 200.02 200.956 200.02C201.413 200.02 201.796 199.983 202.104 199.908C202.421 199.824 202.659 199.745 202.818 199.67L203 200.762C202.841 200.846 202.561 200.935 202.16 201.028C201.768 201.121 201.32 201.168 200.816 201.168C200.181 201.168 199.63 201.075 199.164 200.888C198.706 200.692 198.328 200.426 198.03 200.09C197.731 199.754 197.507 199.357 197.358 198.9C197.218 198.433 197.148 197.925 197.148 197.374ZM202.146 196.66C202.155 196.072 202.006 195.591 201.698 195.218C201.399 194.835 200.984 194.644 200.452 194.644C200.153 194.644 199.887 194.705 199.654 194.826C199.43 194.938 199.238 195.087 199.08 195.274C198.921 195.461 198.795 195.675 198.702 195.918C198.618 196.161 198.562 196.408 198.534 196.66H202.146Z" fill="black"/>
<rect width="60" height="40" transform="translate(277 186)" fill="#F6F6FC"/>
<path d="M284.492 196.94C284.641 197.127 284.828 197.374 285.052 197.682C285.285 197.981 285.523 198.317 285.766 198.69C286.009 199.054 286.247 199.437 286.48 199.838C286.723 200.239 286.928 200.627 287.096 201H285.612C285.425 200.645 285.22 200.286 284.996 199.922C284.781 199.558 284.562 199.213 284.338 198.886C284.114 198.55 283.89 198.237 283.666 197.948C283.451 197.659 283.255 197.407 283.078 197.192C282.957 197.201 282.831 197.206 282.7 197.206C282.579 197.206 282.453 197.206 282.322 197.206H281.104V201H279.746V191.438C280.129 191.345 280.553 191.284 281.02 191.256C281.496 191.219 281.93 191.2 282.322 191.2C283.685 191.2 284.721 191.457 285.43 191.97C286.149 192.483 286.508 193.249 286.508 194.266C286.508 194.91 286.335 195.461 285.99 195.918C285.654 196.375 285.155 196.716 284.492 196.94ZM282.434 192.39C281.855 192.39 281.412 192.404 281.104 192.432V196.086H282.07C282.537 196.086 282.957 196.063 283.33 196.016C283.703 195.969 284.016 195.881 284.268 195.75C284.529 195.619 284.73 195.437 284.87 195.204C285.01 194.961 285.08 194.644 285.08 194.252C285.08 193.888 285.01 193.585 284.87 193.342C284.73 193.099 284.539 192.908 284.296 192.768C284.063 192.628 283.783 192.53 283.456 192.474C283.139 192.418 282.798 192.39 282.434 192.39ZM288.061 197.374C288.061 196.73 288.154 196.17 288.341 195.694C288.527 195.209 288.775 194.807 289.083 194.49C289.391 194.173 289.745 193.935 290.147 193.776C290.548 193.617 290.959 193.538 291.379 193.538C292.359 193.538 293.11 193.846 293.633 194.462C294.155 195.069 294.417 195.997 294.417 197.248C294.417 197.304 294.417 197.379 294.417 197.472C294.417 197.556 294.412 197.635 294.403 197.71H289.419C289.475 198.466 289.694 199.04 290.077 199.432C290.459 199.824 291.057 200.02 291.869 200.02C292.326 200.02 292.709 199.983 293.017 199.908C293.334 199.824 293.572 199.745 293.731 199.67L293.913 200.762C293.754 200.846 293.474 200.935 293.073 201.028C292.681 201.121 292.233 201.168 291.729 201.168C291.094 201.168 290.543 201.075 290.077 200.888C289.619 200.692 289.241 200.426 288.943 200.09C288.644 199.754 288.42 199.357 288.271 198.9C288.131 198.433 288.061 197.925 288.061 197.374ZM293.059 196.66C293.068 196.072 292.919 195.591 292.611 195.218C292.312 194.835 291.897 194.644 291.365 194.644C291.066 194.644 290.8 194.705 290.567 194.826C290.343 194.938 290.151 195.087 289.993 195.274C289.834 195.461 289.708 195.675 289.615 195.918C289.531 196.161 289.475 196.408 289.447 196.66H293.059ZM297.505 193.72H300.263V194.812H297.505V198.172C297.505 198.536 297.533 198.839 297.589 199.082C297.645 199.315 297.729 199.502 297.841 199.642C297.953 199.773 298.093 199.866 298.261 199.922C298.429 199.978 298.625 200.006 298.849 200.006C299.241 200.006 299.554 199.964 299.787 199.88C300.03 199.787 300.198 199.721 300.291 199.684L300.543 200.762C300.412 200.827 300.184 200.907 299.857 201C299.53 201.103 299.157 201.154 298.737 201.154C298.242 201.154 297.832 201.093 297.505 200.972C297.188 200.841 296.931 200.65 296.735 200.398C296.539 200.146 296.399 199.838 296.315 199.474C296.24 199.101 296.203 198.671 296.203 198.186V191.69L297.505 191.466V193.72ZM304.608 193.566C304.72 193.566 304.846 193.575 304.986 193.594C305.135 193.603 305.28 193.622 305.42 193.65C305.56 193.669 305.686 193.692 305.798 193.72C305.919 193.739 306.008 193.757 306.064 193.776L305.84 194.91C305.737 194.873 305.564 194.831 305.322 194.784C305.088 194.728 304.785 194.7 304.412 194.7C304.169 194.7 303.926 194.728 303.684 194.784C303.45 194.831 303.296 194.863 303.222 194.882V201H301.92V194.028C302.228 193.916 302.61 193.813 303.068 193.72C303.525 193.617 304.038 193.566 304.608 193.566ZM308.622 201H307.32V193.72H308.622V201ZM307.964 192.404C307.731 192.404 307.53 192.329 307.362 192.18C307.204 192.021 307.124 191.811 307.124 191.55C307.124 191.289 307.204 191.083 307.362 190.934C307.53 190.775 307.731 190.696 307.964 190.696C308.198 190.696 308.394 190.775 308.552 190.934C308.72 191.083 308.804 191.289 308.804 191.55C308.804 191.811 308.72 192.021 308.552 192.18C308.394 192.329 308.198 192.404 307.964 192.404ZM310.455 197.374C310.455 196.73 310.549 196.17 310.735 195.694C310.922 195.209 311.169 194.807 311.477 194.49C311.785 194.173 312.14 193.935 312.541 193.776C312.943 193.617 313.353 193.538 313.773 193.538C314.753 193.538 315.505 193.846 316.027 194.462C316.55 195.069 316.811 195.997 316.811 197.248C316.811 197.304 316.811 197.379 316.811 197.472C316.811 197.556 316.807 197.635 316.797 197.71H311.813C311.869 198.466 312.089 199.04 312.471 199.432C312.854 199.824 313.451 200.02 314.263 200.02C314.721 200.02 315.103 199.983 315.411 199.908C315.729 199.824 315.967 199.745 316.125 199.67L316.307 200.762C316.149 200.846 315.869 200.935 315.467 201.028C315.075 201.121 314.627 201.168 314.123 201.168C313.489 201.168 312.938 201.075 312.471 200.888C312.014 200.692 311.636 200.426 311.337 200.09C311.039 199.754 310.815 199.357 310.665 198.9C310.525 198.433 310.455 197.925 310.455 197.374ZM315.453 196.66C315.463 196.072 315.313 195.591 315.005 195.218C314.707 194.835 314.291 194.644 313.759 194.644C313.461 194.644 313.195 194.705 312.961 194.826C312.737 194.938 312.546 195.087 312.387 195.274C312.229 195.461 312.103 195.675 312.009 195.918C311.925 196.161 311.869 196.408 311.841 196.66H315.453ZM324.366 193.72C324.002 195.083 323.572 196.389 323.078 197.64C322.592 198.891 322.121 200.011 321.664 201H320.488C320.03 200.011 319.554 198.891 319.06 197.64C318.574 196.389 318.15 195.083 317.786 193.72H319.186C319.298 194.177 319.428 194.667 319.578 195.19C319.736 195.703 319.9 196.217 320.068 196.73C320.245 197.234 320.422 197.724 320.6 198.2C320.777 198.676 320.945 199.101 321.104 199.474C321.262 199.101 321.43 198.676 321.608 198.2C321.785 197.724 321.958 197.234 322.126 196.73C322.303 196.217 322.466 195.703 322.616 195.19C322.774 194.667 322.91 194.177 323.022 193.72H324.366ZM325.111 197.374C325.111 196.73 325.205 196.17 325.391 195.694C325.578 195.209 325.825 194.807 326.133 194.49C326.441 194.173 326.796 193.935 327.197 193.776C327.599 193.617 328.009 193.538 328.429 193.538C329.409 193.538 330.161 193.846 330.683 194.462C331.206 195.069 331.467 195.997 331.467 197.248C331.467 197.304 331.467 197.379 331.467 197.472C331.467 197.556 331.463 197.635 331.453 197.71H326.469C326.525 198.466 326.745 199.04 327.127 199.432C327.51 199.824 328.107 200.02 328.919 200.02C329.377 200.02 329.759 199.983 330.067 199.908C330.385 199.824 330.623 199.745 330.781 199.67L330.963 200.762C330.805 200.846 330.525 200.935 330.123 201.028C329.731 201.121 329.283 201.168 328.779 201.168C328.145 201.168 327.594 201.075 327.127 200.888C326.67 200.692 326.292 200.426 325.993 200.09C325.695 199.754 325.471 199.357 325.321 198.9C325.181 198.433 325.111 197.925 325.111 197.374ZM330.109 196.66C330.119 196.072 329.969 195.591 329.661 195.218C329.363 194.835 328.947 194.644 328.415 194.644C328.117 194.644 327.851 194.705 327.617 194.826C327.393 194.938 327.202 195.087 327.043 195.274C326.885 195.461 326.759 195.675 326.665 195.918C326.581 196.161 326.525 196.408 326.497 196.66H330.109ZM297.6 221C297.395 220.655 297.157 220.267 296.886 219.838C296.625 219.409 296.34 218.965 296.032 218.508C295.724 218.041 295.402 217.57 295.066 217.094C294.739 216.618 294.413 216.161 294.086 215.722C293.759 215.274 293.442 214.854 293.134 214.462C292.826 214.07 292.541 213.725 292.28 213.426V221H290.95V211.298H292.028C292.467 211.765 292.933 212.311 293.428 212.936C293.932 213.552 294.427 214.191 294.912 214.854C295.407 215.507 295.869 216.151 296.298 216.786C296.737 217.421 297.105 217.985 297.404 218.48V211.298H298.734V221H297.6ZM307.478 217.36C307.478 217.939 307.394 218.461 307.226 218.928C307.058 219.395 306.82 219.796 306.512 220.132C306.213 220.468 305.854 220.729 305.434 220.916C305.014 221.093 304.556 221.182 304.062 221.182C303.567 221.182 303.11 221.093 302.69 220.916C302.27 220.729 301.906 220.468 301.598 220.132C301.299 219.796 301.066 219.395 300.898 218.928C300.73 218.461 300.646 217.939 300.646 217.36C300.646 216.791 300.73 216.273 300.898 215.806C301.066 215.33 301.299 214.924 301.598 214.588C301.906 214.252 302.27 213.995 302.69 213.818C303.11 213.631 303.567 213.538 304.062 213.538C304.556 213.538 305.014 213.631 305.434 213.818C305.854 213.995 306.213 214.252 306.512 214.588C306.82 214.924 307.058 215.33 307.226 215.806C307.394 216.273 307.478 216.791 307.478 217.36ZM306.12 217.36C306.12 216.539 305.933 215.89 305.56 215.414C305.196 214.929 304.696 214.686 304.062 214.686C303.427 214.686 302.923 214.929 302.55 215.414C302.186 215.89 302.004 216.539 302.004 217.36C302.004 218.181 302.186 218.835 302.55 219.32C302.923 219.796 303.427 220.034 304.062 220.034C304.696 220.034 305.196 219.796 305.56 219.32C305.933 218.835 306.12 218.181 306.12 217.36ZM314.013 215.26C313.855 215.129 313.626 215.003 313.327 214.882C313.029 214.761 312.702 214.7 312.347 214.7C311.974 214.7 311.652 214.77 311.381 214.91C311.12 215.041 310.905 215.227 310.737 215.47C310.569 215.703 310.448 215.983 310.373 216.31C310.299 216.637 310.261 216.987 310.261 217.36C310.261 218.209 310.471 218.867 310.891 219.334C311.311 219.791 311.871 220.02 312.571 220.02C312.926 220.02 313.22 220.006 313.453 219.978C313.696 219.941 313.883 219.903 314.013 219.866V215.26ZM314.013 210.36L315.315 210.136V220.79C315.017 220.874 314.634 220.958 314.167 221.042C313.701 221.126 313.164 221.168 312.557 221.168C311.997 221.168 311.493 221.079 311.045 220.902C310.597 220.725 310.215 220.473 309.897 220.146C309.58 219.819 309.333 219.423 309.155 218.956C308.987 218.48 308.903 217.948 308.903 217.36C308.903 216.8 308.973 216.287 309.113 215.82C309.263 215.353 309.477 214.952 309.757 214.616C310.037 214.28 310.378 214.019 310.779 213.832C311.19 213.645 311.657 213.552 312.179 213.552C312.599 213.552 312.968 213.608 313.285 213.72C313.612 213.832 313.855 213.939 314.013 214.042V210.36ZM317.148 217.374C317.148 216.73 317.241 216.17 317.428 215.694C317.614 215.209 317.862 214.807 318.17 214.49C318.478 214.173 318.832 213.935 319.234 213.776C319.635 213.617 320.046 213.538 320.466 213.538C321.446 213.538 322.197 213.846 322.72 214.462C323.242 215.069 323.504 215.997 323.504 217.248C323.504 217.304 323.504 217.379 323.504 217.472C323.504 217.556 323.499 217.635 323.49 217.71H318.506C318.562 218.466 318.781 219.04 319.164 219.432C319.546 219.824 320.144 220.02 320.956 220.02C321.413 220.02 321.796 219.983 322.104 219.908C322.421 219.824 322.659 219.745 322.818 219.67L323 220.762C322.841 220.846 322.561 220.935 322.16 221.028C321.768 221.121 321.32 221.168 320.816 221.168C320.181 221.168 319.63 221.075 319.164 220.888C318.706 220.692 318.328 220.426 318.03 220.09C317.731 219.754 317.507 219.357 317.358 218.9C317.218 218.433 317.148 217.925 317.148 217.374ZM322.146 216.66C322.155 216.072 322.006 215.591 321.698 215.218C321.399 214.835 320.984 214.644 320.452 214.644C320.153 214.644 319.887 214.705 319.654 214.826C319.43 214.938 319.238 215.087 319.08 215.274C318.921 215.461 318.795 215.675 318.702 215.918C318.618 216.161 318.562 216.408 318.534 216.66H322.146Z" fill="black"/>
<rect width="87" height="20" transform="translate(141 236)" fill="#F6F6FC"/>
<path d="M154.743 251.196C153.166 251.196 151.962 250.757 151.131 249.88C150.31 249.003 149.899 247.757 149.899 246.142C149.899 245.339 150.025 244.625 150.277 244C150.529 243.365 150.875 242.833 151.313 242.404C151.752 241.965 152.275 241.634 152.881 241.41C153.488 241.186 154.146 241.074 154.855 241.074C155.266 241.074 155.639 241.107 155.975 241.172C156.311 241.228 156.605 241.298 156.857 241.382C157.109 241.457 157.319 241.536 157.487 241.62C157.655 241.704 157.777 241.769 157.851 241.816L157.221 243.58C156.923 243.421 156.573 243.286 156.171 243.174C155.779 243.062 155.331 243.006 154.827 243.006C154.491 243.006 154.16 243.062 153.833 243.174C153.516 243.286 153.231 243.468 152.979 243.72C152.737 243.963 152.541 244.28 152.391 244.672C152.242 245.064 152.167 245.54 152.167 246.1C152.167 246.548 152.214 246.968 152.307 247.36C152.41 247.743 152.569 248.074 152.783 248.354C153.007 248.634 153.297 248.858 153.651 249.026C154.006 249.185 154.435 249.264 154.939 249.264C155.257 249.264 155.541 249.245 155.793 249.208C156.045 249.171 156.269 249.129 156.465 249.082C156.661 249.026 156.834 248.965 156.983 248.9C157.133 248.835 157.268 248.774 157.389 248.718L157.991 250.468C157.683 250.655 157.249 250.823 156.689 250.972C156.129 251.121 155.481 251.196 154.743 251.196ZM165.981 247.304C165.981 247.883 165.897 248.415 165.729 248.9C165.561 249.376 165.319 249.787 165.001 250.132C164.684 250.468 164.301 250.729 163.853 250.916C163.415 251.103 162.92 251.196 162.369 251.196C161.828 251.196 161.333 251.103 160.885 250.916C160.447 250.729 160.069 250.468 159.751 250.132C159.434 249.787 159.187 249.376 159.009 248.9C158.832 248.415 158.743 247.883 158.743 247.304C158.743 246.725 158.832 246.198 159.009 245.722C159.196 245.246 159.448 244.84 159.765 244.504C160.092 244.168 160.475 243.907 160.913 243.72C161.361 243.533 161.847 243.44 162.369 243.44C162.901 243.44 163.387 243.533 163.825 243.72C164.273 243.907 164.656 244.168 164.973 244.504C165.291 244.84 165.538 245.246 165.715 245.722C165.893 246.198 165.981 246.725 165.981 247.304ZM163.853 247.304C163.853 246.66 163.723 246.156 163.461 245.792C163.209 245.419 162.845 245.232 162.369 245.232C161.893 245.232 161.525 245.419 161.263 245.792C161.002 246.156 160.871 246.66 160.871 247.304C160.871 247.948 161.002 248.461 161.263 248.844C161.525 249.217 161.893 249.404 162.369 249.404C162.845 249.404 163.209 249.217 163.461 248.844C163.723 248.461 163.853 247.948 163.853 247.304ZM170.537 251.14C169.931 251.131 169.436 251.065 169.053 250.944C168.68 250.823 168.381 250.655 168.157 250.44C167.943 250.216 167.793 249.95 167.709 249.642C167.635 249.325 167.597 248.97 167.597 248.578V240.472L169.683 240.136V248.158C169.683 248.345 169.697 248.513 169.725 248.662C169.753 248.811 169.805 248.937 169.879 249.04C169.963 249.143 170.08 249.227 170.229 249.292C170.379 249.357 170.579 249.399 170.831 249.418L170.537 251.14ZM173.805 247.262C173.805 247.906 173.95 248.424 174.239 248.816C174.528 249.208 174.958 249.404 175.527 249.404C175.714 249.404 175.886 249.399 176.045 249.39C176.204 249.371 176.334 249.353 176.437 249.334V245.54C176.306 245.456 176.134 245.386 175.919 245.33C175.714 245.274 175.504 245.246 175.289 245.246C174.3 245.246 173.805 245.918 173.805 247.262ZM178.523 250.762C178.336 250.818 178.122 250.874 177.879 250.93C177.636 250.977 177.38 251.019 177.109 251.056C176.848 251.093 176.577 251.121 176.297 251.14C176.026 251.168 175.765 251.182 175.513 251.182C174.906 251.182 174.365 251.093 173.889 250.916C173.413 250.739 173.012 250.487 172.685 250.16C172.358 249.824 172.106 249.423 171.929 248.956C171.761 248.48 171.677 247.948 171.677 247.36C171.677 246.763 171.752 246.226 171.901 245.75C172.05 245.265 172.265 244.854 172.545 244.518C172.825 244.182 173.166 243.925 173.567 243.748C173.978 243.571 174.444 243.482 174.967 243.482C175.256 243.482 175.513 243.51 175.737 243.566C175.97 243.622 176.204 243.701 176.437 243.804V240.472L178.523 240.136V250.762ZM186.625 249.334C186.933 249.334 187.185 249.311 187.381 249.264C187.587 249.208 187.75 249.138 187.871 249.054C187.993 248.961 188.077 248.853 188.123 248.732C188.17 248.611 188.193 248.475 188.193 248.326C188.193 248.009 188.044 247.747 187.745 247.542C187.447 247.327 186.933 247.099 186.205 246.856C185.888 246.744 185.571 246.618 185.253 246.478C184.936 246.329 184.651 246.147 184.399 245.932C184.147 245.708 183.942 245.442 183.783 245.134C183.625 244.817 183.545 244.434 183.545 243.986C183.545 243.538 183.629 243.137 183.797 242.782C183.965 242.418 184.203 242.11 184.511 241.858C184.819 241.606 185.193 241.415 185.631 241.284C186.07 241.144 186.565 241.074 187.115 241.074C187.769 241.074 188.333 241.144 188.809 241.284C189.285 241.424 189.677 241.578 189.985 241.746L189.355 243.468C189.085 243.328 188.781 243.207 188.445 243.104C188.119 242.992 187.722 242.936 187.255 242.936C186.733 242.936 186.355 243.011 186.121 243.16C185.897 243.3 185.785 243.519 185.785 243.818C185.785 243.995 185.827 244.145 185.911 244.266C185.995 244.387 186.112 244.499 186.261 244.602C186.42 244.695 186.597 244.784 186.793 244.868C186.999 244.943 187.223 245.022 187.465 245.106C187.969 245.293 188.408 245.479 188.781 245.666C189.155 245.843 189.463 246.053 189.705 246.296C189.957 246.539 190.144 246.823 190.265 247.15C190.387 247.477 190.447 247.873 190.447 248.34C190.447 249.245 190.13 249.95 189.495 250.454C188.861 250.949 187.904 251.196 186.625 251.196C186.196 251.196 185.809 251.168 185.463 251.112C185.118 251.065 184.81 251.005 184.539 250.93C184.278 250.855 184.049 250.776 183.853 250.692C183.667 250.608 183.508 250.529 183.377 250.454L183.993 248.718C184.283 248.877 184.637 249.021 185.057 249.152C185.487 249.273 186.009 249.334 186.625 249.334ZM191.918 241.802L194.004 241.466V243.636H196.51V245.372H194.004V247.962C194.004 248.401 194.078 248.751 194.228 249.012C194.386 249.273 194.699 249.404 195.166 249.404C195.39 249.404 195.618 249.385 195.852 249.348C196.094 249.301 196.314 249.241 196.51 249.166L196.804 250.79C196.552 250.893 196.272 250.981 195.964 251.056C195.656 251.131 195.278 251.168 194.83 251.168C194.26 251.168 193.789 251.093 193.416 250.944C193.042 250.785 192.744 250.571 192.52 250.3C192.296 250.02 192.137 249.684 192.044 249.292C191.96 248.9 191.918 248.466 191.918 247.99V241.802ZM200.749 249.544C200.954 249.544 201.15 249.539 201.337 249.53C201.524 249.521 201.673 249.507 201.785 249.488V247.906C201.701 247.887 201.575 247.869 201.407 247.85C201.239 247.831 201.085 247.822 200.945 247.822C200.749 247.822 200.562 247.836 200.385 247.864C200.217 247.883 200.068 247.925 199.937 247.99C199.806 248.055 199.704 248.144 199.629 248.256C199.554 248.368 199.517 248.508 199.517 248.676C199.517 249.003 199.624 249.231 199.839 249.362C200.063 249.483 200.366 249.544 200.749 249.544ZM200.581 243.44C201.197 243.44 201.71 243.51 202.121 243.65C202.532 243.79 202.858 243.991 203.101 244.252C203.353 244.513 203.53 244.831 203.633 245.204C203.736 245.577 203.787 245.993 203.787 246.45V250.79C203.488 250.855 203.073 250.93 202.541 251.014C202.009 251.107 201.365 251.154 200.609 251.154C200.133 251.154 199.699 251.112 199.307 251.028C198.924 250.944 198.593 250.809 198.313 250.622C198.033 250.426 197.818 250.174 197.669 249.866C197.52 249.558 197.445 249.18 197.445 248.732C197.445 248.303 197.529 247.939 197.697 247.64C197.874 247.341 198.108 247.103 198.397 246.926C198.686 246.749 199.018 246.623 199.391 246.548C199.764 246.464 200.152 246.422 200.553 246.422C200.824 246.422 201.062 246.436 201.267 246.464C201.482 246.483 201.654 246.511 201.785 246.548V246.352C201.785 245.997 201.678 245.713 201.463 245.498C201.248 245.283 200.875 245.176 200.343 245.176C199.988 245.176 199.638 245.204 199.293 245.26C198.948 245.307 198.649 245.377 198.397 245.47L198.131 243.79C198.252 243.753 198.402 243.715 198.579 243.678C198.766 243.631 198.966 243.594 199.181 243.566C199.396 243.529 199.62 243.501 199.853 243.482C200.096 243.454 200.338 243.44 200.581 243.44ZM205.323 247.318C205.323 246.786 205.407 246.287 205.575 245.82C205.753 245.344 206.005 244.933 206.331 244.588C206.658 244.233 207.055 243.953 207.521 243.748C207.988 243.543 208.52 243.44 209.117 243.44C209.509 243.44 209.869 243.477 210.195 243.552C210.522 243.617 210.839 243.715 211.147 243.846L210.713 245.512C210.517 245.437 210.303 245.372 210.069 245.316C209.836 245.26 209.575 245.232 209.285 245.232C208.669 245.232 208.207 245.423 207.899 245.806C207.601 246.189 207.451 246.693 207.451 247.318C207.451 247.981 207.591 248.494 207.871 248.858C208.161 249.222 208.66 249.404 209.369 249.404C209.621 249.404 209.892 249.381 210.181 249.334C210.471 249.287 210.737 249.213 210.979 249.11L211.273 250.818C211.031 250.921 210.727 251.009 210.363 251.084C209.999 251.159 209.598 251.196 209.159 251.196C208.487 251.196 207.909 251.098 207.423 250.902C206.938 250.697 206.537 250.421 206.219 250.076C205.911 249.731 205.683 249.325 205.533 248.858C205.393 248.382 205.323 247.869 205.323 247.318ZM214.759 246.296C214.965 246.072 215.175 245.839 215.389 245.596C215.613 245.353 215.828 245.115 216.033 244.882C216.239 244.639 216.43 244.411 216.607 244.196C216.794 243.981 216.953 243.795 217.083 243.636H219.561C219.067 244.205 218.581 244.751 218.105 245.274C217.639 245.787 217.125 246.319 216.565 246.87C216.845 247.122 217.135 247.425 217.433 247.78C217.732 248.125 218.021 248.485 218.301 248.858C218.581 249.231 218.838 249.605 219.071 249.978C219.305 250.351 219.501 250.692 219.659 251H217.265C217.116 250.757 216.943 250.491 216.747 250.202C216.561 249.903 216.36 249.609 216.145 249.32C215.931 249.021 215.702 248.737 215.459 248.466C215.226 248.195 214.993 247.967 214.759 247.78V251H212.673V240.472L214.759 240.136V246.296Z" fill="#342BDB"/>
<rect width="83" height="20" transform="translate(145 371)" fill="white"/>
<path d="M182.265 381.142C182.265 381.982 182.134 382.715 181.873 383.34C181.611 383.956 181.243 384.469 180.767 384.88C180.291 385.281 179.721 385.585 179.059 385.79C178.396 385.986 177.668 386.084 176.875 386.084C176.483 386.084 176.049 386.065 175.573 386.028C175.106 386 174.681 385.939 174.299 385.846V376.438C174.681 376.345 175.106 376.284 175.573 376.256C176.049 376.219 176.483 376.2 176.875 376.2C177.668 376.2 178.396 376.303 179.059 376.508C179.721 376.704 180.291 377.007 180.767 377.418C181.243 377.819 181.611 378.333 181.873 378.958C182.134 379.574 182.265 380.302 182.265 381.142ZM176.987 384.894C178.275 384.894 179.236 384.567 179.871 383.914C180.505 383.251 180.823 382.327 180.823 381.142C180.823 379.957 180.505 379.037 179.871 378.384C179.236 377.721 178.275 377.39 176.987 377.39C176.604 377.39 176.305 377.395 176.091 377.404C175.885 377.413 175.741 377.423 175.657 377.432V384.852C175.741 384.861 175.885 384.871 176.091 384.88C176.305 384.889 176.604 384.894 176.987 384.894ZM184.279 386V376.298H190.201V377.46H185.637V380.344H189.697V381.478H185.637V384.838H190.551V386H184.279ZM198.101 386C197.961 385.72 197.793 385.412 197.597 385.076C197.401 384.731 197.187 384.376 196.953 384.012C196.72 383.639 196.477 383.27 196.225 382.906C195.973 382.533 195.731 382.183 195.497 381.856C195.264 382.183 195.021 382.533 194.769 382.906C194.517 383.27 194.275 383.639 194.041 384.012C193.817 384.376 193.603 384.731 193.397 385.076C193.201 385.412 193.033 385.72 192.893 386H191.395C191.815 385.179 192.301 384.343 192.851 383.494C193.411 382.645 194.004 381.772 194.629 380.876L191.521 376.298H193.089L195.483 379.91L197.849 376.298H199.403L196.351 380.82C196.986 381.725 197.583 382.607 198.143 383.466C198.703 384.325 199.198 385.169 199.627 386H198.101Z" fill="black"/>
<circle cx="187" cy="126" r="30" fill="#342BDB"/>
<path d="M187.928 117.971L191.482 119.812V119.812L195.036 121.653L198.376 119.923V117.541C198.376 117.329 198.568 117.157 198.804 117.157C199.041 117.157 199.233 117.329 199.233 117.541V119.48L202.359 117.86C202.563 117.754 202.824 117.817 202.942 118C203.061 118.183 202.991 118.418 202.787 118.524L199.659 120.144L201.531 121.114C201.735 121.22 201.805 121.454 201.686 121.637C201.568 121.821 201.307 121.883 201.102 121.777L198.804 120.587L195.464 122.317V129.684L198.804 131.414L201.102 130.223C201.307 130.117 201.568 130.179 201.686 130.362C201.805 130.546 201.735 130.78 201.531 130.886L199.658 131.856L202.785 133.476C202.989 133.581 203.06 133.815 202.942 133.998C202.825 134.182 202.564 134.245 202.36 134.14L199.233 132.52V134.459C199.233 134.671 199.041 134.843 198.804 134.843C198.568 134.843 198.376 134.671 198.376 134.459V132.076L195.037 130.346L187.928 134.029V137.492L190.224 138.681C190.428 138.787 190.499 139.021 190.382 139.204C190.264 139.387 190.004 139.45 189.799 139.345L187.928 138.375V141.616C187.928 141.828 187.736 142 187.5 142C187.263 142 187.071 141.828 187.071 141.616V138.375L185.2 139.345C184.996 139.45 184.735 139.387 184.618 139.204C184.5 139.021 184.571 138.787 184.775 138.681L187.071 137.492V134.029L179.962 130.346L176.621 132.077L176.621 134.459C176.621 134.67 176.43 134.841 176.195 134.841C175.959 134.841 175.768 134.67 175.768 134.459L175.768 132.519L172.639 134.14C172.435 134.245 172.174 134.182 172.057 133.998C171.939 133.815 172.01 133.581 172.214 133.476L175.341 131.856L173.468 130.886C173.264 130.78 173.195 130.546 173.313 130.362C173.431 130.179 173.693 130.117 173.897 130.223L176.196 131.414L179.535 129.684V122.316L176.196 120.586L173.897 121.777C173.693 121.883 173.431 121.821 173.313 121.637C173.195 121.454 173.264 121.22 173.468 121.114L175.341 120.144L172.214 118.524C172.01 118.419 171.939 118.185 172.057 118.001C172.174 117.818 172.435 117.755 172.639 117.86L175.766 119.48V117.541C175.766 117.329 175.958 117.157 176.195 117.157C176.431 117.157 176.623 117.329 176.623 117.541V119.924L179.962 121.654L184.21 119.453L187.071 117.971V114.508L184.775 113.319C184.571 113.213 184.5 112.979 184.618 112.796C184.735 112.613 184.996 112.55 185.2 112.655L187.071 113.625V110.384C187.071 110.172 187.263 110 187.5 110C187.736 110 187.928 110.172 187.928 110.384V113.625L189.799 112.655C190.004 112.55 190.264 112.613 190.382 112.796C190.499 112.979 190.428 113.213 190.224 113.319L187.928 114.508V117.971ZM194.608 125.363L187.718 128.932C187.589 129.001 187.424 129.006 187.285 128.934L180.391 125.363V127.08L187.5 130.763L194.608 127.08V125.363ZM180.391 124.478L187.5 128.16L194.608 124.478V122.761L191.482 124.38L191.458 124.391L187.712 126.332C187.575 126.402 187.413 126.397 187.286 126.331L187.285 126.332L180.391 122.761V124.478ZM194.608 127.966L187.718 131.535C187.589 131.603 187.424 131.609 187.285 131.537L180.391 127.966V129.683L187.5 133.365L194.608 129.683V127.966ZM180.818 122.096L187.5 125.558L191.032 123.729L191.054 123.716L194.182 122.096L191.054 120.476L187.5 118.635L180.818 122.096Z" fill="white" stroke="white" stroke-width="0.6"/>
<circle cx="187" cy="331" r="30" fill="#342BDB"/>
<circle cx="307" cy="146" r="30" fill="#342BDB"/>
<path d="M308 144H313L307 150L301 144H306V137H308V144ZM299 153H315V146H317V154C317 154.265 316.895 154.52 316.707 154.707C316.52 154.895 316.265 155 316 155H298C297.735 155 297.48 154.895 297.293 154.707C297.105 154.52 297 154.265 297 154V146H299V153Z" fill="white"/>
<rect width="45.9994" height="30" transform="translate(84 475)" fill="#F6F6FC"/>
<path d="M187 6C188.656 6 190 4.656 190 3C190 1.3425 188.656 0 187 0C185.344 0 184 1.3425 184 3C184 4.656 185.344 6 187 6ZM195.967 17.3745C195.39 14.712 194.38 10.3425 192.904 8.5335C191.469 6.774 188.577 6.7005 187 6.7005C185.424 6.7005 182.532 6.774 181.096 8.5335C179.62 10.3425 178.611 14.712 178.033 17.3745C177.714 18.849 179.764 19.3905 180.3 17.907C181.096 15.6975 181.711 13.842 183.058 12.303C183.766 16.6635 181.153 24.252 181 28.5C181 29.328 181.672 30 182.5 30C183.139 30 183.685 29.601 183.901 29.037C184.587 26.6565 187 20.0325 187 20.0325C187 20.0325 189.414 26.6565 190.099 29.037C190.315 29.601 190.861 30 191.5 30C192.328 30 193 29.328 193 28.5C192.847 24.252 190.234 16.6635 190.942 12.3045C192.289 13.8435 192.904 15.699 193.701 17.9085C194.235 19.3905 196.287 18.849 195.967 17.3745Z" fill="#342BDB"/>
<path d="M38.4825 7.25H27.75C27.4185 7.25 27.1005 7.3817 26.8661 7.61612C26.6317 7.85054 26.5 8.16848 26.5 8.5V26C26.5 26.3315 26.6317 26.6495 26.8661 26.8839C27.1005 27.1183 27.4185 27.25 27.75 27.25H50.25C50.5815 27.25 50.8995 27.1183 51.1339 26.8839C51.3683 26.6495 51.5 26.3315 51.5 26V6C51.5 5.66848 51.3683 5.35054 51.1339 5.11612C50.8995 4.8817 50.5815 4.75 50.25 4.75H40.9825L38.4825 7.25ZM29 14.75H49V24.75H29V14.75ZM29 12.25V9.75H39.5175L42.0175 7.25H49V12.25H29Z" fill="#342BDB"/>
<path d="M335.035 6.45833H346.125C346.468 6.45833 346.796 6.59442 347.038 6.83665C347.281 7.07889 347.417 7.40743 347.417 7.75V25.8333C347.417 26.1759 347.281 26.5044 347.038 26.7467C346.796 26.9889 346.468 27.125 346.125 27.125H322.875C322.532 27.125 322.204 26.9889 321.962 26.7467C321.719 26.5044 321.583 26.1759 321.583 25.8333V5.16667C321.583 4.8241 321.719 4.49555 321.962 4.25332C322.204 4.01109 322.532 3.875 322.875 3.875H332.451L335.035 6.45833ZM344.833 14.2083H324.167V24.5417H344.833V14.2083ZM344.833 11.625V9.04167H333.965L331.382 6.45833H324.167V11.625H344.833Z" fill="#342BDB"/>
<path d="M59 153H75V146H77V154C77 154.265 76.8946 154.52 76.7071 154.707C76.5196 154.895 76.2652 155 76 155H58C57.7348 155 57.4804 154.895 57.2929 154.707C57.1054 154.52 57 154.265 57 154V146H59V153ZM68 143V150H66V143H61L67 137L73 143H68Z" fill="white"/>
<path d="M195 343L189 343C188.448 343 188 342.552 188 342L188 336C188 335.448 188.448 335 189 335C189.552 335 190 335.448 190 336L190 339.372C191.312 338.026 192.35 336.964 192.65 336.664C192.652 336.661 192.655 336.659 192.657 336.657C193.421 335.893 194.012 335.003 194.414 334.011C194.803 333.052 195 332.04 195 331C195 329.96 194.803 328.948 194.414 327.989C194.012 326.997 193.421 326.107 192.657 325.343C192.59 325.276 192.522 325.21 192.452 325.145C191.767 324.506 190.987 323.998 190.128 323.634C189.972 323.579 189.82 323.509 189.663 323.454C189.145 323.268 188.874 322.699 189.057 322.18C189.24 321.662 189.806 321.389 190.324 321.566C190.543 321.642 190.759 321.727 190.971 321.82C191.433 322.019 191.88 322.254 192.305 322.521C192.842 322.857 193.349 323.247 193.816 323.682C193.902 323.763 193.988 323.845 194.071 323.929C195.025 324.883 195.764 325.996 196.268 327.237C196.51 327.834 196.694 328.457 196.817 329.09C196.938 329.718 197 330.36 197 331C197 331.64 196.938 332.282 196.817 332.909C196.694 333.543 196.51 334.166 196.268 334.762C195.764 336.004 195.025 337.117 194.071 338.071L194.056 338.086C193.737 338.406 192.608 339.562 191.206 341L195 341C195.552 341 196 341.448 196 342C196 342.552 195.552 343 195 343ZM178 320C178 320.552 178.448 321 179 321L182.794 321C181.392 322.438 180.263 323.594 179.944 323.914L179.929 323.929C178.975 324.883 178.236 325.996 177.732 327.237C177.49 327.834 177.306 328.457 177.183 329.091C177.062 329.718 177 330.36 177 331C177 332.286 177.249 333.57 177.732 334.762C178.236 336.004 178.975 337.117 179.929 338.071C180.012 338.155 180.098 338.237 180.184 338.317C180.651 338.752 181.158 339.142 181.695 339.479C182.12 339.745 182.567 339.981 183.029 340.18C183.241 340.272 183.457 340.357 183.676 340.433C184.194 340.611 184.76 340.338 184.943 339.82C185.126 339.301 184.855 338.731 184.337 338.546C184.18 338.49 184.028 338.421 183.872 338.365C181.939 337.546 180.374 335.955 179.586 334.011C179.197 333.052 179 332.039 179 331C179 329.96 179.197 328.947 179.586 327.989C179.988 326.997 180.579 326.107 181.343 325.343C181.345 325.341 181.348 325.338 181.35 325.336C181.65 325.036 182.688 323.973 184 322.628L184 326C184 326.552 184.448 327 185 327C185.552 327 186 326.552 186 326L186 320C186 319.448 185.552 319 185 319L179 319C178.448 319 178 319.448 178 320Z" fill="white"/>
<path d="M337 146L346 152.062L346 139.938L337 146Z" fill="#9B9CA8"/>
<path d="M40 515L31 521.062L31 508.938L40 515Z" fill="#9B9CA8"/>
<path d="M67 116L60.9378 107L73.0622 107L67 116Z" fill="#9B9CA8"/>
<path d="M209 15L218 8.93782L218 21.0622L209 15Z" fill="#9B9CA8"/>
<path d="M147.935 484.222C148.038 484.231 148.154 484.241 148.285 484.25C148.425 484.25 148.588 484.25 148.775 484.25C149.867 484.25 150.674 483.975 151.197 483.424C151.729 482.873 151.995 482.113 151.995 481.142C151.995 480.125 151.743 479.355 151.239 478.832C150.735 478.309 149.937 478.048 148.845 478.048C148.696 478.048 148.542 478.053 148.383 478.062C148.224 478.062 148.075 478.071 147.935 478.09V484.222ZM154.249 481.142C154.249 481.982 154.118 482.715 153.857 483.34C153.596 483.965 153.222 484.483 152.737 484.894C152.261 485.305 151.678 485.613 150.987 485.818C150.296 486.023 149.522 486.126 148.663 486.126C148.271 486.126 147.814 486.107 147.291 486.07C146.768 486.042 146.255 485.977 145.751 485.874V476.424C146.255 476.331 146.778 476.27 147.319 476.242C147.87 476.205 148.341 476.186 148.733 476.186C149.564 476.186 150.315 476.279 150.987 476.466C151.668 476.653 152.252 476.947 152.737 477.348C153.222 477.749 153.596 478.263 153.857 478.888C154.118 479.513 154.249 480.265 154.249 481.142ZM155.583 482.374C155.583 481.721 155.681 481.151 155.877 480.666C156.082 480.171 156.348 479.761 156.675 479.434C157.002 479.107 157.375 478.86 157.795 478.692C158.224 478.524 158.663 478.44 159.111 478.44C160.156 478.44 160.982 478.762 161.589 479.406C162.196 480.041 162.499 480.979 162.499 482.22C162.499 482.341 162.494 482.477 162.485 482.626C162.476 482.766 162.466 482.892 162.457 483.004H157.725C157.772 483.433 157.972 483.774 158.327 484.026C158.682 484.278 159.158 484.404 159.755 484.404C160.138 484.404 160.511 484.371 160.875 484.306C161.248 484.231 161.552 484.143 161.785 484.04L162.065 485.734C161.953 485.79 161.804 485.846 161.617 485.902C161.43 485.958 161.22 486.005 160.987 486.042C160.763 486.089 160.52 486.126 160.259 486.154C159.998 486.182 159.736 486.196 159.475 486.196C158.812 486.196 158.234 486.098 157.739 485.902C157.254 485.706 156.848 485.44 156.521 485.104C156.204 484.759 155.966 484.353 155.807 483.886C155.658 483.419 155.583 482.915 155.583 482.374ZM160.483 481.576C160.474 481.399 160.441 481.226 160.385 481.058C160.338 480.89 160.259 480.741 160.147 480.61C160.044 480.479 159.909 480.372 159.741 480.288C159.582 480.204 159.382 480.162 159.139 480.162C158.906 480.162 158.705 480.204 158.537 480.288C158.369 480.363 158.229 480.465 158.117 480.596C158.005 480.727 157.916 480.881 157.851 481.058C157.795 481.226 157.753 481.399 157.725 481.576H160.483ZM163.759 482.318C163.759 481.786 163.843 481.287 164.011 480.82C164.188 480.344 164.44 479.933 164.767 479.588C165.094 479.233 165.49 478.953 165.957 478.748C166.424 478.543 166.956 478.44 167.553 478.44C167.945 478.44 168.304 478.477 168.631 478.552C168.958 478.617 169.275 478.715 169.583 478.846L169.149 480.512C168.953 480.437 168.738 480.372 168.505 480.316C168.272 480.26 168.01 480.232 167.721 480.232C167.105 480.232 166.643 480.423 166.335 480.806C166.036 481.189 165.887 481.693 165.887 482.318C165.887 482.981 166.027 483.494 166.307 483.858C166.596 484.222 167.096 484.404 167.805 484.404C168.057 484.404 168.328 484.381 168.617 484.334C168.906 484.287 169.172 484.213 169.415 484.11L169.709 485.818C169.466 485.921 169.163 486.009 168.799 486.084C168.435 486.159 168.034 486.196 167.595 486.196C166.923 486.196 166.344 486.098 165.859 485.902C165.374 485.697 164.972 485.421 164.655 485.076C164.347 484.731 164.118 484.325 163.969 483.858C163.829 483.382 163.759 482.869 163.759 482.318ZM170.403 482.374C170.403 481.721 170.501 481.151 170.697 480.666C170.903 480.171 171.169 479.761 171.495 479.434C171.822 479.107 172.195 478.86 172.615 478.692C173.045 478.524 173.483 478.44 173.931 478.44C174.977 478.44 175.803 478.762 176.409 479.406C177.016 480.041 177.319 480.979 177.319 482.22C177.319 482.341 177.315 482.477 177.305 482.626C177.296 482.766 177.287 482.892 177.277 483.004H172.545C172.592 483.433 172.793 483.774 173.147 484.026C173.502 484.278 173.978 484.404 174.575 484.404C174.958 484.404 175.331 484.371 175.695 484.306C176.069 484.231 176.372 484.143 176.605 484.04L176.885 485.734C176.773 485.79 176.624 485.846 176.437 485.902C176.251 485.958 176.041 486.005 175.807 486.042C175.583 486.089 175.341 486.126 175.079 486.154C174.818 486.182 174.557 486.196 174.295 486.196C173.633 486.196 173.054 486.098 172.559 485.902C172.074 485.706 171.668 485.44 171.341 485.104C171.024 484.759 170.786 484.353 170.627 483.886C170.478 483.419 170.403 482.915 170.403 482.374ZM175.303 481.576C175.294 481.399 175.261 481.226 175.205 481.058C175.159 480.89 175.079 480.741 174.967 480.61C174.865 480.479 174.729 480.372 174.561 480.288C174.403 480.204 174.202 480.162 173.959 480.162C173.726 480.162 173.525 480.204 173.357 480.288C173.189 480.363 173.049 480.465 172.937 480.596C172.825 480.727 172.737 480.881 172.671 481.058C172.615 481.226 172.573 481.399 172.545 481.576H175.303ZM178.929 478.888C179.284 478.785 179.741 478.692 180.301 478.608C180.861 478.515 181.449 478.468 182.065 478.468C182.691 478.468 183.209 478.552 183.619 478.72C184.039 478.879 184.371 479.107 184.613 479.406C184.856 479.705 185.029 480.059 185.131 480.47C185.234 480.881 185.285 481.338 185.285 481.842V486H183.199V482.094C183.199 481.422 183.111 480.946 182.933 480.666C182.756 480.386 182.425 480.246 181.939 480.246C181.79 480.246 181.631 480.255 181.463 480.274C181.295 480.283 181.146 480.297 181.015 480.316V486H178.929V478.888ZM187.103 476.802L189.189 476.466V478.636H191.695V480.372H189.189V482.962C189.189 483.401 189.264 483.751 189.413 484.012C189.572 484.273 189.885 484.404 190.351 484.404C190.575 484.404 190.804 484.385 191.037 484.348C191.28 484.301 191.499 484.241 191.695 484.166L191.989 485.79C191.737 485.893 191.457 485.981 191.149 486.056C190.841 486.131 190.463 486.168 190.015 486.168C189.446 486.168 188.975 486.093 188.601 485.944C188.228 485.785 187.929 485.571 187.705 485.3C187.481 485.02 187.323 484.684 187.229 484.292C187.145 483.9 187.103 483.466 187.103 482.99V476.802ZM197.832 480.484C197.645 480.437 197.426 480.391 197.174 480.344C196.922 480.288 196.651 480.26 196.362 480.26C196.231 480.26 196.073 480.274 195.886 480.302C195.709 480.321 195.573 480.344 195.48 480.372V486H193.394V479.028C193.767 478.897 194.206 478.776 194.71 478.664C195.223 478.543 195.793 478.482 196.418 478.482C196.53 478.482 196.665 478.491 196.824 478.51C196.983 478.519 197.141 478.538 197.3 478.566C197.459 478.585 197.617 478.613 197.776 478.65C197.935 478.678 198.07 478.715 198.182 478.762L197.832 480.484ZM201.978 484.544C202.183 484.544 202.379 484.539 202.566 484.53C202.752 484.521 202.902 484.507 203.014 484.488V482.906C202.93 482.887 202.804 482.869 202.636 482.85C202.468 482.831 202.314 482.822 202.174 482.822C201.978 482.822 201.791 482.836 201.614 482.864C201.446 482.883 201.296 482.925 201.166 482.99C201.035 483.055 200.932 483.144 200.858 483.256C200.783 483.368 200.746 483.508 200.746 483.676C200.746 484.003 200.853 484.231 201.068 484.362C201.292 484.483 201.595 484.544 201.978 484.544ZM201.81 478.44C202.426 478.44 202.939 478.51 203.35 478.65C203.76 478.79 204.087 478.991 204.33 479.252C204.582 479.513 204.759 479.831 204.862 480.204C204.964 480.577 205.016 480.993 205.016 481.45V485.79C204.717 485.855 204.302 485.93 203.77 486.014C203.238 486.107 202.594 486.154 201.838 486.154C201.362 486.154 200.928 486.112 200.536 486.028C200.153 485.944 199.822 485.809 199.542 485.622C199.262 485.426 199.047 485.174 198.898 484.866C198.748 484.558 198.674 484.18 198.674 483.732C198.674 483.303 198.758 482.939 198.926 482.64C199.103 482.341 199.336 482.103 199.626 481.926C199.915 481.749 200.246 481.623 200.62 481.548C200.993 481.464 201.38 481.422 201.782 481.422C202.052 481.422 202.29 481.436 202.496 481.464C202.71 481.483 202.883 481.511 203.014 481.548V481.352C203.014 480.997 202.906 480.713 202.692 480.498C202.477 480.283 202.104 480.176 201.572 480.176C201.217 480.176 200.867 480.204 200.522 480.26C200.176 480.307 199.878 480.377 199.626 480.47L199.36 478.79C199.481 478.753 199.63 478.715 199.808 478.678C199.994 478.631 200.195 478.594 200.41 478.566C200.624 478.529 200.848 478.501 201.082 478.482C201.324 478.454 201.567 478.44 201.81 478.44ZM209.842 486.14C209.235 486.131 208.741 486.065 208.358 485.944C207.985 485.823 207.686 485.655 207.462 485.44C207.247 485.216 207.098 484.95 207.014 484.642C206.939 484.325 206.902 483.97 206.902 483.578V475.472L208.988 475.136V483.158C208.988 483.345 209.002 483.513 209.03 483.662C209.058 483.811 209.109 483.937 209.184 484.04C209.268 484.143 209.385 484.227 209.534 484.292C209.683 484.357 209.884 484.399 210.136 484.418L209.842 486.14ZM213.418 486H211.332V478.636H213.418V486ZM213.614 476.508C213.614 476.891 213.488 477.194 213.236 477.418C212.993 477.633 212.704 477.74 212.368 477.74C212.032 477.74 211.738 477.633 211.486 477.418C211.243 477.194 211.122 476.891 211.122 476.508C211.122 476.125 211.243 475.827 211.486 475.612C211.738 475.388 212.032 475.276 212.368 475.276C212.704 475.276 212.993 475.388 213.236 475.612C213.488 475.827 213.614 476.125 213.614 476.508ZM220.908 480.036C220.74 480.223 220.512 480.475 220.222 480.792C219.942 481.109 219.639 481.459 219.312 481.842C218.986 482.225 218.654 482.626 218.318 483.046C217.992 483.466 217.693 483.872 217.422 484.264H220.978V486H214.888V484.768C215.084 484.432 215.318 484.073 215.588 483.69C215.868 483.298 216.158 482.906 216.456 482.514C216.764 482.122 217.068 481.744 217.366 481.38C217.665 481.007 217.94 480.671 218.192 480.372H215.056V478.636H220.908V480.036ZM221.823 482.374C221.823 481.721 221.921 481.151 222.117 480.666C222.323 480.171 222.589 479.761 222.915 479.434C223.242 479.107 223.615 478.86 224.035 478.692C224.465 478.524 224.903 478.44 225.351 478.44C226.397 478.44 227.223 478.762 227.829 479.406C228.436 480.041 228.739 480.979 228.739 482.22C228.739 482.341 228.735 482.477 228.725 482.626C228.716 482.766 228.707 482.892 228.697 483.004H223.965C224.012 483.433 224.213 483.774 224.567 484.026C224.922 484.278 225.398 484.404 225.995 484.404C226.378 484.404 226.751 484.371 227.115 484.306C227.489 484.231 227.792 484.143 228.025 484.04L228.305 485.734C228.193 485.79 228.044 485.846 227.857 485.902C227.671 485.958 227.461 486.005 227.227 486.042C227.003 486.089 226.761 486.126 226.499 486.154C226.238 486.182 225.977 486.196 225.715 486.196C225.053 486.196 224.474 486.098 223.979 485.902C223.494 485.706 223.088 485.44 222.761 485.104C222.444 484.759 222.206 484.353 222.047 483.886C221.898 483.419 221.823 482.915 221.823 482.374ZM226.723 481.576C226.714 481.399 226.681 481.226 226.625 481.058C226.579 480.89 226.499 480.741 226.387 480.61C226.285 480.479 226.149 480.372 225.981 480.288C225.823 480.204 225.622 480.162 225.379 480.162C225.146 480.162 224.945 480.204 224.777 480.288C224.609 480.363 224.469 480.465 224.357 480.596C224.245 480.727 224.157 480.881 224.091 481.058C224.035 481.226 223.993 481.399 223.965 481.576H226.723ZM141.815 510.196C140.237 510.196 139.033 509.757 138.203 508.88C137.381 508.003 136.971 506.757 136.971 505.142C136.971 504.339 137.097 503.625 137.349 503C137.601 502.365 137.946 501.833 138.385 501.404C138.823 500.965 139.346 500.634 139.953 500.41C140.559 500.186 141.217 500.074 141.927 500.074C142.337 500.074 142.711 500.107 143.047 500.172C143.383 500.228 143.677 500.298 143.929 500.382C144.181 500.457 144.391 500.536 144.559 500.62C144.727 500.704 144.848 500.769 144.923 500.816L144.293 502.58C143.994 502.421 143.644 502.286 143.243 502.174C142.851 502.062 142.403 502.006 141.899 502.006C141.563 502.006 141.231 502.062 140.905 502.174C140.587 502.286 140.303 502.468 140.051 502.72C139.808 502.963 139.612 503.28 139.463 503.672C139.313 504.064 139.239 504.54 139.239 505.1C139.239 505.548 139.285 505.968 139.379 506.36C139.481 506.743 139.64 507.074 139.855 507.354C140.079 507.634 140.368 507.858 140.723 508.026C141.077 508.185 141.507 508.264 142.011 508.264C142.328 508.264 142.613 508.245 142.865 508.208C143.117 508.171 143.341 508.129 143.537 508.082C143.733 508.026 143.905 507.965 144.055 507.9C144.204 507.835 144.339 507.774 144.461 507.718L145.063 509.468C144.755 509.655 144.321 509.823 143.761 509.972C143.201 510.121 142.552 510.196 141.815 510.196ZM149.269 510.14C148.662 510.131 148.167 510.065 147.785 509.944C147.411 509.823 147.113 509.655 146.889 509.44C146.674 509.216 146.525 508.95 146.441 508.642C146.366 508.325 146.329 507.97 146.329 507.578V499.472L148.415 499.136V507.158C148.415 507.345 148.429 507.513 148.457 507.662C148.485 507.811 148.536 507.937 148.611 508.04C148.695 508.143 148.811 508.227 148.961 508.292C149.11 508.357 149.311 508.399 149.563 508.418L149.269 510.14ZM157.646 506.304C157.646 506.883 157.562 507.415 157.394 507.9C157.226 508.376 156.984 508.787 156.666 509.132C156.349 509.468 155.966 509.729 155.518 509.916C155.08 510.103 154.585 510.196 154.034 510.196C153.493 510.196 152.998 510.103 152.55 509.916C152.112 509.729 151.734 509.468 151.416 509.132C151.099 508.787 150.852 508.376 150.674 507.9C150.497 507.415 150.408 506.883 150.408 506.304C150.408 505.725 150.497 505.198 150.674 504.722C150.861 504.246 151.113 503.84 151.43 503.504C151.757 503.168 152.14 502.907 152.578 502.72C153.026 502.533 153.512 502.44 154.034 502.44C154.566 502.44 155.052 502.533 155.49 502.72C155.938 502.907 156.321 503.168 156.638 503.504C156.956 503.84 157.203 504.246 157.38 504.722C157.558 505.198 157.646 505.725 157.646 506.304ZM155.518 506.304C155.518 505.66 155.388 505.156 155.126 504.792C154.874 504.419 154.51 504.232 154.034 504.232C153.558 504.232 153.19 504.419 152.928 504.792C152.667 505.156 152.536 505.66 152.536 506.304C152.536 506.948 152.667 507.461 152.928 507.844C153.19 508.217 153.558 508.404 154.034 508.404C154.51 508.404 154.874 508.217 155.126 507.844C155.388 507.461 155.518 506.948 155.518 506.304ZM165.548 509.748C165.194 509.851 164.736 509.944 164.176 510.028C163.616 510.121 163.028 510.168 162.412 510.168C161.787 510.168 161.264 510.084 160.844 509.916C160.434 509.748 160.107 509.515 159.864 509.216C159.622 508.908 159.449 508.544 159.346 508.124C159.244 507.704 159.192 507.242 159.192 506.738V502.636H161.278V506.486C161.278 507.158 161.367 507.643 161.544 507.942C161.722 508.241 162.053 508.39 162.538 508.39C162.688 508.39 162.846 508.385 163.014 508.376C163.182 508.357 163.332 508.339 163.462 508.32V502.636H165.548V509.748ZM169.284 506.262C169.284 506.906 169.429 507.424 169.718 507.816C170.008 508.208 170.437 508.404 171.006 508.404C171.193 508.404 171.366 508.399 171.524 508.39C171.683 508.371 171.814 508.353 171.916 508.334V504.54C171.786 504.456 171.613 504.386 171.398 504.33C171.193 504.274 170.983 504.246 170.768 504.246C169.779 504.246 169.284 504.918 169.284 506.262ZM174.002 509.762C173.816 509.818 173.601 509.874 173.358 509.93C173.116 509.977 172.859 510.019 172.588 510.056C172.327 510.093 172.056 510.121 171.776 510.14C171.506 510.168 171.244 510.182 170.992 510.182C170.386 510.182 169.844 510.093 169.368 509.916C168.892 509.739 168.491 509.487 168.164 509.16C167.838 508.824 167.586 508.423 167.408 507.956C167.24 507.48 167.156 506.948 167.156 506.36C167.156 505.763 167.231 505.226 167.38 504.75C167.53 504.265 167.744 503.854 168.024 503.518C168.304 503.182 168.645 502.925 169.046 502.748C169.457 502.571 169.924 502.482 170.446 502.482C170.736 502.482 170.992 502.51 171.216 502.566C171.45 502.622 171.683 502.701 171.916 502.804V499.472L174.002 499.136V509.762ZM182.105 508.334C182.413 508.334 182.665 508.311 182.861 508.264C183.066 508.208 183.23 508.138 183.351 508.054C183.472 507.961 183.556 507.853 183.603 507.732C183.65 507.611 183.673 507.475 183.673 507.326C183.673 507.009 183.524 506.747 183.225 506.542C182.926 506.327 182.413 506.099 181.685 505.856C181.368 505.744 181.05 505.618 180.733 505.478C180.416 505.329 180.131 505.147 179.879 504.932C179.627 504.708 179.422 504.442 179.263 504.134C179.104 503.817 179.025 503.434 179.025 502.986C179.025 502.538 179.109 502.137 179.277 501.782C179.445 501.418 179.683 501.11 179.991 500.858C180.299 500.606 180.672 500.415 181.111 500.284C181.55 500.144 182.044 500.074 182.595 500.074C183.248 500.074 183.813 500.144 184.289 500.284C184.765 500.424 185.157 500.578 185.465 500.746L184.835 502.468C184.564 502.328 184.261 502.207 183.925 502.104C183.598 501.992 183.202 501.936 182.735 501.936C182.212 501.936 181.834 502.011 181.601 502.16C181.377 502.3 181.265 502.519 181.265 502.818C181.265 502.995 181.307 503.145 181.391 503.266C181.475 503.387 181.592 503.499 181.741 503.602C181.9 503.695 182.077 503.784 182.273 503.868C182.478 503.943 182.702 504.022 182.945 504.106C183.449 504.293 183.888 504.479 184.261 504.666C184.634 504.843 184.942 505.053 185.185 505.296C185.437 505.539 185.624 505.823 185.745 506.15C185.866 506.477 185.927 506.873 185.927 507.34C185.927 508.245 185.61 508.95 184.975 509.454C184.34 509.949 183.384 510.196 182.105 510.196C181.676 510.196 181.288 510.168 180.943 510.112C180.598 510.065 180.29 510.005 180.019 509.93C179.758 509.855 179.529 509.776 179.333 509.692C179.146 509.608 178.988 509.529 178.857 509.454L179.473 507.718C179.762 507.877 180.117 508.021 180.537 508.152C180.966 508.273 181.489 508.334 182.105 508.334ZM187.397 500.802L189.483 500.466V502.636H191.989V504.372H189.483V506.962C189.483 507.401 189.558 507.751 189.707 508.012C189.866 508.273 190.179 508.404 190.645 508.404C190.869 508.404 191.098 508.385 191.331 508.348C191.574 508.301 191.793 508.241 191.989 508.166L192.283 509.79C192.031 509.893 191.751 509.981 191.443 510.056C191.135 510.131 190.757 510.168 190.309 510.168C189.74 510.168 189.269 510.093 188.895 509.944C188.522 509.785 188.223 509.571 187.999 509.3C187.775 509.02 187.617 508.684 187.523 508.292C187.439 507.9 187.397 507.466 187.397 506.99V500.802ZM200.303 506.304C200.303 506.883 200.219 507.415 200.051 507.9C199.883 508.376 199.64 508.787 199.323 509.132C199.005 509.468 198.623 509.729 198.175 509.916C197.736 510.103 197.241 510.196 196.691 510.196C196.149 510.196 195.655 510.103 195.207 509.916C194.768 509.729 194.39 509.468 194.073 509.132C193.755 508.787 193.508 508.376 193.331 507.9C193.153 507.415 193.065 506.883 193.065 506.304C193.065 505.725 193.153 505.198 193.331 504.722C193.517 504.246 193.769 503.84 194.087 503.504C194.413 503.168 194.796 502.907 195.235 502.72C195.683 502.533 196.168 502.44 196.691 502.44C197.223 502.44 197.708 502.533 198.147 502.72C198.595 502.907 198.977 503.168 199.295 503.504C199.612 503.84 199.859 504.246 200.037 504.722C200.214 505.198 200.303 505.725 200.303 506.304ZM198.175 506.304C198.175 505.66 198.044 505.156 197.783 504.792C197.531 504.419 197.167 504.232 196.691 504.232C196.215 504.232 195.846 504.419 195.585 504.792C195.323 505.156 195.193 505.66 195.193 506.304C195.193 506.948 195.323 507.461 195.585 507.844C195.846 508.217 196.215 508.404 196.691 508.404C197.167 508.404 197.531 508.217 197.783 507.844C198.044 507.461 198.175 506.948 198.175 506.304ZM206.356 504.484C206.17 504.437 205.95 504.391 205.698 504.344C205.446 504.288 205.176 504.26 204.886 504.26C204.756 504.26 204.597 504.274 204.41 504.302C204.233 504.321 204.098 504.344 204.004 504.372V510H201.918V503.028C202.292 502.897 202.73 502.776 203.234 502.664C203.748 502.543 204.317 502.482 204.942 502.482C205.054 502.482 205.19 502.491 205.348 502.51C205.507 502.519 205.666 502.538 205.824 502.566C205.983 502.585 206.142 502.613 206.3 502.65C206.459 502.678 206.594 502.715 206.706 502.762L206.356 504.484ZM210.502 508.544C210.707 508.544 210.903 508.539 211.09 508.53C211.277 508.521 211.426 508.507 211.538 508.488V506.906C211.454 506.887 211.328 506.869 211.16 506.85C210.992 506.831 210.838 506.822 210.698 506.822C210.502 506.822 210.315 506.836 210.138 506.864C209.97 506.883 209.821 506.925 209.69 506.99C209.559 507.055 209.457 507.144 209.382 507.256C209.307 507.368 209.27 507.508 209.27 507.676C209.27 508.003 209.377 508.231 209.592 508.362C209.816 508.483 210.119 508.544 210.502 508.544ZM210.334 502.44C210.95 502.44 211.463 502.51 211.874 502.65C212.285 502.79 212.611 502.991 212.854 503.252C213.106 503.513 213.283 503.831 213.386 504.204C213.489 504.577 213.54 504.993 213.54 505.45V509.79C213.241 509.855 212.826 509.93 212.294 510.014C211.762 510.107 211.118 510.154 210.362 510.154C209.886 510.154 209.452 510.112 209.06 510.028C208.677 509.944 208.346 509.809 208.066 509.622C207.786 509.426 207.571 509.174 207.422 508.866C207.273 508.558 207.198 508.18 207.198 507.732C207.198 507.303 207.282 506.939 207.45 506.64C207.627 506.341 207.861 506.103 208.15 505.926C208.439 505.749 208.771 505.623 209.144 505.548C209.517 505.464 209.905 505.422 210.306 505.422C210.577 505.422 210.815 505.436 211.02 505.464C211.235 505.483 211.407 505.511 211.538 505.548V505.352C211.538 504.997 211.431 504.713 211.216 504.498C211.001 504.283 210.628 504.176 210.096 504.176C209.741 504.176 209.391 504.204 209.046 504.26C208.701 504.307 208.402 504.377 208.15 504.47L207.884 502.79C208.005 502.753 208.155 502.715 208.332 502.678C208.519 502.631 208.719 502.594 208.934 502.566C209.149 502.529 209.373 502.501 209.606 502.482C209.849 502.454 210.091 502.44 210.334 502.44ZM217.204 506.08C217.204 507.247 217.676 507.83 218.618 507.83C218.833 507.83 219.034 507.802 219.22 507.746C219.407 507.69 219.566 507.625 219.696 507.55V504.218C219.594 504.199 219.472 504.185 219.332 504.176C219.192 504.157 219.029 504.148 218.842 504.148C218.292 504.148 217.881 504.33 217.61 504.694C217.34 505.058 217.204 505.52 217.204 506.08ZM221.782 509.076C221.782 510.28 221.474 511.171 220.858 511.75C220.252 512.338 219.309 512.632 218.03 512.632C217.582 512.632 217.134 512.59 216.686 512.506C216.238 512.431 215.823 512.329 215.44 512.198L215.804 510.448C216.131 510.579 216.472 510.681 216.826 510.756C217.19 510.831 217.601 510.868 218.058 510.868C218.656 510.868 219.076 510.737 219.318 510.476C219.57 510.215 219.696 509.879 219.696 509.468V509.202C219.472 509.305 219.239 509.384 218.996 509.44C218.763 509.487 218.506 509.51 218.226 509.51C217.209 509.51 216.43 509.211 215.888 508.614C215.347 508.007 215.076 507.163 215.076 506.08C215.076 505.539 215.16 505.049 215.328 504.61C215.496 504.162 215.739 503.779 216.056 503.462C216.383 503.145 216.78 502.902 217.246 502.734C217.713 502.557 218.24 502.468 218.828 502.468C219.08 502.468 219.337 502.482 219.598 502.51C219.869 502.529 220.135 502.557 220.396 502.594C220.658 502.631 220.905 502.678 221.138 502.734C221.381 502.781 221.596 502.832 221.782 502.888V509.076ZM223.389 506.374C223.389 505.721 223.487 505.151 223.683 504.666C223.888 504.171 224.154 503.761 224.481 503.434C224.807 503.107 225.181 502.86 225.601 502.692C226.03 502.524 226.469 502.44 226.917 502.44C227.962 502.44 228.788 502.762 229.395 503.406C230.001 504.041 230.305 504.979 230.305 506.22C230.305 506.341 230.3 506.477 230.291 506.626C230.281 506.766 230.272 506.892 230.263 507.004H225.531C225.577 507.433 225.778 507.774 226.133 508.026C226.487 508.278 226.963 508.404 227.561 508.404C227.943 508.404 228.317 508.371 228.681 508.306C229.054 508.231 229.357 508.143 229.591 508.04L229.871 509.734C229.759 509.79 229.609 509.846 229.423 509.902C229.236 509.958 229.026 510.005 228.793 510.042C228.569 510.089 228.326 510.126 228.065 510.154C227.803 510.182 227.542 510.196 227.281 510.196C226.618 510.196 226.039 510.098 225.545 509.902C225.059 509.706 224.653 509.44 224.327 509.104C224.009 508.759 223.771 508.353 223.613 507.886C223.463 507.419 223.389 506.915 223.389 506.374ZM228.289 505.576C228.279 505.399 228.247 505.226 228.191 505.058C228.144 504.89 228.065 504.741 227.953 504.61C227.85 504.479 227.715 504.372 227.547 504.288C227.388 504.204 227.187 504.162 226.945 504.162C226.711 504.162 226.511 504.204 226.343 504.288C226.175 504.363 226.035 504.465 225.923 504.596C225.811 504.727 225.722 504.881 225.657 505.058C225.601 505.226 225.559 505.399 225.531 505.576H228.289ZM234.029 508.502C234.411 508.502 234.682 508.465 234.841 508.39C234.999 508.315 235.079 508.171 235.079 507.956C235.079 507.788 234.976 507.643 234.771 507.522C234.565 507.391 234.253 507.247 233.833 507.088C233.506 506.967 233.207 506.841 232.937 506.71C232.675 506.579 232.451 506.425 232.265 506.248C232.078 506.061 231.933 505.842 231.831 505.59C231.728 505.338 231.677 505.035 231.677 504.68C231.677 503.989 231.933 503.443 232.447 503.042C232.96 502.641 233.665 502.44 234.561 502.44C235.009 502.44 235.438 502.482 235.849 502.566C236.259 502.641 236.586 502.725 236.829 502.818L236.465 504.442C236.222 504.358 235.956 504.283 235.667 504.218C235.387 504.153 235.069 504.12 234.715 504.12C234.061 504.12 233.735 504.302 233.735 504.666C233.735 504.75 233.749 504.825 233.777 504.89C233.805 504.955 233.861 505.021 233.945 505.086C234.029 505.142 234.141 505.207 234.281 505.282C234.43 505.347 234.617 505.422 234.841 505.506C235.298 505.674 235.676 505.842 235.975 506.01C236.273 506.169 236.507 506.346 236.675 506.542C236.852 506.729 236.973 506.939 237.039 507.172C237.113 507.405 237.151 507.676 237.151 507.984C237.151 508.712 236.875 509.263 236.325 509.636C235.783 510.009 235.013 510.196 234.015 510.196C233.361 510.196 232.815 510.14 232.377 510.028C231.947 509.916 231.649 509.823 231.481 509.748L231.831 508.054C232.185 508.194 232.549 508.306 232.923 508.39C233.296 508.465 233.665 508.502 234.029 508.502Z" fill="#342BDB"/>
<path fill-rule="evenodd" clip-rule="evenodd" d="M134.143 451.001C121.571 451.001 111.286 440.715 111.286 428.029C111.4 415.458 121.571 405.172 134.257 405.287C146.829 405.401 157 415.572 157 428.372C156.886 440.829 146.714 451.001 134.143 451.001Z" fill="#DFDEF8"/>
<path fill-rule="evenodd" clip-rule="evenodd" d="M131.857 448.715C119.286 448.715 109 438.429 109 425.744C109.114 413.172 119.286 402.887 131.971 403.001C144.543 403.115 154.714 413.287 154.714 426.087C154.6 438.544 144.429 448.715 131.857 448.715Z" fill="white" stroke="#DFDEF8" stroke-width="1.3" stroke-miterlimit="10"/>
<path fill-rule="evenodd" clip-rule="evenodd" d="M133.445 424.386L133.064 426.396L136.683 426.898L136.429 427.84L132.874 427.338C132.62 428.154 132.493 429.033 132.175 429.787C131.858 430.666 131.54 431.545 131.159 432.362C130.651 433.429 129.762 434.183 128.556 434.371C127.858 434.497 127.096 434.434 126.524 433.995C126.334 433.869 126.143 433.618 126.143 433.429C126.143 433.178 126.27 432.864 126.461 432.739C126.588 432.676 126.905 432.739 127.096 432.801C127.286 432.99 127.477 433.241 127.604 433.492C127.985 433.995 128.492 434.057 129 433.681C129.572 433.178 129.889 432.487 130.08 431.797C130.461 430.289 130.842 428.845 131.159 427.338V427.087L127.794 426.584L127.921 425.642L131.413 426.145L131.858 424.198L128.239 423.633L128.366 422.628L132.112 423.13C132.239 422.753 132.302 422.439 132.429 422.125C132.747 420.995 133.064 419.865 133.826 418.86C134.588 417.855 135.477 417.227 136.81 417.29C137.382 417.29 137.953 417.478 138.334 417.918C138.397 417.981 138.524 418.106 138.524 418.232C138.524 418.483 138.524 418.797 138.334 418.985C138.08 419.174 137.763 419.111 137.509 418.86C137.318 418.671 137.191 418.483 137.001 418.295C136.62 417.792 136.048 417.729 135.604 418.169C135.286 418.483 134.969 418.923 134.778 419.362C134.334 420.681 134.016 422.063 133.572 423.444L137.064 423.947L136.81 424.889L133.445 424.386Z" fill="#342BDB"/>
<path fill-rule="evenodd" clip-rule="evenodd" d="M258.429 464.001C248.214 464.001 239.857 455.644 239.857 445.337C239.95 435.122 248.214 426.765 258.521 426.858C268.736 426.951 277 435.215 277 445.615C276.907 455.737 268.643 464.001 258.429 464.001Z" fill="#DFDEF8"/>
<path fill-rule="evenodd" clip-rule="evenodd" d="M256.571 462.144C246.357 462.144 238 453.786 238 443.479C238.093 433.265 246.357 424.908 256.664 425.001C266.879 425.094 275.143 433.358 275.143 443.758C275.05 453.879 266.786 462.144 256.571 462.144Z" fill="white" stroke="#DFDEF8" stroke-width="1.3" stroke-miterlimit="10"/>
<path fill-rule="evenodd" clip-rule="evenodd" d="M254.557 440.926L254.544 440.889C254.469 440.67 254.48 440.432 254.575 440.222L256.236 436.534C256.296 436.4 256.388 436.283 256.504 436.193C256.619 436.102 256.755 436.041 256.9 436.015C257.044 435.988 257.193 435.997 257.333 436.041C257.473 436.085 257.6 436.162 257.704 436.265C257.834 436.395 257.921 436.56 257.955 436.74C257.989 436.92 257.967 437.106 257.893 437.274L256.244 440.997C256.17 441.164 256.048 441.305 255.893 441.401C255.739 441.498 255.558 441.545 255.376 441.537C255.194 441.53 255.018 441.467 254.872 441.358C254.726 441.249 254.616 441.099 254.557 440.926ZM257.514 439.802C257.429 439.881 257.361 439.976 257.314 440.082C257.248 440.231 257.227 440.395 257.252 440.556C257.278 440.716 257.35 440.866 257.458 440.987C257.567 441.107 257.709 441.194 257.866 441.236C258.023 441.278 258.189 441.273 258.344 441.223L260.428 440.544C260.565 440.499 260.688 440.421 260.786 440.315C260.884 440.209 260.953 440.08 260.987 439.94C261.02 439.8 261.017 439.654 260.978 439.516C260.939 439.377 260.865 439.251 260.763 439.149L260.736 439.122C260.625 439.011 260.484 438.933 260.331 438.897C260.177 438.862 260.017 438.87 259.868 438.921L257.81 439.627C257.7 439.664 257.6 439.724 257.514 439.802ZM259.109 441.52L259.072 441.533C258.899 441.593 258.749 441.703 258.641 441.849C258.532 441.995 258.47 442.17 258.462 442.352C258.455 442.534 258.502 442.714 258.598 442.869C258.694 443.023 258.834 443.146 259.001 443.219L262.724 444.869C262.892 444.944 263.077 444.966 263.257 444.932C263.437 444.899 263.603 444.811 263.733 444.682C263.836 444.578 263.914 444.451 263.958 444.311C264.001 444.171 264.011 444.022 263.984 443.877C263.958 443.733 263.897 443.597 263.806 443.481C263.716 443.366 263.599 443.274 263.465 443.214L259.777 441.551C259.567 441.456 259.328 441.445 259.109 441.52ZM260.219 444.518C260.14 444.433 260.045 444.364 259.939 444.317C259.791 444.252 259.626 444.231 259.466 444.257C259.306 444.283 259.157 444.355 259.037 444.464C258.917 444.573 258.83 444.714 258.788 444.871C258.747 445.027 258.751 445.193 258.801 445.347L259.48 447.431C259.525 447.568 259.604 447.69 259.71 447.787C259.816 447.884 259.944 447.952 260.084 447.986C260.223 448.019 260.369 448.016 260.507 447.977C260.645 447.938 260.771 447.865 260.873 447.763L260.9 447.736C261.011 447.625 261.089 447.484 261.124 447.331C261.16 447.178 261.152 447.018 261.101 446.869L260.395 444.813C260.357 444.704 260.297 444.603 260.219 444.518ZM258.46 446.11L258.448 446.073C258.388 445.902 258.278 445.752 258.132 445.644C257.986 445.535 257.811 445.473 257.63 445.466C257.448 445.458 257.269 445.505 257.114 445.6C256.96 445.696 256.837 445.836 256.763 446.001L255.113 449.725C255.039 449.892 255.017 450.078 255.05 450.259C255.084 450.439 255.171 450.604 255.301 450.734C255.404 450.838 255.532 450.915 255.672 450.958C255.812 451.002 255.961 451.011 256.105 450.985C256.249 450.958 256.385 450.897 256.501 450.807C256.616 450.716 256.708 450.599 256.769 450.465L258.431 446.778C258.526 446.567 258.536 446.328 258.46 446.11ZM255.463 447.218C255.548 447.14 255.616 447.045 255.663 446.938C255.728 446.79 255.748 446.626 255.722 446.466C255.696 446.306 255.624 446.157 255.515 446.037C255.406 445.917 255.265 445.831 255.109 445.789C254.952 445.747 254.787 445.752 254.633 445.801L252.548 446.48C252.412 446.525 252.289 446.603 252.191 446.708C252.094 446.813 252.024 446.942 251.99 447.081C251.957 447.221 251.959 447.366 251.997 447.505C252.036 447.643 252.109 447.769 252.21 447.871L252.236 447.898C252.348 448.011 252.489 448.089 252.644 448.124C252.798 448.16 252.959 448.151 253.109 448.099L255.167 447.394C255.276 447.356 255.377 447.296 255.463 447.218ZM253.889 445.485L253.926 445.473C254.099 445.413 254.249 445.304 254.358 445.157C254.467 445.011 254.53 444.836 254.537 444.654C254.545 444.471 254.498 444.291 254.401 444.136C254.305 443.982 254.164 443.86 253.997 443.786L250.274 442.136C250.106 442.062 249.92 442.04 249.74 442.074C249.56 442.108 249.394 442.196 249.265 442.326C249.162 442.429 249.085 442.557 249.041 442.697C248.997 442.837 248.988 442.986 249.015 443.13C249.041 443.275 249.102 443.41 249.193 443.526C249.283 443.642 249.4 443.733 249.534 443.794L253.222 445.455C253.432 445.55 253.671 445.561 253.889 445.485ZM252.765 442.517C252.843 442.602 252.937 442.67 253.042 442.718C253.191 442.785 253.357 442.807 253.518 442.781C253.68 442.755 253.83 442.683 253.951 442.574C254.073 442.464 254.159 442.321 254.201 442.163C254.242 442.005 254.236 441.838 254.185 441.683L253.505 439.599C253.461 439.462 253.382 439.339 253.276 439.241C253.17 439.144 253.041 439.075 252.901 439.041C252.761 439.008 252.615 439.011 252.476 439.05C252.338 439.089 252.212 439.162 252.11 439.264L252.083 439.291C251.97 439.403 251.892 439.544 251.857 439.699C251.821 439.853 251.83 440.015 251.882 440.165L252.59 442.222C252.628 442.331 252.687 442.431 252.765 442.517Z" fill="#342BDB"/>
<path fill-rule="evenodd" clip-rule="evenodd" d="M189.476 590C178.738 590 169.952 581.215 169.952 570.379C170.05 559.641 178.738 550.856 189.573 550.953C200.311 551.051 208.999 559.739 208.999 570.672C208.902 581.312 200.214 590 189.476 590Z" fill="#DFDEF8"/>
<path fill-rule="evenodd" clip-rule="evenodd" d="M187.523 588.048C176.786 588.048 168 579.262 168 568.427C168.098 557.689 176.786 548.903 187.621 549.001C198.359 549.098 207.047 557.786 207.047 568.719C206.949 579.36 198.261 588.048 187.523 588.048Z" fill="white" stroke="#DFDEF8" stroke-width="1.3" stroke-miterlimit="10"/>
<path fill-rule="evenodd" clip-rule="evenodd" d="M181.5 568.347C181.5 565.118 184.118 562.5 187.347 562.5C190.576 562.5 193.193 565.118 193.193 568.347C193.193 571.576 190.576 574.193 187.347 574.193C184.118 574.193 181.5 571.576 181.5 568.347ZM187.347 560C182.737 560 179 563.737 179 568.347C179 572.956 182.737 576.693 187.347 576.693C191.956 576.693 195.693 572.956 195.693 568.347C195.693 563.737 191.956 560 187.347 560ZM188.584 570.673C188.608 570.763 188.637 570.842 188.672 570.911H190.129V570.823C190.057 570.682 190.002 570.513 189.964 570.316C189.926 570.12 189.907 569.872 189.907 569.572V567.173C189.907 566.849 189.847 566.565 189.726 566.32C189.606 566.072 189.438 565.867 189.225 565.705C189.011 565.543 188.758 565.421 188.465 565.338C188.175 565.256 187.862 565.214 187.524 565.214C187.148 565.214 186.814 565.262 186.521 565.359C186.232 565.452 185.985 565.579 185.782 565.741C185.582 565.903 185.429 566.091 185.322 566.305C185.218 566.519 185.167 566.744 185.167 566.982H186.604C186.604 566.772 186.671 566.605 186.805 566.481C186.94 566.353 187.153 566.289 187.446 566.289C187.777 566.289 188.031 566.369 188.206 566.527C188.382 566.682 188.47 566.894 188.47 567.163V567.494H187.669C186.797 567.494 186.14 567.656 185.699 567.98C185.261 568.3 185.043 568.755 185.043 569.345C185.043 569.586 185.091 569.81 185.187 570.017C185.284 570.22 185.418 570.396 185.591 570.544C185.763 570.692 185.968 570.807 186.206 570.89C186.447 570.973 186.711 571.014 186.997 571.014C187.172 571.014 187.336 570.997 187.488 570.962C187.639 570.932 187.777 570.888 187.901 570.833C188.029 570.775 188.144 570.707 188.248 570.632C188.351 570.556 188.442 570.475 188.522 570.389C188.539 570.489 188.56 570.583 188.584 570.673ZM187.705 569.851C187.581 569.886 187.446 569.903 187.302 569.903C187.026 569.903 186.819 569.839 186.681 569.712C186.547 569.584 186.48 569.424 186.48 569.231C186.48 569.103 186.504 568.986 186.552 568.879C186.6 568.769 186.674 568.676 186.774 568.6C186.874 568.521 187.004 568.461 187.162 568.419C187.321 568.374 187.512 568.352 187.736 568.352H188.47V569.313C188.429 569.386 188.372 569.458 188.299 569.531C188.227 569.6 188.141 569.662 188.041 569.717C187.941 569.772 187.829 569.817 187.705 569.851Z" fill="#342BDB"/>
<path fill-rule="evenodd" clip-rule="evenodd" d="M289.095 549.001C277.048 549.001 267.191 539.144 267.191 526.987C267.3 514.939 277.048 505.082 289.205 505.192C301.252 505.301 311 515.049 311 527.315C310.89 539.253 301.143 549.001 289.095 549.001Z" fill="#DFDEF8"/>
<path fill-rule="evenodd" clip-rule="evenodd" d="M286.905 546.81C274.857 546.81 265 536.953 265 524.796C265.11 512.749 274.857 502.891 287.014 503.001C299.062 503.11 308.809 512.858 308.809 525.125C308.7 537.063 298.952 546.81 286.905 546.81Z" fill="white" stroke="#DFDEF8" stroke-width="1.3" stroke-miterlimit="10"/>
<path d="M285.144 527.807C285.149 527.807 285.155 527.807 285.16 527.807C285.161 527.807 285.163 527.807 285.164 527.807H286.504C286.504 527.902 286.504 527.957 286.504 527.975C286.501 529.322 286.501 530.669 286.504 532.016C286.504 532.111 286.474 532.165 286.386 532.207C285.926 532.426 285.579 532.991 285.673 533.594C285.783 534.296 286.514 534.826 287.218 534.69C287.839 534.57 288.247 534.152 288.335 533.508C288.394 533.072 288.181 532.495 287.612 532.207C287.535 532.168 287.492 532.125 287.493 532.032C287.495 530.723 287.496 529.414 287.493 528.106C287.493 528.064 287.5 528.034 287.514 528.012V527.807H289.15C289.201 527.807 289.252 527.803 289.302 527.795C289.68 527.757 290.03 527.63 290.33 527.436L292.683 528.781L292.673 528.788C292.736 528.823 292.799 528.859 292.862 528.894C292.979 528.959 293.024 529.031 293.02 529.166C293 529.949 293.691 530.589 294.498 530.504C295.29 530.421 295.851 529.669 295.667 528.908C295.447 527.997 294.447 527.585 293.638 528.078C293.553 528.13 293.492 528.144 293.401 528.092C292.717 527.697 292.031 527.306 291.343 526.919C291.307 526.899 291.282 526.879 291.266 526.858L291.027 526.721C291.226 526.395 291.34 526.014 291.34 525.608C291.34 524.801 290.893 524.101 290.229 523.718L290.238 523.713C290.249 523.705 290.262 523.696 290.277 523.688C290.568 523.523 290.859 523.359 291.15 523.194L293.083 522.093C293.19 522.032 293.297 521.971 293.403 521.91C293.487 521.862 293.544 521.861 293.626 521.915C293.92 522.11 294.248 522.171 294.593 522.112C295.264 521.995 295.751 521.396 295.691 520.688C295.626 519.92 294.863 519.347 294.101 519.513C293.432 519.659 293.012 520.175 293.02 520.853C293.021 520.969 292.988 521.035 292.884 521.094C292.614 521.246 292.345 521.398 292.076 521.551L292.076 521.551L289.613 522.959C289.178 522.209 288.404 521.669 287.495 521.528C287.495 520.387 287.497 519.246 287.491 518.105C287.49 517.934 287.531 517.835 287.693 517.743C288.276 517.412 288.497 516.701 288.231 516.094C287.962 515.483 287.275 515.156 286.631 515.35C286.044 515.526 285.718 515.935 285.66 516.529C285.616 516.988 285.836 517.498 286.367 517.785C286.448 517.829 286.505 517.867 286.505 517.978C286.504 518.313 286.503 518.649 286.502 518.985H286.522V521.532C285.716 521.664 285.006 522.111 284.555 522.759C284.44 522.784 284.327 522.816 284.218 522.855C283.203 522.283 282.193 521.703 281.176 521.133C281.024 521.048 280.95 520.956 280.976 520.783C280.986 520.714 280.964 520.64 280.953 520.569C280.849 519.921 280.207 519.379 279.432 519.505C278.672 519.628 278.189 520.307 278.314 521.034C278.474 521.962 279.547 522.431 280.357 521.924C280.448 521.867 280.512 521.862 280.605 521.916C280.894 522.082 281.182 522.247 281.472 522.412L281.482 522.393L283.285 523.422C282.791 523.885 282.482 524.532 282.482 525.252C282.482 525.808 282.666 526.321 282.978 526.738L280.878 527.935L280.877 527.926C280.775 527.983 280.673 528.041 280.571 528.098C280.525 528.123 280.437 528.118 280.39 528.091C280.172 527.961 279.94 527.875 279.687 527.868C278.842 527.846 278.328 528.527 278.299 529.119C278.266 529.812 278.797 530.522 279.656 530.515C280.41 530.51 280.983 529.913 280.975 529.17C280.974 529.037 281.014 528.961 281.132 528.895C281.712 528.569 282.579 528.077 283.731 527.417C284.141 527.665 284.626 527.807 285.144 527.807ZM295.172 522.211C295.073 522.269 295.039 522.328 295.04 522.439C295.043 524.148 295.043 525.857 295.04 527.566C295.04 527.669 295.066 527.731 295.162 527.785C295.777 528.136 296.089 528.783 295.978 529.464C295.872 530.116 295.344 530.652 294.66 530.78C294.263 530.854 293.879 530.795 293.531 530.585C293.425 530.521 293.351 530.532 293.251 530.588C291.762 531.439 290.272 532.288 288.78 533.134C288.678 533.192 288.639 533.256 288.64 533.373C288.641 534.196 287.998 534.911 287.194 534.991C286.339 535.076 285.582 534.546 285.397 533.726C285.369 533.6 285.359 533.468 285.356 533.339C285.354 533.252 285.33 533.199 285.251 533.153C283.738 532.295 282.226 531.434 280.715 530.571C280.634 530.524 280.569 530.524 280.487 530.573C279.499 531.16 278.241 530.598 278.032 529.502C277.9 528.81 278.185 528.163 278.813 527.798C278.912 527.74 278.957 527.682 278.957 527.562C278.952 525.853 278.953 524.144 278.956 522.434C278.956 522.332 278.929 522.271 278.833 522.216C278.203 521.855 277.907 521.228 278.028 520.523C278.148 519.823 278.696 519.309 279.41 519.209C279.793 519.155 280.162 519.224 280.493 519.433C280.57 519.481 280.627 519.48 280.705 519.435C282.212 518.575 283.72 517.717 285.229 516.861C285.32 516.809 285.356 516.749 285.356 516.643C285.358 515.702 286.112 514.981 287.067 515C287.812 515.015 288.508 515.621 288.614 516.346C288.623 516.413 288.639 516.454 288.639 516.546C288.639 516.747 288.714 516.832 288.872 516.922C290.336 517.748 291.796 518.582 293.255 519.416C293.356 519.474 293.428 519.476 293.533 519.418C294.524 518.86 295.726 519.395 295.967 520.498C295.99 520.601 295.987 520.709 295.995 520.803C295.979 521.43 295.703 521.897 295.172 522.211ZM293.982 529.194C293.982 528.977 294.141 528.819 294.358 528.819C294.567 528.82 294.745 528.99 294.747 529.192C294.749 529.386 294.559 529.573 294.361 529.574C294.149 529.574 293.983 529.407 293.982 529.194ZM286.616 516.62C286.617 516.409 286.783 516.246 286.999 516.246C287.214 516.246 287.379 516.408 287.38 516.62C287.381 516.823 287.201 517.002 286.999 517C286.794 516.998 286.615 516.82 286.616 516.62ZM280.013 529.196C280.013 529.408 279.845 529.575 279.634 529.574C279.435 529.572 279.25 529.388 279.249 529.19C279.248 528.992 279.431 528.819 279.64 528.819C279.857 528.819 280.014 528.978 280.013 529.196ZM287.003 533.013C287.218 533.015 287.381 533.176 287.38 533.386C287.379 533.595 287.213 533.753 286.995 533.752C286.779 533.751 286.614 533.588 286.616 533.379C286.618 533.17 286.787 533.012 287.003 533.013ZM279.644 521.179C279.426 521.181 279.256 521.025 279.249 520.817C279.243 520.614 279.415 520.444 279.63 520.441C279.854 520.438 280.01 520.585 280.013 520.804C280.017 521.023 279.865 521.177 279.644 521.179ZM294.353 521.18C294.133 521.178 293.98 521.024 293.982 520.804C293.985 520.587 294.141 520.439 294.365 520.441C294.58 520.444 294.751 520.613 294.746 520.816C294.741 521.023 294.57 521.182 294.353 521.18ZM285.144 526.895C284.185 526.895 283.407 526.159 283.407 525.252C283.407 524.348 284.179 523.614 285.133 523.608C285.438 522.901 286.168 522.404 287.02 522.404C288.138 522.404 289.045 523.259 289.06 524.32C289.062 524.32 289.063 524.32 289.064 524.32C289.81 524.32 290.415 524.897 290.415 525.608C290.415 526.286 289.864 526.842 289.166 526.891C289.161 526.893 289.156 526.895 289.15 526.895H285.164C285.163 526.895 285.162 526.895 285.162 526.895C285.156 526.895 285.15 526.895 285.144 526.895Z" fill="#342BDB"/>
<path fill-rule="evenodd" clip-rule="evenodd" d="M87.0952 547.001C75.0476 547.001 65.1905 537.144 65.1905 524.987C65.3 512.939 75.0476 503.082 87.2048 503.192C99.2524 503.301 109 513.049 109 525.315C108.89 537.253 99.1428 547.001 87.0952 547.001Z" fill="#DFDEF8"/>
<path fill-rule="evenodd" clip-rule="evenodd" d="M84.9047 544.81C72.8571 544.81 63 534.953 63 522.796C63.1095 510.749 72.8571 500.891 85.0143 501.001C97.0619 501.11 106.809 510.858 106.809 523.125C106.7 535.063 96.9524 544.81 84.9047 544.81Z" fill="white" stroke="#DFDEF8" stroke-width="1.3" stroke-miterlimit="10"/>
<path fill-rule="evenodd" clip-rule="evenodd" d="M84.8854 513.001C82.8878 513.023 81.0292 513.635 79.4749 514.669L79.8408 515.132C81.3511 514.139 83.1629 513.567 85.1069 513.589C90.1251 513.645 94.2449 517.674 94.4068 522.69C94.5821 528.124 90.1241 532.582 84.6901 532.407C79.6743 532.245 75.6449 528.125 75.5888 523.107C75.5672 521.163 76.1386 519.351 77.1323 517.841L76.669 517.475C75.6348 519.029 75.0232 520.888 75.0006 522.885C74.939 528.351 79.2946 532.874 84.7696 532.997C90.4708 533.126 95.1261 528.471 94.9975 522.77C94.8739 517.295 90.3507 512.939 84.8854 513.001Z" fill="#342BDB"/>
<path fill-rule="evenodd" clip-rule="evenodd" d="M79.1177 516.138C79.1177 516.679 78.6788 517.118 78.1373 517.118C77.5959 517.118 77.1569 516.679 77.1569 516.138C77.1569 515.596 77.5959 515.157 78.1373 515.157C78.6788 515.157 79.1177 515.596 79.1177 516.138Z" fill="#342BDB"/>
<path fill-rule="evenodd" clip-rule="evenodd" d="M87.9411 523V525.941H84.9999C83.3755 525.941 82.0587 524.624 82.0587 523C82.0587 521.376 83.3755 520.059 84.9999 520.059C86.6243 520.059 87.9411 521.376 87.9411 523ZM85.037 518.098C82.3127 518.078 80.0979 520.28 80.0979 523C80.0979 525.707 82.2926 527.902 84.9999 527.902H89.9019V523.062C89.9019 520.359 87.7399 518.118 85.037 518.098Z" fill="#342BDB"/>
</svg>
