<svg width="328" height="158" viewBox="0 0 328 158" fill="none" xmlns="http://www.w3.org/2000/svg">
<mask id="mask0" mask-type="alpha" maskUnits="userSpaceOnUse" x="0" y="0" width="328" height="158">
<rect width="328" height="158" rx="12" fill="#342BDB"/>
</mask>
<g mask="url(#mask0)">
<rect width="328" height="158" rx="12" fill="#342BDB"/>
<circle opacity="0.3" cx="68.0885" cy="122.67" r="9" transform="rotate(30 68.0885 122.67)" fill="#C4C1FA"/>
<circle opacity="0.3" cx="42.2942" cy="60.2942" r="9" transform="rotate(150 42.2942 60.2942)" fill="#C4C1FA"/>
<circle opacity="0.3" cx="268.294" cy="85.2942" r="9" transform="rotate(-60 268.294 85.2942)" fill="#C4C1FA"/>
<circle opacity="0.3" cx="257.023" cy="37.6941" r="9" transform="rotate(-165 257.023 37.6941)" fill="#C4C1FA"/>
<circle opacity="0.8" cx="72.1962" cy="82.1962" r="6" transform="rotate(30 72.1962 82.1962)" fill="white"/>
<circle opacity="0.8" cx="68.1962" cy="31.1959" r="6" transform="rotate(150 68.1962 31.1959)" fill="white"/>
<circle opacity="0.8" cx="275.304" cy="126.187" r="6" transform="rotate(-60 275.304 126.187)" fill="white"/>
<circle opacity="0.8" cx="298.348" cy="63.3483" r="6" transform="rotate(-165 298.348 63.3483)" fill="white"/>
<circle cx="36.0981" cy="104.098" r="3" transform="rotate(30 36.0981 104.098)" fill="#0FAF4D"/>
<circle cx="34.0981" cy="26.0982" r="3" transform="rotate(150 34.0981 26.0982)" fill="#0FAF4D"/>
<circle cx="299.098" cy="102.098" r="3" transform="rotate(-60 299.098 102.098)" fill="#0FAF4D"/>
<circle cx="281.449" cy="27.6744" r="3" transform="rotate(-165 281.449 27.6744)" fill="#0FAF4D"/>
<path d="M133.168 47.6694C128.398 47.6767 123.737 49.0978 119.774 51.7532C115.812 54.4085 112.725 58.179 110.905 62.5881C109.084 66.9971 108.612 71.8468 109.547 76.5244C110.482 81.2019 112.782 85.4973 116.158 88.8677C119.533 92.2381 123.832 94.5322 128.511 95.4601C133.19 96.3881 138.039 95.9082 142.445 94.0811C146.852 92.254 150.617 89.1617 153.267 85.195C155.916 81.2283 157.33 76.5653 157.33 71.7952C157.32 65.3933 154.771 59.2569 150.24 54.7335C145.71 50.2101 139.57 47.6694 133.168 47.6694ZM133.168 88.8317C129.799 88.819 126.509 87.8083 123.714 85.9272C120.919 84.0461 118.745 81.379 117.465 78.2627C116.185 75.1464 115.857 71.7207 116.522 68.4182C117.188 65.1156 118.817 62.0844 121.205 59.7073C123.592 57.3302 126.63 55.7138 129.936 55.0624C133.241 54.4109 136.665 54.7535 139.776 56.0469C142.887 57.3403 145.545 59.5265 147.414 62.3294C149.283 65.1324 150.279 68.4263 150.277 71.7952C150.273 74.0373 149.826 76.2565 148.964 78.326C148.101 80.3956 146.84 82.275 145.251 83.857C143.662 85.439 141.777 86.6926 139.704 87.5461C137.631 88.3997 135.41 88.8365 133.168 88.8317Z" fill="#92E3A9" stroke="#263238" stroke-width="1.0631" stroke-miterlimit="10"/>
<g opacity="0.2">
<path d="M133.168 47.6694C128.398 47.6767 123.737 49.0978 119.774 51.7532C115.812 54.4085 112.725 58.179 110.905 62.5881C109.084 66.9971 108.612 71.8468 109.547 76.5244C110.482 81.2019 112.782 85.4973 116.158 88.8677C119.533 92.2381 123.832 94.5322 128.511 95.4601C133.19 96.3881 138.039 95.9082 142.445 94.0811C146.852 92.254 150.617 89.1617 153.267 85.195C155.916 81.2283 157.33 76.5653 157.33 71.7952C157.32 65.3933 154.771 59.2569 150.24 54.7335C145.71 50.2101 139.57 47.6694 133.168 47.6694ZM133.168 88.8317C129.799 88.819 126.509 87.8083 123.714 85.9272C120.919 84.0461 118.745 81.379 117.465 78.2627C116.185 75.1464 115.857 71.7207 116.522 68.4182C117.188 65.1156 118.817 62.0844 121.205 59.7073C123.592 57.3302 126.63 55.7138 129.936 55.0624C133.241 54.4109 136.665 54.7535 139.776 56.0469C142.887 57.3403 145.545 59.5265 147.414 62.3294C149.283 65.1324 150.279 68.4263 150.277 71.7952C150.273 74.0373 149.826 76.2565 148.964 78.326C148.101 80.3956 146.84 82.275 145.251 83.857C143.662 85.439 141.777 86.6926 139.704 87.5461C137.631 88.3997 135.41 88.8365 133.168 88.8317Z" fill="#04B94A" stroke="#131313" stroke-width="1.0631" stroke-miterlimit="10"/>
</g>
<path d="M133.168 47.6694C128.398 47.6767 123.737 49.0978 119.774 51.7532C115.812 54.4085 112.725 58.179 110.905 62.5881C109.084 66.9971 108.612 71.8468 109.547 76.5244C110.482 81.2019 112.782 85.4973 116.158 88.8677C119.533 92.2381 123.832 94.5322 128.511 95.4601C133.19 96.3881 138.039 95.9082 142.445 94.0811C146.852 92.254 150.617 89.1617 153.267 85.195C155.916 81.2283 157.33 76.5653 157.33 71.7952C157.32 65.3933 154.771 59.2569 150.24 54.7335C145.71 50.2101 139.57 47.6694 133.168 47.6694ZM133.168 88.8317C129.799 88.819 126.509 87.8083 123.714 85.9272C120.919 84.0461 118.745 81.379 117.465 78.2627C116.185 75.1464 115.857 71.7207 116.522 68.4182C117.188 65.1156 118.817 62.0844 121.205 59.7073C123.592 57.3302 126.63 55.7138 129.936 55.0624C133.241 54.4109 136.665 54.7535 139.776 56.0469C142.887 57.3403 145.545 59.5265 147.414 62.3294C149.283 65.1324 150.279 68.4263 150.277 71.7952C150.273 74.0373 149.826 76.2565 148.964 78.326C148.101 80.3956 146.84 82.275 145.251 83.857C143.662 85.439 141.777 86.6926 139.704 87.5461C137.631 88.3997 135.41 88.8365 133.168 88.8317Z" fill="#04B94A" stroke="#131313" stroke-width="1.0631" stroke-miterlimit="10"/>
<path d="M133.168 47.6696C129.907 47.6564 126.678 48.3083 123.678 49.5856C120.678 50.8628 117.97 52.7384 115.719 55.0979L120.839 59.9981C122.788 57.9577 125.212 56.4326 127.895 55.5595C130.578 54.6864 133.436 54.4925 136.212 54.9954C138.989 55.4982 141.597 56.682 143.803 58.4406C146.01 60.1993 147.745 62.4778 148.854 65.0721C149.964 67.6664 150.412 70.4954 150.159 73.3055C149.906 76.1157 148.96 78.8192 147.406 81.1738C145.851 83.5284 143.737 85.4605 141.252 86.7971C138.767 88.1336 135.989 88.8327 133.168 88.8319V95.9121C136.375 95.9746 139.562 95.3969 142.544 94.2127C145.525 93.0286 148.24 91.2618 150.53 89.0158C152.821 86.7697 154.64 84.0895 155.882 81.1319C157.124 78.1743 157.764 74.9987 157.764 71.7908C157.764 68.583 157.124 65.4074 155.882 62.4498C154.64 59.4922 152.821 56.812 150.53 54.5659C148.24 52.3199 145.525 50.5531 142.544 49.369C139.562 48.1848 136.375 47.6071 133.168 47.6696Z" fill="white" stroke="#131313" stroke-width="1.0631" stroke-linecap="round" stroke-linejoin="round"/>
<path d="M192.759 47.6694C187.989 47.6767 183.328 49.0978 179.365 51.7532C175.402 54.4085 172.316 58.179 170.495 62.5881C168.675 66.9971 168.203 71.8468 169.138 76.5244C170.073 81.2019 172.373 85.4973 175.749 88.8677C179.124 92.2381 183.423 94.5322 188.102 95.4601C192.781 96.3881 197.63 95.9082 202.036 94.0811C206.443 92.254 210.208 89.1617 212.858 85.195C215.507 81.2283 216.921 76.5653 216.921 71.7952C216.911 65.3933 214.361 59.2569 209.831 54.7335C205.301 50.2101 199.161 47.6694 192.759 47.6694ZM192.759 88.8317C189.387 88.8299 186.092 87.8284 183.29 85.9539C180.488 84.0794 178.305 81.4161 177.016 78.3007C175.728 75.1853 175.392 71.7578 176.052 68.4517C176.711 65.1455 178.336 62.1091 180.721 59.7265C183.106 57.344 186.144 55.7222 189.451 55.0662C192.758 54.4103 196.185 54.7497 199.299 56.0415C202.413 57.3333 205.074 59.5195 206.946 62.3237C208.817 65.1278 209.815 68.4239 209.813 71.7952C209.801 76.313 208 80.6421 204.804 83.8349C201.607 87.0278 197.276 88.8244 192.759 88.8317Z" fill="#04B94A" stroke="#131313" stroke-width="1.0631" stroke-miterlimit="10"/>
<g opacity="0.2">
<path opacity="0.2" d="M192.759 47.6694C187.989 47.6767 183.328 49.0978 179.365 51.7532C175.402 54.4085 172.316 58.179 170.495 62.5881C168.675 66.9971 168.203 71.8468 169.138 76.5244C170.073 81.2019 172.373 85.4973 175.749 88.8677C179.124 92.2381 183.423 94.5322 188.102 95.4601C192.781 96.3881 197.63 95.9082 202.036 94.0811C206.443 92.254 210.208 89.1617 212.858 85.195C215.507 81.2283 216.921 76.5653 216.921 71.7952C216.911 65.3933 214.361 59.2569 209.831 54.7335C205.301 50.2101 199.161 47.6694 192.759 47.6694ZM192.759 88.8317C189.387 88.8299 186.092 87.8284 183.29 85.9539C180.488 84.0794 178.305 81.4161 177.016 78.3007C175.728 75.1853 175.392 71.7578 176.052 68.4517C176.711 65.1455 178.336 62.1091 180.721 59.7265C183.106 57.344 186.144 55.7222 189.451 55.0662C192.758 54.4103 196.185 54.7497 199.299 56.0415C202.413 57.3333 205.074 59.5195 206.946 62.3237C208.817 65.1278 209.815 68.4239 209.813 71.7952C209.801 76.313 208 80.6421 204.804 83.8349C201.607 87.0278 197.276 88.8244 192.759 88.8317Z" fill="black"/>
</g>
<path d="M192.759 47.6694C187.989 47.6767 183.328 49.0978 179.365 51.7532C175.402 54.4085 172.316 58.179 170.495 62.5881C168.675 66.9971 168.203 71.8468 169.138 76.5244C170.073 81.2019 172.373 85.4973 175.749 88.8677C179.124 92.2381 183.423 94.5322 188.102 95.4601C192.781 96.3881 197.63 95.9082 202.036 94.0811C206.443 92.254 210.208 89.1617 212.858 85.195C215.507 81.2283 216.921 76.5653 216.921 71.7952C216.911 65.3933 214.361 59.2569 209.831 54.7335C205.301 50.2101 199.161 47.6694 192.759 47.6694ZM192.759 88.8317C189.387 88.8299 186.092 87.8284 183.29 85.9539C180.488 84.0794 178.305 81.4161 177.016 78.3007C175.728 75.1853 175.392 71.7578 176.052 68.4517C176.711 65.1455 178.336 62.1091 180.721 59.7265C183.106 57.344 186.144 55.7222 189.451 55.0662C192.758 54.4103 196.185 54.7497 199.299 56.0415C202.413 57.3333 205.074 59.5195 206.946 62.3237C208.817 65.1278 209.815 68.4239 209.813 71.7952C209.801 76.313 208 80.6421 204.804 83.8349C201.607 87.0278 197.276 88.8244 192.759 88.8317Z" fill="#04B94A" stroke="#131313" stroke-width="1.0631" stroke-miterlimit="10"/>
<path d="M202.165 49.5654L199.418 56.0869C203.04 57.6192 206.022 60.3573 207.856 63.8369C209.691 67.3166 210.265 71.3235 209.482 75.1784C208.699 79.0333 206.607 82.4988 203.561 84.9872C200.515 87.4757 196.701 88.834 192.768 88.8317V95.9119C198.341 95.9247 203.746 94.0071 208.065 90.485C212.384 86.963 215.35 82.0539 216.458 76.5923C217.567 71.1308 216.749 65.4539 214.145 60.5267C211.541 55.5996 207.311 51.7263 202.175 49.5654H202.165Z" fill="white" stroke="#131313" stroke-width="1.0631" stroke-linecap="round" stroke-linejoin="round"/>
<path opacity="0.5" d="M213.77 25H114.208C112.475 24.9988 110.758 25.339 109.156 26.0012C107.554 26.6634 106.099 27.6346 104.872 28.8593C103.646 30.0841 102.673 31.5384 102.008 33.1393C101.344 34.7402 101.001 36.4562 101 38.1895V120.78C101.005 124.279 102.399 127.632 104.875 130.104C107.352 132.575 110.709 133.962 114.208 133.96H213.77C215.503 133.962 217.219 133.623 218.821 132.962C220.423 132.301 221.879 131.331 223.105 130.107C224.332 128.883 225.305 127.429 225.97 125.828C226.634 124.228 226.977 122.512 226.978 120.78V38.1895C226.977 36.4562 226.634 34.7402 225.97 33.1393C225.306 31.5384 224.332 30.0841 223.106 28.8593C221.879 27.6346 220.424 26.6634 218.822 26.0012C217.22 25.339 215.504 24.9988 213.77 25V25Z" stroke="white" stroke-width="1.0631" stroke-miterlimit="10"/>
<path opacity="0.3" d="M111.698 103.834H149.655" stroke="white" stroke-width="1.0631" stroke-miterlimit="10"/>
<path opacity="0.3" d="M111.698 107.893H149.655" stroke="white" stroke-width="1.0631" stroke-miterlimit="10"/>
<path opacity="0.3" d="M111.698 111.95H149.655" stroke="white" stroke-width="1.0631" stroke-miterlimit="10"/>
<path opacity="0.3" d="M111.698 116.017H149.655" stroke="white" stroke-width="1.0631" stroke-miterlimit="10"/>
<path opacity="0.3" d="M111.698 120.074H149.655" stroke="white" stroke-width="1.0631" stroke-miterlimit="10"/>
<path opacity="0.3" d="M174.385 103.834H212.351" stroke="white" stroke-width="1.0631" stroke-miterlimit="10"/>
<path opacity="0.3" d="M174.385 107.893H212.351" stroke="white" stroke-width="1.0631" stroke-miterlimit="10"/>
<path opacity="0.3" d="M174.385 111.95H212.351" stroke="white" stroke-width="1.0631" stroke-miterlimit="10"/>
<path opacity="0.3" d="M174.385 116.017H212.351" stroke="white" stroke-width="1.0631" stroke-miterlimit="10"/>
<path opacity="0.3" d="M174.385 120.074H212.351" stroke="white" stroke-width="1.0631" stroke-miterlimit="10"/>
<path opacity="0.3" d="M143.738 36.1836H181.694" stroke="white" stroke-width="1.0631" stroke-miterlimit="10"/>
<path opacity="0.3" d="M143.738 40.2505H181.694" stroke="white" stroke-width="1.0631" stroke-miterlimit="10"/>
</g>
</svg>
