<svg width="328" height="158" viewBox="0 0 328 158" fill="none" xmlns="http://www.w3.org/2000/svg">
<rect width="328" height="158" rx="12" fill="#342BDB"/>
<circle opacity="0.3" cx="32.0227" cy="75.0227" r="9" transform="rotate(75 32.0227 75.0227)" fill="#C4C1FA"/>
<circle opacity="0.3" r="9" transform="matrix(-0.258819 0.965926 0.965926 0.258819 296.326 75.0227)" fill="#C4C1FA"/>
<circle opacity="0.8" cx="35.436" cy="29.3485" r="6" transform="rotate(75 35.436 29.3485)" fill="white"/>
<circle opacity="0.8" r="6" transform="matrix(-0.258819 0.965926 0.965926 0.258819 292.912 29.3485)" fill="white"/>
<circle opacity="0.8" cx="34.3485" cy="126.348" r="6" transform="rotate(-105 34.3485 126.348)" fill="white"/>
<circle opacity="0.8" r="6" transform="matrix(0.258819 -0.965926 -0.965926 -0.258819 294 126.348)" fill="white"/>
<circle cx="23.6742" cy="51.1352" r="3" transform="rotate(75 23.6742 51.1352)" fill="#0FAF4D"/>
<circle r="3" transform="matrix(-0.258819 0.965926 0.965926 0.258819 304.674 51.1352)" fill="#0FAF4D"/>
<circle cx="43.6742" cy="99.6744" r="3" transform="rotate(-105 43.6742 99.6744)" fill="#0FAF4D"/>
<circle r="3" transform="matrix(0.258819 -0.965926 -0.965926 -0.258819 284.674 99.6744)" fill="#0FAF4D"/>
<path opacity="0.5" d="M263.604 30.493V128.4C263.604 129.591 263.131 130.734 262.288 131.577C261.445 132.419 260.303 132.893 259.111 132.893H69.5137C68.3215 132.893 67.178 132.42 66.3343 131.577C65.4906 130.735 65.0158 129.592 65.014 128.4V30.493C65.0158 29.3008 65.4906 28.158 66.3343 27.3156C67.178 26.4732 68.3215 26 69.5137 26H259.111C260.303 26 261.445 26.4734 262.288 27.316C263.131 28.1586 263.604 29.3014 263.604 30.493V30.493Z" stroke="white" stroke-width="1.0631" stroke-miterlimit="10"/>
<path d="M84.9773 86.8001C84.9773 86.8001 83.7238 91.0287 84.1959 92.7503C84.668 94.4719 86.8576 92.909 89.0513 94.7852C91.245 96.6615 93.2758 100.048 101.582 100.674C109.889 101.301 114.903 96.8202 116.641 94.3131C118.379 91.8061 118.208 88.831 121.183 88.6763C124.158 88.5217 121.655 82.7221 120.715 81.7819C120.715 81.7819 126.511 73.166 126.511 70.9723C126.511 68.7786 121.028 69.2467 114.301 71.2857C114.301 71.2857 109.287 68.6199 100.199 70.1868C91.1107 71.7537 88.4489 74.4195 88.4489 74.4195C88.4489 74.4195 77.1672 75.8277 76.3858 77.2359C75.6044 78.6441 77.9283 84.6064 84.9773 86.8001Z" fill="white"/>
<path d="M121.17 88.6808C124.149 88.522 121.642 82.7265 120.702 81.7864C120.702 81.7864 121.805 80.1584 123.046 78.1235C119.68 76.3653 116.376 75.3885 115.496 76.3775C113.604 78.502 114.634 82.5718 115.496 86.5522C116.359 90.5326 112.912 92.2297 110.503 95.6728C108.093 99.116 104.654 95.3269 104.654 95.3269C103.433 100.321 98.2849 97.0484 98.2849 97.0484C94.329 95.8275 87.6177 91.8878 88.9934 89.1325C90.369 86.3772 90.7149 83.7969 88.3055 81.5625C85.8962 79.3281 76.2872 77.4682 76.2872 77.4682C75.7825 79.1653 78.2204 84.7248 84.9804 86.8289C84.9804 86.8289 83.7269 91.0576 84.199 92.7791C84.6711 94.5007 86.8607 92.9379 89.0544 94.8141C91.2481 96.6903 93.2789 100.076 101.586 100.703C109.892 101.33 114.906 96.849 116.644 94.342C118.382 91.8349 118.191 88.8354 121.17 88.6808Z" fill="#92E3A9"/>
<path opacity="0.5" d="M121.17 88.6808C124.149 88.522 121.642 82.7265 120.702 81.7864C120.702 81.7864 121.805 80.1584 123.046 78.1235C119.68 76.3653 116.376 75.3885 115.496 76.3775C113.604 78.502 114.634 82.5718 115.496 86.5522C116.359 90.5326 112.912 92.2297 110.503 95.6728C108.093 99.116 104.654 95.3269 104.654 95.3269C103.433 100.321 98.2849 97.0484 98.2849 97.0484C94.329 95.8275 87.6177 91.8878 88.9934 89.1325C90.369 86.3772 90.7149 83.7969 88.3055 81.5625C85.8962 79.3281 76.2872 77.4682 76.2872 77.4682C75.7825 79.1653 78.2204 84.7248 84.9804 86.8289C84.9804 86.8289 83.7269 91.0576 84.199 92.7791C84.6711 94.5007 86.8607 92.9379 89.0544 94.8141C91.2481 96.6903 93.2789 100.076 101.586 100.703C109.892 101.33 114.906 96.849 116.644 94.342C118.382 91.8349 118.191 88.8354 121.17 88.6808Z" fill="white"/>
<path d="M108.915 89.6244C109.033 90.6175 106.828 91.6879 103.999 92.0175C101.17 92.3472 98.7774 91.8099 98.6593 90.7965C98.5413 89.7831 100.747 88.7372 103.58 88.4075C106.412 88.0779 108.802 88.6354 108.915 89.6244Z" fill="#92E3A9"/>
<path opacity="0.5" d="M108.915 89.6244C109.033 90.6175 106.828 91.6879 103.999 92.0175C101.17 92.3472 98.7774 91.8099 98.6593 90.7965C98.5413 89.7831 100.747 88.7372 103.58 88.4075C106.412 88.0779 108.802 88.6354 108.915 89.6244Z" fill="white"/>
<path d="M84.9773 86.8001C84.9773 86.8001 83.7238 91.0287 84.1959 92.7503C84.668 94.4719 86.8576 92.909 89.0513 94.7852C91.245 96.6615 93.2758 100.048 101.582 100.674C109.889 101.301 114.903 96.8202 116.641 94.3131C118.379 91.8061 118.208 88.831 121.183 88.6763C124.158 88.5217 121.655 82.7221 120.715 81.7819C120.715 81.7819 126.511 73.166 126.511 70.9723C126.511 68.7786 121.028 69.2467 114.301 71.2857C114.301 71.2857 109.287 68.6199 100.199 70.1868C91.1107 71.7537 88.4489 74.4195 88.4489 74.4195C88.4489 74.4195 77.1672 75.8277 76.3858 77.2359C75.6044 78.6441 77.9283 84.6064 84.9773 86.8001Z" stroke="#131313" stroke-width="1.1133" stroke-miterlimit="10"/>
<path d="M117.381 74.2648C113.311 76.9997 114.748 79.7347 116.567 81.2528C117.678 82.1807 119.469 82.0667 120.694 81.8063C120.694 81.8063 126.489 73.1903 126.489 70.9966C126.493 70.9763 121.43 71.5095 117.381 74.2648Z" fill="#04B94A" stroke="#131313" stroke-width="1.1133" stroke-miterlimit="10"/>
<path d="M76.2831 77.4392C75.7784 79.1363 78.2163 84.6958 84.9764 86.7999C84.9764 86.7999 90.137 86.2953 88.4154 82.144C86.8078 78.2694 78.6803 77.3049 76.2831 77.4392Z" fill="#04B94A" stroke="#131313" stroke-width="1.1133" stroke-miterlimit="10"/>
<path d="M100.173 70.1954C99.6402 70.289 99.1274 70.3867 98.6349 70.4844C99.4489 74.595 100.788 81.4405 101.984 81.4405C103.181 81.4405 104.097 73.9356 104.487 69.7314C103.041 69.7924 101.6 69.9473 100.173 70.1954Z" fill="#04B94A" stroke="#131313" stroke-width="1.1133" stroke-miterlimit="10"/>
<path d="M95.5052 80.2191C96.7506 79.4865 96.5634 73.98 96.3639 70.9927C95.0786 71.312 93.8133 71.7075 92.5749 72.177C93.0266 74.973 94.1743 81.0005 95.5052 80.2191Z" fill="#04B94A" stroke="#131313" stroke-width="1.1133" stroke-miterlimit="10"/>
<path d="M107.556 77.6878C108.83 78.1355 109.546 73.5568 109.949 70.0323C108.663 69.8226 107.362 69.7124 106.058 69.7026C106.018 72.5963 106.176 77.2034 107.556 77.6878Z" fill="#04B94A" stroke="#131313" stroke-width="1.1133" stroke-miterlimit="10"/>
<path d="M105.851 93.536C104.662 93.2235 103.399 93.3794 102.322 93.9714C102.275 93.9987 102.235 94.0367 102.205 94.0822C102.175 94.1278 102.156 94.1797 102.15 94.2339C102.143 94.288 102.15 94.3429 102.168 94.3942C102.187 94.4454 102.218 94.4916 102.257 94.529L104.418 96.564C104.459 96.6019 104.508 96.6297 104.561 96.645C104.615 96.6603 104.671 96.6627 104.725 96.6519C104.78 96.6412 104.831 96.6176 104.874 96.5832C104.918 96.5488 104.953 96.5046 104.976 96.4541L106.083 94.0121C106.103 93.966 106.112 93.916 106.111 93.8658C106.11 93.8156 106.098 93.7662 106.076 93.721C106.054 93.6758 106.022 93.6359 105.983 93.604C105.945 93.572 105.899 93.5489 105.851 93.536Z" fill="#92E3A9" stroke="#131313" stroke-width="1.1133" stroke-linecap="round" stroke-linejoin="round"/>
<path d="M100.715 90.137C101.012 90.9225 100.894 91.6958 100.45 91.8626C100.006 92.0295 99.4041 91.533 99.103 90.7516C98.8018 89.9701 98.9239 89.1928 99.3675 89.0259C99.8111 88.8591 100.413 89.3556 100.715 90.137Z" fill="#131313"/>
<path d="M106.608 89.5801C106.453 90.3941 106.706 91.147 107.174 91.2324C107.642 91.3179 108.146 90.7237 108.301 89.8975C108.456 89.0713 108.203 88.3347 107.735 88.2452C107.267 88.1556 106.763 88.758 106.608 89.5801Z" fill="#131313"/>
<path d="M104.976 96.4502C104.976 96.4502 102.086 100.374 99.453 96.4258" stroke="#131313" stroke-width="1.1133" stroke-linecap="round" stroke-linejoin="round"/>
<path d="M104.418 96.5598C104.418 96.5598 106.339 98.55 108.366 97.4349C110.393 96.3197 109.18 94.5859 109.18 94.5859" stroke="#131313" stroke-width="1.1133" stroke-linecap="round" stroke-linejoin="round"/>
<path d="M95.607 87.0037C95.607 87.0037 96.3151 84.4723 99.6565 85.0787" stroke="#131313" stroke-width="3.33991" stroke-linecap="round" stroke-linejoin="round"/>
<path d="M105.733 84.6754C105.733 84.6754 108.264 83.1574 110.592 85.5871" stroke="#131313" stroke-width="3.33991" stroke-linecap="round" stroke-linejoin="round"/>
<path d="M93.6819 93.792L96.1116 94.3984" stroke="#131313" stroke-width="1.1133" stroke-miterlimit="10" stroke-linecap="round"/>
<path d="M95.8064 95.3101L93.6819 95.713" stroke="#131313" stroke-width="1.1133" stroke-miterlimit="10" stroke-linecap="round"/>
<path d="M96.2134 96.4258L94.6953 97.2357" stroke="#131313" stroke-width="1.1133" stroke-miterlimit="10" stroke-linecap="round"/>
<path d="M111.606 92.6772L113.734 92.1685" stroke="#131313" stroke-width="1.1133" stroke-miterlimit="10" stroke-linecap="round"/>
<path d="M112.013 93.6904H113.429" stroke="#131313" stroke-width="1.1133" stroke-miterlimit="10" stroke-linecap="round"/>
<path d="M112.314 94.7036L114.239 95.2083" stroke="#131313" stroke-width="1.1133" stroke-miterlimit="10" stroke-linecap="round"/>
<path d="M263.603 35.6969V128.42C263.603 129.612 263.13 130.754 262.287 131.597C261.445 132.44 260.302 132.913 259.11 132.913H139.818V35.6768L263.603 35.6969Z" fill="#D6D5F8"/>
<path d="M246.993 75.3154H222.322C221 75.3154 219.733 75.8404 218.798 76.7748C217.864 77.7092 217.339 78.9765 217.339 80.2979C217.341 81.6182 217.866 82.8838 218.801 83.8168C219.735 84.7497 221.001 85.2738 222.322 85.2738H246.993C247.647 85.2746 248.294 85.1466 248.899 84.8969C249.503 84.6473 250.053 84.2809 250.515 83.8188C250.978 83.3566 251.345 82.8078 251.596 82.2037C251.846 81.5995 251.975 80.9519 251.975 80.2979C251.976 79.6434 251.848 78.9951 251.598 78.3902C251.348 77.7853 250.981 77.2357 250.518 76.7728C250.055 76.31 249.505 75.943 248.9 75.6929C248.296 75.4428 247.647 75.3146 246.993 75.3154Z" fill="#04B94A" stroke="#131313" stroke-linecap="round" stroke-linejoin="round"/>
<path d="M263.603 30.493V39.6667H65V30.493C65.0018 29.3008 65.4766 28.158 66.3203 27.3156C67.164 26.4732 68.3075 26 69.4997 26H259.11C260.302 26 261.445 26.4734 262.287 27.316C263.13 28.1586 263.603 29.3014 263.603 30.493Z" fill="#716BE6"/>
<path d="M73.4025 35.6968C75.1136 35.6968 76.5007 34.3097 76.5007 32.5986C76.5007 30.8876 75.1136 29.5005 73.4025 29.5005C71.6915 29.5005 70.3044 30.8876 70.3044 32.5986C70.3044 34.3097 71.6915 35.6968 73.4025 35.6968Z" fill="#04B94A" stroke="#131313" stroke-linecap="round" stroke-linejoin="round"/>
<path d="M81.785 35.6968C83.496 35.6968 84.8831 34.3097 84.8831 32.5986C84.8831 30.8876 83.496 29.5005 81.785 29.5005C80.0739 29.5005 78.6868 30.8876 78.6868 32.5986C78.6868 34.3097 80.0739 35.6968 81.785 35.6968Z" fill="#F8C5C5" stroke="#131313" stroke-linecap="round" stroke-linejoin="round"/>
<path d="M90.1674 35.6968C91.8785 35.6968 93.2656 34.3097 93.2656 32.5986C93.2656 30.8876 91.8785 29.5005 90.1674 29.5005C88.4564 29.5005 87.0693 30.8876 87.0693 32.5986C87.0693 34.3097 88.4564 35.6968 90.1674 35.6968Z" fill="white" stroke="#131313" stroke-linecap="round" stroke-linejoin="round"/>
<path d="M256.844 35.6969H213.423C212.602 35.6951 211.816 35.3679 211.236 34.7871C210.657 34.2063 210.331 33.4193 210.331 32.5988C210.333 31.7794 210.659 30.9941 211.239 30.4147C211.818 29.8354 212.603 29.5091 213.423 29.5073H256.844C257.664 29.5073 258.451 29.8328 259.032 30.4124C259.613 30.9919 259.94 31.7782 259.942 32.5988C259.942 33.0056 259.862 33.4085 259.706 33.7844C259.55 34.1603 259.322 34.5018 259.034 34.7895C258.747 35.0772 258.405 35.3054 258.029 35.4611C257.653 35.6168 257.251 35.6969 256.844 35.6969Z" fill="white" stroke="#131313" stroke-linecap="round" stroke-linejoin="round"/>
<path d="M248.924 68.4154H154.96C154.151 68.4154 153.375 68.0939 152.803 67.5217C152.231 66.9495 151.909 66.1734 151.909 65.3642C151.909 64.9635 151.988 64.5667 152.141 64.1965C152.295 63.8264 152.519 63.49 152.803 63.2067C153.086 62.9233 153.422 62.6986 153.793 62.5452C154.163 62.3919 154.56 62.313 154.96 62.313H248.924C249.325 62.313 249.721 62.3919 250.092 62.5452C250.462 62.6986 250.798 62.9233 251.082 63.2067C251.365 63.49 251.59 63.8264 251.743 64.1965C251.896 64.5667 251.975 64.9635 251.975 65.3642C251.975 66.1734 251.654 66.9495 251.082 67.5217C250.509 68.0939 249.733 68.4154 248.924 68.4154Z" fill="white" stroke="#131313" stroke-miterlimit="10"/>
<path d="M205.335 68.4154H154.96C154.151 68.4154 153.375 68.0939 152.803 67.5217C152.231 66.9495 151.909 66.1734 151.909 65.3642C151.909 64.9635 151.988 64.5667 152.141 64.1965C152.295 63.8264 152.519 63.49 152.803 63.2067C153.086 62.9233 153.422 62.6986 153.793 62.5452C154.163 62.3919 154.56 62.313 154.96 62.313H205.335C205.736 62.313 206.133 62.3919 206.503 62.5452C206.873 62.6986 207.21 62.9233 207.493 63.2067C207.776 63.49 208.001 63.8264 208.154 64.1965C208.308 64.5667 208.387 64.9635 208.387 65.3642C208.387 66.1734 208.065 66.9495 207.493 67.5217C206.921 68.0939 206.145 68.4154 205.335 68.4154Z" fill="#04B94A" stroke="#131313" stroke-linecap="round" stroke-linejoin="round"/>
<path d="M158.823 111.749H154.685V115.887H158.823V111.749Z" stroke="white" stroke-linecap="round" stroke-linejoin="round"/>
<path d="M155.946 113.533L156.556 114.364L157.569 112.922" stroke="white" stroke-linecap="round" stroke-linejoin="round"/>
<path d="M194.706 112.614H166.528C165.861 112.614 165.321 113.153 165.321 113.817C165.321 114.482 165.861 115.021 166.528 115.021H194.706C195.373 115.021 195.913 114.482 195.913 113.817C195.913 113.153 195.373 112.614 194.706 112.614Z" fill="#342BDB"/>
<path d="M152.794 54.7754V58.068C152.794 58.3765 152.928 58.4838 153.143 58.4838C153.358 58.4838 153.492 58.3765 153.492 58.068V54.7754H154.129V58.0278C154.149 58.1677 154.138 58.3104 154.096 58.4454C154.054 58.5803 153.982 58.704 153.885 58.8072C153.788 58.9103 153.669 58.9903 153.537 59.0412C153.405 59.092 153.264 59.1123 153.123 59.1007C152.452 59.1007 152.124 58.7118 152.124 58.0278V54.7754H152.794Z" fill="#131313"/>
<path d="M156.57 55.8215V56.3781C156.57 57.0487 156.241 57.4377 155.57 57.4377H155.255V59.0404H154.585V54.7754H155.57C156.241 54.7754 156.57 55.1442 156.57 55.8215ZM155.229 55.3789V56.8274H155.544C155.758 56.8274 155.872 56.7268 155.872 56.4251V55.7545C155.872 55.4527 155.758 55.3521 155.544 55.3521L155.229 55.3789Z" fill="#131313"/>
<path d="M158.97 59.0398H158.3L158.186 58.2619H157.361L157.247 59.0398H156.63L157.301 54.7681H158.28L158.97 59.0398ZM157.441 57.6986H158.112L157.797 55.5392L157.441 57.6986Z" fill="#131313"/>
<path d="M159.279 54.7754H160.345C161.016 54.7754 161.344 55.1509 161.344 55.8282V57.9875C161.344 58.6581 161.016 59.0471 160.345 59.0471H159.279V54.7754ZM159.949 55.3856V58.4368H160.332C160.546 58.4368 160.674 58.3228 160.674 58.0211V55.8014C160.674 55.4929 160.546 55.3856 160.332 55.3856H159.949Z" fill="#131313"/>
<path d="M163.933 59.0398H163.262L163.148 58.2619H162.323L162.209 59.0398H161.592L162.263 54.7681H163.242L163.933 59.0398ZM162.404 57.6986H163.074L162.759 55.5392L162.404 57.6986Z" fill="#131313"/>
<path d="M163.819 54.7754H165.891V55.3856H165.187V59.0471H164.516V55.3789H163.846L163.819 54.7754Z" fill="#131313"/>
<path d="M166.179 54.7754H166.85V59.0471H166.179V54.7754Z" fill="#131313"/>
<path d="M167.95 55.9489V59.0404H167.346V54.7754H168.191L168.862 57.3304V54.7754H169.432V59.0471H168.761L167.95 55.9489Z" fill="#131313"/>
<path d="M170.947 56.6594H171.886V58.0006C171.886 58.6712 171.544 59.0736 170.887 59.0736C170.23 59.0736 169.888 58.6846 169.888 58.0006V55.781C169.888 55.1104 170.23 54.708 170.887 54.708C171.544 54.708 171.886 55.097 171.886 55.781V56.1967H171.215V55.7407C171.215 55.4323 171.081 55.3183 170.873 55.3183C170.666 55.3183 170.525 55.4323 170.525 55.7407V58.0409C170.525 58.3493 170.659 58.4566 170.873 58.4566C171.088 58.4566 171.215 58.3493 171.215 58.0409V57.2563H170.914L170.947 56.6594Z" fill="#131313"/>
</svg>
