<svg width="328" height="158" viewBox="0 0 328 158" fill="none" xmlns="http://www.w3.org/2000/svg">
<rect width="328" height="158" rx="12" fill="#342BDB"/>
<circle opacity="0.3" cx="38.0227" cy="24.6111" r="9" transform="rotate(-105 38.0227 24.6111)" fill="#C4C1FA"/>
<circle opacity="0.8" cx="47.1507" cy="62.5407" r="6" transform="rotate(-105 47.1507 62.5407)" fill="white"/>
<circle cx="58.9127" cy="40.754" r="3" transform="rotate(-105 58.9127 40.754)" fill="#0FAF4D"/>
<circle opacity="0.3" r="9" transform="matrix(0.258819 -0.965926 -0.965926 -0.258819 284.384 33.6111)" fill="#C4C1FA"/>
<circle opacity="0.8" r="6" transform="matrix(0.258819 -0.965926 -0.965926 -0.258819 275.256 71.5407)" fill="white"/>
<circle r="3" transform="matrix(0.258819 -0.965926 -0.965926 -0.258819 263.494 49.754)" fill="#0FAF4D"/>
<circle opacity="0.3" cx="66.796" cy="104.023" r="9" transform="rotate(-15 66.796 104.023)" fill="#C4C1FA"/>
<circle opacity="0.8" cx="28.8661" cy="113.151" r="6" transform="rotate(-15 28.8661 113.151)" fill="white"/>
<circle cx="50.6527" cy="124.913" r="3" transform="rotate(-15 50.6527 124.913)" fill="#0FAF4D"/>
<circle opacity="0.3" r="9" transform="matrix(-0.965926 -0.258819 -0.258819 0.965926 255.611 113.023)" fill="#C4C1FA"/>
<circle opacity="0.8" r="6" transform="matrix(-0.965926 -0.258819 -0.258819 0.965926 293.541 122.151)" fill="white"/>
<circle r="3" transform="matrix(-0.965926 -0.258819 -0.258819 0.965926 271.754 133.913)" fill="#0FAF4D"/>
<path opacity="0.1" d="M115.535 78.9557C122.403 77.8883 122.259 63.2548 110.139 58.9907C98.0195 54.7266 104.269 45.2324 110.278 47.3298C116.287 49.4271 116.389 63.4416 125.44 64.6904C134.491 65.9392 136.396 47.8368 131.423 42.009C126.449 36.1812 136.599 38.5881 137.827 36.8376C139.785 34.0091 133.274 20.4323 140.378 21.6331C143.895 22.2255 140.207 30.9618 142.838 43.9463C145.469 56.9307 148.623 63.3935 154.579 56.4877C160.535 49.5819 153.976 44.1651 158.341 40.8829C162.707 37.6008 166.229 40.5894 165.813 44.7148C165.397 48.8401 165.215 52.8961 168.108 51.4178C171 49.9395 175.761 43.0337 178.125 37.6061C180.489 32.1786 183.179 32.5255 183.398 36.5708C183.616 40.6161 172.857 49.4218 172.58 55.4471C172.302 61.4723 176.497 72.3861 186.029 65.128C195.56 57.87 197.77 55.2282 201.068 59.1081C204.366 62.9879 201.916 69.3387 207.312 69.248C212.707 69.1573 219.432 54.8013 222.826 55.906C226.22 57.0107 232.63 60.1328 220.963 66.5796C209.297 73.0265 205.343 72.749 205.86 79.7829C206.378 86.8168 233.702 87.6546 230.943 92.319C228.184 96.9834 197.61 96.423 194.418 107.913C191.227 119.403 207.76 117.647 204.868 124.078C201.975 130.509 195.261 121.325 189.193 115.897C183.125 110.469 182.997 114.531 177.661 116.244C172.324 117.957 171.155 114.915 167.729 114.05C164.303 113.186 166.395 120.214 161.239 119.467C156.084 118.72 159.638 117.663 156.148 116.324C152.658 114.984 149.642 128.294 142.139 126.218C134.635 124.142 130.072 118.08 125.376 122.36C120.68 126.64 124.111 135.729 117.413 135.099C110.716 134.469 113.091 128.225 115.924 127.499C118.758 126.773 126.411 116.505 125.088 112.556C123.764 108.607 111.004 119.126 108.282 113.72C105.56 108.313 103.202 103.676 96.6693 105.303C90.1371 106.931 89.1391 97.8319 94.2517 97.9707C99.3644 98.1094 111.228 99.0007 112.157 94.7206C113.085 90.4405 110.054 85.648 101.985 81.608C93.9155 77.5681 101.835 69.3974 107.508 73.9124C113.181 78.4273 110.102 79.7775 115.535 78.9557Z" fill="#EBEAFB"/>
<path d="M142.333 109L144.441 114.668L135 113.883L142.333 109Z" stroke="white" stroke-linecap="round" stroke-linejoin="round"/>
<path d="M134.651 20L139.705 22.4443L134.651 24.9152L139.705 28.0426L134.651 31.4261L140.319 34.0465L135.852 38.2092" stroke="white" stroke-linecap="round" stroke-linejoin="round"/>
<path d="M113.579 29.1579C116.108 29.1579 118.158 27.1079 118.158 24.579C118.158 22.0501 116.108 20 113.579 20C111.05 20 109 22.0501 109 24.579C109 27.1079 111.05 29.1579 113.579 29.1579Z" stroke="white" stroke-linecap="round" stroke-linejoin="round"/>
<path d="M195.176 91.9775L184.252 95.9428" stroke="white" stroke-linecap="round" stroke-linejoin="round"/>
<path d="M190.853 97.4692L187.528 89.5601" stroke="white" stroke-linecap="round" stroke-linejoin="round"/>
<path d="M201.601 120.551C201.516 120.551 203.736 123.219 203.736 123.219L200.742 125.61L198.608 122.942L201.601 120.551Z" stroke="white" stroke-linecap="round" stroke-linejoin="round"/>
<path d="M178.728 22.0387C178.729 22.4431 178.61 22.8389 178.386 23.1757C178.162 23.5125 177.843 23.7753 177.47 23.9309C177.096 24.0864 176.685 24.1276 176.288 24.0494C175.892 23.9711 175.527 23.7769 175.24 23.4912C174.954 23.2056 174.759 22.8414 174.68 22.4447C174.6 22.0481 174.64 21.6368 174.795 21.263C174.95 20.8892 175.212 20.5697 175.548 20.3448C175.884 20.12 176.279 20 176.684 20C177.225 20 177.744 20.2146 178.127 20.5968C178.511 20.979 178.726 21.4975 178.728 22.0387V22.0387Z" stroke="white" stroke-linecap="round" stroke-linejoin="round"/>
<path d="M200.075 57.9609L196.916 54.7908L202.909 51.9783L200.289 49.2299L205.407 45.793" stroke="white" stroke-linecap="round" stroke-linejoin="round"/>
<path d="M172.979 87.7241C172.979 87.7241 169.686 88.4873 172.349 92.0789C172.349 92.0789 169.339 92.5753 171.442 96.247C171.442 96.247 169.622 97.7893 171.885 100.516C171.885 100.516 170.818 103.185 176.117 106.819C176.117 106.819 176.08 109.087 179.751 109.957C182.954 110.715 183.823 109.376 183.823 109.376C183.823 109.376 188.04 108.842 190.356 105.378C190.356 105.378 194.091 104.242 192.997 101.968C192.997 101.968 196.007 99.6198 194.406 98.0989C194.406 98.0989 197.865 94.6139 196.119 93.4558C193.056 91.4332 172.979 87.7241 172.979 87.7241Z" fill="#131313" stroke="#131313" stroke-linecap="round" stroke-linejoin="round"/>
<path d="M198.019 46.7536C216.848 54.5774 217.088 72.7919 210.625 81.8804C204.754 90.1578 196.813 89.5334 196.119 93.4933C195.426 97.4532 173.278 91.6841 172.248 88.8503C171.218 86.0165 175.813 86.4007 167.306 75.044C158.799 63.6873 174.9 37.1474 198.019 46.7536Z" fill="white"/>
<path opacity="0.4" d="M196.125 93.4719C195.431 97.4318 173.278 91.6574 172.248 88.8289C171.218 86.0004 175.813 86.3739 167.306 75.0226C158.799 63.6712 174.9 37.1313 198.019 46.7375C200.281 47.6602 202.43 48.8384 204.423 50.2491C194.967 48.1678 182.116 47.8049 175.028 60.8374C167.317 75.0279 179.298 87.9323 185.35 88.9356C185.35 88.9356 180.355 85.2959 178.689 79.1746C178.689 79.1746 187.228 91.8228 200.57 89.7094C198.185 90.8462 196.434 91.7001 196.125 93.4719Z" fill="#04B94A"/>
<path d="M198.019 46.7536C216.848 54.5774 217.088 72.7919 210.625 81.8804C204.754 90.1578 196.813 89.5334 196.119 93.4933C195.426 97.4532 173.278 91.6841 172.248 88.8503C171.218 86.0165 175.813 86.4007 167.306 75.044C158.799 63.6873 174.9 37.1474 198.019 46.7536Z" stroke="#131313" stroke-linecap="round" stroke-linejoin="round"/>
<path d="M192.949 98.5204C192.949 98.5204 184.085 101.504 172.958 97.0527" stroke="white" stroke-linecap="round" stroke-linejoin="round"/>
<path d="M187.762 95.8522C188.291 95.815 188.816 95.7455 189.336 95.644" stroke="white" stroke-linecap="round" stroke-linejoin="round"/>
<path d="M173.641 92.938C177.209 94.462 180.988 95.4355 184.848 95.8252" stroke="white" stroke-linecap="round" stroke-linejoin="round"/>
<path d="M179.703 102.576C183.396 103.158 187.314 103.27 190.911 102.16" stroke="white" stroke-linecap="round" stroke-linejoin="round"/>
<path d="M173.374 101.029C174.83 101.538 176.319 101.948 177.83 102.256" stroke="white" stroke-linecap="round" stroke-linejoin="round"/>
<path d="M185.366 105.891C182.051 105.517 178.813 104.645 175.76 103.302" stroke="white" stroke-linecap="round" stroke-linejoin="round"/>
<path d="M188.504 105.992C188.023 106.018 187.538 105.992 187.052 105.992" stroke="white" stroke-linecap="round" stroke-linejoin="round"/>
<path d="M176.923 107.4C178.708 108.665 180.83 109.368 183.018 109.418" stroke="white" stroke-linecap="round" stroke-linejoin="round"/>
<path d="M194.94 92.6872C194.94 92.6872 185.472 86.6032 174.399 87.1903" stroke="#263238" stroke-linecap="round" stroke-linejoin="round"/>
<path d="M188.312 90.9634C188.312 90.9634 193.739 79.1317 201.317 78.3312C201.317 78.3312 196.728 74.6435 194.94 74.0885C193.152 73.5334 192.015 77.4346 193.264 77.0184C194.513 76.6021 196.296 71.1906 194.166 69.7763C192.037 68.3621 187.927 75.396 189.139 75.9723C190.35 76.5487 191.861 69.1466 188.893 68.3087C185.926 67.4708 183.727 73.8536 185.12 73.9817C186.513 74.1098 186.994 71.3133 183.823 70.278C180.392 69.1306 176.09 70.8117 176.09 70.8117C176.09 70.8117 182.735 78.7742 180.541 88.9141" stroke="#263238" stroke-linecap="round" stroke-linejoin="round"/>
<path opacity="0.5" d="M93.1487 29.3101C93.1487 29.3101 123.363 73.764 165.954 81.2083" stroke="white" stroke-linecap="round" stroke-linejoin="round"/>
<path opacity="0.5" d="M85.4857 38.7441C85.4857 38.7441 128.761 83.9954 163.203 86.5498" stroke="white" stroke-linecap="round" stroke-linejoin="round"/>
<path opacity="0.5" d="M82 53.0049C82 53.0049 126.094 90.4803 159.66 92.5971" stroke="white" stroke-linecap="round" stroke-linejoin="round"/>
<path opacity="0.5" d="M82 68.5425C82 68.5425 118.452 96.5343 157 97.0001" stroke="white" stroke-linecap="round" stroke-linejoin="round"/>
<path d="M119.327 49.4555C118.24 48.3155 117.529 46.87 117.288 45.3135C117.146 44.5336 117.122 43.7367 117.217 42.9497L107.572 60.3855C107.075 58.8235 106.131 57.442 104.855 56.4129C102.131 54.1196 98.702 53.7033 97.199 55.4956C95.6961 57.2879 96.6839 60.5902 99.4076 62.8834C102.131 65.1767 105.561 65.5859 107.071 63.8007C107.299 63.5226 107.474 63.2043 107.586 62.8622L115.178 49.1239C115.925 50.3713 116.925 51.4482 118.114 52.285C118.917 52.8546 119.542 53.6402 119.916 54.5507C120.291 55.4611 120.4 56.4592 120.23 57.429C120.308 57.1961 122.432 52.7084 119.327 49.4555Z" fill="white"/>
<path d="M124.485 80.044C123.564 79.0718 122.963 77.8404 122.764 76.5159C122.642 75.8573 122.621 75.1841 122.7 74.519L114.557 89.2876C114.139 87.9672 113.341 86.7991 112.264 85.9289C109.964 83.9884 107.064 83.6427 105.793 85.1527C104.523 86.6627 105.356 89.457 107.663 91.3974C109.971 93.3379 112.864 93.6836 114.134 92.1736C114.328 91.9401 114.477 91.6719 114.571 91.3833L120.992 79.7688C121.624 80.8225 122.47 81.7314 123.476 82.4361C124.151 82.9215 124.674 83.5882 124.985 84.3587C125.296 85.1293 125.382 85.9722 125.233 86.7897C125.318 86.5922 127.11 82.7959 124.485 80.044Z" fill="white"/>
<path d="M154.446 77.2216C153.772 76.4857 153.264 75.6132 152.957 74.6634C152.65 73.7137 152.551 72.709 152.668 71.7178L144.511 86.4722C144.092 85.1484 143.292 83.9776 142.21 83.1064C139.91 81.166 137.01 80.8202 135.74 82.3303C134.47 83.8403 135.302 86.6416 137.61 88.575C139.917 90.5084 142.81 90.8682 144.08 89.3512C144.275 89.1176 144.423 88.8495 144.518 88.5609L150.946 76.9464C151.572 78.0016 152.417 78.9109 153.423 79.6136C154.097 80.0994 154.62 80.7658 154.933 81.5361C155.245 82.3063 155.333 83.1491 155.187 83.9673C155.278 83.7697 157.071 79.9665 154.446 77.2216Z" fill="white"/>
<path d="M148.351 132.676C147.465 132.847 146.216 133.161 145.821 134.063" stroke="white" stroke-linecap="round" stroke-linejoin="round"/>
<path d="M171.054 128.278C165.29 132.585 157.845 133.081 150.283 132.473" stroke="white" stroke-linecap="round" stroke-linejoin="round"/>
</svg>
