<svg width="328" height="158" viewBox="0 0 328 158" fill="none" xmlns="http://www.w3.org/2000/svg">
<rect width="328" height="158" rx="12" fill="#342BDB"/>
<circle opacity="0.3" cx="30.2942" cy="33.2942" r="9" transform="rotate(-120 30.2942 33.2942)" fill="#C4C1FA"/>
<circle opacity="0.8" cx="48.9282" cy="67.569" r="6" transform="rotate(-120 48.9282 67.569)" fill="white"/>
<circle cx="54.6506" cy="43.4805" r="3" transform="rotate(-120 54.6506 43.4805)" fill="#0FAF4D"/>
<circle opacity="0.3" r="9" transform="matrix(0.5 -0.866025 -0.866025 -0.5 299.113 33.2942)" fill="#C4C1FA"/>
<circle opacity="0.8" r="6" transform="matrix(0.5 -0.866025 -0.866025 -0.5 280.479 67.569)" fill="white"/>
<circle r="3" transform="matrix(0.5 -0.866025 -0.866025 -0.5 274.756 43.4805)" fill="#0FAF4D"/>
<circle opacity="0.3" cx="59.3842" cy="121.34" r="9" transform="rotate(15 59.3842 121.34)" fill="#C4C1FA"/>
<circle opacity="0.8" cx="21.9719" cy="110.28" r="6" transform="rotate(15 21.9719 110.28)" fill="white"/>
<circle cx="34.9587" cy="131.36" r="3" transform="rotate(15 34.9587 131.36)" fill="#0FAF4D"/>
<circle opacity="0.3" r="9" transform="matrix(-0.965926 0.258819 0.258819 0.965926 270.023 121.34)" fill="#C4C1FA"/>
<circle opacity="0.8" r="6" transform="matrix(-0.965926 0.258819 0.258819 0.965926 307.435 110.28)" fill="white"/>
<circle r="3" transform="matrix(-0.965926 0.258819 0.258819 0.965926 294.448 131.36)" fill="#0FAF4D"/>
<path opacity="0.3" d="M246.164 45.273V47.8137H82V45.273C82 43.566 82.6756 41.9284 83.8792 40.7181C85.0829 39.5077 86.7167 38.823 88.4236 38.8135H239.769C240.614 38.8163 241.449 38.9858 242.228 39.3122C243.007 39.6386 243.714 40.1155 244.308 40.7156C244.902 41.3157 245.372 42.0272 245.69 42.8093C246.009 43.5913 246.17 44.4285 246.164 45.273Z" fill="white"/>
<path opacity="0.2" d="M239.741 38.8496H88.4236C84.8759 38.8496 82 41.7256 82 45.2732V130.101C82 133.648 84.8759 136.524 88.4236 136.524H239.741C243.288 136.524 246.164 133.648 246.164 130.101V45.2732C246.164 41.7256 243.288 38.8496 239.741 38.8496Z" stroke="white" stroke-width="1.0631" stroke-miterlimit="10"/>
<path d="M100.438 43.3283C100.44 43.6537 100.344 43.9721 100.165 44.2434C99.985 44.5146 99.7288 44.7264 99.4286 44.8519C99.1284 44.9774 98.7977 45.0109 98.4784 44.9483C98.1591 44.8857 97.8656 44.7298 97.635 44.5002C97.4045 44.2706 97.2472 43.9778 97.1832 43.6588C97.1192 43.3398 97.1513 43.0089 97.2755 42.7082C97.3997 42.4074 97.6104 42.1503 97.8808 41.9694C98.1512 41.7885 98.4693 41.6919 98.7947 41.6919C99.2293 41.6919 99.6463 41.8641 99.9543 42.1707C100.262 42.4774 100.436 42.8936 100.438 43.3283Z" fill="white"/>
<path d="M109.015 43.3283C109.016 43.6537 108.921 43.9721 108.742 44.2434C108.562 44.5146 108.306 44.7264 108.005 44.8519C107.705 44.9774 107.374 45.0109 107.055 44.9483C106.736 44.8857 106.442 44.7298 106.212 44.5002C105.981 44.2706 105.824 43.9778 105.76 43.6588C105.696 43.3398 105.728 43.0089 105.852 42.7082C105.976 42.4074 106.187 42.1503 106.458 41.9694C106.728 41.7885 107.046 41.6919 107.371 41.6919C107.806 41.6919 108.223 41.8641 108.531 42.1707C108.839 42.4774 109.013 42.8936 109.015 43.3283Z" fill="white"/>
<path d="M115.948 44.9717C116.856 44.9717 117.592 44.2359 117.592 43.3282C117.592 42.4204 116.856 41.6846 115.948 41.6846C115.04 41.6846 114.305 42.4204 114.305 43.3282C114.305 44.2359 115.04 44.9717 115.948 44.9717Z" fill="white"/>
<path d="M94.7754 79.0781H139.611" stroke="#131313" stroke-linecap="round" stroke-linejoin="round"/>
<path d="M103.309 73.8027H98.1057V79.0062H103.309V73.8027Z" fill="#04B94A" stroke="#131313" stroke-miterlimit="10"/>
<path d="M110.924 66.9629H105.721V79.078H110.924V66.9629Z" fill="white" stroke="#131313" stroke-width="1.0631" stroke-linecap="round" stroke-linejoin="round"/>
<path d="M119.501 69.0439H114.297V79.1997H119.501V69.0439Z" fill="#04B94A" stroke="#131313" stroke-miterlimit="10"/>
<path d="M128.515 58.9316H123.312V78.8484H128.515V58.9316Z" fill="white" stroke="#131313" stroke-width="1.0631" stroke-linecap="round" stroke-linejoin="round"/>
<path d="M137.523 59.0894H132.319V79.0061H137.523V59.0894Z" fill="#04B94A" stroke="#131313" stroke-miterlimit="10"/>
<path opacity="0.3" d="M90.5265 96.6621H94.7754" stroke="white" stroke-width="1.0631" stroke-miterlimit="10"/>
<path opacity="0.3" d="M90.5265 104.873H94.7754" stroke="white" stroke-width="1.0631" stroke-miterlimit="10"/>
<path opacity="0.3" d="M90.5265 113.091H94.7754" stroke="white" stroke-width="1.0631" stroke-miterlimit="10"/>
<path opacity="0.3" d="M90.5265 121.301H94.7754" stroke="white" stroke-width="1.0631" stroke-miterlimit="10"/>
<path opacity="0.3" d="M104.142 127.503V124.201" stroke="white" stroke-width="1.0631" stroke-miterlimit="10"/>
<path opacity="0.3" d="M110.874 127.503V124.201" stroke="white" stroke-width="1.0631" stroke-miterlimit="10"/>
<path opacity="0.3" d="M117.606 127.503V124.201" stroke="white" stroke-width="1.0631" stroke-miterlimit="10"/>
<path opacity="0.3" d="M124.346 127.503V124.201" stroke="white" stroke-width="1.0631" stroke-miterlimit="10"/>
<path opacity="0.3" d="M131.078 127.503V124.201" stroke="white" stroke-width="1.0631" stroke-miterlimit="10"/>
<path opacity="0.3" d="M137.81 127.503V124.201" stroke="white" stroke-width="1.0631" stroke-miterlimit="10"/>
<path opacity="0.3" d="M144.542 127.503V124.201" stroke="white" stroke-width="1.0631" stroke-miterlimit="10"/>
<path opacity="0.3" d="M151.282 127.503V124.201" stroke="white" stroke-width="1.0631" stroke-miterlimit="10"/>
<path d="M158.014 127.503V124.201" stroke="#263238" stroke-linecap="round" stroke-linejoin="round"/>
<path d="M164.746 127.503V124.201" stroke="#263238" stroke-linecap="round" stroke-linejoin="round"/>
<path d="M171.478 127.503V124.201" stroke="#263238" stroke-linecap="round" stroke-linejoin="round"/>
<path d="M178.218 127.503V124.201" stroke="#263238" stroke-linecap="round" stroke-linejoin="round"/>
<path d="M184.95 127.503V124.201" stroke="#263238" stroke-linecap="round" stroke-linejoin="round"/>
<path d="M191.682 127.503V124.201" stroke="#263238" stroke-linecap="round" stroke-linejoin="round"/>
<path opacity="0.3" d="M198.414 127.503V124.201" stroke="white" stroke-width="1.0631" stroke-miterlimit="10"/>
<path opacity="0.3" d="M204.895 127.503V124.201" stroke="white" stroke-width="1.0631" stroke-miterlimit="10"/>
<path opacity="0.3" d="M211.376 127.503V124.201" stroke="white" stroke-width="1.0631" stroke-miterlimit="10"/>
<path opacity="0.3" d="M217.85 127.503V124.201" stroke="white" stroke-width="1.0631" stroke-miterlimit="10"/>
<path d="M197.051 29.835L154.109 87.6833L137.688 109.803L119.745 98.3773L97.7898 127.502H97.474C96.7856 127.503 96.109 127.324 95.5111 126.983C94.9131 126.642 94.4146 126.15 94.0648 125.557L118.733 92.8222L136.676 104.227L148.956 87.7192L193.735 27.4307L197.051 29.835Z" fill="#5D55E2"/>
<path d="M185.156 32.5672L200.938 23L196.574 39.5506L193.79 31.8926L185.156 32.5672Z" fill="#5D55E2"/>
<path d="M194.051 29.835L151.109 87.6833L134.688 109.803L116.745 98.3773L94.7898 127.502H94.474C93.7856 127.503 93.109 127.324 92.5111 126.983C91.9131 126.642 91.4146 126.15 91.0648 125.557L115.733 92.8222L133.676 104.227L145.956 87.7192L190.735 27.4307L194.051 29.835Z" fill="white"/>
<path d="M183.156 30.5672L198.938 21L194.574 37.5506L191.79 29.8926L183.156 30.5672Z" fill="white"/>
<path d="M201.856 109.79C201.854 115.68 199.858 121.396 196.191 126.007C192.525 130.617 187.405 133.849 181.666 135.176H181.587C180.905 135.326 180.223 135.463 179.52 135.563C178.286 135.739 177.041 135.828 175.795 135.829C168.983 135.804 162.451 133.114 157.598 128.333C152.746 123.552 149.958 117.061 149.832 110.25C149.707 103.438 152.253 96.849 156.926 91.8921C161.599 86.9353 168.027 84.0053 174.833 83.7295C175.07 83.7295 175.321 83.7295 175.551 83.7295C175.627 83.7223 175.704 83.7223 175.781 83.7295C175.869 83.7223 175.958 83.7223 176.046 83.7295C179.562 83.7522 183.036 84.4973 186.252 85.9185C190.891 87.9509 194.838 91.291 197.609 95.5305C200.38 99.77 201.856 104.725 201.856 109.79Z" fill="#04B94A"/>
<g clip-path="url(#clip0)">
<path d="M176.223 97.8778L185.557 108.288L180.601 114.215L176.223 97.8778Z" fill="#EBEAFB" stroke="black" stroke-width="0.7"/>
<path d="M180.044 114.254L172.963 111.662L175.772 98.3097L177.976 106.536L180.044 114.254Z" fill="#EBEAFB" stroke="black" stroke-width="0.7"/>
<path d="M182.681 121.723L181.28 116.495L185.646 111.279L182.681 121.723Z" fill="#EBEAFB" stroke="black" stroke-width="0.7"/>
<path d="M174.385 114.297L180.671 116.595L182.051 121.743L174.385 114.297Z" fill="#EBEAFB" stroke="black" stroke-width="0.7"/>
<path d="M178.804 106.922L185.388 108.489L180.72 114.072L178.804 106.922Z" fill="#EBEAFB" stroke="black" stroke-width="0.7"/>
<path d="M178.128 107.104L180.044 114.254L173.21 111.753L178.128 107.104Z" fill="#EBEAFB" stroke="black" stroke-width="0.7"/>
</g>
<path opacity="0.4" d="M186.267 85.9257C156.173 84.361 156.029 117.771 156.029 117.771C156.029 117.771 151.436 106.869 158.936 94.8039C163.127 88.0501 170.419 85.0716 176.061 83.751C179.576 83.7691 183.05 84.5093 186.267 85.9257Z" fill="white"/>
<path d="M201.856 109.791C201.855 115.696 199.85 121.425 196.167 126.041C192.485 130.657 187.344 133.886 181.587 135.198C179.688 135.635 177.744 135.855 175.795 135.851C168.883 135.979 162.204 133.356 157.227 128.558C152.249 123.761 149.381 117.183 149.254 110.272C149.126 103.36 151.75 96.6809 156.547 91.7034C161.344 86.726 167.922 83.858 174.833 83.7305C175.149 83.7305 175.472 83.7305 175.795 83.7305C182.706 83.7324 189.334 86.4786 194.22 91.3655C199.107 96.2524 201.854 102.88 201.856 109.791V109.791Z" stroke="#263238" stroke-linecap="round" stroke-linejoin="round"/>
<path d="M201.855 109.79C201.855 115.695 199.85 121.424 196.167 126.04C192.485 130.656 187.344 133.885 181.587 135.197C181.271 135.197 180.948 135.197 180.625 135.197C174.228 135.18 168.061 132.812 163.297 128.543C158.533 124.274 155.505 118.402 154.79 112.045C154.075 105.688 155.722 99.2901 159.418 94.0689C163.113 88.8477 168.6 85.1677 174.833 83.7295C175.149 83.7295 175.472 83.7295 175.795 83.7295C182.706 83.7314 189.334 86.4776 194.22 91.3645C199.107 96.2514 201.854 102.879 201.855 109.79V109.79Z" stroke="#263238" stroke-linecap="round" stroke-linejoin="round"/>
<path d="M162.474 132.197L167.979 131.946" stroke="#263238" stroke-linecap="round" stroke-linejoin="round"/>
<path d="M159.826 130.367L164.627 129.958" stroke="#263238" stroke-linecap="round" stroke-linejoin="round"/>
<path d="M157.673 128.436L162.474 128.027" stroke="#263238" stroke-linecap="round" stroke-linejoin="round"/>
<path d="M157.012 91.7178H161.125" stroke="#263238" stroke-linecap="round" stroke-linejoin="round"/>
<path d="M159.044 89.8228L163.142 89.6362" stroke="#263238" stroke-linecap="round" stroke-linejoin="round"/>
<path d="M161.613 87.9208L165.934 87.5117" stroke="#263238" stroke-linecap="round" stroke-linejoin="round"/>
<path opacity="0.3" d="M181.666 135.176H181.587C179.688 135.613 177.744 135.832 175.795 135.829C168.983 135.804 162.451 133.114 157.598 128.333C152.746 123.552 149.958 117.061 149.832 110.25C149.707 103.439 152.253 96.849 156.926 91.8922C161.599 86.9353 168.027 84.0053 174.833 83.7295C175.07 83.7295 175.321 83.7295 175.551 83.7295C169.199 85.7319 158.541 90.8493 155.692 101.522C151.665 116.687 160.73 133.905 181.666 135.176Z" fill="#131313"/>
<path d="M225.176 78.7081C223.113 81.6229 220.122 83.752 216.692 84.7479C213.263 85.7438 209.597 85.5477 206.293 84.1915L206.2 84.1485C205.71 83.933 205.231 83.6935 204.764 83.4307C204.238 83.1476 203.729 82.8311 203.243 82.4833C200.063 80.0553 197.924 76.511 197.257 72.5665C196.591 68.622 197.446 64.5714 199.65 61.2331C201.855 57.8949 205.244 55.5179 209.134 54.5824C213.023 53.6469 217.123 54.2226 220.604 56.1932L220.956 56.4157C221.121 56.509 221.279 56.6239 221.444 56.7387C221.609 56.8535 221.925 57.0904 222.162 57.277C225.299 59.7934 227.358 63.4122 227.918 67.3949C228.478 71.3776 227.498 75.4239 225.176 78.7081Z" fill="#04B94A"/>
<g clip-path="url(#clip1)">
<path d="M212.509 73.0508L217.966 63.5997L217.474 72.6076L212.509 73.0508Z" fill="#EBEAFB" stroke="black" stroke-width="0.7"/>
<path d="M212.03 72.6897L209.984 68.2834L217.347 63.4802L214.66 68.1335L212.03 72.6897Z" fill="#EBEAFB" stroke="black" stroke-width="0.7"/>
<path d="M211.599 74.7176L215.668 74.3566L209.973 77.5334L211.599 74.7176Z" fill="#EBEAFB" stroke="black" stroke-width="0.7"/>
<path d="M209.375 70.7234L211.065 74.3612L209.468 77.1271L209.375 70.7234Z" fill="#EBEAFB" stroke="black" stroke-width="0.7"/>
<path d="M214.973 68.9919L217.213 72.6312L212.636 73.0397L214.973 68.9919Z" fill="#EBEAFB" stroke="black" stroke-width="0.7"/>
<path d="M214.367 68.642L212.03 72.6898L210.095 68.5218L214.367 68.642Z" fill="#EBEAFB" stroke="black" stroke-width="0.7"/>
</g>
<path opacity="0.4" d="M201.391 78.9233C201.391 78.9233 198.814 71.337 202.237 65.7532C206.544 58.7554 213.14 55.5615 222.118 57.2841C222.118 57.2841 217.252 53.9969 209.106 56.3295C200.96 58.6621 196.589 69.8729 201.391 78.9233Z" fill="white"/>
<path d="M225.176 78.7157C223.111 81.628 220.119 83.7543 216.69 84.7475C213.26 85.7408 209.595 85.5424 206.293 84.1848C205.203 83.7395 204.168 83.1712 203.207 82.491C200.008 80.0368 197.868 76.4517 197.228 72.4707C196.587 68.4898 197.494 64.4147 199.762 61.0809C202.03 57.7472 205.488 55.4074 209.426 54.5414C213.364 53.6754 217.484 54.3487 220.942 56.4233C221.1 56.5166 221.265 56.6243 221.423 56.7391C224.829 59.1599 227.137 62.8324 227.841 66.9518C228.544 71.0712 227.586 75.3015 225.176 78.7157Z" stroke="#263238" stroke-linecap="round" stroke-linejoin="round"/>
<path d="M225.176 78.7151C223.11 81.6273 220.119 83.7536 216.689 84.7468C213.26 85.7401 209.595 85.5417 206.292 84.1841L205.812 83.8683C202.694 81.6081 200.509 78.2863 199.669 74.5279C198.829 70.7695 199.391 66.8337 201.251 63.4611C203.11 60.0884 206.137 57.5115 209.764 56.2153C213.39 54.919 217.365 54.9928 220.941 56.4226C221.099 56.5159 221.264 56.6236 221.422 56.7384C224.829 59.1592 227.137 62.8317 227.84 66.9511C228.544 71.0705 227.586 75.3008 225.176 78.7151Z" stroke="#263238" stroke-linecap="round" stroke-linejoin="round"/>
<path opacity="0.3" d="M220.568 56.201C216.262 55.433 210.807 55.0096 207.864 56.9187C202.46 60.3853 199.094 64.7562 199.144 71.8401C199.194 78.924 205.812 83.8907 205.812 83.8907L206.199 84.1706C205.144 83.7297 204.14 83.1737 203.206 82.5126C200.027 80.0846 197.888 76.5402 197.221 72.5957C196.554 68.6512 197.409 64.6007 199.614 61.2624C201.818 57.9242 205.208 55.5472 209.097 54.6117C212.987 53.6762 217.087 54.2519 220.568 56.2225V56.201Z" fill="black"/>
<path d="M252.134 36.1528C253.36 38.8192 253.647 41.8228 252.946 44.6731C252.246 47.5233 250.6 50.0519 248.277 51.8461L248.208 51.8948C247.853 52.1551 247.486 52.3976 247.107 52.6216C246.689 52.8801 246.255 53.1118 245.808 53.3152C242.773 54.5804 239.371 54.6465 236.29 53.5002C233.208 52.3539 230.677 50.0807 229.207 47.1399C227.737 44.199 227.438 40.8098 228.37 37.657C229.303 34.5042 231.397 31.8229 234.23 30.1548L234.533 29.9959C234.667 29.9168 234.814 29.8516 234.963 29.7813C235.113 29.7109 235.411 29.5835 235.642 29.4916C238.722 28.2927 242.143 28.3144 245.208 29.5523C248.273 30.7901 250.75 33.1509 252.134 36.1528Z" fill="#04B94A"/>
<path opacity="0.4" d="M242.513 53.1709C242.513 53.1709 236.054 51.8874 233.487 47.1562C230.276 41.2156 230.713 35.2085 235.629 29.5258C235.629 29.5258 231.289 31.6385 229.602 38.395C227.915 45.1515 234.098 52.8693 242.513 53.1709Z" fill="white"/>
<path d="M252.139 36.156C253.363 38.8229 253.647 41.8259 252.945 44.675C252.242 47.5241 250.595 50.051 248.272 51.8435C247.507 52.4362 246.677 52.9396 245.798 53.344C242.737 54.6126 239.306 54.6619 236.209 53.4819C233.113 52.3018 230.585 49.9818 229.144 46.9976C227.703 44.0134 227.459 40.591 228.461 37.4323C229.463 34.2735 231.635 31.6177 234.532 30.0094C234.663 29.9354 234.808 29.8621 234.955 29.7969C238.077 28.367 241.64 28.2335 244.861 29.4254C248.082 30.6174 250.699 33.0378 252.139 36.156Z" stroke="#263238" stroke-linecap="round" stroke-linejoin="round"/>
<path d="M252.139 36.1564C253.363 38.8233 253.647 41.8263 252.944 44.6753C252.242 47.5244 250.595 50.0514 248.272 51.8438L247.849 52.0563C244.959 53.3469 241.697 53.5367 238.677 52.5902C235.657 51.6436 233.087 49.6259 231.45 46.9167C229.814 44.2076 229.224 40.9937 229.791 37.88C230.359 34.7662 232.045 31.9673 234.532 30.0098C234.663 29.9357 234.808 29.8625 234.954 29.7973C238.077 28.3674 241.639 28.2338 244.861 29.4258C248.082 30.6178 250.699 33.0381 252.139 36.1564Z" stroke="#263238" stroke-linecap="round" stroke-linejoin="round"/>
<path opacity="0.3" d="M234.221 30.184C231.905 32.9335 229.362 36.6418 229.512 39.5208C229.758 44.7919 231.486 48.9838 236.549 51.859C241.611 54.7342 247.865 52.0652 247.865 52.0652L248.224 51.9044C247.476 52.4746 246.668 52.9605 245.814 53.3533C242.779 54.6185 239.378 54.6846 236.296 53.5383C233.215 52.392 230.683 50.1188 229.213 47.178C227.743 44.2371 227.444 40.8479 228.376 37.6951C229.309 34.5423 231.403 31.861 234.237 30.1929L234.221 30.184Z" fill="black"/>
<g clip-path="url(#clip2)">
<path d="M243.433 42.8068L237.976 33.3557L245.532 38.2849L243.433 42.8068Z" fill="#EBEAFB" stroke="black" stroke-width="0.7"/>
<path d="M242.88 43.041L238.042 42.6091L237.563 33.8315L240.25 38.4848L242.88 43.041Z" fill="#EBEAFB" stroke="black" stroke-width="0.7"/>
<path d="M244.422 44.4277L246.143 40.7231L246.047 47.2435L244.422 44.4277Z" fill="#EBEAFB" stroke="black" stroke-width="0.7"/>
<path d="M239.85 44.3569L243.845 44.7125L245.442 47.4784L239.85 44.3569Z" fill="#EBEAFB" stroke="black" stroke-width="0.7"/>
<path d="M241.15 38.6429L245.421 38.5228L243.487 42.6907L241.15 38.6429Z" fill="#EBEAFB" stroke="black" stroke-width="0.7"/>
<path d="M240.543 38.9934L242.88 43.0411L238.303 42.6326L240.543 38.9934Z" fill="#EBEAFB" stroke="black" stroke-width="0.7"/>
</g>
<defs>
<clipPath id="clip0">
<rect width="13.9407" height="27" fill="white" transform="translate(169 98.6079) rotate(-15)"/>
</clipPath>
<clipPath id="clip1">
<rect width="9.55007" height="18.4963" fill="white" transform="translate(214.248 60) rotate(30)"/>
</clipPath>
<clipPath id="clip2">
<rect width="9.55007" height="18.4963" fill="white" transform="translate(233 34.7749) rotate(-30)"/>
</clipPath>
</defs>
</svg>
