<svg width="328" height="158" viewBox="0 0 328 158" fill="none" xmlns="http://www.w3.org/2000/svg">
<rect x="6.10352e-05" width="328" height="158" rx="12" fill="#342BDB"/>
<circle opacity="0.3" cx="31.0227" cy="29.0222" r="9" transform="rotate(-105 31.0227 29.0222)" fill="#C4C1FA"/>
<circle opacity="0.8" cx="162.349" cy="32.3483" r="6" transform="rotate(-105 162.349 32.3483)" fill="white"/>
<circle cx="24.6743" cy="57.6739" r="3" transform="rotate(-105 24.6743 57.6739)" fill="#0FAF4D"/>
<circle opacity="0.3" r="9" transform="matrix(0.258819 -0.965926 -0.965926 -0.258819 232.023 31.0222)" fill="#C4C1FA"/>
<circle opacity="0.8" r="6" transform="matrix(0.258819 -0.965926 -0.965926 -0.258819 273.348 44.3478)" fill="white"/>
<circle r="3" transform="matrix(0.258819 -0.965926 -0.965926 -0.258819 299.674 22.6739)" fill="#0FAF4D"/>
<circle opacity="0.3" cx="33.2942" cy="105.294" r="9" transform="rotate(-150 33.2942 105.294)" fill="#C4C1FA"/>
<circle opacity="0.8" cx="82.1961" cy="119.196" r="6" transform="rotate(-150 82.1961 119.196)" fill="white"/>
<circle cx="57.0981" cy="130.098" r="3" transform="rotate(-150 57.0981 130.098)" fill="#0FAF4D"/>
<circle opacity="0.3" r="9" transform="matrix(0.866025 -0.5 -0.5 -0.866025 298.294 83.2942)" fill="#C4C1FA"/>
<circle opacity="0.8" r="6" transform="matrix(0.866025 -0.5 -0.5 -0.866025 264.696 134.687)" fill="white"/>
<circle r="3" transform="matrix(0.866025 -0.5 -0.5 -0.866025 301.098 128.098)" fill="#0FAF4D"/>
<path d="M259.251 65.2852H151.709C147.786 65.2852 144.606 68.4652 144.606 72.3879V96.2601C144.606 100.183 147.786 103.363 151.709 103.363H259.251C263.174 103.363 266.354 100.183 266.354 96.2601V72.3879C266.354 68.4652 263.174 65.2852 259.251 65.2852Z" stroke="white" stroke-width="1.0631" stroke-miterlimit="10"/>
<path opacity="0.5" d="M165.915 84.1562H248.888" stroke="white" stroke-width="1.02934" stroke-linecap="round" stroke-linejoin="round"/>
<path opacity="0.5" d="M163.326 84.1561L176.43 74.9199H209.804L223.421 84.1561" stroke="white" stroke-width="1.02934" stroke-linecap="round" stroke-linejoin="round"/>
<path d="M226.003 84.1565C226.003 84.6689 225.851 85.1697 225.567 85.5957C225.282 86.0216 224.877 86.3534 224.404 86.5492C223.93 86.745 223.409 86.7959 222.907 86.6955C222.404 86.5951 221.943 86.3478 221.581 85.9851C221.219 85.6224 220.973 85.1604 220.874 84.6578C220.775 84.1551 220.827 83.6343 221.024 83.1613C221.221 82.6883 221.554 82.2844 221.98 82.0007C222.407 81.7169 222.908 81.5661 223.421 81.5674C224.106 81.5691 224.763 81.8426 225.247 82.328C225.731 82.8133 226.003 83.471 226.003 84.1565Z" fill="#04B94A" stroke="white" stroke-width="1.02934" stroke-miterlimit="10"/>
<path d="M176.43 77.5089C177.86 77.5089 179.019 76.3497 179.019 74.9197C179.019 73.4898 177.86 72.3306 176.43 72.3306C175 72.3306 173.84 73.4898 173.84 74.9197C173.84 76.3497 175 77.5089 176.43 77.5089Z" fill="#04B94A" stroke="white" stroke-width="1.02934" stroke-miterlimit="10"/>
<path d="M212.387 74.9202C212.388 75.4329 212.237 75.9343 211.953 76.3611C211.669 76.7878 211.265 77.1207 210.791 77.3174C210.318 77.5142 209.797 77.566 209.294 77.4663C208.791 77.3666 208.329 77.1199 207.967 76.7574C207.604 76.3949 207.358 75.933 207.258 75.4301C207.158 74.9273 207.21 74.4062 207.407 73.9328C207.603 73.4594 207.936 73.0551 208.363 72.7711C208.79 72.4871 209.291 72.3362 209.804 72.3374C210.488 72.3391 211.144 72.6117 211.628 73.0957C212.112 73.5798 212.385 74.2357 212.387 74.9202Z" fill="#04B94A" stroke="white" stroke-width="1.02934" stroke-miterlimit="10"/>
<path opacity="0.5" d="M163.326 84.1562L176.43 93.3924H237.936L248.888 84.1562" stroke="white" stroke-width="1.02934" stroke-linecap="round" stroke-linejoin="round"/>
<path d="M199.055 93.3924C199.055 93.9045 198.903 94.4051 198.618 94.8308C198.334 95.2566 197.929 95.5885 197.456 95.7844C196.983 95.9804 196.463 96.0317 195.96 95.9318C195.458 95.8319 194.997 95.5853 194.635 95.2232C194.273 94.8611 194.026 94.3997 193.926 93.8975C193.826 93.3953 193.877 92.8747 194.073 92.4016C194.269 91.9284 194.601 91.5241 195.027 91.2396C195.453 90.9551 195.953 90.8032 196.465 90.8032C197.152 90.8032 197.811 91.076 198.296 91.5616C198.782 92.0471 199.055 92.7057 199.055 93.3924Z" fill="#04B94A" stroke="white" stroke-width="1.02934" stroke-miterlimit="10"/>
<path d="M179.019 93.3924C179.019 93.9045 178.867 94.4051 178.582 94.8308C178.298 95.2566 177.894 95.5885 177.42 95.7844C176.947 95.9804 176.427 96.0317 175.924 95.9318C175.422 95.8319 174.961 95.5853 174.599 95.2232C174.237 94.8611 173.99 94.3997 173.89 93.8975C173.79 93.3953 173.842 92.8747 174.038 92.4016C174.234 91.9284 174.565 91.5241 174.991 91.2396C175.417 90.9551 175.918 90.8032 176.43 90.8032C177.116 90.8032 177.775 91.076 178.26 91.5616C178.746 92.0471 179.019 92.7057 179.019 93.3924Z" fill="#04B94A" stroke="white" stroke-width="1.02934" stroke-miterlimit="10"/>
<path d="M240.525 93.3924C240.525 93.9045 240.374 94.4051 240.089 94.8308C239.805 95.2566 239.4 95.5885 238.927 95.7844C238.454 95.9804 237.933 96.0317 237.431 95.9318C236.929 95.8319 236.468 95.5853 236.106 95.2232C235.743 94.8611 235.497 94.3997 235.397 93.8975C235.297 93.3953 235.348 92.8747 235.544 92.4016C235.74 91.9284 236.072 91.5241 236.498 91.2396C236.924 90.9551 237.424 90.8032 237.936 90.8032C238.623 90.8032 239.282 91.076 239.767 91.5616C240.253 92.0471 240.525 92.7057 240.525 93.3924Z" fill="#04B94A" stroke="white" stroke-width="1.02934" stroke-miterlimit="10"/>
<path d="M248.888 86.7457C250.318 86.7457 251.477 85.5865 251.477 84.1565C251.477 82.7266 250.318 81.5674 248.888 81.5674C247.458 81.5674 246.299 82.7266 246.299 84.1565C246.299 85.5865 247.458 86.7457 248.888 86.7457Z" fill="#04B94A" stroke="white" stroke-width="1.02934" stroke-miterlimit="10"/>
<path d="M165.915 84.1565C165.915 84.6689 165.763 85.1697 165.478 85.5957C165.193 86.0216 164.788 86.3534 164.315 86.5492C163.841 86.745 163.321 86.7959 162.818 86.6955C162.316 86.5951 161.854 86.3478 161.492 85.9851C161.131 85.6224 160.885 85.1604 160.785 84.6578C160.686 84.1551 160.738 83.6343 160.935 83.1613C161.132 82.6883 161.465 82.2844 161.892 82.0007C162.318 81.7169 162.82 81.5661 163.332 81.5674C164.017 81.5691 164.674 81.8426 165.159 82.328C165.643 82.8133 165.915 83.471 165.915 84.1565Z" fill="#04B94A" stroke="white" stroke-width="1.02934" stroke-miterlimit="10"/>
<path d="M166.174 55.8481H104.218C100.295 55.8481 97.1153 59.0282 97.1153 62.9509V124.907C97.1153 128.83 100.295 132.01 104.218 132.01H166.174C170.097 132.01 173.277 128.83 173.277 124.907V62.9509C173.277 59.0282 170.097 55.8481 166.174 55.8481Z" fill="#342BDB" stroke="white" stroke-width="1.0631" stroke-miterlimit="10"/>
<path opacity="0.5" d="M125.672 99.332L115.809 118.507H160.515" stroke="white" stroke-width="1.02934" stroke-linecap="round" stroke-linejoin="round"/>
<path opacity="0.5" d="M160.515 70.3643L139.65 84.2343L160.515 90.5141" stroke="white" stroke-width="1.02934" stroke-linecap="round" stroke-linejoin="round"/>
<path d="M165.446 65.4321H155.583V75.295H165.446V65.4321Z" fill="#04B94A" stroke="white" stroke-width="1.02934" stroke-miterlimit="10"/>
<path d="M165.446 85.5825H155.583V95.4454H165.446V85.5825Z" fill="#04B94A" stroke="white" stroke-width="1.02934" stroke-miterlimit="10"/>
<path d="M144.581 79.3022H134.718V89.1651H144.581V79.3022Z" fill="#04B94A" stroke="white" stroke-width="1.02934" stroke-miterlimit="10"/>
<path d="M130.603 94.4004H120.741V104.263H130.603V94.4004Z" fill="#04B94A" stroke="white" stroke-width="1.02934" stroke-miterlimit="10"/>
<path d="M120.741 113.569H110.878V123.432H120.741V113.569Z" fill="#04B94A" stroke="white" stroke-width="1.02934" stroke-miterlimit="10"/>
<path d="M165.446 113.569H155.583V123.432H165.446V113.569Z" fill="#04B94A" stroke="white" stroke-width="1.02934" stroke-miterlimit="10"/>
<path d="M130.059 26H68.1028C64.1801 26 61.0001 29.18 61.0001 33.1028V95.0589C61.0001 98.9817 64.1801 102.162 68.1028 102.162H130.059C133.982 102.162 137.162 98.9817 137.162 95.0589V33.1028C137.162 29.18 133.982 26 130.059 26Z" fill="#342BDB" stroke="white" stroke-width="1.0631" stroke-miterlimit="10"/>
<path d="M120 42H69.0001V45H120V42Z" fill="#716BE6"/>
<path d="M98.0001 47H69.0001V50H98.0001V47Z" fill="#716BE6"/>
<path d="M86.0001 52H69.0001V55H86.0001V52Z" fill="#716BE6"/>
<path d="M97.0001 57H69.0001V60H97.0001V57Z" fill="#716BE6"/>
<path d="M113 62H69.0001V65H113V62Z" fill="#716BE6"/>
<path d="M98.0001 67H69.0001V70H98.0001V67Z" fill="#716BE6"/>
<path d="M89.0001 72H69.0001V75H89.0001V72Z" fill="#716BE6"/>
<path d="M102 77H69.0001V80H102V77Z" fill="#716BE6"/>
<path d="M109 82H69.0001V85H109V82Z" fill="#716BE6"/>
<path d="M120 86H69.0001V89H120V86Z" fill="#716BE6"/>
</svg>
